<?xml version="1.0" encoding="utf-8" standalone="no"?>
<!DOCTYPE svg PUBLIC "-//W3C//DTD SVG 1.1//EN"
  "http://www.w3.org/Graphics/SVG/1.1/DTD/svg11.dtd">
<!-- Created with matplotlib (https://matplotlib.org/) -->
<svg height="345.6pt" version="1.1" viewBox="0 0 460.8 345.6" width="460.8pt" xmlns="http://www.w3.org/2000/svg" xmlns:xlink="http://www.w3.org/1999/xlink">
 <defs>
  <style type="text/css">
*{stroke-linecap:butt;stroke-linejoin:round;}
  </style>
 </defs>
 <g id="figure_1">
  <g id="patch_1">
   <path d="M 0 345.6 
L 460.8 345.6 
L 460.8 0 
L 0 0 
z
" style="fill:#ffffff;"/>
  </g>
  <g id="axes_1">
   <g id="patch_2">
    <path d="M 57.6 307.584 
L 414.72 307.584 
L 414.72 41.472 
L 57.6 41.472 
z
" style="fill:#ffffff;"/>
   </g>
   <g id="matplotlib.axis_1">
    <g id="xtick_1">
     <g id="line2d_1">
      <defs>
       <path d="M 0 0 
L 0 3.5 
" id="m6cf0fc6113" style="stroke:#000000;stroke-width:0.8;"/>
      </defs>
      <g>
       <use style="stroke:#000000;stroke-width:0.8;" x="73.832727" xlink:href="#m6cf0fc6113" y="307.584"/>
      </g>
     </g>
     <g id="text_1">
      <!-- 0 -->
      <defs>
       <path d="M 31.78125 66.40625 
Q 24.171875 66.40625 20.328125 58.90625 
Q 16.5 51.421875 16.5 36.375 
Q 16.5 21.390625 20.328125 13.890625 
Q 24.171875 6.390625 31.78125 6.390625 
Q 39.453125 6.390625 43.28125 13.890625 
Q 47.125 21.390625 47.125 36.375 
Q 47.125 51.421875 43.28125 58.90625 
Q 39.453125 66.40625 31.78125 66.40625 
z
M 31.78125 74.21875 
Q 44.046875 74.21875 50.515625 64.515625 
Q 56.984375 54.828125 56.984375 36.375 
Q 56.984375 17.96875 50.515625 8.265625 
Q 44.046875 -1.421875 31.78125 -1.421875 
Q 19.53125 -1.421875 13.0625 8.265625 
Q 6.59375 17.96875 6.59375 36.375 
Q 6.59375 54.828125 13.0625 64.515625 
Q 19.53125 74.21875 31.78125 74.21875 
z
" id="DejaVuSans-48"/>
      </defs>
      <g transform="translate(70.651477 322.182437)scale(0.1 -0.1)">
       <use xlink:href="#DejaVuSans-48"/>
      </g>
     </g>
    </g>
    <g id="xtick_2">
     <g id="line2d_2">
      <g>
       <use style="stroke:#000000;stroke-width:0.8;" x="138.828632" xlink:href="#m6cf0fc6113" y="307.584"/>
      </g>
     </g>
     <g id="text_2">
      <!-- 200 -->
      <defs>
       <path d="M 19.1875 8.296875 
L 53.609375 8.296875 
L 53.609375 0 
L 7.328125 0 
L 7.328125 8.296875 
Q 12.9375 14.109375 22.625 23.890625 
Q 32.328125 33.6875 34.8125 36.53125 
Q 39.546875 41.84375 41.421875 45.53125 
Q 43.3125 49.21875 43.3125 52.78125 
Q 43.3125 58.59375 39.234375 62.25 
Q 35.15625 65.921875 28.609375 65.921875 
Q 23.96875 65.921875 18.8125 64.3125 
Q 13.671875 62.703125 7.8125 59.421875 
L 7.8125 69.390625 
Q 13.765625 71.78125 18.9375 73 
Q 24.125 74.21875 28.421875 74.21875 
Q 39.75 74.21875 46.484375 68.546875 
Q 53.21875 62.890625 53.21875 53.421875 
Q 53.21875 48.921875 51.53125 44.890625 
Q 49.859375 40.875 45.40625 35.40625 
Q 44.1875 33.984375 37.640625 27.21875 
Q 31.109375 20.453125 19.1875 8.296875 
z
" id="DejaVuSans-50"/>
      </defs>
      <g transform="translate(129.284882 322.182437)scale(0.1 -0.1)">
       <use xlink:href="#DejaVuSans-50"/>
       <use x="63.623047" xlink:href="#DejaVuSans-48"/>
       <use x="127.246094" xlink:href="#DejaVuSans-48"/>
      </g>
     </g>
    </g>
    <g id="xtick_3">
     <g id="line2d_3">
      <g>
       <use style="stroke:#000000;stroke-width:0.8;" x="203.824537" xlink:href="#m6cf0fc6113" y="307.584"/>
      </g>
     </g>
     <g id="text_3">
      <!-- 400 -->
      <defs>
       <path d="M 37.796875 64.3125 
L 12.890625 25.390625 
L 37.796875 25.390625 
z
M 35.203125 72.90625 
L 47.609375 72.90625 
L 47.609375 25.390625 
L 58.015625 25.390625 
L 58.015625 17.1875 
L 47.609375 17.1875 
L 47.609375 0 
L 37.796875 0 
L 37.796875 17.1875 
L 4.890625 17.1875 
L 4.890625 26.703125 
z
" id="DejaVuSans-52"/>
      </defs>
      <g transform="translate(194.280787 322.182437)scale(0.1 -0.1)">
       <use xlink:href="#DejaVuSans-52"/>
       <use x="63.623047" xlink:href="#DejaVuSans-48"/>
       <use x="127.246094" xlink:href="#DejaVuSans-48"/>
      </g>
     </g>
    </g>
    <g id="xtick_4">
     <g id="line2d_4">
      <g>
       <use style="stroke:#000000;stroke-width:0.8;" x="268.820442" xlink:href="#m6cf0fc6113" y="307.584"/>
      </g>
     </g>
     <g id="text_4">
      <!-- 600 -->
      <defs>
       <path d="M 33.015625 40.375 
Q 26.375 40.375 22.484375 35.828125 
Q 18.609375 31.296875 18.609375 23.390625 
Q 18.609375 15.53125 22.484375 10.953125 
Q 26.375 6.390625 33.015625 6.390625 
Q 39.65625 6.390625 43.53125 10.953125 
Q 47.40625 15.53125 47.40625 23.390625 
Q 47.40625 31.296875 43.53125 35.828125 
Q 39.65625 40.375 33.015625 40.375 
z
M 52.59375 71.296875 
L 52.59375 62.3125 
Q 48.875 64.0625 45.09375 64.984375 
Q 41.3125 65.921875 37.59375 65.921875 
Q 27.828125 65.921875 22.671875 59.328125 
Q 17.53125 52.734375 16.796875 39.40625 
Q 19.671875 43.65625 24.015625 45.921875 
Q 28.375 48.1875 33.59375 48.1875 
Q 44.578125 48.1875 50.953125 41.515625 
Q 57.328125 34.859375 57.328125 23.390625 
Q 57.328125 12.15625 50.6875 5.359375 
Q 44.046875 -1.421875 33.015625 -1.421875 
Q 20.359375 -1.421875 13.671875 8.265625 
Q 6.984375 17.96875 6.984375 36.375 
Q 6.984375 53.65625 15.1875 63.9375 
Q 23.390625 74.21875 37.203125 74.21875 
Q 40.921875 74.21875 44.703125 73.484375 
Q 48.484375 72.75 52.59375 71.296875 
z
" id="DejaVuSans-54"/>
      </defs>
      <g transform="translate(259.276692 322.182437)scale(0.1 -0.1)">
       <use xlink:href="#DejaVuSans-54"/>
       <use x="63.623047" xlink:href="#DejaVuSans-48"/>
       <use x="127.246094" xlink:href="#DejaVuSans-48"/>
      </g>
     </g>
    </g>
    <g id="xtick_5">
     <g id="line2d_5">
      <g>
       <use style="stroke:#000000;stroke-width:0.8;" x="333.816347" xlink:href="#m6cf0fc6113" y="307.584"/>
      </g>
     </g>
     <g id="text_5">
      <!-- 800 -->
      <defs>
       <path d="M 31.78125 34.625 
Q 24.75 34.625 20.71875 30.859375 
Q 16.703125 27.09375 16.703125 20.515625 
Q 16.703125 13.921875 20.71875 10.15625 
Q 24.75 6.390625 31.78125 6.390625 
Q 38.8125 6.390625 42.859375 10.171875 
Q 46.921875 13.96875 46.921875 20.515625 
Q 46.921875 27.09375 42.890625 30.859375 
Q 38.875 34.625 31.78125 34.625 
z
M 21.921875 38.8125 
Q 15.578125 40.375 12.03125 44.71875 
Q 8.5 49.078125 8.5 55.328125 
Q 8.5 64.0625 14.71875 69.140625 
Q 20.953125 74.21875 31.78125 74.21875 
Q 42.671875 74.21875 48.875 69.140625 
Q 55.078125 64.0625 55.078125 55.328125 
Q 55.078125 49.078125 51.53125 44.71875 
Q 48 40.375 41.703125 38.8125 
Q 48.828125 37.15625 52.796875 32.3125 
Q 56.78125 27.484375 56.78125 20.515625 
Q 56.78125 9.90625 50.3125 4.234375 
Q 43.84375 -1.421875 31.78125 -1.421875 
Q 19.734375 -1.421875 13.25 4.234375 
Q 6.78125 9.90625 6.78125 20.515625 
Q 6.78125 27.484375 10.78125 32.3125 
Q 14.796875 37.15625 21.921875 38.8125 
z
M 18.3125 54.390625 
Q 18.3125 48.734375 21.84375 45.5625 
Q 25.390625 42.390625 31.78125 42.390625 
Q 38.140625 42.390625 41.71875 45.5625 
Q 45.3125 48.734375 45.3125 54.390625 
Q 45.3125 60.0625 41.71875 63.234375 
Q 38.140625 66.40625 31.78125 66.40625 
Q 25.390625 66.40625 21.84375 63.234375 
Q 18.3125 60.0625 18.3125 54.390625 
z
" id="DejaVuSans-56"/>
      </defs>
      <g transform="translate(324.272597 322.182437)scale(0.1 -0.1)">
       <use xlink:href="#DejaVuSans-56"/>
       <use x="63.623047" xlink:href="#DejaVuSans-48"/>
       <use x="127.246094" xlink:href="#DejaVuSans-48"/>
      </g>
     </g>
    </g>
    <g id="xtick_6">
     <g id="line2d_6">
      <g>
       <use style="stroke:#000000;stroke-width:0.8;" x="398.812252" xlink:href="#m6cf0fc6113" y="307.584"/>
      </g>
     </g>
     <g id="text_6">
      <!-- 1000 -->
      <defs>
       <path d="M 12.40625 8.296875 
L 28.515625 8.296875 
L 28.515625 63.921875 
L 10.984375 60.40625 
L 10.984375 69.390625 
L 28.421875 72.90625 
L 38.28125 72.90625 
L 38.28125 8.296875 
L 54.390625 8.296875 
L 54.390625 0 
L 12.40625 0 
z
" id="DejaVuSans-49"/>
      </defs>
      <g transform="translate(386.087252 322.182437)scale(0.1 -0.1)">
       <use xlink:href="#DejaVuSans-49"/>
       <use x="63.623047" xlink:href="#DejaVuSans-48"/>
       <use x="127.246094" xlink:href="#DejaVuSans-48"/>
       <use x="190.869141" xlink:href="#DejaVuSans-48"/>
      </g>
     </g>
    </g>
   </g>
   <g id="matplotlib.axis_2">
    <g id="ytick_1">
     <g id="line2d_7">
      <defs>
       <path d="M 0 0 
L -3.5 0 
" id="mbf99d4f78c" style="stroke:#000000;stroke-width:0.8;"/>
      </defs>
      <g>
       <use style="stroke:#000000;stroke-width:0.8;" x="57.6" xlink:href="#mbf99d4f78c" y="306.990319"/>
      </g>
     </g>
     <g id="text_7">
      <!-- 1 -->
      <g transform="translate(44.2375 310.789538)scale(0.1 -0.1)">
       <use xlink:href="#DejaVuSans-49"/>
      </g>
     </g>
    </g>
    <g id="ytick_2">
     <g id="line2d_8">
      <g>
       <use style="stroke:#000000;stroke-width:0.8;" x="57.6" xlink:href="#mbf99d4f78c" y="277.086401"/>
      </g>
     </g>
     <g id="text_8">
      <!-- 2 -->
      <g transform="translate(44.2375 280.88562)scale(0.1 -0.1)">
       <use xlink:href="#DejaVuSans-50"/>
      </g>
     </g>
    </g>
    <g id="ytick_3">
     <g id="line2d_9">
      <g>
       <use style="stroke:#000000;stroke-width:0.8;" x="57.6" xlink:href="#mbf99d4f78c" y="247.182483"/>
      </g>
     </g>
     <g id="text_9">
      <!-- 3 -->
      <defs>
       <path d="M 40.578125 39.3125 
Q 47.65625 37.796875 51.625 33 
Q 55.609375 28.21875 55.609375 21.1875 
Q 55.609375 10.40625 48.1875 4.484375 
Q 40.765625 -1.421875 27.09375 -1.421875 
Q 22.515625 -1.421875 17.65625 -0.515625 
Q 12.796875 0.390625 7.625 2.203125 
L 7.625 11.71875 
Q 11.71875 9.328125 16.59375 8.109375 
Q 21.484375 6.890625 26.8125 6.890625 
Q 36.078125 6.890625 40.9375 10.546875 
Q 45.796875 14.203125 45.796875 21.1875 
Q 45.796875 27.640625 41.28125 31.265625 
Q 36.765625 34.90625 28.71875 34.90625 
L 20.21875 34.90625 
L 20.21875 43.015625 
L 29.109375 43.015625 
Q 36.375 43.015625 40.234375 45.921875 
Q 44.09375 48.828125 44.09375 54.296875 
Q 44.09375 59.90625 40.109375 62.90625 
Q 36.140625 65.921875 28.71875 65.921875 
Q 24.65625 65.921875 20.015625 65.03125 
Q 15.375 64.15625 9.8125 62.3125 
L 9.8125 71.09375 
Q 15.4375 72.65625 20.34375 73.4375 
Q 25.25 74.21875 29.59375 74.21875 
Q 40.828125 74.21875 47.359375 69.109375 
Q 53.90625 64.015625 53.90625 55.328125 
Q 53.90625 49.265625 50.4375 45.09375 
Q 46.96875 40.921875 40.578125 39.3125 
z
" id="DejaVuSans-51"/>
      </defs>
      <g transform="translate(44.2375 250.981702)scale(0.1 -0.1)">
       <use xlink:href="#DejaVuSans-51"/>
      </g>
     </g>
    </g>
    <g id="ytick_4">
     <g id="line2d_10">
      <g>
       <use style="stroke:#000000;stroke-width:0.8;" x="57.6" xlink:href="#mbf99d4f78c" y="217.278566"/>
      </g>
     </g>
     <g id="text_10">
      <!-- 4 -->
      <g transform="translate(44.2375 221.077785)scale(0.1 -0.1)">
       <use xlink:href="#DejaVuSans-52"/>
      </g>
     </g>
    </g>
    <g id="ytick_5">
     <g id="line2d_11">
      <g>
       <use style="stroke:#000000;stroke-width:0.8;" x="57.6" xlink:href="#mbf99d4f78c" y="187.374648"/>
      </g>
     </g>
     <g id="text_11">
      <!-- 5 -->
      <defs>
       <path d="M 10.796875 72.90625 
L 49.515625 72.90625 
L 49.515625 64.59375 
L 19.828125 64.59375 
L 19.828125 46.734375 
Q 21.96875 47.46875 24.109375 47.828125 
Q 26.265625 48.1875 28.421875 48.1875 
Q 40.625 48.1875 47.75 41.5 
Q 54.890625 34.8125 54.890625 23.390625 
Q 54.890625 11.625 47.5625 5.09375 
Q 40.234375 -1.421875 26.90625 -1.421875 
Q 22.3125 -1.421875 17.546875 -0.640625 
Q 12.796875 0.140625 7.71875 1.703125 
L 7.71875 11.625 
Q 12.109375 9.234375 16.796875 8.0625 
Q 21.484375 6.890625 26.703125 6.890625 
Q 35.15625 6.890625 40.078125 11.328125 
Q 45.015625 15.765625 45.015625 23.390625 
Q 45.015625 31 40.078125 35.4375 
Q 35.15625 39.890625 26.703125 39.890625 
Q 22.75 39.890625 18.8125 39.015625 
Q 14.890625 38.140625 10.796875 36.28125 
z
" id="DejaVuSans-53"/>
      </defs>
      <g transform="translate(44.2375 191.173867)scale(0.1 -0.1)">
       <use xlink:href="#DejaVuSans-53"/>
      </g>
     </g>
    </g>
    <g id="ytick_6">
     <g id="line2d_12">
      <g>
       <use style="stroke:#000000;stroke-width:0.8;" x="57.6" xlink:href="#mbf99d4f78c" y="157.47073"/>
      </g>
     </g>
     <g id="text_12">
      <!-- 6 -->
      <g transform="translate(44.2375 161.269949)scale(0.1 -0.1)">
       <use xlink:href="#DejaVuSans-54"/>
      </g>
     </g>
    </g>
    <g id="ytick_7">
     <g id="line2d_13">
      <g>
       <use style="stroke:#000000;stroke-width:0.8;" x="57.6" xlink:href="#mbf99d4f78c" y="127.566813"/>
      </g>
     </g>
     <g id="text_13">
      <!-- 7 -->
      <defs>
       <path d="M 8.203125 72.90625 
L 55.078125 72.90625 
L 55.078125 68.703125 
L 28.609375 0 
L 18.3125 0 
L 43.21875 64.59375 
L 8.203125 64.59375 
z
" id="DejaVuSans-55"/>
      </defs>
      <g transform="translate(44.2375 131.366032)scale(0.1 -0.1)">
       <use xlink:href="#DejaVuSans-55"/>
      </g>
     </g>
    </g>
    <g id="ytick_8">
     <g id="line2d_14">
      <g>
       <use style="stroke:#000000;stroke-width:0.8;" x="57.6" xlink:href="#mbf99d4f78c" y="97.662895"/>
      </g>
     </g>
     <g id="text_14">
      <!-- 8 -->
      <g transform="translate(44.2375 101.462114)scale(0.1 -0.1)">
       <use xlink:href="#DejaVuSans-56"/>
      </g>
     </g>
    </g>
    <g id="ytick_9">
     <g id="line2d_15">
      <g>
       <use style="stroke:#000000;stroke-width:0.8;" x="57.6" xlink:href="#mbf99d4f78c" y="67.758977"/>
      </g>
     </g>
     <g id="text_15">
      <!-- 9 -->
      <defs>
       <path d="M 10.984375 1.515625 
L 10.984375 10.5 
Q 14.703125 8.734375 18.5 7.8125 
Q 22.3125 6.890625 25.984375 6.890625 
Q 35.75 6.890625 40.890625 13.453125 
Q 46.046875 20.015625 46.78125 33.40625 
Q 43.953125 29.203125 39.59375 26.953125 
Q 35.25 24.703125 29.984375 24.703125 
Q 19.046875 24.703125 12.671875 31.3125 
Q 6.296875 37.9375 6.296875 49.421875 
Q 6.296875 60.640625 12.9375 67.421875 
Q 19.578125 74.21875 30.609375 74.21875 
Q 43.265625 74.21875 49.921875 64.515625 
Q 56.59375 54.828125 56.59375 36.375 
Q 56.59375 19.140625 48.40625 8.859375 
Q 40.234375 -1.421875 26.421875 -1.421875 
Q 22.703125 -1.421875 18.890625 -0.6875 
Q 15.09375 0.046875 10.984375 1.515625 
z
M 30.609375 32.421875 
Q 37.25 32.421875 41.125 36.953125 
Q 45.015625 41.5 45.015625 49.421875 
Q 45.015625 57.28125 41.125 61.84375 
Q 37.25 66.40625 30.609375 66.40625 
Q 23.96875 66.40625 20.09375 61.84375 
Q 16.21875 57.28125 16.21875 49.421875 
Q 16.21875 41.5 20.09375 36.953125 
Q 23.96875 32.421875 30.609375 32.421875 
z
" id="DejaVuSans-57"/>
      </defs>
      <g transform="translate(44.2375 71.558196)scale(0.1 -0.1)">
       <use xlink:href="#DejaVuSans-57"/>
      </g>
     </g>
    </g>
   </g>
   <g id="line2d_16">
    <path clip-path="url(#pfb73ae3d31)" d="M 73.832727 295.488 
L 74.157707 292.24846 
L 74.482686 292.951525 
L 74.807666 290.394707 
L 75.132645 283.695267 
L 75.457625 287.08048 
L 75.782604 284.152759 
L 76.107584 282.643358 
L 76.432563 280.223785 
L 76.757543 276.298385 
L 77.082523 275.40276 
L 77.407502 274.898957 
L 77.732482 274.107073 
L 78.057461 272.551331 
L 78.382441 269.666965 
L 78.70742 272.084204 
L 79.0324 265.066159 
L 79.357379 265.204725 
L 79.682359 266.501418 
L 80.007338 263.237694 
L 80.332318 262.298274 
L 80.657297 258.623795 
L 80.982277 260.075557 
L 81.632236 258.117409 
L 81.957215 262.517852 
L 82.282195 254.379994 
L 82.932154 252.301056 
L 83.257133 253.558146 
L 83.582113 253.995746 
L 83.907093 250.025564 
L 84.232072 249.254073 
L 84.557052 251.479545 
L 84.882031 249.188471 
L 85.207011 245.289845 
L 85.53199 244.301401 
L 85.85697 247.723159 
L 86.181949 243.001535 
L 86.506929 243.87965 
L 86.831908 237.978735 
L 87.156888 241.535318 
L 87.806847 237.410102 
L 88.131826 236.941186 
L 88.456806 233.953624 
L 88.781785 233.809621 
L 89.106765 234.225333 
L 89.431744 231.186223 
L 89.756724 231.985767 
L 90.081704 229.593135 
L 90.406683 229.541398 
L 90.731663 227.034157 
L 91.056642 221.93475 
L 91.381622 222.434448 
L 91.706601 224.165958 
L 92.031581 221.628095 
L 92.35656 220.165863 
L 92.68154 217.056332 
L 93.006519 217.798596 
L 93.331499 214.627069 
L 93.656478 214.296334 
L 93.981458 213.192987 
L 94.306437 211.10784 
L 94.631417 211.49928 
L 94.956396 210.863543 
L 95.281376 212.274791 
L 95.606355 212.196547 
L 95.931335 208.250608 
L 96.256314 208.909259 
L 96.581294 204.354963 
L 96.906274 205.51109 
L 97.231253 206.028489 
L 97.556233 203.515629 
L 97.881212 204.903386 
L 98.206192 204.811026 
L 98.531171 200.945984 
L 98.856151 200.771906 
L 99.18113 198.61141 
L 99.50611 198.251321 
L 99.831089 194.272292 
L 100.156069 195.23805 
L 100.481048 196.6823 
L 101.131007 192.250663 
L 101.455987 190.857458 
L 101.780966 195.760088 
L 102.105946 195.561181 
L 102.430925 188.413502 
L 102.755905 189.465936 
L 103.080885 187.83636 
L 103.405864 183.832774 
L 103.730844 185.778859 
L 104.055823 190.343018 
L 104.380803 184.753759 
L 104.705782 184.396381 
L 105.030762 183.567129 
L 105.355741 186.872836 
L 105.680721 181.574896 
L 106.0057 182.25381 
L 106.33068 176.708443 
L 106.655659 178.262003 
L 106.980639 181.394145 
L 107.305618 175.916474 
L 107.630598 179.121812 
L 107.955577 175.053855 
L 108.605536 171.620052 
L 108.930516 173.604821 
L 109.255495 171.591424 
L 109.580475 171.606008 
L 109.905455 169.495968 
L 110.230434 170.521385 
L 110.555414 168.107699 
L 111.205373 165.364235 
L 111.530352 166.600462 
L 111.855332 164.438089 
L 112.180311 164.084977 
L 112.505291 162.137961 
L 112.83027 163.800914 
L 113.15525 164.198556 
L 113.480229 162.838598 
L 113.805209 160.33069 
L 114.455168 163.999529 
L 114.780147 157.665048 
L 115.105127 163.888574 
L 115.430106 158.249906 
L 115.755086 157.435678 
L 116.080066 155.624854 
L 116.405045 159.515861 
L 116.730025 158.681666 
L 117.055004 153.954033 
L 117.379984 154.063417 
L 117.704963 153.991803 
L 118.029943 154.430156 
L 118.354922 150.526756 
L 118.679902 152.472587 
L 119.004881 151.141653 
L 119.329861 149.184196 
L 119.65484 150.25551 
L 119.97982 149.258876 
L 120.304799 147.609601 
L 120.629779 148.095179 
L 120.954758 145.45438 
L 121.279738 145.952174 
L 121.604717 144.026572 
L 121.929697 144.191423 
L 122.254676 146.055938 
L 123.229615 139.982905 
L 123.554595 145.010379 
L 123.879574 141.668394 
L 124.204554 144.272953 
L 124.529533 144.037625 
L 124.854513 137.701355 
L 125.179492 140.43501 
L 125.829451 138.627446 
L 126.154431 143.005736 
L 126.47941 136.859848 
L 126.80439 134.708736 
L 127.129369 140.941727 
L 127.454349 139.252941 
L 127.779328 136.663958 
L 128.104308 136.695775 
L 128.429287 133.920531 
L 128.754267 136.644061 
L 129.079247 136.988637 
L 129.404226 132.54209 
L 129.729206 133.834143 
L 130.054185 132.780459 
L 130.379165 134.049806 
L 130.704144 133.233928 
L 131.029124 131.57845 
L 131.354103 132.603351 
L 131.679083 129.360944 
L 132.004062 129.578559 
L 132.329042 126.69298 
L 132.654021 124.880076 
L 132.979001 124.927478 
L 133.30398 125.120338 
L 133.62896 128.083806 
L 133.953939 122.281923 
L 134.278919 125.400882 
L 134.603898 126.205439 
L 134.928878 125.670262 
L 135.253857 122.865645 
L 135.578837 123.348763 
L 135.903817 122.650752 
L 136.228796 122.479535 
L 136.553776 123.260883 
L 136.878755 121.421745 
L 137.203735 118.425843 
L 137.853694 120.023993 
L 138.178673 118.53118 
L 138.503653 119.225837 
L 138.828632 118.128007 
L 139.153612 117.840639 
L 139.478591 117.100933 
L 139.803571 115.834928 
L 140.12855 116.782581 
L 140.45353 115.785843 
L 141.103489 112.690198 
L 141.428468 113.279763 
L 142.078428 108.550561 
L 142.403407 112.218617 
L 142.728387 112.835893 
L 143.053366 112.539972 
L 143.378346 113.780713 
L 143.703325 110.100907 
L 144.028305 109.366364 
L 144.353284 110.240038 
L 144.678264 110.032119 
L 145.003243 109.214578 
L 145.328223 107.590869 
L 145.653202 109.305785 
L 145.978182 108.752842 
L 146.303161 111.077443 
L 146.628141 106.434171 
L 146.95312 105.677864 
L 147.2781 105.773272 
L 147.603079 106.285561 
L 147.928059 105.49121 
L 148.578018 102.876285 
L 148.902998 103.129951 
L 149.227977 105.530877 
L 149.552957 100.367668 
L 149.877936 104.599783 
L 150.202916 104.316282 
L 150.527895 101.96403 
L 150.852875 101.886732 
L 151.177854 104.175108 
L 151.502834 101.292791 
L 151.827813 102.164523 
L 152.152793 102.217983 
L 152.477772 100.537392 
L 152.802752 103.250679 
L 153.127731 97.346614 
L 153.452711 97.339133 
L 153.77769 101.366488 
L 154.10267 100.236801 
L 154.427649 98.120654 
L 154.752629 100.604519 
L 155.077609 99.209643 
L 155.402588 100.937363 
L 155.727568 95.442833 
L 156.052547 98.57691 
L 156.377527 99.489957 
L 156.702506 97.269628 
L 157.027486 98.330009 
L 157.352465 92.757849 
L 157.677445 96.360878 
L 158.002424 96.06442 
L 158.327404 94.338787 
L 158.652383 96.87615 
L 158.977363 95.28151 
L 159.302342 96.412575 
L 159.627322 94.891934 
L 159.952301 92.690912 
L 160.277281 94.753127 
L 160.60226 94.717225 
L 160.92724 96.866496 
L 161.252219 93.205083 
L 161.577199 93.242122 
L 161.902179 92.604654 
L 162.227158 94.618469 
L 162.552138 94.275757 
L 162.877117 93.693873 
L 163.202097 92.796275 
L 163.527076 92.978474 
L 163.852056 91.091086 
L 164.177035 92.208095 
L 164.502015 90.434451 
L 164.826994 90.407332 
L 165.151974 92.549851 
L 165.476953 89.52825 
L 165.801933 94.500445 
L 166.126912 88.965909 
L 166.451892 88.066702 
L 167.101851 91.508355 
L 167.42683 90.089386 
L 167.75181 86.357271 
L 168.07679 89.442822 
L 168.401769 86.019622 
L 168.726749 88.288663 
L 169.051728 89.278572 
L 169.376708 84.565777 
L 169.701687 87.497716 
L 170.026667 88.875088 
L 170.351646 89.234009 
L 170.676626 87.021241 
L 171.001605 87.151604 
L 171.326585 87.849819 
L 171.651564 87.161342 
L 172.301523 85.070855 
L 172.626503 85.134632 
L 172.951482 88.006965 
L 173.276462 87.041578 
L 173.601441 87.037595 
L 173.926421 85.417749 
L 174.2514 88.035937 
L 174.57638 85.296795 
L 174.90136 86.137949 
L 175.226339 85.722554 
L 175.551319 86.227912 
L 175.876298 85.573795 
L 176.201278 84.519203 
L 176.526257 85.140512 
L 176.851237 83.980041 
L 177.176216 83.366106 
L 177.501196 83.082051 
L 177.826175 83.71178 
L 178.476134 83.036411 
L 178.801114 84.046726 
L 179.126093 83.852491 
L 179.451073 82.054939 
L 179.776052 82.688269 
L 180.101032 83.596557 
L 180.426011 83.554292 
L 180.750991 81.038678 
L 181.075971 82.595452 
L 181.40095 82.323578 
L 181.72593 79.008877 
L 182.050909 77.022504 
L 183.025848 81.506643 
L 183.350827 76.935553 
L 184.000786 78.829109 
L 184.325766 80.229605 
L 184.650745 75.767234 
L 184.975725 79.068882 
L 185.300704 74.757425 
L 185.625684 77.910616 
L 185.950663 77.279444 
L 186.275643 79.375233 
L 186.925602 73.828372 
L 187.250581 77.603379 
L 187.575561 76.525659 
L 187.900541 79.030659 
L 188.22552 77.324025 
L 188.5505 78.245803 
L 188.875479 76.047176 
L 189.200459 80.719705 
L 189.525438 74.648613 
L 190.500377 79.333499 
L 190.825356 75.075905 
L 191.475315 78.191812 
L 191.800295 74.860153 
L 192.125274 80.206851 
L 192.450254 76.058266 
L 192.775233 75.786727 
L 193.100213 78.355237 
L 193.425192 77.154737 
L 193.750172 76.528102 
L 194.075152 78.388663 
L 194.725111 75.141141 
L 195.05009 76.415144 
L 195.37507 78.273188 
L 195.700049 77.111121 
L 196.025029 73.250108 
L 196.350008 75.760368 
L 196.674988 76.007363 
L 196.999967 75.503275 
L 197.324947 75.224188 
L 197.649926 77.428091 
L 197.974906 71.266598 
L 198.624865 75.368422 
L 198.949844 72.566297 
L 199.274824 75.422404 
L 199.599803 72.638014 
L 199.924783 74.452368 
L 200.249762 73.605314 
L 200.574742 74.332708 
L 200.899722 72.129746 
L 201.224701 75.089192 
L 201.549681 73.625585 
L 201.87466 73.218128 
L 202.19964 72.241395 
L 202.524619 75.491617 
L 202.849599 72.805672 
L 203.174578 73.739186 
L 203.499558 73.848385 
L 203.824537 74.959797 
L 204.149517 75.131311 
L 204.474496 73.502338 
L 204.799476 70.450688 
L 205.124455 72.661267 
L 205.449435 73.535326 
L 205.774414 75.142845 
L 206.424373 73.176757 
L 206.749353 73.143074 
L 207.074333 71.351493 
L 207.399312 70.201466 
L 207.724292 72.334911 
L 208.049271 71.944108 
L 208.374251 68.587074 
L 208.69923 74.873675 
L 209.02421 72.599141 
L 209.349189 71.624101 
L 209.674169 72.174297 
L 209.999148 70.476266 
L 210.324128 67.813652 
L 210.649107 68.572991 
L 210.974087 74.740977 
L 211.299066 70.815918 
L 211.624046 71.161189 
L 211.949025 70.338344 
L 212.274005 70.542082 
L 212.598984 70.383194 
L 212.923964 73.280808 
L 213.248943 73.852985 
L 213.573923 72.392244 
L 213.898903 73.546073 
L 214.223882 73.211967 
L 214.548862 72.632029 
L 214.873841 72.334328 
L 215.198821 71.35655 
L 215.5238 73.718315 
L 215.84878 71.686182 
L 216.173759 71.660038 
L 216.498739 73.203321 
L 216.823718 69.024917 
L 217.473677 73.333229 
L 217.798657 70.705628 
L 218.123636 71.902567 
L 218.448616 67.033308 
L 219.098575 69.935255 
L 219.423554 67.513486 
L 219.748534 69.20068 
L 220.073514 69.725454 
L 220.398493 72.993307 
L 221.048452 68.913584 
L 221.373432 69.808151 
L 221.698411 71.072349 
L 222.023391 69.369295 
L 222.34837 71.000142 
L 222.67335 70.39367 
L 222.998329 71.00743 
L 223.323309 66.244061 
L 223.648288 70.14144 
L 223.973268 68.706218 
L 224.298247 70.650117 
L 224.623227 68.920982 
L 224.948206 72.0606 
L 225.273186 71.699154 
L 225.598165 68.13221 
L 225.923145 69.360776 
L 226.248124 68.820239 
L 226.573104 71.353149 
L 226.898084 72.544868 
L 227.223063 69.579503 
L 227.548043 69.714579 
L 227.873022 70.818271 
L 228.198002 69.411086 
L 228.522981 72.669542 
L 228.847961 67.36018 
L 229.17294 71.883071 
L 229.49792 68.878681 
L 229.822899 67.061657 
L 230.147879 67.36175 
L 230.472858 67.835963 
L 230.797838 69.769502 
L 231.122817 69.095445 
L 231.447797 65.042527 
L 231.772776 69.351362 
L 232.097756 71.622071 
L 232.422735 68.350681 
L 232.747715 67.044642 
L 233.072695 66.602928 
L 233.397674 69.064438 
L 233.722654 66.154016 
L 234.047633 67.45643 
L 234.372613 66.978652 
L 234.697592 69.354272 
L 235.022572 65.98755 
L 235.347551 67.853133 
L 235.672531 65.532502 
L 235.99751 68.788392 
L 236.32249 68.184798 
L 236.647469 68.697525 
L 236.972449 66.392294 
L 237.622408 71.201934 
L 237.947387 66.392682 
L 238.272367 70.438171 
L 238.597346 67.62918 
L 238.922326 67.455335 
L 239.247305 68.9211 
L 239.897265 64.469318 
L 240.222244 65.522789 
L 240.872203 68.762572 
L 241.197183 68.873362 
L 241.522162 68.742354 
L 241.847142 66.366741 
L 242.172121 67.978444 
L 242.497101 68.752374 
L 242.82208 66.787009 
L 243.14706 67.403731 
L 243.472039 65.454404 
L 243.797019 64.707378 
L 244.121998 65.732372 
L 244.446978 68.170698 
L 244.771957 65.788096 
L 245.096937 69.658174 
L 245.421916 63.681863 
L 245.746896 67.680541 
L 246.071876 65.483036 
L 246.396855 67.438477 
L 246.721835 66.842582 
L 247.371794 64.777543 
L 247.696773 69.464837 
L 248.021753 62.47637 
L 248.346732 63.962634 
L 248.671712 66.631875 
L 248.996691 65.682031 
L 249.321671 66.563714 
L 249.64665 66.598207 
L 249.97163 62.646451 
L 250.296609 64.623456 
L 250.621589 67.821453 
L 250.946568 64.303581 
L 251.271548 65.397353 
L 251.596527 67.309017 
L 251.921507 66.392395 
L 252.246486 61.207734 
L 252.571466 67.019092 
L 252.896446 65.657639 
L 253.546405 64.370015 
L 253.871384 66.136065 
L 254.196364 63.397431 
L 254.521343 64.61941 
L 254.846323 64.893245 
L 255.171302 63.000629 
L 255.496282 63.001333 
L 255.821261 62.644634 
L 256.146241 64.766474 
L 256.47122 63.874148 
L 256.7962 61.394363 
L 257.446159 65.302057 
L 257.771138 62.864217 
L 258.096118 64.653953 
L 258.421097 64.106788 
L 258.746077 61.995597 
L 259.071057 67.342798 
L 259.396036 64.105013 
L 259.721016 64.692102 
L 260.045995 61.730503 
L 260.370975 62.402071 
L 260.695954 63.800963 
L 261.020934 62.070003 
L 261.345913 64.246886 
L 261.670893 64.8445 
L 261.995872 65.144774 
L 262.320852 59.897762 
L 262.645831 60.83455 
L 262.970811 63.795867 
L 263.29579 63.230003 
L 263.62077 64.160401 
L 263.945749 62.34561 
L 264.270729 62.040661 
L 264.595708 61.551493 
L 264.920688 66.043953 
L 265.245667 65.357914 
L 265.570647 62.623952 
L 265.895627 62.237708 
L 266.220606 63.202585 
L 266.545586 61.852245 
L 266.870565 59.788035 
L 267.195545 61.777843 
L 267.845504 63.862656 
L 268.170483 64.241562 
L 268.495463 65.316629 
L 268.820442 59.072087 
L 269.145422 64.025603 
L 269.470401 62.006867 
L 269.795381 62.35238 
L 270.12036 60.045071 
L 270.44534 61.761082 
L 270.770319 61.483986 
L 271.095299 60.838154 
L 271.420278 63.671265 
L 271.745258 61.444765 
L 272.070238 64.275733 
L 272.395217 61.983741 
L 272.720197 62.775191 
L 273.045176 60.836328 
L 273.370156 62.02889 
L 273.695135 60.446915 
L 274.020115 61.610173 
L 274.345094 62.28141 
L 274.670074 60.752286 
L 274.995053 62.451757 
L 275.320033 60.079422 
L 275.645012 65.480001 
L 275.969992 61.772509 
L 276.294971 62.559951 
L 276.619951 60.509673 
L 276.94493 59.193943 
L 277.26991 62.625555 
L 277.594889 63.341242 
L 277.919869 61.006717 
L 278.244848 63.32122 
L 278.569828 59.768124 
L 278.894808 63.76957 
L 279.219787 61.375452 
L 279.544767 58.132034 
L 279.869746 61.702977 
L 280.194726 60.616303 
L 280.519705 60.634664 
L 280.844685 60.965438 
L 281.169664 64.072411 
L 281.494644 60.791631 
L 281.819623 62.860749 
L 282.144603 62.489272 
L 282.469582 62.564191 
L 282.794562 63.427884 
L 283.119541 61.172503 
L 284.09448 58.285326 
L 284.419459 59.412505 
L 284.744439 57.31677 
L 285.069419 63.067247 
L 285.394398 62.111915 
L 285.719378 59.945788 
L 286.044357 61.29669 
L 286.369337 60.301773 
L 286.694316 63.244365 
L 287.019296 62.221381 
L 287.344275 63.231028 
L 287.669255 59.778359 
L 287.994234 64.535944 
L 288.319214 62.681707 
L 288.644193 62.064237 
L 288.969173 62.98797 
L 289.294152 60.529465 
L 289.619132 61.797866 
L 289.944111 58.981663 
L 290.269091 62.644395 
L 290.59407 60.1709 
L 290.91905 60.053825 
L 291.244029 63.933076 
L 291.893989 60.301226 
L 292.218968 59.998458 
L 292.543948 60.638911 
L 292.868927 64.471708 
L 293.518886 59.411791 
L 293.843866 60.161493 
L 294.168845 61.570507 
L 294.493825 59.730489 
L 294.818804 59.910563 
L 295.143784 61.214906 
L 295.468763 59.219892 
L 296.118722 61.375366 
L 296.768681 57.048541 
L 297.093661 59.748234 
L 297.41864 57.432809 
L 297.74362 59.766214 
L 298.0686 59.846474 
L 298.393579 57.709857 
L 299.043538 61.767973 
L 299.368518 60.117218 
L 299.693497 59.577009 
L 300.018477 61.594085 
L 300.343456 61.10346 
L 300.668436 61.350407 
L 300.993415 61.201428 
L 301.318395 61.234097 
L 301.643374 62.019508 
L 301.968354 61.034453 
L 302.293333 58.030153 
L 302.618313 57.186382 
L 302.943292 57.091535 
L 303.268272 59.74922 
L 303.593251 63.43998 
L 303.918231 59.505272 
L 304.24321 62.415263 
L 304.56819 61.786324 
L 304.89317 59.320976 
L 305.218149 61.84184 
L 305.543129 58.335314 
L 305.868108 59.090896 
L 306.193088 61.79362 
L 306.518067 59.086844 
L 306.843047 59.068274 
L 307.168026 58.353639 
L 307.493006 57.207498 
L 308.142965 59.568309 
L 308.467944 62.689462 
L 308.792924 61.896179 
L 309.117903 58.974225 
L 309.442883 60.179093 
L 309.767862 56.775887 
L 310.092842 61.375231 
L 310.417821 56.970831 
L 310.742801 61.295774 
L 311.067781 60.918112 
L 311.39276 58.638137 
L 311.71774 61.003673 
L 312.367699 62.168344 
L 313.017658 58.11238 
L 313.342637 58.622964 
L 313.667617 61.472395 
L 313.992596 59.885667 
L 314.317576 61.173895 
L 314.967535 57.308768 
L 315.292514 59.098893 
L 315.617494 58.981915 
L 315.942473 59.25596 
L 316.267453 63.062346 
L 316.592432 59.042012 
L 316.917412 60.076357 
L 317.242391 55.215294 
L 317.567371 58.97025 
L 317.892351 60.46145 
L 318.21733 59.908533 
L 318.54231 57.488076 
L 318.867289 58.008673 
L 319.192269 59.602539 
L 319.517248 59.881582 
L 319.842228 58.407381 
L 320.167207 61.571403 
L 320.492187 58.159792 
L 320.817166 58.314273 
L 321.142146 63.278107 
L 321.467125 60.028447 
L 321.792105 58.002857 
L 322.117084 58.138177 
L 322.442064 56.931635 
L 322.767043 61.636484 
L 323.092023 60.209599 
L 323.417002 60.349632 
L 323.741982 57.375305 
L 324.066962 62.392325 
L 324.391941 58.679613 
L 324.716921 61.986449 
L 325.0419 57.20089 
L 325.691859 59.447209 
L 326.016839 59.632786 
L 326.341818 60.001183 
L 326.666798 60.615088 
L 326.991777 59.191072 
L 327.316757 59.897093 
L 327.641736 57.257417 
L 327.966716 56.767619 
L 328.291695 59.674312 
L 328.616675 58.986785 
L 328.941654 59.302608 
L 329.266634 56.746844 
L 329.591613 58.961519 
L 329.916593 58.929252 
L 330.241572 58.237385 
L 330.566552 59.748922 
L 330.891532 57.862352 
L 331.216511 60.823135 
L 331.541491 60.959492 
L 331.86647 59.038556 
L 332.19145 58.574246 
L 332.516429 57.286855 
L 332.841409 59.711775 
L 333.166388 57.717451 
L 333.491368 61.34759 
L 333.816347 56.718822 
L 334.141327 59.993794 
L 334.466306 58.692214 
L 334.791286 58.418938 
L 335.116265 56.924296 
L 335.441245 60.822431 
L 335.766224 57.730162 
L 336.091204 56.703589 
L 336.416183 60.22489 
L 336.741163 61.373214 
L 337.066143 59.803922 
L 337.391122 58.855095 
L 337.716102 56.529356 
L 338.041081 55.426893 
L 338.366061 59.177854 
L 338.69104 56.997687 
L 339.340999 62.252305 
L 339.665979 58.559545 
L 339.990958 57.436784 
L 340.315938 56.993391 
L 340.640917 56.209314 
L 340.965897 58.410113 
L 341.290876 58.739833 
L 341.615856 60.712641 
L 341.940835 61.096197 
L 342.265815 55.691049 
L 342.590794 56.541056 
L 342.915774 59.547133 
L 343.240753 56.652675 
L 343.565733 57.553214 
L 343.890713 62.795661 
L 344.215692 61.84421 
L 344.540672 57.998283 
L 344.865651 59.222555 
L 345.190631 58.849158 
L 345.51561 57.971922 
L 345.84059 60.331829 
L 346.165569 57.415483 
L 346.815528 59.367944 
L 347.140508 59.000158 
L 347.465487 59.969168 
L 347.790467 58.947462 
L 348.115446 60.041587 
L 348.440426 57.43699 
L 348.765405 60.505396 
L 349.090385 56.623618 
L 349.415364 59.459146 
L 349.740344 59.194185 
L 350.065324 55.512149 
L 350.390303 58.357389 
L 350.715283 62.560174 
L 351.040262 59.34995 
L 351.365242 59.301883 
L 351.690221 58.882257 
L 352.015201 56.719216 
L 352.34018 59.399082 
L 352.66516 60.589693 
L 352.990139 58.847013 
L 353.315119 59.979983 
L 353.640098 57.16869 
L 353.965078 58.106386 
L 354.290057 55.966544 
L 354.615037 59.965815 
L 354.940016 56.630944 
L 355.264996 61.256579 
L 355.589975 58.304681 
L 355.914955 60.231017 
L 356.239934 60.865739 
L 356.564914 61.91493 
L 356.889894 57.637449 
L 357.214873 57.549516 
L 357.539853 60.442344 
L 357.864832 55.55899 
L 358.189812 55.823664 
L 358.514791 57.998162 
L 358.839771 58.043508 
L 359.16475 58.796471 
L 359.48973 58.585615 
L 359.814709 56.02562 
L 360.139689 59.887415 
L 360.464668 57.836271 
L 360.789648 60.403385 
L 361.114627 58.382622 
L 361.764586 59.854883 
L 362.089566 57.284389 
L 362.414545 56.409717 
L 362.739525 59.503592 
L 363.064505 56.600864 
L 363.389484 56.036542 
L 363.714464 53.568 
L 364.039443 59.182069 
L 364.364423 57.232485 
L 364.689402 58.1207 
L 365.014382 55.619783 
L 365.339361 57.466415 
L 365.664341 56.929843 
L 365.98932 57.70454 
L 366.3143 57.226858 
L 366.639279 58.650881 
L 366.964259 59.513651 
L 367.289238 59.853386 
L 367.614218 58.173536 
L 367.939197 57.238508 
L 368.264177 55.778213 
L 368.589156 59.312939 
L 368.914136 58.105152 
L 369.239115 60.031462 
L 369.564095 58.920295 
L 369.889075 61.559032 
L 370.214054 57.754482 
L 370.539034 57.609414 
L 370.864013 60.18957 
L 371.188993 57.374147 
L 371.513972 59.916684 
L 371.838952 59.308396 
L 372.163931 56.214812 
L 372.81389 61.420186 
L 373.13887 58.246976 
L 373.463849 56.81217 
L 373.788829 58.471294 
L 374.113808 57.23628 
L 374.438788 59.094338 
L 374.763767 56.731291 
L 375.088747 62.261225 
L 375.413726 60.99918 
L 375.738706 58.743132 
L 376.063686 58.914067 
L 376.388665 58.383312 
L 376.713645 57.264986 
L 377.038624 59.155247 
L 377.363604 56.900995 
L 377.688583 57.421567 
L 378.013563 58.40554 
L 378.338542 61.468875 
L 378.663522 61.419251 
L 378.988501 56.555806 
L 379.313481 59.327644 
L 379.63846 59.171999 
L 379.96344 57.32742 
L 380.288419 59.815553 
L 380.613399 60.963394 
L 380.938378 58.58669 
L 381.263358 58.875376 
L 381.588337 60.046857 
L 381.913317 57.06753 
L 382.563276 61.27346 
L 382.888256 59.40373 
L 383.213235 60.420039 
L 383.538215 58.737355 
L 383.863194 58.557976 
L 384.188174 60.661025 
L 384.513153 59.873461 
L 384.838133 55.957724 
L 385.163112 58.181906 
L 385.488092 62.335275 
L 385.813071 62.399173 
L 386.138051 57.490201 
L 386.46303 61.194173 
L 386.78801 59.082397 
L 387.112989 59.913066 
L 387.437969 61.591348 
L 387.762948 57.388842 
L 388.087928 62.456098 
L 388.412907 61.601631 
L 388.737887 61.694615 
L 389.062867 60.34429 
L 389.387846 60.492595 
L 389.712826 58.039676 
L 390.362785 60.836355 
L 390.687764 56.426739 
L 391.012744 58.721087 
L 391.337723 59.767452 
L 391.662703 57.908782 
L 391.987682 63.32201 
L 392.312662 57.782302 
L 392.637641 60.868887 
L 392.962621 58.749462 
L 393.2876 60.930244 
L 393.61258 61.689077 
L 393.937559 57.371707 
L 394.262539 58.523439 
L 394.587518 56.500703 
L 394.912498 57.979098 
L 395.237477 60.565603 
L 395.562457 60.325437 
L 395.887437 58.715616 
L 396.212416 59.061067 
L 396.537396 55.831574 
L 397.187355 60.413162 
L 397.512334 59.993979 
L 397.837314 57.150992 
L 398.162293 57.329867 
L 398.487273 57.094392 
L 398.487273 57.094392 
" style="fill:none;stroke:#1f77b4;stroke-linecap:square;stroke-width:1.5;"/>
   </g>
   <g id="patch_3">
    <path d="M 57.6 307.584 
L 57.6 41.472 
" style="fill:none;stroke:#000000;stroke-linecap:square;stroke-linejoin:miter;stroke-width:0.8;"/>
   </g>
   <g id="patch_4">
    <path d="M 414.72 307.584 
L 414.72 41.472 
" style="fill:none;stroke:#000000;stroke-linecap:square;stroke-linejoin:miter;stroke-width:0.8;"/>
   </g>
   <g id="patch_5">
    <path d="M 57.6 307.584 
L 414.72 307.584 
" style="fill:none;stroke:#000000;stroke-linecap:square;stroke-linejoin:miter;stroke-width:0.8;"/>
   </g>
   <g id="patch_6">
    <path d="M 57.6 41.472 
L 414.72 41.472 
" style="fill:none;stroke:#000000;stroke-linecap:square;stroke-linejoin:miter;stroke-width:0.8;"/>
   </g>
   <g id="text_16">
    <!-- Average reward per step -->
    <defs>
     <path d="M 34.1875 63.1875 
L 20.796875 26.90625 
L 47.609375 26.90625 
z
M 28.609375 72.90625 
L 39.796875 72.90625 
L 67.578125 0 
L 57.328125 0 
L 50.6875 18.703125 
L 17.828125 18.703125 
L 11.1875 0 
L 0.78125 0 
z
" id="DejaVuSans-65"/>
     <path d="M 2.984375 54.6875 
L 12.5 54.6875 
L 29.59375 8.796875 
L 46.6875 54.6875 
L 56.203125 54.6875 
L 35.6875 0 
L 23.484375 0 
z
" id="DejaVuSans-118"/>
     <path d="M 56.203125 29.59375 
L 56.203125 25.203125 
L 14.890625 25.203125 
Q 15.484375 15.921875 20.484375 11.0625 
Q 25.484375 6.203125 34.421875 6.203125 
Q 39.59375 6.203125 44.453125 7.46875 
Q 49.3125 8.734375 54.109375 11.28125 
L 54.109375 2.78125 
Q 49.265625 0.734375 44.1875 -0.34375 
Q 39.109375 -1.421875 33.890625 -1.421875 
Q 20.796875 -1.421875 13.15625 6.1875 
Q 5.515625 13.8125 5.515625 26.8125 
Q 5.515625 40.234375 12.765625 48.109375 
Q 20.015625 56 32.328125 56 
Q 43.359375 56 49.78125 48.890625 
Q 56.203125 41.796875 56.203125 29.59375 
z
M 47.21875 32.234375 
Q 47.125 39.59375 43.09375 43.984375 
Q 39.0625 48.390625 32.421875 48.390625 
Q 24.90625 48.390625 20.390625 44.140625 
Q 15.875 39.890625 15.1875 32.171875 
z
" id="DejaVuSans-101"/>
     <path d="M 41.109375 46.296875 
Q 39.59375 47.171875 37.8125 47.578125 
Q 36.03125 48 33.890625 48 
Q 26.265625 48 22.1875 43.046875 
Q 18.109375 38.09375 18.109375 28.8125 
L 18.109375 0 
L 9.078125 0 
L 9.078125 54.6875 
L 18.109375 54.6875 
L 18.109375 46.1875 
Q 20.953125 51.171875 25.484375 53.578125 
Q 30.03125 56 36.53125 56 
Q 37.453125 56 38.578125 55.875 
Q 39.703125 55.765625 41.0625 55.515625 
z
" id="DejaVuSans-114"/>
     <path d="M 34.28125 27.484375 
Q 23.390625 27.484375 19.1875 25 
Q 14.984375 22.515625 14.984375 16.5 
Q 14.984375 11.71875 18.140625 8.90625 
Q 21.296875 6.109375 26.703125 6.109375 
Q 34.1875 6.109375 38.703125 11.40625 
Q 43.21875 16.703125 43.21875 25.484375 
L 43.21875 27.484375 
z
M 52.203125 31.203125 
L 52.203125 0 
L 43.21875 0 
L 43.21875 8.296875 
Q 40.140625 3.328125 35.546875 0.953125 
Q 30.953125 -1.421875 24.3125 -1.421875 
Q 15.921875 -1.421875 10.953125 3.296875 
Q 6 8.015625 6 15.921875 
Q 6 25.140625 12.171875 29.828125 
Q 18.359375 34.515625 30.609375 34.515625 
L 43.21875 34.515625 
L 43.21875 35.40625 
Q 43.21875 41.609375 39.140625 45 
Q 35.0625 48.390625 27.6875 48.390625 
Q 23 48.390625 18.546875 47.265625 
Q 14.109375 46.140625 10.015625 43.890625 
L 10.015625 52.203125 
Q 14.9375 54.109375 19.578125 55.046875 
Q 24.21875 56 28.609375 56 
Q 40.484375 56 46.34375 49.84375 
Q 52.203125 43.703125 52.203125 31.203125 
z
" id="DejaVuSans-97"/>
     <path d="M 45.40625 27.984375 
Q 45.40625 37.75 41.375 43.109375 
Q 37.359375 48.484375 30.078125 48.484375 
Q 22.859375 48.484375 18.828125 43.109375 
Q 14.796875 37.75 14.796875 27.984375 
Q 14.796875 18.265625 18.828125 12.890625 
Q 22.859375 7.515625 30.078125 7.515625 
Q 37.359375 7.515625 41.375 12.890625 
Q 45.40625 18.265625 45.40625 27.984375 
z
M 54.390625 6.78125 
Q 54.390625 -7.171875 48.1875 -13.984375 
Q 42 -20.796875 29.203125 -20.796875 
Q 24.46875 -20.796875 20.265625 -20.09375 
Q 16.0625 -19.390625 12.109375 -17.921875 
L 12.109375 -9.1875 
Q 16.0625 -11.328125 19.921875 -12.34375 
Q 23.78125 -13.375 27.78125 -13.375 
Q 36.625 -13.375 41.015625 -8.765625 
Q 45.40625 -4.15625 45.40625 5.171875 
L 45.40625 9.625 
Q 42.625 4.78125 38.28125 2.390625 
Q 33.9375 0 27.875 0 
Q 17.828125 0 11.671875 7.65625 
Q 5.515625 15.328125 5.515625 27.984375 
Q 5.515625 40.671875 11.671875 48.328125 
Q 17.828125 56 27.875 56 
Q 33.9375 56 38.28125 53.609375 
Q 42.625 51.21875 45.40625 46.390625 
L 45.40625 54.6875 
L 54.390625 54.6875 
z
" id="DejaVuSans-103"/>
     <path id="DejaVuSans-32"/>
     <path d="M 4.203125 54.6875 
L 13.1875 54.6875 
L 24.421875 12.015625 
L 35.59375 54.6875 
L 46.1875 54.6875 
L 57.421875 12.015625 
L 68.609375 54.6875 
L 77.59375 54.6875 
L 63.28125 0 
L 52.6875 0 
L 40.921875 44.828125 
L 29.109375 0 
L 18.5 0 
z
" id="DejaVuSans-119"/>
     <path d="M 45.40625 46.390625 
L 45.40625 75.984375 
L 54.390625 75.984375 
L 54.390625 0 
L 45.40625 0 
L 45.40625 8.203125 
Q 42.578125 3.328125 38.25 0.953125 
Q 33.9375 -1.421875 27.875 -1.421875 
Q 17.96875 -1.421875 11.734375 6.484375 
Q 5.515625 14.40625 5.515625 27.296875 
Q 5.515625 40.1875 11.734375 48.09375 
Q 17.96875 56 27.875 56 
Q 33.9375 56 38.25 53.625 
Q 42.578125 51.265625 45.40625 46.390625 
z
M 14.796875 27.296875 
Q 14.796875 17.390625 18.875 11.75 
Q 22.953125 6.109375 30.078125 6.109375 
Q 37.203125 6.109375 41.296875 11.75 
Q 45.40625 17.390625 45.40625 27.296875 
Q 45.40625 37.203125 41.296875 42.84375 
Q 37.203125 48.484375 30.078125 48.484375 
Q 22.953125 48.484375 18.875 42.84375 
Q 14.796875 37.203125 14.796875 27.296875 
z
" id="DejaVuSans-100"/>
     <path d="M 18.109375 8.203125 
L 18.109375 -20.796875 
L 9.078125 -20.796875 
L 9.078125 54.6875 
L 18.109375 54.6875 
L 18.109375 46.390625 
Q 20.953125 51.265625 25.265625 53.625 
Q 29.59375 56 35.59375 56 
Q 45.5625 56 51.78125 48.09375 
Q 58.015625 40.1875 58.015625 27.296875 
Q 58.015625 14.40625 51.78125 6.484375 
Q 45.5625 -1.421875 35.59375 -1.421875 
Q 29.59375 -1.421875 25.265625 0.953125 
Q 20.953125 3.328125 18.109375 8.203125 
z
M 48.6875 27.296875 
Q 48.6875 37.203125 44.609375 42.84375 
Q 40.53125 48.484375 33.40625 48.484375 
Q 26.265625 48.484375 22.1875 42.84375 
Q 18.109375 37.203125 18.109375 27.296875 
Q 18.109375 17.390625 22.1875 11.75 
Q 26.265625 6.109375 33.40625 6.109375 
Q 40.53125 6.109375 44.609375 11.75 
Q 48.6875 17.390625 48.6875 27.296875 
z
" id="DejaVuSans-112"/>
     <path d="M 44.28125 53.078125 
L 44.28125 44.578125 
Q 40.484375 46.53125 36.375 47.5 
Q 32.28125 48.484375 27.875 48.484375 
Q 21.1875 48.484375 17.84375 46.4375 
Q 14.5 44.390625 14.5 40.28125 
Q 14.5 37.15625 16.890625 35.375 
Q 19.28125 33.59375 26.515625 31.984375 
L 29.59375 31.296875 
Q 39.15625 29.25 43.1875 25.515625 
Q 47.21875 21.78125 47.21875 15.09375 
Q 47.21875 7.46875 41.1875 3.015625 
Q 35.15625 -1.421875 24.609375 -1.421875 
Q 20.21875 -1.421875 15.453125 -0.5625 
Q 10.6875 0.296875 5.421875 2 
L 5.421875 11.28125 
Q 10.40625 8.6875 15.234375 7.390625 
Q 20.0625 6.109375 24.8125 6.109375 
Q 31.15625 6.109375 34.5625 8.28125 
Q 37.984375 10.453125 37.984375 14.40625 
Q 37.984375 18.0625 35.515625 20.015625 
Q 33.0625 21.96875 24.703125 23.78125 
L 21.578125 24.515625 
Q 13.234375 26.265625 9.515625 29.90625 
Q 5.8125 33.546875 5.8125 39.890625 
Q 5.8125 47.609375 11.28125 51.796875 
Q 16.75 56 26.8125 56 
Q 31.78125 56 36.171875 55.265625 
Q 40.578125 54.546875 44.28125 53.078125 
z
" id="DejaVuSans-115"/>
     <path d="M 18.3125 70.21875 
L 18.3125 54.6875 
L 36.8125 54.6875 
L 36.8125 47.703125 
L 18.3125 47.703125 
L 18.3125 18.015625 
Q 18.3125 11.328125 20.140625 9.421875 
Q 21.96875 7.515625 27.59375 7.515625 
L 36.8125 7.515625 
L 36.8125 0 
L 27.59375 0 
Q 17.1875 0 13.234375 3.875 
Q 9.28125 7.765625 9.28125 18.015625 
L 9.28125 47.703125 
L 2.6875 47.703125 
L 2.6875 54.6875 
L 9.28125 54.6875 
L 9.28125 70.21875 
z
" id="DejaVuSans-116"/>
    </defs>
    <g transform="translate(161.490938 35.472)scale(0.12 -0.12)">
     <use xlink:href="#DejaVuSans-65"/>
     <use x="68.330078" xlink:href="#DejaVuSans-118"/>
     <use x="127.509766" xlink:href="#DejaVuSans-101"/>
     <use x="189.033203" xlink:href="#DejaVuSans-114"/>
     <use x="230.146484" xlink:href="#DejaVuSans-97"/>
     <use x="291.425781" xlink:href="#DejaVuSans-103"/>
     <use x="354.902344" xlink:href="#DejaVuSans-101"/>
     <use x="416.425781" xlink:href="#DejaVuSans-32"/>
     <use x="448.212891" xlink:href="#DejaVuSans-114"/>
     <use x="489.294922" xlink:href="#DejaVuSans-101"/>
     <use x="550.818359" xlink:href="#DejaVuSans-119"/>
     <use x="632.605469" xlink:href="#DejaVuSans-97"/>
     <use x="693.884766" xlink:href="#DejaVuSans-114"/>
     <use x="734.982422" xlink:href="#DejaVuSans-100"/>
     <use x="798.458984" xlink:href="#DejaVuSans-32"/>
     <use x="830.246094" xlink:href="#DejaVuSans-112"/>
     <use x="893.722656" xlink:href="#DejaVuSans-101"/>
     <use x="955.246094" xlink:href="#DejaVuSans-114"/>
     <use x="996.359375" xlink:href="#DejaVuSans-32"/>
     <use x="1028.146484" xlink:href="#DejaVuSans-115"/>
     <use x="1080.246094" xlink:href="#DejaVuSans-116"/>
     <use x="1119.455078" xlink:href="#DejaVuSans-101"/>
     <use x="1180.978516" xlink:href="#DejaVuSans-112"/>
    </g>
   </g>
  </g>
 </g>
 <defs>
  <clipPath id="pfb73ae3d31">
   <rect height="266.112" width="357.12" x="57.6" y="41.472"/>
  </clipPath>
 </defs>
</svg>
