<?xml version="1.0" encoding="utf-8" standalone="no"?>
<!DOCTYPE svg PUBLIC "-//W3C//DTD SVG 1.1//EN"
  "http://www.w3.org/Graphics/SVG/1.1/DTD/svg11.dtd">
<!-- Created with matplotlib (https://matplotlib.org/) -->
<svg height="345.6pt" version="1.1" viewBox="0 0 460.8 345.6" width="460.8pt" xmlns="http://www.w3.org/2000/svg" xmlns:xlink="http://www.w3.org/1999/xlink">
 <defs>
  <style type="text/css">
*{stroke-linecap:butt;stroke-linejoin:round;}
  </style>
 </defs>
 <g id="figure_1">
  <g id="patch_1">
   <path d="M 0 345.6 
L 460.8 345.6 
L 460.8 0 
L 0 0 
z
" style="fill:#ffffff;"/>
  </g>
  <g id="axes_1">
   <g id="patch_2">
    <path d="M 57.6 307.584 
L 414.72 307.584 
L 414.72 41.472 
L 57.6 41.472 
z
" style="fill:#ffffff;"/>
   </g>
   <g id="matplotlib.axis_1">
    <g id="xtick_1">
     <g id="line2d_1">
      <defs>
       <path d="M 0 0 
L 0 3.5 
" id="mf75af80143" style="stroke:#000000;stroke-width:0.8;"/>
      </defs>
      <g>
       <use style="stroke:#000000;stroke-width:0.8;" x="73.832727" xlink:href="#mf75af80143" y="307.584"/>
      </g>
     </g>
     <g id="text_1">
      <!-- 0 -->
      <defs>
       <path d="M 31.78125 66.40625 
Q 24.171875 66.40625 20.328125 58.90625 
Q 16.5 51.421875 16.5 36.375 
Q 16.5 21.390625 20.328125 13.890625 
Q 24.171875 6.390625 31.78125 6.390625 
Q 39.453125 6.390625 43.28125 13.890625 
Q 47.125 21.390625 47.125 36.375 
Q 47.125 51.421875 43.28125 58.90625 
Q 39.453125 66.40625 31.78125 66.40625 
z
M 31.78125 74.21875 
Q 44.046875 74.21875 50.515625 64.515625 
Q 56.984375 54.828125 56.984375 36.375 
Q 56.984375 17.96875 50.515625 8.265625 
Q 44.046875 -1.421875 31.78125 -1.421875 
Q 19.53125 -1.421875 13.0625 8.265625 
Q 6.59375 17.96875 6.59375 36.375 
Q 6.59375 54.828125 13.0625 64.515625 
Q 19.53125 74.21875 31.78125 74.21875 
z
" id="DejaVuSans-48"/>
      </defs>
      <g transform="translate(70.651477 322.182437)scale(0.1 -0.1)">
       <use xlink:href="#DejaVuSans-48"/>
      </g>
     </g>
    </g>
    <g id="xtick_2">
     <g id="line2d_2">
      <g>
       <use style="stroke:#000000;stroke-width:0.8;" x="138.828632" xlink:href="#mf75af80143" y="307.584"/>
      </g>
     </g>
     <g id="text_2">
      <!-- 200 -->
      <defs>
       <path d="M 19.1875 8.296875 
L 53.609375 8.296875 
L 53.609375 0 
L 7.328125 0 
L 7.328125 8.296875 
Q 12.9375 14.109375 22.625 23.890625 
Q 32.328125 33.6875 34.8125 36.53125 
Q 39.546875 41.84375 41.421875 45.53125 
Q 43.3125 49.21875 43.3125 52.78125 
Q 43.3125 58.59375 39.234375 62.25 
Q 35.15625 65.921875 28.609375 65.921875 
Q 23.96875 65.921875 18.8125 64.3125 
Q 13.671875 62.703125 7.8125 59.421875 
L 7.8125 69.390625 
Q 13.765625 71.78125 18.9375 73 
Q 24.125 74.21875 28.421875 74.21875 
Q 39.75 74.21875 46.484375 68.546875 
Q 53.21875 62.890625 53.21875 53.421875 
Q 53.21875 48.921875 51.53125 44.890625 
Q 49.859375 40.875 45.40625 35.40625 
Q 44.1875 33.984375 37.640625 27.21875 
Q 31.109375 20.453125 19.1875 8.296875 
z
" id="DejaVuSans-50"/>
      </defs>
      <g transform="translate(129.284882 322.182437)scale(0.1 -0.1)">
       <use xlink:href="#DejaVuSans-50"/>
       <use x="63.623047" xlink:href="#DejaVuSans-48"/>
       <use x="127.246094" xlink:href="#DejaVuSans-48"/>
      </g>
     </g>
    </g>
    <g id="xtick_3">
     <g id="line2d_3">
      <g>
       <use style="stroke:#000000;stroke-width:0.8;" x="203.824537" xlink:href="#mf75af80143" y="307.584"/>
      </g>
     </g>
     <g id="text_3">
      <!-- 400 -->
      <defs>
       <path d="M 37.796875 64.3125 
L 12.890625 25.390625 
L 37.796875 25.390625 
z
M 35.203125 72.90625 
L 47.609375 72.90625 
L 47.609375 25.390625 
L 58.015625 25.390625 
L 58.015625 17.1875 
L 47.609375 17.1875 
L 47.609375 0 
L 37.796875 0 
L 37.796875 17.1875 
L 4.890625 17.1875 
L 4.890625 26.703125 
z
" id="DejaVuSans-52"/>
      </defs>
      <g transform="translate(194.280787 322.182437)scale(0.1 -0.1)">
       <use xlink:href="#DejaVuSans-52"/>
       <use x="63.623047" xlink:href="#DejaVuSans-48"/>
       <use x="127.246094" xlink:href="#DejaVuSans-48"/>
      </g>
     </g>
    </g>
    <g id="xtick_4">
     <g id="line2d_4">
      <g>
       <use style="stroke:#000000;stroke-width:0.8;" x="268.820442" xlink:href="#mf75af80143" y="307.584"/>
      </g>
     </g>
     <g id="text_4">
      <!-- 600 -->
      <defs>
       <path d="M 33.015625 40.375 
Q 26.375 40.375 22.484375 35.828125 
Q 18.609375 31.296875 18.609375 23.390625 
Q 18.609375 15.53125 22.484375 10.953125 
Q 26.375 6.390625 33.015625 6.390625 
Q 39.65625 6.390625 43.53125 10.953125 
Q 47.40625 15.53125 47.40625 23.390625 
Q 47.40625 31.296875 43.53125 35.828125 
Q 39.65625 40.375 33.015625 40.375 
z
M 52.59375 71.296875 
L 52.59375 62.3125 
Q 48.875 64.0625 45.09375 64.984375 
Q 41.3125 65.921875 37.59375 65.921875 
Q 27.828125 65.921875 22.671875 59.328125 
Q 17.53125 52.734375 16.796875 39.40625 
Q 19.671875 43.65625 24.015625 45.921875 
Q 28.375 48.1875 33.59375 48.1875 
Q 44.578125 48.1875 50.953125 41.515625 
Q 57.328125 34.859375 57.328125 23.390625 
Q 57.328125 12.15625 50.6875 5.359375 
Q 44.046875 -1.421875 33.015625 -1.421875 
Q 20.359375 -1.421875 13.671875 8.265625 
Q 6.984375 17.96875 6.984375 36.375 
Q 6.984375 53.65625 15.1875 63.9375 
Q 23.390625 74.21875 37.203125 74.21875 
Q 40.921875 74.21875 44.703125 73.484375 
Q 48.484375 72.75 52.59375 71.296875 
z
" id="DejaVuSans-54"/>
      </defs>
      <g transform="translate(259.276692 322.182437)scale(0.1 -0.1)">
       <use xlink:href="#DejaVuSans-54"/>
       <use x="63.623047" xlink:href="#DejaVuSans-48"/>
       <use x="127.246094" xlink:href="#DejaVuSans-48"/>
      </g>
     </g>
    </g>
    <g id="xtick_5">
     <g id="line2d_5">
      <g>
       <use style="stroke:#000000;stroke-width:0.8;" x="333.816347" xlink:href="#mf75af80143" y="307.584"/>
      </g>
     </g>
     <g id="text_5">
      <!-- 800 -->
      <defs>
       <path d="M 31.78125 34.625 
Q 24.75 34.625 20.71875 30.859375 
Q 16.703125 27.09375 16.703125 20.515625 
Q 16.703125 13.921875 20.71875 10.15625 
Q 24.75 6.390625 31.78125 6.390625 
Q 38.8125 6.390625 42.859375 10.171875 
Q 46.921875 13.96875 46.921875 20.515625 
Q 46.921875 27.09375 42.890625 30.859375 
Q 38.875 34.625 31.78125 34.625 
z
M 21.921875 38.8125 
Q 15.578125 40.375 12.03125 44.71875 
Q 8.5 49.078125 8.5 55.328125 
Q 8.5 64.0625 14.71875 69.140625 
Q 20.953125 74.21875 31.78125 74.21875 
Q 42.671875 74.21875 48.875 69.140625 
Q 55.078125 64.0625 55.078125 55.328125 
Q 55.078125 49.078125 51.53125 44.71875 
Q 48 40.375 41.703125 38.8125 
Q 48.828125 37.15625 52.796875 32.3125 
Q 56.78125 27.484375 56.78125 20.515625 
Q 56.78125 9.90625 50.3125 4.234375 
Q 43.84375 -1.421875 31.78125 -1.421875 
Q 19.734375 -1.421875 13.25 4.234375 
Q 6.78125 9.90625 6.78125 20.515625 
Q 6.78125 27.484375 10.78125 32.3125 
Q 14.796875 37.15625 21.921875 38.8125 
z
M 18.3125 54.390625 
Q 18.3125 48.734375 21.84375 45.5625 
Q 25.390625 42.390625 31.78125 42.390625 
Q 38.140625 42.390625 41.71875 45.5625 
Q 45.3125 48.734375 45.3125 54.390625 
Q 45.3125 60.0625 41.71875 63.234375 
Q 38.140625 66.40625 31.78125 66.40625 
Q 25.390625 66.40625 21.84375 63.234375 
Q 18.3125 60.0625 18.3125 54.390625 
z
" id="DejaVuSans-56"/>
      </defs>
      <g transform="translate(324.272597 322.182437)scale(0.1 -0.1)">
       <use xlink:href="#DejaVuSans-56"/>
       <use x="63.623047" xlink:href="#DejaVuSans-48"/>
       <use x="127.246094" xlink:href="#DejaVuSans-48"/>
      </g>
     </g>
    </g>
    <g id="xtick_6">
     <g id="line2d_6">
      <g>
       <use style="stroke:#000000;stroke-width:0.8;" x="398.812252" xlink:href="#mf75af80143" y="307.584"/>
      </g>
     </g>
     <g id="text_6">
      <!-- 1000 -->
      <defs>
       <path d="M 12.40625 8.296875 
L 28.515625 8.296875 
L 28.515625 63.921875 
L 10.984375 60.40625 
L 10.984375 69.390625 
L 28.421875 72.90625 
L 38.28125 72.90625 
L 38.28125 8.296875 
L 54.390625 8.296875 
L 54.390625 0 
L 12.40625 0 
z
" id="DejaVuSans-49"/>
      </defs>
      <g transform="translate(386.087252 322.182437)scale(0.1 -0.1)">
       <use xlink:href="#DejaVuSans-49"/>
       <use x="63.623047" xlink:href="#DejaVuSans-48"/>
       <use x="127.246094" xlink:href="#DejaVuSans-48"/>
       <use x="190.869141" xlink:href="#DejaVuSans-48"/>
      </g>
     </g>
    </g>
   </g>
   <g id="matplotlib.axis_2">
    <g id="ytick_1">
     <g id="line2d_7">
      <defs>
       <path d="M 0 0 
L -3.5 0 
" id="m41f13dcabf" style="stroke:#000000;stroke-width:0.8;"/>
      </defs>
      <g>
       <use style="stroke:#000000;stroke-width:0.8;" x="57.6" xlink:href="#m41f13dcabf" y="271.001539"/>
      </g>
     </g>
     <g id="text_7">
      <!-- 1 -->
      <g transform="translate(44.2375 274.800758)scale(0.1 -0.1)">
       <use xlink:href="#DejaVuSans-49"/>
      </g>
     </g>
    </g>
    <g id="ytick_2">
     <g id="line2d_8">
      <g>
       <use style="stroke:#000000;stroke-width:0.8;" x="57.6" xlink:href="#m41f13dcabf" y="229.984211"/>
      </g>
     </g>
     <g id="text_8">
      <!-- 2 -->
      <g transform="translate(44.2375 233.783429)scale(0.1 -0.1)">
       <use xlink:href="#DejaVuSans-50"/>
      </g>
     </g>
    </g>
    <g id="ytick_3">
     <g id="line2d_9">
      <g>
       <use style="stroke:#000000;stroke-width:0.8;" x="57.6" xlink:href="#m41f13dcabf" y="188.966882"/>
      </g>
     </g>
     <g id="text_9">
      <!-- 3 -->
      <defs>
       <path d="M 40.578125 39.3125 
Q 47.65625 37.796875 51.625 33 
Q 55.609375 28.21875 55.609375 21.1875 
Q 55.609375 10.40625 48.1875 4.484375 
Q 40.765625 -1.421875 27.09375 -1.421875 
Q 22.515625 -1.421875 17.65625 -0.515625 
Q 12.796875 0.390625 7.625 2.203125 
L 7.625 11.71875 
Q 11.71875 9.328125 16.59375 8.109375 
Q 21.484375 6.890625 26.8125 6.890625 
Q 36.078125 6.890625 40.9375 10.546875 
Q 45.796875 14.203125 45.796875 21.1875 
Q 45.796875 27.640625 41.28125 31.265625 
Q 36.765625 34.90625 28.71875 34.90625 
L 20.21875 34.90625 
L 20.21875 43.015625 
L 29.109375 43.015625 
Q 36.375 43.015625 40.234375 45.921875 
Q 44.09375 48.828125 44.09375 54.296875 
Q 44.09375 59.90625 40.109375 62.90625 
Q 36.140625 65.921875 28.71875 65.921875 
Q 24.65625 65.921875 20.015625 65.03125 
Q 15.375 64.15625 9.8125 62.3125 
L 9.8125 71.09375 
Q 15.4375 72.65625 20.34375 73.4375 
Q 25.25 74.21875 29.59375 74.21875 
Q 40.828125 74.21875 47.359375 69.109375 
Q 53.90625 64.015625 53.90625 55.328125 
Q 53.90625 49.265625 50.4375 45.09375 
Q 46.96875 40.921875 40.578125 39.3125 
z
" id="DejaVuSans-51"/>
      </defs>
      <g transform="translate(44.2375 192.766101)scale(0.1 -0.1)">
       <use xlink:href="#DejaVuSans-51"/>
      </g>
     </g>
    </g>
    <g id="ytick_4">
     <g id="line2d_10">
      <g>
       <use style="stroke:#000000;stroke-width:0.8;" x="57.6" xlink:href="#m41f13dcabf" y="147.949553"/>
      </g>
     </g>
     <g id="text_10">
      <!-- 4 -->
      <g transform="translate(44.2375 151.748772)scale(0.1 -0.1)">
       <use xlink:href="#DejaVuSans-52"/>
      </g>
     </g>
    </g>
    <g id="ytick_5">
     <g id="line2d_11">
      <g>
       <use style="stroke:#000000;stroke-width:0.8;" x="57.6" xlink:href="#m41f13dcabf" y="106.932224"/>
      </g>
     </g>
     <g id="text_11">
      <!-- 5 -->
      <defs>
       <path d="M 10.796875 72.90625 
L 49.515625 72.90625 
L 49.515625 64.59375 
L 19.828125 64.59375 
L 19.828125 46.734375 
Q 21.96875 47.46875 24.109375 47.828125 
Q 26.265625 48.1875 28.421875 48.1875 
Q 40.625 48.1875 47.75 41.5 
Q 54.890625 34.8125 54.890625 23.390625 
Q 54.890625 11.625 47.5625 5.09375 
Q 40.234375 -1.421875 26.90625 -1.421875 
Q 22.3125 -1.421875 17.546875 -0.640625 
Q 12.796875 0.140625 7.71875 1.703125 
L 7.71875 11.625 
Q 12.109375 9.234375 16.796875 8.0625 
Q 21.484375 6.890625 26.703125 6.890625 
Q 35.15625 6.890625 40.078125 11.328125 
Q 45.015625 15.765625 45.015625 23.390625 
Q 45.015625 31 40.078125 35.4375 
Q 35.15625 39.890625 26.703125 39.890625 
Q 22.75 39.890625 18.8125 39.015625 
Q 14.890625 38.140625 10.796875 36.28125 
z
" id="DejaVuSans-53"/>
      </defs>
      <g transform="translate(44.2375 110.731443)scale(0.1 -0.1)">
       <use xlink:href="#DejaVuSans-53"/>
      </g>
     </g>
    </g>
    <g id="ytick_6">
     <g id="line2d_12">
      <g>
       <use style="stroke:#000000;stroke-width:0.8;" x="57.6" xlink:href="#m41f13dcabf" y="65.914895"/>
      </g>
     </g>
     <g id="text_12">
      <!-- 6 -->
      <g transform="translate(44.2375 69.714114)scale(0.1 -0.1)">
       <use xlink:href="#DejaVuSans-54"/>
      </g>
     </g>
    </g>
   </g>
   <g id="line2d_13">
    <path clip-path="url(#pa063d77555)" d="M 73.832727 293.458366 
L 74.157707 295.37406 
L 74.482686 292.138489 
L 74.807666 295.488 
L 75.132645 288.967413 
L 75.782604 292.968495 
L 76.107584 289.669373 
L 76.432563 283.992385 
L 76.757543 283.568442 
L 77.082523 286.45352 
L 77.732482 283.551961 
L 78.057461 286.30554 
L 78.382441 282.194909 
L 78.70742 280.561268 
L 79.0324 275.39999 
L 79.357379 276.906346 
L 79.682359 280.817232 
L 80.332318 272.969275 
L 80.657297 276.626061 
L 80.982277 275.191086 
L 81.307256 270.013969 
L 81.632236 270.327202 
L 81.957215 268.33066 
L 82.282195 268.575326 
L 82.607174 269.337699 
L 82.932154 267.391484 
L 83.257133 266.712146 
L 83.582113 263.832676 
L 83.907093 258.323983 
L 84.557052 261.986402 
L 84.882031 256.999093 
L 85.207011 260.593052 
L 85.53199 254.255448 
L 85.85697 253.832251 
L 86.181949 256.492723 
L 86.506929 256.107661 
L 86.831908 256.440272 
L 87.156888 253.938536 
L 87.481867 256.255634 
L 88.131826 251.687006 
L 88.456806 254.804663 
L 88.781785 250.800868 
L 89.106765 250.705854 
L 89.756724 243.654192 
L 90.081704 250.082413 
L 90.406683 243.191884 
L 90.731663 248.664553 
L 91.056642 247.623955 
L 91.381622 242.805254 
L 91.706601 245.336623 
L 92.031581 238.772134 
L 92.35656 238.377469 
L 92.68154 239.264401 
L 93.006519 240.567405 
L 93.331499 243.632463 
L 93.656478 237.973112 
L 93.981458 239.585749 
L 94.306437 237.480527 
L 94.631417 239.756517 
L 94.956396 235.978249 
L 95.281376 235.988437 
L 95.606355 235.050038 
L 95.931335 232.854221 
L 96.256314 231.600464 
L 96.906274 235.614536 
L 97.231253 233.361137 
L 97.556233 233.229353 
L 97.881212 233.990556 
L 98.206192 228.602937 
L 98.531171 230.119959 
L 98.856151 228.156527 
L 99.18113 227.23632 
L 99.50611 229.253738 
L 99.831089 229.73261 
L 100.481048 224.352714 
L 100.806028 227.256943 
L 101.131007 223.791999 
L 101.455987 224.47385 
L 101.780966 225.418695 
L 102.430925 216.50549 
L 102.755905 216.574432 
L 103.080885 216.940685 
L 103.405864 216.239745 
L 103.730844 210.821767 
L 104.055823 214.574639 
L 104.380803 215.453409 
L 104.705782 215.06055 
L 105.030762 213.998623 
L 105.355741 210.809902 
L 105.680721 211.114309 
L 106.0057 211.836398 
L 106.33068 209.655552 
L 106.655659 211.943884 
L 106.980639 203.516388 
L 107.630598 210.470717 
L 107.955577 210.701687 
L 108.280557 210.774182 
L 108.605536 206.003529 
L 108.930516 207.192759 
L 109.255495 207.297538 
L 109.580475 209.726128 
L 109.905455 204.356447 
L 110.230434 203.168573 
L 110.555414 202.835796 
L 111.205373 204.106692 
L 111.530352 205.001106 
L 111.855332 197.02829 
L 112.180311 203.000094 
L 112.505291 197.89405 
L 112.83027 196.740538 
L 113.15525 201.829932 
L 113.480229 195.698747 
L 114.130188 193.100402 
L 114.455168 192.968205 
L 114.780147 193.954856 
L 115.105127 190.102624 
L 115.430106 189.549913 
L 115.755086 190.859229 
L 116.080066 189.952805 
L 116.405045 192.361595 
L 116.730025 193.065358 
L 117.055004 190.6939 
L 117.379984 187.120501 
L 117.704963 189.337886 
L 118.029943 188.030408 
L 118.354922 189.689904 
L 118.679902 190.570838 
L 119.004881 189.194703 
L 119.329861 189.615791 
L 119.65484 188.983025 
L 119.97982 189.445211 
L 120.304799 185.220111 
L 120.629779 185.591909 
L 120.954758 184.843164 
L 121.279738 186.152705 
L 121.604717 184.773198 
L 121.929697 187.160953 
L 122.254676 187.473149 
L 122.579656 179.395159 
L 122.904636 186.51286 
L 123.229615 185.182588 
L 123.554595 184.61322 
L 123.879574 183.205912 
L 124.204554 185.397173 
L 124.529533 181.33305 
L 124.854513 183.32434 
L 125.504472 176.130242 
L 125.829451 177.106417 
L 126.154431 182.145647 
L 126.47941 176.679447 
L 126.80439 182.532688 
L 127.129369 178.454684 
L 127.454349 180.830176 
L 127.779328 172.201814 
L 128.104308 176.089588 
L 128.429287 171.569731 
L 128.754267 169.920858 
L 129.079247 171.341626 
L 129.404226 173.693799 
L 129.729206 171.070952 
L 130.054185 169.735296 
L 130.379165 172.498966 
L 130.704144 173.084051 
L 131.029124 176.417192 
L 131.679083 171.196724 
L 132.004062 162.615835 
L 132.329042 171.314078 
L 132.654021 172.191884 
L 132.979001 169.342483 
L 133.30398 171.668098 
L 133.62896 171.731746 
L 134.278919 168.251124 
L 134.603898 169.041682 
L 135.253857 164.987875 
L 135.578837 165.815743 
L 135.903817 163.405246 
L 136.228796 164.989611 
L 136.553776 167.554744 
L 136.878755 165.025755 
L 137.203735 165.812533 
L 137.528714 169.145271 
L 137.853694 161.769199 
L 138.178673 163.083022 
L 138.503653 163.426959 
L 138.828632 161.394729 
L 139.153612 163.128601 
L 139.478591 161.900227 
L 139.803571 156.885656 
L 140.12855 162.343018 
L 140.45353 162.735637 
L 140.778509 157.935254 
L 141.103489 155.960098 
L 141.428468 158.953703 
L 141.753448 160.647856 
L 142.078428 155.715223 
L 142.403407 162.312335 
L 143.053366 156.00302 
L 143.378346 154.919253 
L 143.703325 161.748614 
L 144.028305 158.654362 
L 144.353284 153.2565 
L 144.678264 155.790416 
L 145.003243 154.395729 
L 145.328223 152.493306 
L 145.653202 155.990569 
L 145.978182 152.126185 
L 146.303161 150.22239 
L 146.628141 152.256745 
L 146.95312 157.773121 
L 147.2781 148.684192 
L 147.603079 152.367691 
L 148.253038 149.346301 
L 148.902998 152.604376 
L 149.227977 148.80962 
L 149.552957 154.295653 
L 149.877936 149.92458 
L 150.202916 149.23102 
L 150.527895 151.0128 
L 150.852875 148.116674 
L 151.502834 153.270309 
L 151.827813 149.95273 
L 152.152793 149.768868 
L 152.477772 142.698651 
L 152.802752 147.128716 
L 153.127731 145.015619 
L 153.452711 149.169725 
L 153.77769 144.937806 
L 154.10267 148.850598 
L 154.427649 141.147663 
L 154.752629 144.703414 
L 155.077609 145.127304 
L 155.402588 148.413247 
L 155.727568 145.030749 
L 156.052547 146.780214 
L 156.377527 144.24289 
L 156.702506 146.223073 
L 157.027486 139.64384 
L 157.352465 141.942456 
L 157.677445 136.974509 
L 158.002424 140.247871 
L 158.327404 141.688513 
L 158.652383 139.775387 
L 158.977363 142.118564 
L 159.627322 138.810588 
L 159.952301 141.36357 
L 160.277281 145.083017 
L 160.60226 138.389708 
L 160.92724 147.222921 
L 161.252219 139.806023 
L 161.577199 140.566856 
L 161.902179 141.012458 
L 162.227158 139.98364 
L 162.552138 139.832195 
L 162.877117 138.950775 
L 163.527076 134.90175 
L 163.852056 138.188398 
L 164.826994 135.987957 
L 165.151974 135.645249 
L 165.801933 130.22356 
L 166.126912 140.968896 
L 166.451892 136.347086 
L 166.776871 138.364263 
L 167.101851 137.198067 
L 167.42683 135.544973 
L 167.75181 134.477068 
L 168.07679 135.112135 
L 168.401769 137.47784 
L 168.726749 130.880674 
L 169.051728 137.53565 
L 169.376708 130.922526 
L 169.701687 139.085566 
L 170.026667 131.544221 
L 170.351646 135.798743 
L 170.676626 136.160194 
L 171.001605 137.977718 
L 171.326585 129.536197 
L 171.976544 136.612471 
L 172.301523 132.851866 
L 172.626503 135.740016 
L 172.951482 136.818007 
L 173.601441 130.002632 
L 173.926421 134.435052 
L 174.2514 130.831945 
L 174.57638 134.502098 
L 174.90136 133.99113 
L 175.226339 128.257767 
L 175.551319 126.596564 
L 175.876298 132.63808 
L 176.201278 131.033246 
L 176.526257 131.226148 
L 176.851237 127.9991 
L 177.176216 129.328988 
L 177.501196 128.444466 
L 177.826175 126.878344 
L 178.151155 132.102161 
L 178.476134 127.728396 
L 178.801114 130.572946 
L 179.126093 128.331599 
L 179.451073 127.41779 
L 179.776052 132.361312 
L 180.101032 127.949493 
L 180.426011 132.726942 
L 180.750991 125.6402 
L 181.40095 125.695015 
L 181.72593 129.338986 
L 182.050909 129.006591 
L 182.375889 129.536634 
L 182.700868 126.903342 
L 183.025848 129.636699 
L 183.350827 128.307645 
L 183.675807 129.629463 
L 184.000786 127.541355 
L 184.325766 129.781342 
L 184.650745 127.220343 
L 184.975725 127.44103 
L 185.300704 124.083585 
L 185.625684 123.290543 
L 185.950663 129.178173 
L 186.275643 128.974044 
L 186.600622 123.338105 
L 186.925602 124.982311 
L 187.250581 121.403545 
L 187.575561 122.412256 
L 187.900541 124.140512 
L 188.22552 127.850437 
L 188.5505 120.591113 
L 188.875479 122.997546 
L 189.200459 122.198377 
L 189.525438 125.387879 
L 189.850418 119.439941 
L 190.175397 125.583235 
L 190.500377 122.599365 
L 190.825356 122.300925 
L 191.150336 121.307895 
L 191.475315 126.518983 
L 191.800295 118.063205 
L 192.125274 125.148959 
L 192.450254 123.000785 
L 192.775233 120.003533 
L 193.100213 114.911439 
L 193.425192 119.680334 
L 193.750172 122.472611 
L 194.725111 118.582178 
L 195.05009 115.499851 
L 195.37507 118.25093 
L 195.700049 117.530367 
L 196.025029 116.425611 
L 196.350008 118.010066 
L 196.674988 116.576761 
L 196.999967 119.65034 
L 197.649926 116.293555 
L 197.974906 117.522119 
L 198.299885 114.489294 
L 198.624865 116.496138 
L 198.949844 115.140528 
L 199.274824 119.41996 
L 199.599803 112.639896 
L 199.924783 120.976217 
L 200.249762 113.315595 
L 200.574742 120.288819 
L 200.899722 116.544537 
L 201.224701 119.601457 
L 201.549681 115.025307 
L 202.19964 116.548214 
L 202.524619 116.031293 
L 202.849599 114.297495 
L 203.174578 114.817226 
L 203.499558 116.914469 
L 203.824537 115.132193 
L 204.149517 117.048719 
L 204.474496 117.424561 
L 204.799476 113.594782 
L 205.124455 118.501294 
L 205.774414 112.934308 
L 206.099394 115.719771 
L 206.424373 115.8085 
L 206.749353 111.384548 
L 207.074333 113.191033 
L 207.399312 113.119145 
L 207.724292 110.883573 
L 208.049271 115.133763 
L 208.374251 114.810009 
L 208.69923 111.931476 
L 209.02421 110.906938 
L 209.349189 114.656526 
L 209.674169 115.138685 
L 209.999148 108.625562 
L 210.649107 116.696997 
L 210.974087 112.235069 
L 211.624046 115.524855 
L 211.949025 110.745131 
L 212.274005 114.714407 
L 212.598984 114.066525 
L 212.923964 116.104416 
L 213.248943 109.840851 
L 213.573923 115.025556 
L 213.898903 109.563137 
L 214.223882 110.817214 
L 214.548862 107.237942 
L 214.873841 108.867341 
L 215.198821 111.974218 
L 216.173759 106.778741 
L 216.498739 112.156215 
L 216.823718 108.896726 
L 217.148698 109.5907 
L 217.473677 113.991441 
L 217.798657 108.688532 
L 218.123636 110.396693 
L 218.448616 102.471573 
L 218.773595 108.035996 
L 219.098575 111.207249 
L 219.423554 108.80424 
L 219.748534 112.126295 
L 220.073514 113.167044 
L 220.398493 110.550585 
L 220.723473 105.492038 
L 221.048452 106.622204 
L 221.373432 107.179944 
L 221.698411 116.026885 
L 222.023391 103.89353 
L 222.67335 108.861723 
L 222.998329 109.440255 
L 223.323309 109.017432 
L 223.648288 107.971501 
L 223.973268 112.27362 
L 224.948206 102.771484 
L 225.273186 109.973124 
L 225.598165 108.713613 
L 226.248124 109.475041 
L 226.573104 105.164456 
L 226.898084 105.563755 
L 227.223063 108.117762 
L 227.548043 107.140454 
L 227.873022 103.946134 
L 228.198002 105.207039 
L 228.522981 101.821394 
L 228.847961 105.982145 
L 229.17294 107.025765 
L 229.49792 100.832449 
L 229.822899 103.130237 
L 230.147879 102.483139 
L 230.472858 103.74309 
L 230.797838 102.542101 
L 231.122817 103.679653 
L 231.447797 101.849306 
L 231.772776 103.693101 
L 232.097756 104.726832 
L 232.422735 104.973911 
L 232.747715 108.252091 
L 233.072695 104.782246 
L 233.397674 104.073149 
L 233.722654 101.28435 
L 234.372613 105.249924 
L 234.697592 104.265666 
L 235.022572 104.450361 
L 235.347551 100.28036 
L 235.672531 104.326195 
L 235.99751 100.463826 
L 236.32249 101.149433 
L 236.647469 104.429488 
L 236.972449 105.207123 
L 237.297428 103.409368 
L 237.622408 105.227217 
L 237.947387 97.805322 
L 238.272367 101.194927 
L 238.597346 102.977704 
L 238.922326 103.105699 
L 239.247305 100.172557 
L 239.572285 98.68054 
L 239.897265 101.413685 
L 240.222244 101.197098 
L 240.547224 98.576378 
L 240.872203 100.664116 
L 241.197183 101.549173 
L 241.522162 99.943318 
L 241.847142 98.90489 
L 242.172121 100.906956 
L 242.497101 101.726232 
L 242.82208 96.490257 
L 243.14706 102.196218 
L 243.472039 100.894061 
L 243.797019 100.58305 
L 244.121998 99.265682 
L 244.446978 100.902109 
L 244.771957 99.394223 
L 245.096937 98.49163 
L 245.421916 101.885327 
L 246.071876 96.674017 
L 246.396855 103.017154 
L 246.721835 95.672636 
L 247.046814 101.319644 
L 247.371794 95.543202 
L 247.696773 97.794878 
L 248.021753 102.748549 
L 248.346732 94.340346 
L 248.671712 97.382794 
L 248.996691 97.635737 
L 249.321671 97.267949 
L 249.64665 103.450373 
L 249.97163 99.165923 
L 250.296609 98.534261 
L 250.621589 98.667207 
L 250.946568 88.694594 
L 251.271548 93.792195 
L 251.596527 93.07949 
L 251.921507 99.169267 
L 252.246486 101.460551 
L 252.571466 95.179123 
L 252.896446 94.910607 
L 253.221425 90.499133 
L 253.546405 97.130203 
L 253.871384 95.608412 
L 254.196364 97.96325 
L 254.521343 95.248586 
L 254.846323 96.573581 
L 255.171302 93.158594 
L 255.821261 95.91275 
L 256.146241 95.162259 
L 256.47122 90.848575 
L 256.7962 91.750617 
L 257.121179 96.663791 
L 257.446159 95.960982 
L 257.771138 94.297634 
L 258.096118 97.458887 
L 258.421097 89.653199 
L 258.746077 93.141859 
L 259.071057 92.264408 
L 259.396036 97.59128 
L 259.721016 91.552562 
L 260.045995 92.424333 
L 260.370975 95.29347 
L 260.695954 91.672115 
L 261.020934 92.819675 
L 261.345913 93.131932 
L 261.670893 92.818717 
L 261.995872 94.661085 
L 262.320852 94.010615 
L 262.645831 94.983318 
L 262.970811 91.782292 
L 263.29579 96.879066 
L 263.62077 89.374046 
L 263.945749 90.305645 
L 264.270729 95.603936 
L 264.595708 91.514211 
L 265.245667 89.543406 
L 265.570647 90.467824 
L 265.895627 90.997017 
L 266.220606 91.172684 
L 266.545586 87.725995 
L 266.870565 90.079368 
L 267.195545 91.52678 
L 267.845504 87.659467 
L 268.170483 91.852943 
L 268.495463 87.422067 
L 268.820442 91.787913 
L 269.145422 83.056417 
L 269.470401 88.070295 
L 269.795381 89.459229 
L 270.12036 93.881954 
L 270.44534 88.650728 
L 270.770319 91.318037 
L 271.095299 90.692691 
L 271.420278 88.30361 
L 271.745258 91.366216 
L 272.070238 87.967076 
L 272.395217 91.073547 
L 272.720197 86.830792 
L 273.045176 88.236148 
L 273.370156 87.051087 
L 273.695135 92.455348 
L 274.020115 87.125595 
L 274.345094 87.624583 
L 274.670074 91.543785 
L 274.995053 84.527222 
L 275.320033 86.664862 
L 275.645012 90.8479 
L 275.969992 87.896241 
L 276.294971 82.094775 
L 276.619951 86.121768 
L 276.94493 85.223026 
L 277.26991 86.009247 
L 277.919869 88.414174 
L 278.244848 84.915645 
L 278.569828 91.379577 
L 278.894808 86.189579 
L 279.219787 88.254702 
L 279.544767 89.005922 
L 279.869746 83.883937 
L 280.194726 86.393949 
L 280.519705 85.175221 
L 280.844685 80.045356 
L 281.169664 85.406089 
L 281.494644 88.433875 
L 281.819623 83.605226 
L 282.144603 86.003306 
L 282.469582 85.744512 
L 282.794562 84.998195 
L 283.119541 87.667459 
L 283.444521 88.238237 
L 283.7695 79.890336 
L 284.09448 83.229849 
L 284.419459 90.143397 
L 284.744439 84.754965 
L 285.069419 86.913327 
L 285.394398 86.039029 
L 285.719378 87.318244 
L 286.044357 87.148771 
L 286.369337 82.998675 
L 286.694316 81.927215 
L 287.019296 86.583112 
L 287.669255 85.193853 
L 287.994234 81.978348 
L 288.319214 83.964185 
L 288.644193 83.520586 
L 288.969173 80.208004 
L 289.294152 86.215608 
L 289.619132 81.648078 
L 289.944111 83.703918 
L 290.269091 82.225823 
L 290.59407 85.355968 
L 290.91905 79.936494 
L 291.244029 83.06494 
L 291.569009 79.400768 
L 291.893989 79.021198 
L 292.218968 83.519793 
L 292.543948 84.796097 
L 292.868927 79.880739 
L 293.193907 82.114045 
L 293.518886 79.453146 
L 293.843866 80.25654 
L 294.168845 82.558597 
L 294.493825 80.708945 
L 294.818804 82.259694 
L 295.143784 81.041418 
L 295.468763 82.692712 
L 295.793743 80.130423 
L 296.118722 87.099944 
L 296.443702 79.61071 
L 296.768681 79.935117 
L 297.093661 80.094769 
L 297.41864 79.193093 
L 297.74362 79.376375 
L 298.0686 82.49986 
L 298.393579 81.258869 
L 298.718559 81.215116 
L 299.043538 78.121371 
L 299.368518 86.856405 
L 299.693497 80.523142 
L 300.018477 83.793155 
L 300.343456 85.189306 
L 300.668436 82.758704 
L 300.993415 79.405095 
L 301.318395 82.963065 
L 301.643374 78.359188 
L 301.968354 78.037659 
L 302.293333 79.698497 
L 302.618313 79.23366 
L 302.943292 83.507239 
L 303.268272 80.1818 
L 303.593251 80.347512 
L 303.918231 79.976253 
L 304.24321 82.630261 
L 304.89317 77.36247 
L 305.218149 76.768246 
L 305.543129 86.132233 
L 305.868108 73.569825 
L 306.193088 81.407577 
L 306.843047 76.129914 
L 307.168026 81.636831 
L 307.493006 79.717411 
L 307.817985 82.665021 
L 308.467944 78.990833 
L 308.792924 79.698212 
L 309.117903 78.625507 
L 309.442883 81.122644 
L 309.767862 78.839135 
L 310.092842 82.227467 
L 310.417821 78.205505 
L 310.742801 76.37113 
L 311.39276 78.640395 
L 311.71774 78.003896 
L 312.042719 77.72748 
L 312.367699 78.304362 
L 312.692678 76.274726 
L 313.017658 81.662297 
L 313.342637 79.726025 
L 313.667617 76.145365 
L 313.992596 75.643475 
L 314.317576 78.862401 
L 314.642555 73.809859 
L 314.967535 73.437997 
L 315.292514 76.785804 
L 315.617494 75.306005 
L 315.942473 79.126197 
L 316.267453 76.798199 
L 316.592432 78.896988 
L 316.917412 78.417442 
L 317.242391 75.347817 
L 317.567371 79.68517 
L 317.892351 76.284128 
L 318.21733 75.661314 
L 318.54231 76.546916 
L 318.867289 76.896897 
L 319.192269 78.27499 
L 319.517248 78.114479 
L 319.842228 72.352575 
L 320.167207 73.514873 
L 320.817166 74.627273 
L 321.142146 82.436309 
L 321.792105 72.224153 
L 322.117084 80.707155 
L 322.442064 75.800712 
L 322.767043 77.049059 
L 323.092023 74.968205 
L 323.417002 78.619576 
L 323.741982 79.155917 
L 324.066962 77.692496 
L 324.391941 72.050863 
L 324.716921 74.496691 
L 325.0419 73.697234 
L 325.36688 74.534222 
L 325.691859 78.754731 
L 326.016839 77.394277 
L 326.341818 77.646838 
L 326.666798 72.561968 
L 326.991777 77.252139 
L 327.316757 75.301869 
L 327.641736 74.762573 
L 327.966716 71.299375 
L 328.291695 75.473831 
L 328.616675 71.450521 
L 328.941654 76.082315 
L 329.266634 72.922053 
L 329.591613 72.49444 
L 330.241572 76.431561 
L 330.566552 77.135201 
L 330.891532 72.03348 
L 331.216511 73.537281 
L 331.86647 69.001894 
L 332.19145 73.353307 
L 332.516429 73.772849 
L 332.841409 77.649161 
L 333.166388 77.364443 
L 333.491368 72.261716 
L 333.816347 73.079665 
L 334.141327 75.252911 
L 334.466306 70.764251 
L 334.791286 76.417003 
L 335.116265 72.777121 
L 335.441245 73.089817 
L 335.766224 68.550392 
L 336.416183 73.240448 
L 336.741163 65.806912 
L 337.066143 71.490776 
L 337.391122 67.814844 
L 337.716102 69.895728 
L 338.041081 76.679516 
L 338.366061 72.386496 
L 338.69104 73.745437 
L 339.01602 67.605159 
L 339.340999 70.443011 
L 339.665979 65.618146 
L 339.990958 70.149135 
L 340.640917 69.858861 
L 341.290876 74.107606 
L 341.615856 72.254025 
L 341.940835 74.249799 
L 342.265815 70.137634 
L 342.590794 74.1821 
L 342.915774 67.170004 
L 343.240753 65.125035 
L 343.890713 74.367377 
L 344.215692 66.592526 
L 344.540672 72.090382 
L 344.865651 67.586864 
L 345.190631 72.159912 
L 345.51561 70.653621 
L 345.84059 70.6766 
L 346.165569 68.536279 
L 346.490549 71.951788 
L 347.140508 67.29553 
L 347.465487 72.946764 
L 347.790467 66.543627 
L 348.115446 70.229962 
L 348.440426 69.298952 
L 348.765405 71.838279 
L 349.090385 73.160644 
L 349.415364 70.421855 
L 349.740344 65.343549 
L 350.065324 68.71451 
L 350.390303 66.780384 
L 350.715283 69.770643 
L 351.365242 66.136452 
L 351.690221 68.286517 
L 352.015201 62.321966 
L 352.34018 70.361626 
L 352.66516 69.562606 
L 352.990139 66.250644 
L 353.315119 69.960684 
L 353.640098 66.712632 
L 354.290057 71.197616 
L 354.940016 64.351416 
L 355.264996 68.493651 
L 355.914955 69.93199 
L 356.239934 69.781334 
L 356.564914 68.884278 
L 356.889894 71.716292 
L 357.539853 63.344069 
L 357.864832 67.066255 
L 358.189812 67.445759 
L 358.514791 65.100432 
L 358.839771 68.724222 
L 359.16475 66.37983 
L 359.48973 67.154761 
L 359.814709 63.877924 
L 360.139689 71.333592 
L 360.464668 64.08306 
L 360.789648 70.825411 
L 361.114627 69.957918 
L 361.439607 70.801398 
L 361.764586 66.417947 
L 362.089566 65.803629 
L 362.414545 65.869541 
L 362.739525 69.434117 
L 363.064505 65.124034 
L 363.389484 66.458235 
L 363.714464 68.272658 
L 364.039443 63.434393 
L 364.364423 67.122324 
L 364.689402 65.691997 
L 365.014382 60.831451 
L 365.339361 68.037575 
L 365.664341 62.519307 
L 365.98932 68.67581 
L 366.3143 64.655935 
L 366.639279 66.035593 
L 366.964259 65.617742 
L 367.289238 64.58983 
L 367.614218 62.914369 
L 368.264177 69.844037 
L 368.589156 68.687212 
L 368.914136 62.714179 
L 369.239115 68.200695 
L 369.564095 65.824004 
L 369.889075 64.711805 
L 370.214054 62.437035 
L 370.539034 68.495667 
L 370.864013 66.106228 
L 371.188993 67.608746 
L 371.513972 66.074952 
L 371.838952 65.195475 
L 372.163931 63.905785 
L 372.488911 65.404595 
L 372.81389 64.128924 
L 373.13887 64.820033 
L 373.463849 68.348957 
L 373.788829 62.039061 
L 374.113808 64.558427 
L 374.438788 59.823059 
L 374.763767 64.185353 
L 375.088747 65.8354 
L 375.413726 68.986152 
L 375.738706 67.438282 
L 376.063686 67.508135 
L 376.388665 58.384774 
L 377.038624 68.770559 
L 377.688583 62.92034 
L 378.013563 63.242072 
L 378.338542 62.803459 
L 378.663522 60.951468 
L 378.988501 68.89846 
L 379.313481 57.668251 
L 379.63846 64.169209 
L 379.96344 64.871369 
L 380.288419 66.18331 
L 380.613399 57.905099 
L 380.938378 61.157045 
L 381.263358 66.520312 
L 381.588337 61.666232 
L 381.913317 61.446497 
L 382.238296 62.213882 
L 382.563276 60.309136 
L 382.888256 63.433335 
L 383.213235 61.919563 
L 383.538215 64.359022 
L 383.863194 62.013217 
L 384.188174 65.388983 
L 384.513153 60.999156 
L 384.838133 60.337065 
L 385.163112 61.233169 
L 385.488092 60.581359 
L 385.813071 59.458143 
L 386.138051 63.359383 
L 386.46303 62.905031 
L 386.78801 62.731611 
L 387.112989 61.532591 
L 387.437969 65.53044 
L 387.762948 64.242169 
L 388.087928 64.093051 
L 388.737887 58.740146 
L 389.062867 58.231095 
L 389.387846 60.268001 
L 389.712826 56.36405 
L 390.037805 61.41959 
L 390.362785 60.944287 
L 390.687764 58.437094 
L 391.012744 57.483945 
L 391.337723 61.737049 
L 391.662703 63.408644 
L 391.987682 65.882376 
L 392.312662 60.728172 
L 392.637641 57.771752 
L 392.962621 62.284446 
L 393.2876 60.799884 
L 393.61258 55.756073 
L 393.937559 59.671846 
L 394.262539 61.571089 
L 394.587518 60.392521 
L 394.912498 60.440106 
L 395.237477 60.031751 
L 395.562457 62.628657 
L 395.887437 59.54676 
L 396.212416 59.314931 
L 396.862375 63.017426 
L 397.187355 55.924797 
L 397.512334 53.568 
L 398.162293 58.25955 
L 398.487273 58.250845 
L 398.487273 58.250845 
" style="fill:none;stroke:#1f77b4;stroke-linecap:square;stroke-width:1.5;"/>
   </g>
   <g id="patch_3">
    <path d="M 57.6 307.584 
L 57.6 41.472 
" style="fill:none;stroke:#000000;stroke-linecap:square;stroke-linejoin:miter;stroke-width:0.8;"/>
   </g>
   <g id="patch_4">
    <path d="M 414.72 307.584 
L 414.72 41.472 
" style="fill:none;stroke:#000000;stroke-linecap:square;stroke-linejoin:miter;stroke-width:0.8;"/>
   </g>
   <g id="patch_5">
    <path d="M 57.6 307.584 
L 414.72 307.584 
" style="fill:none;stroke:#000000;stroke-linecap:square;stroke-linejoin:miter;stroke-width:0.8;"/>
   </g>
   <g id="patch_6">
    <path d="M 57.6 41.472 
L 414.72 41.472 
" style="fill:none;stroke:#000000;stroke-linecap:square;stroke-linejoin:miter;stroke-width:0.8;"/>
   </g>
   <g id="text_13">
    <!-- Average reward per step -->
    <defs>
     <path d="M 34.1875 63.1875 
L 20.796875 26.90625 
L 47.609375 26.90625 
z
M 28.609375 72.90625 
L 39.796875 72.90625 
L 67.578125 0 
L 57.328125 0 
L 50.6875 18.703125 
L 17.828125 18.703125 
L 11.1875 0 
L 0.78125 0 
z
" id="DejaVuSans-65"/>
     <path d="M 2.984375 54.6875 
L 12.5 54.6875 
L 29.59375 8.796875 
L 46.6875 54.6875 
L 56.203125 54.6875 
L 35.6875 0 
L 23.484375 0 
z
" id="DejaVuSans-118"/>
     <path d="M 56.203125 29.59375 
L 56.203125 25.203125 
L 14.890625 25.203125 
Q 15.484375 15.921875 20.484375 11.0625 
Q 25.484375 6.203125 34.421875 6.203125 
Q 39.59375 6.203125 44.453125 7.46875 
Q 49.3125 8.734375 54.109375 11.28125 
L 54.109375 2.78125 
Q 49.265625 0.734375 44.1875 -0.34375 
Q 39.109375 -1.421875 33.890625 -1.421875 
Q 20.796875 -1.421875 13.15625 6.1875 
Q 5.515625 13.8125 5.515625 26.8125 
Q 5.515625 40.234375 12.765625 48.109375 
Q 20.015625 56 32.328125 56 
Q 43.359375 56 49.78125 48.890625 
Q 56.203125 41.796875 56.203125 29.59375 
z
M 47.21875 32.234375 
Q 47.125 39.59375 43.09375 43.984375 
Q 39.0625 48.390625 32.421875 48.390625 
Q 24.90625 48.390625 20.390625 44.140625 
Q 15.875 39.890625 15.1875 32.171875 
z
" id="DejaVuSans-101"/>
     <path d="M 41.109375 46.296875 
Q 39.59375 47.171875 37.8125 47.578125 
Q 36.03125 48 33.890625 48 
Q 26.265625 48 22.1875 43.046875 
Q 18.109375 38.09375 18.109375 28.8125 
L 18.109375 0 
L 9.078125 0 
L 9.078125 54.6875 
L 18.109375 54.6875 
L 18.109375 46.1875 
Q 20.953125 51.171875 25.484375 53.578125 
Q 30.03125 56 36.53125 56 
Q 37.453125 56 38.578125 55.875 
Q 39.703125 55.765625 41.0625 55.515625 
z
" id="DejaVuSans-114"/>
     <path d="M 34.28125 27.484375 
Q 23.390625 27.484375 19.1875 25 
Q 14.984375 22.515625 14.984375 16.5 
Q 14.984375 11.71875 18.140625 8.90625 
Q 21.296875 6.109375 26.703125 6.109375 
Q 34.1875 6.109375 38.703125 11.40625 
Q 43.21875 16.703125 43.21875 25.484375 
L 43.21875 27.484375 
z
M 52.203125 31.203125 
L 52.203125 0 
L 43.21875 0 
L 43.21875 8.296875 
Q 40.140625 3.328125 35.546875 0.953125 
Q 30.953125 -1.421875 24.3125 -1.421875 
Q 15.921875 -1.421875 10.953125 3.296875 
Q 6 8.015625 6 15.921875 
Q 6 25.140625 12.171875 29.828125 
Q 18.359375 34.515625 30.609375 34.515625 
L 43.21875 34.515625 
L 43.21875 35.40625 
Q 43.21875 41.609375 39.140625 45 
Q 35.0625 48.390625 27.6875 48.390625 
Q 23 48.390625 18.546875 47.265625 
Q 14.109375 46.140625 10.015625 43.890625 
L 10.015625 52.203125 
Q 14.9375 54.109375 19.578125 55.046875 
Q 24.21875 56 28.609375 56 
Q 40.484375 56 46.34375 49.84375 
Q 52.203125 43.703125 52.203125 31.203125 
z
" id="DejaVuSans-97"/>
     <path d="M 45.40625 27.984375 
Q 45.40625 37.75 41.375 43.109375 
Q 37.359375 48.484375 30.078125 48.484375 
Q 22.859375 48.484375 18.828125 43.109375 
Q 14.796875 37.75 14.796875 27.984375 
Q 14.796875 18.265625 18.828125 12.890625 
Q 22.859375 7.515625 30.078125 7.515625 
Q 37.359375 7.515625 41.375 12.890625 
Q 45.40625 18.265625 45.40625 27.984375 
z
M 54.390625 6.78125 
Q 54.390625 -7.171875 48.1875 -13.984375 
Q 42 -20.796875 29.203125 -20.796875 
Q 24.46875 -20.796875 20.265625 -20.09375 
Q 16.0625 -19.390625 12.109375 -17.921875 
L 12.109375 -9.1875 
Q 16.0625 -11.328125 19.921875 -12.34375 
Q 23.78125 -13.375 27.78125 -13.375 
Q 36.625 -13.375 41.015625 -8.765625 
Q 45.40625 -4.15625 45.40625 5.171875 
L 45.40625 9.625 
Q 42.625 4.78125 38.28125 2.390625 
Q 33.9375 0 27.875 0 
Q 17.828125 0 11.671875 7.65625 
Q 5.515625 15.328125 5.515625 27.984375 
Q 5.515625 40.671875 11.671875 48.328125 
Q 17.828125 56 27.875 56 
Q 33.9375 56 38.28125 53.609375 
Q 42.625 51.21875 45.40625 46.390625 
L 45.40625 54.6875 
L 54.390625 54.6875 
z
" id="DejaVuSans-103"/>
     <path id="DejaVuSans-32"/>
     <path d="M 4.203125 54.6875 
L 13.1875 54.6875 
L 24.421875 12.015625 
L 35.59375 54.6875 
L 46.1875 54.6875 
L 57.421875 12.015625 
L 68.609375 54.6875 
L 77.59375 54.6875 
L 63.28125 0 
L 52.6875 0 
L 40.921875 44.828125 
L 29.109375 0 
L 18.5 0 
z
" id="DejaVuSans-119"/>
     <path d="M 45.40625 46.390625 
L 45.40625 75.984375 
L 54.390625 75.984375 
L 54.390625 0 
L 45.40625 0 
L 45.40625 8.203125 
Q 42.578125 3.328125 38.25 0.953125 
Q 33.9375 -1.421875 27.875 -1.421875 
Q 17.96875 -1.421875 11.734375 6.484375 
Q 5.515625 14.40625 5.515625 27.296875 
Q 5.515625 40.1875 11.734375 48.09375 
Q 17.96875 56 27.875 56 
Q 33.9375 56 38.25 53.625 
Q 42.578125 51.265625 45.40625 46.390625 
z
M 14.796875 27.296875 
Q 14.796875 17.390625 18.875 11.75 
Q 22.953125 6.109375 30.078125 6.109375 
Q 37.203125 6.109375 41.296875 11.75 
Q 45.40625 17.390625 45.40625 27.296875 
Q 45.40625 37.203125 41.296875 42.84375 
Q 37.203125 48.484375 30.078125 48.484375 
Q 22.953125 48.484375 18.875 42.84375 
Q 14.796875 37.203125 14.796875 27.296875 
z
" id="DejaVuSans-100"/>
     <path d="M 18.109375 8.203125 
L 18.109375 -20.796875 
L 9.078125 -20.796875 
L 9.078125 54.6875 
L 18.109375 54.6875 
L 18.109375 46.390625 
Q 20.953125 51.265625 25.265625 53.625 
Q 29.59375 56 35.59375 56 
Q 45.5625 56 51.78125 48.09375 
Q 58.015625 40.1875 58.015625 27.296875 
Q 58.015625 14.40625 51.78125 6.484375 
Q 45.5625 -1.421875 35.59375 -1.421875 
Q 29.59375 -1.421875 25.265625 0.953125 
Q 20.953125 3.328125 18.109375 8.203125 
z
M 48.6875 27.296875 
Q 48.6875 37.203125 44.609375 42.84375 
Q 40.53125 48.484375 33.40625 48.484375 
Q 26.265625 48.484375 22.1875 42.84375 
Q 18.109375 37.203125 18.109375 27.296875 
Q 18.109375 17.390625 22.1875 11.75 
Q 26.265625 6.109375 33.40625 6.109375 
Q 40.53125 6.109375 44.609375 11.75 
Q 48.6875 17.390625 48.6875 27.296875 
z
" id="DejaVuSans-112"/>
     <path d="M 44.28125 53.078125 
L 44.28125 44.578125 
Q 40.484375 46.53125 36.375 47.5 
Q 32.28125 48.484375 27.875 48.484375 
Q 21.1875 48.484375 17.84375 46.4375 
Q 14.5 44.390625 14.5 40.28125 
Q 14.5 37.15625 16.890625 35.375 
Q 19.28125 33.59375 26.515625 31.984375 
L 29.59375 31.296875 
Q 39.15625 29.25 43.1875 25.515625 
Q 47.21875 21.78125 47.21875 15.09375 
Q 47.21875 7.46875 41.1875 3.015625 
Q 35.15625 -1.421875 24.609375 -1.421875 
Q 20.21875 -1.421875 15.453125 -0.5625 
Q 10.6875 0.296875 5.421875 2 
L 5.421875 11.28125 
Q 10.40625 8.6875 15.234375 7.390625 
Q 20.0625 6.109375 24.8125 6.109375 
Q 31.15625 6.109375 34.5625 8.28125 
Q 37.984375 10.453125 37.984375 14.40625 
Q 37.984375 18.0625 35.515625 20.015625 
Q 33.0625 21.96875 24.703125 23.78125 
L 21.578125 24.515625 
Q 13.234375 26.265625 9.515625 29.90625 
Q 5.8125 33.546875 5.8125 39.890625 
Q 5.8125 47.609375 11.28125 51.796875 
Q 16.75 56 26.8125 56 
Q 31.78125 56 36.171875 55.265625 
Q 40.578125 54.546875 44.28125 53.078125 
z
" id="DejaVuSans-115"/>
     <path d="M 18.3125 70.21875 
L 18.3125 54.6875 
L 36.8125 54.6875 
L 36.8125 47.703125 
L 18.3125 47.703125 
L 18.3125 18.015625 
Q 18.3125 11.328125 20.140625 9.421875 
Q 21.96875 7.515625 27.59375 7.515625 
L 36.8125 7.515625 
L 36.8125 0 
L 27.59375 0 
Q 17.1875 0 13.234375 3.875 
Q 9.28125 7.765625 9.28125 18.015625 
L 9.28125 47.703125 
L 2.6875 47.703125 
L 2.6875 54.6875 
L 9.28125 54.6875 
L 9.28125 70.21875 
z
" id="DejaVuSans-116"/>
    </defs>
    <g transform="translate(161.490938 35.472)scale(0.12 -0.12)">
     <use xlink:href="#DejaVuSans-65"/>
     <use x="68.330078" xlink:href="#DejaVuSans-118"/>
     <use x="127.509766" xlink:href="#DejaVuSans-101"/>
     <use x="189.033203" xlink:href="#DejaVuSans-114"/>
     <use x="230.146484" xlink:href="#DejaVuSans-97"/>
     <use x="291.425781" xlink:href="#DejaVuSans-103"/>
     <use x="354.902344" xlink:href="#DejaVuSans-101"/>
     <use x="416.425781" xlink:href="#DejaVuSans-32"/>
     <use x="448.212891" xlink:href="#DejaVuSans-114"/>
     <use x="489.294922" xlink:href="#DejaVuSans-101"/>
     <use x="550.818359" xlink:href="#DejaVuSans-119"/>
     <use x="632.605469" xlink:href="#DejaVuSans-97"/>
     <use x="693.884766" xlink:href="#DejaVuSans-114"/>
     <use x="734.982422" xlink:href="#DejaVuSans-100"/>
     <use x="798.458984" xlink:href="#DejaVuSans-32"/>
     <use x="830.246094" xlink:href="#DejaVuSans-112"/>
     <use x="893.722656" xlink:href="#DejaVuSans-101"/>
     <use x="955.246094" xlink:href="#DejaVuSans-114"/>
     <use x="996.359375" xlink:href="#DejaVuSans-32"/>
     <use x="1028.146484" xlink:href="#DejaVuSans-115"/>
     <use x="1080.246094" xlink:href="#DejaVuSans-116"/>
     <use x="1119.455078" xlink:href="#DejaVuSans-101"/>
     <use x="1180.978516" xlink:href="#DejaVuSans-112"/>
    </g>
   </g>
  </g>
 </g>
 <defs>
  <clipPath id="pa063d77555">
   <rect height="266.112" width="357.12" x="57.6" y="41.472"/>
  </clipPath>
 </defs>
</svg>
