<?xml version="1.0" encoding="utf-8" standalone="no"?>
<!DOCTYPE svg PUBLIC "-//W3C//DTD SVG 1.1//EN"
  "http://www.w3.org/Graphics/SVG/1.1/DTD/svg11.dtd">
<!-- Created with matplotlib (https://matplotlib.org/) -->
<svg height="345.6pt" version="1.1" viewBox="0 0 460.8 345.6" width="460.8pt" xmlns="http://www.w3.org/2000/svg" xmlns:xlink="http://www.w3.org/1999/xlink">
 <defs>
  <style type="text/css">
*{stroke-linecap:butt;stroke-linejoin:round;}
  </style>
 </defs>
 <g id="figure_1">
  <g id="patch_1">
   <path d="M 0 345.6 
L 460.8 345.6 
L 460.8 0 
L 0 0 
z
" style="fill:#ffffff;"/>
  </g>
  <g id="axes_1">
   <g id="patch_2">
    <path d="M 57.6 307.584 
L 414.72 307.584 
L 414.72 41.472 
L 57.6 41.472 
z
" style="fill:#ffffff;"/>
   </g>
   <g id="matplotlib.axis_1">
    <g id="xtick_1">
     <g id="line2d_1">
      <defs>
       <path d="M 0 0 
L 0 3.5 
" id="m493535af51" style="stroke:#000000;stroke-width:0.8;"/>
      </defs>
      <g>
       <use style="stroke:#000000;stroke-width:0.8;" x="73.832727" xlink:href="#m493535af51" y="307.584"/>
      </g>
     </g>
     <g id="text_1">
      <!-- 0 -->
      <defs>
       <path d="M 31.78125 66.40625 
Q 24.171875 66.40625 20.328125 58.90625 
Q 16.5 51.421875 16.5 36.375 
Q 16.5 21.390625 20.328125 13.890625 
Q 24.171875 6.390625 31.78125 6.390625 
Q 39.453125 6.390625 43.28125 13.890625 
Q 47.125 21.390625 47.125 36.375 
Q 47.125 51.421875 43.28125 58.90625 
Q 39.453125 66.40625 31.78125 66.40625 
z
M 31.78125 74.21875 
Q 44.046875 74.21875 50.515625 64.515625 
Q 56.984375 54.828125 56.984375 36.375 
Q 56.984375 17.96875 50.515625 8.265625 
Q 44.046875 -1.421875 31.78125 -1.421875 
Q 19.53125 -1.421875 13.0625 8.265625 
Q 6.59375 17.96875 6.59375 36.375 
Q 6.59375 54.828125 13.0625 64.515625 
Q 19.53125 74.21875 31.78125 74.21875 
z
" id="DejaVuSans-48"/>
      </defs>
      <g transform="translate(70.651477 322.182437)scale(0.1 -0.1)">
       <use xlink:href="#DejaVuSans-48"/>
      </g>
     </g>
    </g>
    <g id="xtick_2">
     <g id="line2d_2">
      <g>
       <use style="stroke:#000000;stroke-width:0.8;" x="138.828632" xlink:href="#m493535af51" y="307.584"/>
      </g>
     </g>
     <g id="text_2">
      <!-- 200 -->
      <defs>
       <path d="M 19.1875 8.296875 
L 53.609375 8.296875 
L 53.609375 0 
L 7.328125 0 
L 7.328125 8.296875 
Q 12.9375 14.109375 22.625 23.890625 
Q 32.328125 33.6875 34.8125 36.53125 
Q 39.546875 41.84375 41.421875 45.53125 
Q 43.3125 49.21875 43.3125 52.78125 
Q 43.3125 58.59375 39.234375 62.25 
Q 35.15625 65.921875 28.609375 65.921875 
Q 23.96875 65.921875 18.8125 64.3125 
Q 13.671875 62.703125 7.8125 59.421875 
L 7.8125 69.390625 
Q 13.765625 71.78125 18.9375 73 
Q 24.125 74.21875 28.421875 74.21875 
Q 39.75 74.21875 46.484375 68.546875 
Q 53.21875 62.890625 53.21875 53.421875 
Q 53.21875 48.921875 51.53125 44.890625 
Q 49.859375 40.875 45.40625 35.40625 
Q 44.1875 33.984375 37.640625 27.21875 
Q 31.109375 20.453125 19.1875 8.296875 
z
" id="DejaVuSans-50"/>
      </defs>
      <g transform="translate(129.284882 322.182437)scale(0.1 -0.1)">
       <use xlink:href="#DejaVuSans-50"/>
       <use x="63.623047" xlink:href="#DejaVuSans-48"/>
       <use x="127.246094" xlink:href="#DejaVuSans-48"/>
      </g>
     </g>
    </g>
    <g id="xtick_3">
     <g id="line2d_3">
      <g>
       <use style="stroke:#000000;stroke-width:0.8;" x="203.824537" xlink:href="#m493535af51" y="307.584"/>
      </g>
     </g>
     <g id="text_3">
      <!-- 400 -->
      <defs>
       <path d="M 37.796875 64.3125 
L 12.890625 25.390625 
L 37.796875 25.390625 
z
M 35.203125 72.90625 
L 47.609375 72.90625 
L 47.609375 25.390625 
L 58.015625 25.390625 
L 58.015625 17.1875 
L 47.609375 17.1875 
L 47.609375 0 
L 37.796875 0 
L 37.796875 17.1875 
L 4.890625 17.1875 
L 4.890625 26.703125 
z
" id="DejaVuSans-52"/>
      </defs>
      <g transform="translate(194.280787 322.182437)scale(0.1 -0.1)">
       <use xlink:href="#DejaVuSans-52"/>
       <use x="63.623047" xlink:href="#DejaVuSans-48"/>
       <use x="127.246094" xlink:href="#DejaVuSans-48"/>
      </g>
     </g>
    </g>
    <g id="xtick_4">
     <g id="line2d_4">
      <g>
       <use style="stroke:#000000;stroke-width:0.8;" x="268.820442" xlink:href="#m493535af51" y="307.584"/>
      </g>
     </g>
     <g id="text_4">
      <!-- 600 -->
      <defs>
       <path d="M 33.015625 40.375 
Q 26.375 40.375 22.484375 35.828125 
Q 18.609375 31.296875 18.609375 23.390625 
Q 18.609375 15.53125 22.484375 10.953125 
Q 26.375 6.390625 33.015625 6.390625 
Q 39.65625 6.390625 43.53125 10.953125 
Q 47.40625 15.53125 47.40625 23.390625 
Q 47.40625 31.296875 43.53125 35.828125 
Q 39.65625 40.375 33.015625 40.375 
z
M 52.59375 71.296875 
L 52.59375 62.3125 
Q 48.875 64.0625 45.09375 64.984375 
Q 41.3125 65.921875 37.59375 65.921875 
Q 27.828125 65.921875 22.671875 59.328125 
Q 17.53125 52.734375 16.796875 39.40625 
Q 19.671875 43.65625 24.015625 45.921875 
Q 28.375 48.1875 33.59375 48.1875 
Q 44.578125 48.1875 50.953125 41.515625 
Q 57.328125 34.859375 57.328125 23.390625 
Q 57.328125 12.15625 50.6875 5.359375 
Q 44.046875 -1.421875 33.015625 -1.421875 
Q 20.359375 -1.421875 13.671875 8.265625 
Q 6.984375 17.96875 6.984375 36.375 
Q 6.984375 53.65625 15.1875 63.9375 
Q 23.390625 74.21875 37.203125 74.21875 
Q 40.921875 74.21875 44.703125 73.484375 
Q 48.484375 72.75 52.59375 71.296875 
z
" id="DejaVuSans-54"/>
      </defs>
      <g transform="translate(259.276692 322.182437)scale(0.1 -0.1)">
       <use xlink:href="#DejaVuSans-54"/>
       <use x="63.623047" xlink:href="#DejaVuSans-48"/>
       <use x="127.246094" xlink:href="#DejaVuSans-48"/>
      </g>
     </g>
    </g>
    <g id="xtick_5">
     <g id="line2d_5">
      <g>
       <use style="stroke:#000000;stroke-width:0.8;" x="333.816347" xlink:href="#m493535af51" y="307.584"/>
      </g>
     </g>
     <g id="text_5">
      <!-- 800 -->
      <defs>
       <path d="M 31.78125 34.625 
Q 24.75 34.625 20.71875 30.859375 
Q 16.703125 27.09375 16.703125 20.515625 
Q 16.703125 13.921875 20.71875 10.15625 
Q 24.75 6.390625 31.78125 6.390625 
Q 38.8125 6.390625 42.859375 10.171875 
Q 46.921875 13.96875 46.921875 20.515625 
Q 46.921875 27.09375 42.890625 30.859375 
Q 38.875 34.625 31.78125 34.625 
z
M 21.921875 38.8125 
Q 15.578125 40.375 12.03125 44.71875 
Q 8.5 49.078125 8.5 55.328125 
Q 8.5 64.0625 14.71875 69.140625 
Q 20.953125 74.21875 31.78125 74.21875 
Q 42.671875 74.21875 48.875 69.140625 
Q 55.078125 64.0625 55.078125 55.328125 
Q 55.078125 49.078125 51.53125 44.71875 
Q 48 40.375 41.703125 38.8125 
Q 48.828125 37.15625 52.796875 32.3125 
Q 56.78125 27.484375 56.78125 20.515625 
Q 56.78125 9.90625 50.3125 4.234375 
Q 43.84375 -1.421875 31.78125 -1.421875 
Q 19.734375 -1.421875 13.25 4.234375 
Q 6.78125 9.90625 6.78125 20.515625 
Q 6.78125 27.484375 10.78125 32.3125 
Q 14.796875 37.15625 21.921875 38.8125 
z
M 18.3125 54.390625 
Q 18.3125 48.734375 21.84375 45.5625 
Q 25.390625 42.390625 31.78125 42.390625 
Q 38.140625 42.390625 41.71875 45.5625 
Q 45.3125 48.734375 45.3125 54.390625 
Q 45.3125 60.0625 41.71875 63.234375 
Q 38.140625 66.40625 31.78125 66.40625 
Q 25.390625 66.40625 21.84375 63.234375 
Q 18.3125 60.0625 18.3125 54.390625 
z
" id="DejaVuSans-56"/>
      </defs>
      <g transform="translate(324.272597 322.182437)scale(0.1 -0.1)">
       <use xlink:href="#DejaVuSans-56"/>
       <use x="63.623047" xlink:href="#DejaVuSans-48"/>
       <use x="127.246094" xlink:href="#DejaVuSans-48"/>
      </g>
     </g>
    </g>
    <g id="xtick_6">
     <g id="line2d_6">
      <g>
       <use style="stroke:#000000;stroke-width:0.8;" x="398.812252" xlink:href="#m493535af51" y="307.584"/>
      </g>
     </g>
     <g id="text_6">
      <!-- 1000 -->
      <defs>
       <path d="M 12.40625 8.296875 
L 28.515625 8.296875 
L 28.515625 63.921875 
L 10.984375 60.40625 
L 10.984375 69.390625 
L 28.421875 72.90625 
L 38.28125 72.90625 
L 38.28125 8.296875 
L 54.390625 8.296875 
L 54.390625 0 
L 12.40625 0 
z
" id="DejaVuSans-49"/>
      </defs>
      <g transform="translate(386.087252 322.182437)scale(0.1 -0.1)">
       <use xlink:href="#DejaVuSans-49"/>
       <use x="63.623047" xlink:href="#DejaVuSans-48"/>
       <use x="127.246094" xlink:href="#DejaVuSans-48"/>
       <use x="190.869141" xlink:href="#DejaVuSans-48"/>
      </g>
     </g>
    </g>
   </g>
   <g id="matplotlib.axis_2">
    <g id="ytick_1">
     <g id="line2d_7">
      <defs>
       <path d="M 0 0 
L -3.5 0 
" id="m83d6172411" style="stroke:#000000;stroke-width:0.8;"/>
      </defs>
      <g>
       <use style="stroke:#000000;stroke-width:0.8;" x="57.6" xlink:href="#m83d6172411" y="272.746682"/>
      </g>
     </g>
     <g id="text_7">
      <!-- 1 -->
      <g transform="translate(44.2375 276.545901)scale(0.1 -0.1)">
       <use xlink:href="#DejaVuSans-49"/>
      </g>
     </g>
    </g>
    <g id="ytick_2">
     <g id="line2d_8">
      <g>
       <use style="stroke:#000000;stroke-width:0.8;" x="57.6" xlink:href="#m83d6172411" y="230.97786"/>
      </g>
     </g>
     <g id="text_8">
      <!-- 2 -->
      <g transform="translate(44.2375 234.777078)scale(0.1 -0.1)">
       <use xlink:href="#DejaVuSans-50"/>
      </g>
     </g>
    </g>
    <g id="ytick_3">
     <g id="line2d_9">
      <g>
       <use style="stroke:#000000;stroke-width:0.8;" x="57.6" xlink:href="#m83d6172411" y="189.209037"/>
      </g>
     </g>
     <g id="text_9">
      <!-- 3 -->
      <defs>
       <path d="M 40.578125 39.3125 
Q 47.65625 37.796875 51.625 33 
Q 55.609375 28.21875 55.609375 21.1875 
Q 55.609375 10.40625 48.1875 4.484375 
Q 40.765625 -1.421875 27.09375 -1.421875 
Q 22.515625 -1.421875 17.65625 -0.515625 
Q 12.796875 0.390625 7.625 2.203125 
L 7.625 11.71875 
Q 11.71875 9.328125 16.59375 8.109375 
Q 21.484375 6.890625 26.8125 6.890625 
Q 36.078125 6.890625 40.9375 10.546875 
Q 45.796875 14.203125 45.796875 21.1875 
Q 45.796875 27.640625 41.28125 31.265625 
Q 36.765625 34.90625 28.71875 34.90625 
L 20.21875 34.90625 
L 20.21875 43.015625 
L 29.109375 43.015625 
Q 36.375 43.015625 40.234375 45.921875 
Q 44.09375 48.828125 44.09375 54.296875 
Q 44.09375 59.90625 40.109375 62.90625 
Q 36.140625 65.921875 28.71875 65.921875 
Q 24.65625 65.921875 20.015625 65.03125 
Q 15.375 64.15625 9.8125 62.3125 
L 9.8125 71.09375 
Q 15.4375 72.65625 20.34375 73.4375 
Q 25.25 74.21875 29.59375 74.21875 
Q 40.828125 74.21875 47.359375 69.109375 
Q 53.90625 64.015625 53.90625 55.328125 
Q 53.90625 49.265625 50.4375 45.09375 
Q 46.96875 40.921875 40.578125 39.3125 
z
" id="DejaVuSans-51"/>
      </defs>
      <g transform="translate(44.2375 193.008256)scale(0.1 -0.1)">
       <use xlink:href="#DejaVuSans-51"/>
      </g>
     </g>
    </g>
    <g id="ytick_4">
     <g id="line2d_10">
      <g>
       <use style="stroke:#000000;stroke-width:0.8;" x="57.6" xlink:href="#m83d6172411" y="147.440214"/>
      </g>
     </g>
     <g id="text_10">
      <!-- 4 -->
      <g transform="translate(44.2375 151.239433)scale(0.1 -0.1)">
       <use xlink:href="#DejaVuSans-52"/>
      </g>
     </g>
    </g>
    <g id="ytick_5">
     <g id="line2d_11">
      <g>
       <use style="stroke:#000000;stroke-width:0.8;" x="57.6" xlink:href="#m83d6172411" y="105.671391"/>
      </g>
     </g>
     <g id="text_11">
      <!-- 5 -->
      <defs>
       <path d="M 10.796875 72.90625 
L 49.515625 72.90625 
L 49.515625 64.59375 
L 19.828125 64.59375 
L 19.828125 46.734375 
Q 21.96875 47.46875 24.109375 47.828125 
Q 26.265625 48.1875 28.421875 48.1875 
Q 40.625 48.1875 47.75 41.5 
Q 54.890625 34.8125 54.890625 23.390625 
Q 54.890625 11.625 47.5625 5.09375 
Q 40.234375 -1.421875 26.90625 -1.421875 
Q 22.3125 -1.421875 17.546875 -0.640625 
Q 12.796875 0.140625 7.71875 1.703125 
L 7.71875 11.625 
Q 12.109375 9.234375 16.796875 8.0625 
Q 21.484375 6.890625 26.703125 6.890625 
Q 35.15625 6.890625 40.078125 11.328125 
Q 45.015625 15.765625 45.015625 23.390625 
Q 45.015625 31 40.078125 35.4375 
Q 35.15625 39.890625 26.703125 39.890625 
Q 22.75 39.890625 18.8125 39.015625 
Q 14.890625 38.140625 10.796875 36.28125 
z
" id="DejaVuSans-53"/>
      </defs>
      <g transform="translate(44.2375 109.47061)scale(0.1 -0.1)">
       <use xlink:href="#DejaVuSans-53"/>
      </g>
     </g>
    </g>
    <g id="ytick_6">
     <g id="line2d_12">
      <g>
       <use style="stroke:#000000;stroke-width:0.8;" x="57.6" xlink:href="#m83d6172411" y="63.902569"/>
      </g>
     </g>
     <g id="text_12">
      <!-- 6 -->
      <g transform="translate(44.2375 67.701787)scale(0.1 -0.1)">
       <use xlink:href="#DejaVuSans-54"/>
      </g>
     </g>
    </g>
   </g>
   <g id="line2d_13">
    <path clip-path="url(#pa5c6446ddb)" d="M 73.832727 295.488 
L 74.482686 289.000057 
L 74.807666 294.636144 
L 75.132645 287.807605 
L 75.457625 293.027606 
L 75.782604 291.409942 
L 76.107584 287.432741 
L 76.432563 286.896037 
L 76.757543 282.1253 
L 77.082523 282.86211 
L 77.407502 280.986527 
L 77.732482 289.928001 
L 78.057461 283.418146 
L 78.382441 282.478085 
L 78.70742 285.521548 
L 79.0324 284.10109 
L 79.357379 279.493718 
L 79.682359 273.259511 
L 80.007338 274.345711 
L 80.332318 277.424044 
L 80.657297 273.088234 
L 80.982277 277.883403 
L 81.307256 273.317103 
L 81.632236 273.113413 
L 81.957215 271.981814 
L 82.282195 268.648407 
L 82.607174 268.651648 
L 82.932154 275.664975 
L 83.257133 268.539004 
L 83.582113 267.151044 
L 83.907093 268.730266 
L 84.232072 265.653484 
L 84.557052 261.480864 
L 84.882031 261.880783 
L 85.207011 264.933329 
L 86.181949 256.118394 
L 86.506929 258.124753 
L 87.156888 255.39651 
L 87.481867 257.985305 
L 87.806847 249.331952 
L 88.131826 247.57507 
L 88.456806 251.50565 
L 88.781785 247.736855 
L 89.106765 246.147266 
L 89.431744 247.832743 
L 89.756724 242.431884 
L 90.081704 248.19954 
L 90.406683 244.796287 
L 90.731663 246.737116 
L 91.056642 244.634629 
L 91.381622 241.293774 
L 91.706601 242.175903 
L 92.031581 242.170562 
L 92.35656 244.52217 
L 92.68154 244.470445 
L 93.006519 241.133234 
L 93.331499 240.853777 
L 93.656478 239.680254 
L 93.981458 235.585808 
L 94.306437 242.32149 
L 94.631417 237.253973 
L 95.281376 234.255556 
L 95.606355 239.323325 
L 95.931335 239.75345 
L 96.256314 238.716887 
L 96.581294 231.799325 
L 96.906274 238.657271 
L 97.231253 236.948272 
L 97.881212 227.837139 
L 98.206192 230.101817 
L 98.531171 228.94774 
L 98.856151 231.232343 
L 99.18113 227.735646 
L 99.50611 227.163712 
L 100.156069 224.00896 
L 100.481048 225.250171 
L 100.806028 219.742671 
L 101.131007 222.907581 
L 101.455987 220.282127 
L 101.780966 220.425801 
L 102.105946 222.079407 
L 102.755905 223.151983 
L 103.080885 218.429131 
L 103.405864 218.602291 
L 103.730844 217.209412 
L 104.055823 216.313628 
L 104.380803 214.151836 
L 104.705782 210.49514 
L 105.355741 213.10818 
L 105.680721 215.045545 
L 106.0057 217.678603 
L 106.33068 209.096896 
L 106.655659 209.052596 
L 106.980639 211.316701 
L 107.305618 210.495906 
L 107.630598 208.367623 
L 107.955577 205.09801 
L 108.280557 203.896637 
L 108.605536 208.882436 
L 108.930516 205.542579 
L 109.255495 204.805609 
L 109.580475 203.15714 
L 109.905455 206.690831 
L 110.230434 204.614355 
L 110.555414 199.274905 
L 111.205373 203.426211 
L 111.530352 199.700351 
L 112.180311 197.504181 
L 112.505291 195.063068 
L 112.83027 195.987774 
L 113.15525 197.926896 
L 113.480229 196.000032 
L 113.805209 198.649051 
L 114.130188 197.298404 
L 114.455168 192.708323 
L 114.780147 195.799697 
L 115.105127 197.335081 
L 115.430106 196.138376 
L 115.755086 190.06718 
L 116.080066 198.458043 
L 116.405045 189.919717 
L 116.730025 189.851943 
L 117.055004 190.135438 
L 117.379984 185.695341 
L 117.704963 190.974225 
L 118.029943 191.935102 
L 118.354922 191.67067 
L 118.679902 192.495022 
L 119.004881 191.418992 
L 119.329861 191.259998 
L 120.629779 178.261371 
L 120.954758 182.965515 
L 121.279738 183.621731 
L 121.604717 183.038294 
L 121.929697 180.834899 
L 122.254676 181.253143 
L 122.579656 181.359153 
L 123.229615 177.020003 
L 123.554595 176.518637 
L 124.204554 181.258144 
L 124.529533 179.503467 
L 124.854513 179.321796 
L 125.179492 174.225256 
L 125.504472 176.284251 
L 125.829451 176.991252 
L 126.154431 175.580637 
L 126.47941 172.263197 
L 126.80439 176.578758 
L 127.129369 172.738753 
L 127.454349 171.609203 
L 127.779328 171.500733 
L 128.104308 173.921296 
L 128.429287 175.069537 
L 129.079247 169.852299 
L 129.404226 171.6829 
L 129.729206 172.00452 
L 130.054185 168.283762 
L 130.379165 172.832514 
L 130.704144 168.443702 
L 131.029124 169.282528 
L 131.354103 171.36456 
L 131.679083 167.272062 
L 132.004062 169.117513 
L 132.329042 172.894799 
L 132.979001 163.844562 
L 133.30398 170.726838 
L 133.62896 169.154627 
L 133.953939 165.256865 
L 134.278919 164.739305 
L 134.603898 168.769455 
L 135.253857 161.813889 
L 135.578837 161.381895 
L 135.903817 159.877693 
L 136.228796 166.34242 
L 136.553776 162.244405 
L 136.878755 163.476835 
L 137.528714 156.617213 
L 137.853694 156.39339 
L 138.178673 163.411647 
L 138.828632 158.87653 
L 139.153612 159.955821 
L 139.478591 165.206106 
L 140.12855 153.222399 
L 140.45353 154.393363 
L 141.103489 159.187488 
L 141.428468 157.329278 
L 141.753448 157.095391 
L 142.078428 155.012513 
L 142.403407 158.532151 
L 142.728387 152.529645 
L 143.053366 155.342711 
L 143.703325 152.271841 
L 144.028305 156.345158 
L 144.353284 156.349845 
L 144.678264 154.29435 
L 145.003243 157.686744 
L 145.328223 151.41201 
L 145.978182 160.347433 
L 146.303161 153.906087 
L 146.628141 153.368432 
L 146.95312 149.429806 
L 147.2781 151.185241 
L 147.603079 149.115152 
L 147.928059 152.185769 
L 148.253038 153.872703 
L 148.578018 154.446392 
L 148.902998 152.214873 
L 149.227977 151.788546 
L 149.552957 148.415339 
L 149.877936 148.415656 
L 150.202916 149.252568 
L 150.527895 144.420804 
L 150.852875 148.044586 
L 151.177854 144.950228 
L 151.502834 147.244114 
L 151.827813 145.912218 
L 152.152793 145.149356 
L 152.802752 147.466531 
L 153.127731 140.725831 
L 153.77769 144.130044 
L 154.10267 135.885015 
L 154.427649 144.089633 
L 155.077609 140.735744 
L 155.402588 145.456918 
L 155.727568 137.730887 
L 156.052547 142.210852 
L 156.377527 144.06165 
L 156.702506 143.936819 
L 157.027486 140.353166 
L 157.352465 141.77391 
L 157.677445 139.205028 
L 158.327404 143.942894 
L 158.652383 135.151748 
L 158.977363 136.463827 
L 159.302342 135.072126 
L 159.627322 134.192258 
L 159.952301 139.31343 
L 160.277281 139.995401 
L 160.60226 133.277752 
L 160.92724 140.333451 
L 161.252219 133.965396 
L 161.577199 135.334717 
L 161.902179 134.314747 
L 162.227158 132.081834 
L 162.552138 132.541587 
L 162.877117 137.236069 
L 163.202097 134.921629 
L 163.527076 134.100663 
L 163.852056 129.791861 
L 164.177035 132.491884 
L 164.502015 131.825533 
L 164.826994 132.198098 
L 165.151974 133.832435 
L 165.476953 130.70891 
L 165.801933 129.360081 
L 166.126912 130.134278 
L 166.451892 129.025582 
L 166.776871 132.940903 
L 167.101851 126.846918 
L 167.75181 132.322608 
L 168.07679 132.06536 
L 168.401769 129.047264 
L 168.726749 123.244835 
L 169.051728 131.534031 
L 169.376708 129.576049 
L 169.701687 128.640421 
L 170.026667 130.16781 
L 170.351646 130.686459 
L 170.676626 131.461883 
L 171.001605 126.01329 
L 171.326585 126.917352 
L 171.651564 129.166475 
L 171.976544 125.38013 
L 172.301523 123.314019 
L 172.626503 127.049721 
L 172.951482 120.466034 
L 173.276462 123.598113 
L 173.601441 131.260627 
L 173.926421 124.91467 
L 174.2514 124.767215 
L 174.57638 125.92843 
L 174.90136 123.681307 
L 175.226339 130.034183 
L 175.551319 120.458685 
L 175.876298 121.776614 
L 176.201278 126.053945 
L 176.851237 121.657142 
L 177.176216 124.911994 
L 177.501196 123.532319 
L 177.826175 129.143371 
L 178.151155 126.92033 
L 178.476134 125.655999 
L 178.801114 125.35662 
L 179.126093 125.745515 
L 179.451073 123.990536 
L 179.776052 120.460209 
L 180.101032 122.660865 
L 180.426011 121.426116 
L 180.750991 123.701264 
L 181.075971 116.841048 
L 181.72593 121.471762 
L 182.050909 121.487499 
L 182.375889 121.344179 
L 182.700868 123.972147 
L 183.025848 120.303022 
L 183.350827 121.550002 
L 183.675807 117.293833 
L 184.000786 118.934651 
L 184.325766 119.507952 
L 184.650745 123.805471 
L 184.975725 118.896435 
L 185.300704 118.473091 
L 185.625684 119.272998 
L 185.950663 118.071438 
L 186.275643 117.630985 
L 186.600622 117.953868 
L 186.925602 118.501977 
L 187.250581 120.088154 
L 187.575561 115.269595 
L 187.900541 113.241276 
L 188.22552 119.463609 
L 188.5505 114.172277 
L 188.875479 118.060104 
L 189.525438 112.495305 
L 189.850418 115.374679 
L 190.175397 114.631945 
L 190.500377 115.79254 
L 190.825356 113.274523 
L 191.150336 114.3612 
L 191.475315 113.071007 
L 191.800295 120.471933 
L 192.125274 113.330826 
L 192.450254 115.829692 
L 192.775233 114.188928 
L 193.100213 116.536164 
L 193.750172 112.742001 
L 194.075152 113.597355 
L 194.400131 117.760132 
L 194.725111 113.609675 
L 195.05009 116.474452 
L 195.37507 112.177827 
L 195.700049 113.436292 
L 196.025029 119.392272 
L 196.350008 121.564176 
L 196.674988 112.991842 
L 196.999967 115.818311 
L 197.324947 117.440653 
L 197.649926 114.778588 
L 197.974906 115.116562 
L 198.299885 113.797599 
L 198.624865 115.676243 
L 198.949844 111.266689 
L 199.274824 119.015583 
L 199.599803 117.488399 
L 199.924783 113.582066 
L 200.574742 114.218577 
L 200.899722 114.624483 
L 201.224701 117.048868 
L 201.549681 114.368365 
L 201.87466 117.124743 
L 202.19964 114.295376 
L 202.524619 116.257951 
L 202.849599 113.690279 
L 203.174578 118.061117 
L 203.499558 117.887542 
L 203.824537 113.441938 
L 204.149517 110.989892 
L 204.474496 114.701706 
L 204.799476 113.504634 
L 205.124455 113.24577 
L 205.449435 116.512395 
L 205.774414 115.785675 
L 206.424373 113.204463 
L 206.749353 113.445217 
L 207.074333 110.311968 
L 207.399312 116.688693 
L 207.724292 113.711064 
L 208.049271 115.189508 
L 208.374251 109.005578 
L 208.69923 116.913333 
L 209.02421 116.749995 
L 209.349189 115.323314 
L 209.674169 111.769844 
L 209.999148 114.35952 
L 210.324128 109.503256 
L 210.649107 113.09355 
L 210.974087 112.828769 
L 211.299066 109.604841 
L 211.624046 110.173216 
L 211.949025 112.033287 
L 212.274005 108.221882 
L 212.598984 107.655949 
L 212.923964 109.791931 
L 213.248943 109.364065 
L 213.573923 110.037523 
L 213.898903 108.963181 
L 214.223882 107.060873 
L 214.548862 104.384951 
L 214.873841 106.89138 
L 215.198821 107.974554 
L 215.5238 107.739776 
L 215.84878 111.082675 
L 216.173759 105.755068 
L 216.498739 104.554096 
L 217.148698 109.778124 
L 217.473677 107.159803 
L 217.798657 107.864611 
L 218.123636 104.45025 
L 218.448616 104.483721 
L 218.773595 110.047516 
L 219.423554 103.594219 
L 219.748534 107.887344 
L 220.073514 104.460732 
L 220.398493 104.4685 
L 220.723473 105.000093 
L 221.048452 103.974801 
L 221.373432 109.109063 
L 222.023391 106.416687 
L 222.34837 103.487607 
L 222.67335 102.410668 
L 222.998329 106.53612 
L 223.323309 105.948834 
L 223.648288 103.020167 
L 223.973268 95.424109 
L 224.298247 108.105286 
L 224.948206 102.419251 
L 225.273186 105.465076 
L 225.598165 103.096463 
L 225.923145 104.583841 
L 226.248124 107.205998 
L 226.573104 101.191218 
L 226.898084 101.132896 
L 227.223063 96.383421 
L 227.548043 102.134757 
L 227.873022 105.573391 
L 228.198002 103.580033 
L 228.522981 104.923546 
L 228.847961 102.484933 
L 229.17294 108.139868 
L 229.49792 101.642822 
L 229.822899 100.43089 
L 230.147879 102.005867 
L 230.472858 98.560296 
L 231.122817 104.812245 
L 231.447797 96.072731 
L 231.772776 96.002499 
L 232.097756 101.50961 
L 232.422735 99.940667 
L 232.747715 96.114169 
L 233.072695 102.233393 
L 233.397674 95.511259 
L 233.722654 97.149041 
L 234.047633 104.4338 
L 234.372613 99.345716 
L 234.697592 100.438644 
L 235.022572 102.802298 
L 235.347551 99.597755 
L 235.672531 103.322744 
L 236.647469 94.835869 
L 236.972449 103.521235 
L 237.297428 97.337106 
L 237.622408 106.002769 
L 238.272367 91.146604 
L 238.597346 95.600639 
L 238.922326 97.359361 
L 239.247305 97.592855 
L 239.572285 101.375236 
L 239.897265 96.766635 
L 240.222244 96.153889 
L 240.547224 99.890325 
L 240.872203 97.325586 
L 241.197183 99.490113 
L 241.522162 96.53709 
L 241.847142 97.027655 
L 242.172121 98.826672 
L 242.497101 99.94309 
L 242.82208 96.334557 
L 243.14706 99.137034 
L 243.472039 96.252504 
L 243.797019 91.118934 
L 244.121998 94.857881 
L 244.446978 91.733128 
L 244.771957 98.554108 
L 245.096937 99.88214 
L 245.421916 93.22467 
L 245.746896 91.963186 
L 246.071876 93.347038 
L 246.396855 96.234366 
L 246.721835 94.136239 
L 247.046814 97.201822 
L 247.371794 90.916516 
L 247.696773 98.14681 
L 248.021753 91.267982 
L 248.346732 94.281887 
L 248.671712 94.92226 
L 248.996691 97.597644 
L 249.64665 93.701075 
L 249.97163 88.759318 
L 250.296609 94.550605 
L 250.621589 88.53685 
L 250.946568 92.821792 
L 251.271548 90.004254 
L 251.596527 94.644381 
L 251.921507 95.086976 
L 252.246486 91.513463 
L 252.571466 89.369161 
L 252.896446 94.667946 
L 253.221425 91.540323 
L 253.546405 90.818009 
L 253.871384 91.975833 
L 254.196364 88.387993 
L 254.521343 91.487956 
L 255.171302 88.828183 
L 255.496282 89.489055 
L 255.821261 87.753151 
L 256.146241 89.670211 
L 256.47122 93.525248 
L 256.7962 92.513913 
L 257.121179 94.315759 
L 257.771138 88.423638 
L 258.096118 89.044736 
L 258.421097 92.250841 
L 258.746077 88.272914 
L 259.071057 92.971291 
L 259.396036 91.35797 
L 259.721016 87.635906 
L 260.045995 93.23943 
L 260.370975 85.744015 
L 260.695954 85.940919 
L 261.020934 91.274454 
L 261.345913 91.117309 
L 261.670893 91.383281 
L 261.995872 88.662371 
L 262.320852 87.447338 
L 262.645831 87.079297 
L 263.29579 91.369525 
L 263.62077 88.408077 
L 263.945749 87.670485 
L 264.595708 86.802149 
L 264.920688 88.634947 
L 265.245667 85.005701 
L 265.570647 86.351052 
L 265.895627 86.059511 
L 266.220606 83.344495 
L 266.545586 84.172939 
L 266.870565 89.301915 
L 267.195545 80.113437 
L 267.520524 82.455457 
L 268.170483 83.601503 
L 268.820442 87.819821 
L 269.145422 81.226879 
L 269.470401 87.840423 
L 269.795381 86.063692 
L 270.12036 85.831447 
L 270.44534 85.174451 
L 270.770319 85.704857 
L 271.095299 80.553051 
L 271.420278 86.670189 
L 271.745258 85.45487 
L 272.395217 79.849703 
L 272.720197 79.337965 
L 273.045176 82.349283 
L 273.370156 79.699468 
L 273.695135 78.019179 
L 274.345094 84.130234 
L 274.670074 83.699022 
L 274.995053 83.974088 
L 275.320033 86.147267 
L 275.645012 82.274276 
L 276.294971 78.525278 
L 276.619951 81.561769 
L 276.94493 81.935131 
L 277.26991 84.954958 
L 277.594889 78.242603 
L 277.919869 78.846173 
L 278.244848 82.84938 
L 278.569828 80.343308 
L 278.894808 80.598681 
L 279.544767 74.539904 
L 279.869746 83.194172 
L 280.194726 80.871669 
L 280.519705 84.901445 
L 280.844685 80.315333 
L 281.819623 81.045515 
L 282.144603 80.105708 
L 282.469582 79.762127 
L 282.794562 81.593909 
L 283.119541 76.546622 
L 283.444521 82.956783 
L 283.7695 81.733091 
L 284.09448 83.746127 
L 284.419459 75.965774 
L 284.744439 78.336549 
L 285.069419 78.902318 
L 285.394398 81.143818 
L 285.719378 77.408723 
L 286.044357 79.708214 
L 286.369337 78.14545 
L 286.694316 78.93049 
L 287.019296 78.129062 
L 287.344275 76.186738 
L 287.669255 77.622694 
L 287.994234 76.290079 
L 288.319214 76.530597 
L 288.644193 81.525185 
L 288.969173 82.645127 
L 289.294152 78.11746 
L 289.619132 79.032361 
L 289.944111 77.093139 
L 290.269091 75.834888 
L 290.59407 77.817114 
L 290.91905 77.768545 
L 291.244029 74.972351 
L 291.569009 75.326284 
L 291.893989 80.273256 
L 292.218968 76.037125 
L 292.543948 82.565738 
L 292.868927 75.811971 
L 293.193907 79.643477 
L 293.518886 74.343132 
L 293.843866 73.900516 
L 294.168845 82.048061 
L 294.493825 79.897412 
L 294.818804 76.573499 
L 295.143784 80.336333 
L 295.793743 73.413416 
L 296.118722 72.378582 
L 296.443702 76.930807 
L 296.768681 78.756738 
L 297.093661 75.756062 
L 297.41864 77.431597 
L 297.74362 75.901948 
L 298.0686 75.514157 
L 298.393579 73.239442 
L 298.718559 72.761352 
L 299.043538 73.368773 
L 299.368518 79.079128 
L 299.693497 78.710654 
L 300.018477 75.893617 
L 300.343456 78.121226 
L 300.668436 81.476475 
L 300.993415 79.180224 
L 301.318395 80.330873 
L 301.968354 76.683959 
L 302.293333 77.941352 
L 302.618313 77.754848 
L 302.943292 78.839774 
L 303.268272 79.115924 
L 303.593251 74.266467 
L 303.918231 74.30381 
L 304.24321 76.232517 
L 304.56819 76.778579 
L 304.89317 78.656105 
L 305.218149 74.824004 
L 305.543129 73.920476 
L 305.868108 76.373934 
L 306.193088 70.817469 
L 306.518067 76.4609 
L 306.843047 75.851359 
L 307.168026 76.581322 
L 307.493006 71.962234 
L 307.817985 75.581725 
L 308.142965 76.306609 
L 308.467944 74.077773 
L 308.792924 75.223238 
L 309.117903 77.654952 
L 309.442883 74.988758 
L 309.767862 76.659164 
L 310.092842 73.349397 
L 310.417821 75.255775 
L 310.742801 74.70786 
L 311.067781 73.533109 
L 311.39276 77.30537 
L 311.71774 77.38855 
L 312.042719 77.285903 
L 312.367699 75.470863 
L 312.692678 78.6224 
L 313.017658 73.297421 
L 313.342637 74.856904 
L 313.667617 74.022789 
L 313.992596 75.356337 
L 314.317576 71.830035 
L 314.642555 72.011242 
L 314.967535 72.872839 
L 315.292514 76.276463 
L 315.617494 70.314263 
L 315.942473 81.652002 
L 316.267453 72.137335 
L 316.592432 71.572454 
L 316.917412 73.582198 
L 317.242391 71.254229 
L 317.567371 73.617434 
L 317.892351 71.098128 
L 318.21733 76.122774 
L 318.54231 71.274267 
L 318.867289 72.898514 
L 319.192269 73.790971 
L 319.517248 67.399692 
L 319.842228 72.977687 
L 320.167207 67.875802 
L 320.492187 70.627737 
L 320.817166 69.358867 
L 321.142146 73.449124 
L 321.467125 73.579548 
L 321.792105 71.275398 
L 322.117084 72.227088 
L 322.442064 70.245196 
L 322.767043 69.299805 
L 323.092023 69.485875 
L 323.417002 71.351357 
L 323.741982 71.714703 
L 324.066962 77.90465 
L 324.716921 70.255467 
L 325.0419 69.866086 
L 325.36688 73.430538 
L 325.691859 70.833547 
L 326.016839 72.341717 
L 326.341818 69.091558 
L 326.666798 71.676909 
L 326.991777 72.63993 
L 327.316757 68.526814 
L 327.641736 72.105251 
L 327.966716 66.74488 
L 328.291695 72.67776 
L 328.616675 71.330294 
L 328.941654 73.475247 
L 329.266634 71.207257 
L 329.591613 71.01562 
L 329.916593 70.326531 
L 330.241572 65.592011 
L 330.566552 72.964663 
L 330.891532 69.036497 
L 331.216511 72.622597 
L 331.86647 69.223186 
L 332.19145 74.180801 
L 332.516429 67.691871 
L 332.841409 69.93122 
L 333.166388 66.366838 
L 333.491368 66.299179 
L 333.816347 77.093004 
L 334.141327 67.504206 
L 334.466306 67.365502 
L 334.791286 71.043364 
L 335.116265 66.029052 
L 335.766224 69.562291 
L 336.091204 67.2298 
L 336.416183 67.262663 
L 336.741163 71.948854 
L 337.066143 66.444106 
L 337.391122 64.410954 
L 337.716102 67.514768 
L 338.366061 68.819498 
L 338.69104 67.638362 
L 339.340999 60.259347 
L 339.665979 65.97993 
L 339.990958 66.053177 
L 340.315938 68.40605 
L 340.640917 66.065716 
L 340.965897 64.975758 
L 341.290876 61.941686 
L 341.940835 69.859293 
L 342.265815 69.916173 
L 342.590794 70.393118 
L 342.915774 63.744161 
L 343.240753 66.408025 
L 343.565733 67.98655 
L 344.215692 65.133927 
L 344.540672 65.028976 
L 344.865651 70.568049 
L 345.190631 69.739629 
L 345.51561 65.337951 
L 345.84059 63.32806 
L 346.165569 64.146165 
L 346.490549 62.942114 
L 346.815528 64.604891 
L 347.140508 71.037084 
L 347.465487 68.326966 
L 347.790467 61.175296 
L 348.115446 69.923818 
L 348.440426 66.476832 
L 348.765405 67.547417 
L 349.090385 65.387656 
L 349.415364 66.978251 
L 349.740344 66.839816 
L 350.065324 69.53517 
L 350.390303 64.922198 
L 350.715283 64.132804 
L 351.040262 66.95084 
L 351.365242 64.007649 
L 351.690221 64.118097 
L 352.015201 63.648115 
L 352.34018 67.541703 
L 352.66516 63.107721 
L 352.990139 64.679165 
L 353.315119 64.640212 
L 353.640098 68.31481 
L 353.965078 61.326055 
L 354.290057 64.625475 
L 354.615037 64.156716 
L 354.940016 67.234556 
L 355.264996 65.37813 
L 355.589975 60.53767 
L 355.914955 68.374098 
L 356.239934 69.260429 
L 356.889894 63.147688 
L 357.214873 63.434076 
L 357.539853 61.969893 
L 357.864832 64.197675 
L 358.189812 67.278703 
L 358.514791 62.722524 
L 358.839771 62.888627 
L 359.16475 61.225566 
L 359.48973 65.092924 
L 359.814709 61.128584 
L 360.139689 62.356917 
L 360.464668 64.889779 
L 360.789648 63.5761 
L 361.114627 66.837323 
L 361.439607 63.163252 
L 361.764586 63.797113 
L 362.089566 63.315091 
L 362.414545 64.737695 
L 362.739525 68.222658 
L 363.064505 62.895088 
L 363.389484 61.621995 
L 363.714464 62.401103 
L 364.039443 62.812111 
L 364.364423 64.184838 
L 364.689402 60.153926 
L 365.014382 62.707404 
L 365.339361 63.200553 
L 365.664341 60.429777 
L 365.98932 61.155354 
L 366.3143 63.18724 
L 366.639279 63.70897 
L 366.964259 63.478189 
L 367.289238 62.948889 
L 367.614218 58.483599 
L 367.939197 59.371751 
L 368.264177 63.515634 
L 368.589156 60.760353 
L 368.914136 64.640276 
L 369.564095 60.867634 
L 369.889075 65.360269 
L 370.214054 60.851651 
L 370.539034 60.847811 
L 370.864013 65.840929 
L 371.188993 59.755826 
L 371.838952 64.740615 
L 372.163931 59.016428 
L 372.488911 66.601336 
L 372.81389 63.481701 
L 373.13887 63.183216 
L 373.788829 58.43213 
L 374.113808 58.581764 
L 374.438788 63.961793 
L 375.088747 65.687771 
L 375.413726 58.280916 
L 375.738706 63.032204 
L 376.063686 61.136297 
L 376.388665 63.431344 
L 376.713645 60.963384 
L 377.038624 59.565769 
L 377.363604 59.408148 
L 377.688583 61.547585 
L 378.013563 60.871296 
L 378.338542 62.515881 
L 378.663522 62.078169 
L 378.988501 59.636731 
L 379.313481 64.368787 
L 379.63846 62.738732 
L 379.96344 60.127836 
L 380.288419 62.647896 
L 380.613399 60.122776 
L 380.938378 63.087559 
L 381.263358 62.032854 
L 381.588337 59.062978 
L 382.238296 57.858765 
L 382.563276 62.289435 
L 382.888256 60.295683 
L 383.213235 60.908309 
L 383.538215 63.307966 
L 383.863194 59.820034 
L 384.188174 58.888114 
L 384.513153 63.184158 
L 384.838133 63.612637 
L 385.163112 62.551988 
L 385.488092 61.95007 
L 385.813071 57.174581 
L 386.138051 58.949021 
L 386.46303 57.146054 
L 386.78801 58.532207 
L 387.112989 62.490692 
L 387.437969 64.556788 
L 388.087928 61.851453 
L 388.412907 62.754264 
L 388.737887 58.639312 
L 389.062867 59.133734 
L 389.387846 59.318534 
L 389.712826 60.660956 
L 390.037805 62.528279 
L 390.687764 59.24691 
L 391.012744 60.170781 
L 391.337723 60.714265 
L 391.662703 59.362519 
L 391.987682 60.448153 
L 392.312662 58.888142 
L 392.637641 53.786612 
L 393.2876 59.729549 
L 393.61258 59.389817 
L 393.937559 57.98503 
L 394.262539 59.707808 
L 394.587518 55.342383 
L 394.912498 58.955688 
L 395.237477 57.135524 
L 395.887437 60.64394 
L 396.212416 55.928542 
L 396.537396 57.649456 
L 396.862375 53.568 
L 397.187355 59.713641 
L 397.837314 55.583872 
L 398.162293 55.776567 
L 398.487273 57.664245 
L 398.487273 57.664245 
" style="fill:none;stroke:#1f77b4;stroke-linecap:square;stroke-width:1.5;"/>
   </g>
   <g id="patch_3">
    <path d="M 57.6 307.584 
L 57.6 41.472 
" style="fill:none;stroke:#000000;stroke-linecap:square;stroke-linejoin:miter;stroke-width:0.8;"/>
   </g>
   <g id="patch_4">
    <path d="M 414.72 307.584 
L 414.72 41.472 
" style="fill:none;stroke:#000000;stroke-linecap:square;stroke-linejoin:miter;stroke-width:0.8;"/>
   </g>
   <g id="patch_5">
    <path d="M 57.6 307.584 
L 414.72 307.584 
" style="fill:none;stroke:#000000;stroke-linecap:square;stroke-linejoin:miter;stroke-width:0.8;"/>
   </g>
   <g id="patch_6">
    <path d="M 57.6 41.472 
L 414.72 41.472 
" style="fill:none;stroke:#000000;stroke-linecap:square;stroke-linejoin:miter;stroke-width:0.8;"/>
   </g>
   <g id="text_13">
    <!-- Average reward per step -->
    <defs>
     <path d="M 34.1875 63.1875 
L 20.796875 26.90625 
L 47.609375 26.90625 
z
M 28.609375 72.90625 
L 39.796875 72.90625 
L 67.578125 0 
L 57.328125 0 
L 50.6875 18.703125 
L 17.828125 18.703125 
L 11.1875 0 
L 0.78125 0 
z
" id="DejaVuSans-65"/>
     <path d="M 2.984375 54.6875 
L 12.5 54.6875 
L 29.59375 8.796875 
L 46.6875 54.6875 
L 56.203125 54.6875 
L 35.6875 0 
L 23.484375 0 
z
" id="DejaVuSans-118"/>
     <path d="M 56.203125 29.59375 
L 56.203125 25.203125 
L 14.890625 25.203125 
Q 15.484375 15.921875 20.484375 11.0625 
Q 25.484375 6.203125 34.421875 6.203125 
Q 39.59375 6.203125 44.453125 7.46875 
Q 49.3125 8.734375 54.109375 11.28125 
L 54.109375 2.78125 
Q 49.265625 0.734375 44.1875 -0.34375 
Q 39.109375 -1.421875 33.890625 -1.421875 
Q 20.796875 -1.421875 13.15625 6.1875 
Q 5.515625 13.8125 5.515625 26.8125 
Q 5.515625 40.234375 12.765625 48.109375 
Q 20.015625 56 32.328125 56 
Q 43.359375 56 49.78125 48.890625 
Q 56.203125 41.796875 56.203125 29.59375 
z
M 47.21875 32.234375 
Q 47.125 39.59375 43.09375 43.984375 
Q 39.0625 48.390625 32.421875 48.390625 
Q 24.90625 48.390625 20.390625 44.140625 
Q 15.875 39.890625 15.1875 32.171875 
z
" id="DejaVuSans-101"/>
     <path d="M 41.109375 46.296875 
Q 39.59375 47.171875 37.8125 47.578125 
Q 36.03125 48 33.890625 48 
Q 26.265625 48 22.1875 43.046875 
Q 18.109375 38.09375 18.109375 28.8125 
L 18.109375 0 
L 9.078125 0 
L 9.078125 54.6875 
L 18.109375 54.6875 
L 18.109375 46.1875 
Q 20.953125 51.171875 25.484375 53.578125 
Q 30.03125 56 36.53125 56 
Q 37.453125 56 38.578125 55.875 
Q 39.703125 55.765625 41.0625 55.515625 
z
" id="DejaVuSans-114"/>
     <path d="M 34.28125 27.484375 
Q 23.390625 27.484375 19.1875 25 
Q 14.984375 22.515625 14.984375 16.5 
Q 14.984375 11.71875 18.140625 8.90625 
Q 21.296875 6.109375 26.703125 6.109375 
Q 34.1875 6.109375 38.703125 11.40625 
Q 43.21875 16.703125 43.21875 25.484375 
L 43.21875 27.484375 
z
M 52.203125 31.203125 
L 52.203125 0 
L 43.21875 0 
L 43.21875 8.296875 
Q 40.140625 3.328125 35.546875 0.953125 
Q 30.953125 -1.421875 24.3125 -1.421875 
Q 15.921875 -1.421875 10.953125 3.296875 
Q 6 8.015625 6 15.921875 
Q 6 25.140625 12.171875 29.828125 
Q 18.359375 34.515625 30.609375 34.515625 
L 43.21875 34.515625 
L 43.21875 35.40625 
Q 43.21875 41.609375 39.140625 45 
Q 35.0625 48.390625 27.6875 48.390625 
Q 23 48.390625 18.546875 47.265625 
Q 14.109375 46.140625 10.015625 43.890625 
L 10.015625 52.203125 
Q 14.9375 54.109375 19.578125 55.046875 
Q 24.21875 56 28.609375 56 
Q 40.484375 56 46.34375 49.84375 
Q 52.203125 43.703125 52.203125 31.203125 
z
" id="DejaVuSans-97"/>
     <path d="M 45.40625 27.984375 
Q 45.40625 37.75 41.375 43.109375 
Q 37.359375 48.484375 30.078125 48.484375 
Q 22.859375 48.484375 18.828125 43.109375 
Q 14.796875 37.75 14.796875 27.984375 
Q 14.796875 18.265625 18.828125 12.890625 
Q 22.859375 7.515625 30.078125 7.515625 
Q 37.359375 7.515625 41.375 12.890625 
Q 45.40625 18.265625 45.40625 27.984375 
z
M 54.390625 6.78125 
Q 54.390625 -7.171875 48.1875 -13.984375 
Q 42 -20.796875 29.203125 -20.796875 
Q 24.46875 -20.796875 20.265625 -20.09375 
Q 16.0625 -19.390625 12.109375 -17.921875 
L 12.109375 -9.1875 
Q 16.0625 -11.328125 19.921875 -12.34375 
Q 23.78125 -13.375 27.78125 -13.375 
Q 36.625 -13.375 41.015625 -8.765625 
Q 45.40625 -4.15625 45.40625 5.171875 
L 45.40625 9.625 
Q 42.625 4.78125 38.28125 2.390625 
Q 33.9375 0 27.875 0 
Q 17.828125 0 11.671875 7.65625 
Q 5.515625 15.328125 5.515625 27.984375 
Q 5.515625 40.671875 11.671875 48.328125 
Q 17.828125 56 27.875 56 
Q 33.9375 56 38.28125 53.609375 
Q 42.625 51.21875 45.40625 46.390625 
L 45.40625 54.6875 
L 54.390625 54.6875 
z
" id="DejaVuSans-103"/>
     <path id="DejaVuSans-32"/>
     <path d="M 4.203125 54.6875 
L 13.1875 54.6875 
L 24.421875 12.015625 
L 35.59375 54.6875 
L 46.1875 54.6875 
L 57.421875 12.015625 
L 68.609375 54.6875 
L 77.59375 54.6875 
L 63.28125 0 
L 52.6875 0 
L 40.921875 44.828125 
L 29.109375 0 
L 18.5 0 
z
" id="DejaVuSans-119"/>
     <path d="M 45.40625 46.390625 
L 45.40625 75.984375 
L 54.390625 75.984375 
L 54.390625 0 
L 45.40625 0 
L 45.40625 8.203125 
Q 42.578125 3.328125 38.25 0.953125 
Q 33.9375 -1.421875 27.875 -1.421875 
Q 17.96875 -1.421875 11.734375 6.484375 
Q 5.515625 14.40625 5.515625 27.296875 
Q 5.515625 40.1875 11.734375 48.09375 
Q 17.96875 56 27.875 56 
Q 33.9375 56 38.25 53.625 
Q 42.578125 51.265625 45.40625 46.390625 
z
M 14.796875 27.296875 
Q 14.796875 17.390625 18.875 11.75 
Q 22.953125 6.109375 30.078125 6.109375 
Q 37.203125 6.109375 41.296875 11.75 
Q 45.40625 17.390625 45.40625 27.296875 
Q 45.40625 37.203125 41.296875 42.84375 
Q 37.203125 48.484375 30.078125 48.484375 
Q 22.953125 48.484375 18.875 42.84375 
Q 14.796875 37.203125 14.796875 27.296875 
z
" id="DejaVuSans-100"/>
     <path d="M 18.109375 8.203125 
L 18.109375 -20.796875 
L 9.078125 -20.796875 
L 9.078125 54.6875 
L 18.109375 54.6875 
L 18.109375 46.390625 
Q 20.953125 51.265625 25.265625 53.625 
Q 29.59375 56 35.59375 56 
Q 45.5625 56 51.78125 48.09375 
Q 58.015625 40.1875 58.015625 27.296875 
Q 58.015625 14.40625 51.78125 6.484375 
Q 45.5625 -1.421875 35.59375 -1.421875 
Q 29.59375 -1.421875 25.265625 0.953125 
Q 20.953125 3.328125 18.109375 8.203125 
z
M 48.6875 27.296875 
Q 48.6875 37.203125 44.609375 42.84375 
Q 40.53125 48.484375 33.40625 48.484375 
Q 26.265625 48.484375 22.1875 42.84375 
Q 18.109375 37.203125 18.109375 27.296875 
Q 18.109375 17.390625 22.1875 11.75 
Q 26.265625 6.109375 33.40625 6.109375 
Q 40.53125 6.109375 44.609375 11.75 
Q 48.6875 17.390625 48.6875 27.296875 
z
" id="DejaVuSans-112"/>
     <path d="M 44.28125 53.078125 
L 44.28125 44.578125 
Q 40.484375 46.53125 36.375 47.5 
Q 32.28125 48.484375 27.875 48.484375 
Q 21.1875 48.484375 17.84375 46.4375 
Q 14.5 44.390625 14.5 40.28125 
Q 14.5 37.15625 16.890625 35.375 
Q 19.28125 33.59375 26.515625 31.984375 
L 29.59375 31.296875 
Q 39.15625 29.25 43.1875 25.515625 
Q 47.21875 21.78125 47.21875 15.09375 
Q 47.21875 7.46875 41.1875 3.015625 
Q 35.15625 -1.421875 24.609375 -1.421875 
Q 20.21875 -1.421875 15.453125 -0.5625 
Q 10.6875 0.296875 5.421875 2 
L 5.421875 11.28125 
Q 10.40625 8.6875 15.234375 7.390625 
Q 20.0625 6.109375 24.8125 6.109375 
Q 31.15625 6.109375 34.5625 8.28125 
Q 37.984375 10.453125 37.984375 14.40625 
Q 37.984375 18.0625 35.515625 20.015625 
Q 33.0625 21.96875 24.703125 23.78125 
L 21.578125 24.515625 
Q 13.234375 26.265625 9.515625 29.90625 
Q 5.8125 33.546875 5.8125 39.890625 
Q 5.8125 47.609375 11.28125 51.796875 
Q 16.75 56 26.8125 56 
Q 31.78125 56 36.171875 55.265625 
Q 40.578125 54.546875 44.28125 53.078125 
z
" id="DejaVuSans-115"/>
     <path d="M 18.3125 70.21875 
L 18.3125 54.6875 
L 36.8125 54.6875 
L 36.8125 47.703125 
L 18.3125 47.703125 
L 18.3125 18.015625 
Q 18.3125 11.328125 20.140625 9.421875 
Q 21.96875 7.515625 27.59375 7.515625 
L 36.8125 7.515625 
L 36.8125 0 
L 27.59375 0 
Q 17.1875 0 13.234375 3.875 
Q 9.28125 7.765625 9.28125 18.015625 
L 9.28125 47.703125 
L 2.6875 47.703125 
L 2.6875 54.6875 
L 9.28125 54.6875 
L 9.28125 70.21875 
z
" id="DejaVuSans-116"/>
    </defs>
    <g transform="translate(161.490938 35.472)scale(0.12 -0.12)">
     <use xlink:href="#DejaVuSans-65"/>
     <use x="68.330078" xlink:href="#DejaVuSans-118"/>
     <use x="127.509766" xlink:href="#DejaVuSans-101"/>
     <use x="189.033203" xlink:href="#DejaVuSans-114"/>
     <use x="230.146484" xlink:href="#DejaVuSans-97"/>
     <use x="291.425781" xlink:href="#DejaVuSans-103"/>
     <use x="354.902344" xlink:href="#DejaVuSans-101"/>
     <use x="416.425781" xlink:href="#DejaVuSans-32"/>
     <use x="448.212891" xlink:href="#DejaVuSans-114"/>
     <use x="489.294922" xlink:href="#DejaVuSans-101"/>
     <use x="550.818359" xlink:href="#DejaVuSans-119"/>
     <use x="632.605469" xlink:href="#DejaVuSans-97"/>
     <use x="693.884766" xlink:href="#DejaVuSans-114"/>
     <use x="734.982422" xlink:href="#DejaVuSans-100"/>
     <use x="798.458984" xlink:href="#DejaVuSans-32"/>
     <use x="830.246094" xlink:href="#DejaVuSans-112"/>
     <use x="893.722656" xlink:href="#DejaVuSans-101"/>
     <use x="955.246094" xlink:href="#DejaVuSans-114"/>
     <use x="996.359375" xlink:href="#DejaVuSans-32"/>
     <use x="1028.146484" xlink:href="#DejaVuSans-115"/>
     <use x="1080.246094" xlink:href="#DejaVuSans-116"/>
     <use x="1119.455078" xlink:href="#DejaVuSans-101"/>
     <use x="1180.978516" xlink:href="#DejaVuSans-112"/>
    </g>
   </g>
  </g>
 </g>
 <defs>
  <clipPath id="pa5c6446ddb">
   <rect height="266.112" width="357.12" x="57.6" y="41.472"/>
  </clipPath>
 </defs>
</svg>
