<?xml version="1.0" encoding="utf-8" standalone="no"?>
<!DOCTYPE svg PUBLIC "-//W3C//DTD SVG 1.1//EN"
  "http://www.w3.org/Graphics/SVG/1.1/DTD/svg11.dtd">
<!-- Created with matplotlib (https://matplotlib.org/) -->
<svg height="345.6pt" version="1.1" viewBox="0 0 460.8 345.6" width="460.8pt" xmlns="http://www.w3.org/2000/svg" xmlns:xlink="http://www.w3.org/1999/xlink">
 <defs>
  <style type="text/css">
*{stroke-linecap:butt;stroke-linejoin:round;}
  </style>
 </defs>
 <g id="figure_1">
  <g id="patch_1">
   <path d="M 0 345.6 
L 460.8 345.6 
L 460.8 0 
L 0 0 
z
" style="fill:#ffffff;"/>
  </g>
  <g id="axes_1">
   <g id="patch_2">
    <path d="M 57.6 307.584 
L 414.72 307.584 
L 414.72 41.472 
L 57.6 41.472 
z
" style="fill:#ffffff;"/>
   </g>
   <g id="matplotlib.axis_1">
    <g id="xtick_1">
     <g id="line2d_1">
      <defs>
       <path d="M 0 0 
L 0 3.5 
" id="m47aef26bed" style="stroke:#000000;stroke-width:0.8;"/>
      </defs>
      <g>
       <use style="stroke:#000000;stroke-width:0.8;" x="73.832727" xlink:href="#m47aef26bed" y="307.584"/>
      </g>
     </g>
     <g id="text_1">
      <!-- 0 -->
      <defs>
       <path d="M 31.78125 66.40625 
Q 24.171875 66.40625 20.328125 58.90625 
Q 16.5 51.421875 16.5 36.375 
Q 16.5 21.390625 20.328125 13.890625 
Q 24.171875 6.390625 31.78125 6.390625 
Q 39.453125 6.390625 43.28125 13.890625 
Q 47.125 21.390625 47.125 36.375 
Q 47.125 51.421875 43.28125 58.90625 
Q 39.453125 66.40625 31.78125 66.40625 
z
M 31.78125 74.21875 
Q 44.046875 74.21875 50.515625 64.515625 
Q 56.984375 54.828125 56.984375 36.375 
Q 56.984375 17.96875 50.515625 8.265625 
Q 44.046875 -1.421875 31.78125 -1.421875 
Q 19.53125 -1.421875 13.0625 8.265625 
Q 6.59375 17.96875 6.59375 36.375 
Q 6.59375 54.828125 13.0625 64.515625 
Q 19.53125 74.21875 31.78125 74.21875 
z
" id="DejaVuSans-48"/>
      </defs>
      <g transform="translate(70.651477 322.182437)scale(0.1 -0.1)">
       <use xlink:href="#DejaVuSans-48"/>
      </g>
     </g>
    </g>
    <g id="xtick_2">
     <g id="line2d_2">
      <g>
       <use style="stroke:#000000;stroke-width:0.8;" x="138.828632" xlink:href="#m47aef26bed" y="307.584"/>
      </g>
     </g>
     <g id="text_2">
      <!-- 200 -->
      <defs>
       <path d="M 19.1875 8.296875 
L 53.609375 8.296875 
L 53.609375 0 
L 7.328125 0 
L 7.328125 8.296875 
Q 12.9375 14.109375 22.625 23.890625 
Q 32.328125 33.6875 34.8125 36.53125 
Q 39.546875 41.84375 41.421875 45.53125 
Q 43.3125 49.21875 43.3125 52.78125 
Q 43.3125 58.59375 39.234375 62.25 
Q 35.15625 65.921875 28.609375 65.921875 
Q 23.96875 65.921875 18.8125 64.3125 
Q 13.671875 62.703125 7.8125 59.421875 
L 7.8125 69.390625 
Q 13.765625 71.78125 18.9375 73 
Q 24.125 74.21875 28.421875 74.21875 
Q 39.75 74.21875 46.484375 68.546875 
Q 53.21875 62.890625 53.21875 53.421875 
Q 53.21875 48.921875 51.53125 44.890625 
Q 49.859375 40.875 45.40625 35.40625 
Q 44.1875 33.984375 37.640625 27.21875 
Q 31.109375 20.453125 19.1875 8.296875 
z
" id="DejaVuSans-50"/>
      </defs>
      <g transform="translate(129.284882 322.182437)scale(0.1 -0.1)">
       <use xlink:href="#DejaVuSans-50"/>
       <use x="63.623047" xlink:href="#DejaVuSans-48"/>
       <use x="127.246094" xlink:href="#DejaVuSans-48"/>
      </g>
     </g>
    </g>
    <g id="xtick_3">
     <g id="line2d_3">
      <g>
       <use style="stroke:#000000;stroke-width:0.8;" x="203.824537" xlink:href="#m47aef26bed" y="307.584"/>
      </g>
     </g>
     <g id="text_3">
      <!-- 400 -->
      <defs>
       <path d="M 37.796875 64.3125 
L 12.890625 25.390625 
L 37.796875 25.390625 
z
M 35.203125 72.90625 
L 47.609375 72.90625 
L 47.609375 25.390625 
L 58.015625 25.390625 
L 58.015625 17.1875 
L 47.609375 17.1875 
L 47.609375 0 
L 37.796875 0 
L 37.796875 17.1875 
L 4.890625 17.1875 
L 4.890625 26.703125 
z
" id="DejaVuSans-52"/>
      </defs>
      <g transform="translate(194.280787 322.182437)scale(0.1 -0.1)">
       <use xlink:href="#DejaVuSans-52"/>
       <use x="63.623047" xlink:href="#DejaVuSans-48"/>
       <use x="127.246094" xlink:href="#DejaVuSans-48"/>
      </g>
     </g>
    </g>
    <g id="xtick_4">
     <g id="line2d_4">
      <g>
       <use style="stroke:#000000;stroke-width:0.8;" x="268.820442" xlink:href="#m47aef26bed" y="307.584"/>
      </g>
     </g>
     <g id="text_4">
      <!-- 600 -->
      <defs>
       <path d="M 33.015625 40.375 
Q 26.375 40.375 22.484375 35.828125 
Q 18.609375 31.296875 18.609375 23.390625 
Q 18.609375 15.53125 22.484375 10.953125 
Q 26.375 6.390625 33.015625 6.390625 
Q 39.65625 6.390625 43.53125 10.953125 
Q 47.40625 15.53125 47.40625 23.390625 
Q 47.40625 31.296875 43.53125 35.828125 
Q 39.65625 40.375 33.015625 40.375 
z
M 52.59375 71.296875 
L 52.59375 62.3125 
Q 48.875 64.0625 45.09375 64.984375 
Q 41.3125 65.921875 37.59375 65.921875 
Q 27.828125 65.921875 22.671875 59.328125 
Q 17.53125 52.734375 16.796875 39.40625 
Q 19.671875 43.65625 24.015625 45.921875 
Q 28.375 48.1875 33.59375 48.1875 
Q 44.578125 48.1875 50.953125 41.515625 
Q 57.328125 34.859375 57.328125 23.390625 
Q 57.328125 12.15625 50.6875 5.359375 
Q 44.046875 -1.421875 33.015625 -1.421875 
Q 20.359375 -1.421875 13.671875 8.265625 
Q 6.984375 17.96875 6.984375 36.375 
Q 6.984375 53.65625 15.1875 63.9375 
Q 23.390625 74.21875 37.203125 74.21875 
Q 40.921875 74.21875 44.703125 73.484375 
Q 48.484375 72.75 52.59375 71.296875 
z
" id="DejaVuSans-54"/>
      </defs>
      <g transform="translate(259.276692 322.182437)scale(0.1 -0.1)">
       <use xlink:href="#DejaVuSans-54"/>
       <use x="63.623047" xlink:href="#DejaVuSans-48"/>
       <use x="127.246094" xlink:href="#DejaVuSans-48"/>
      </g>
     </g>
    </g>
    <g id="xtick_5">
     <g id="line2d_5">
      <g>
       <use style="stroke:#000000;stroke-width:0.8;" x="333.816347" xlink:href="#m47aef26bed" y="307.584"/>
      </g>
     </g>
     <g id="text_5">
      <!-- 800 -->
      <defs>
       <path d="M 31.78125 34.625 
Q 24.75 34.625 20.71875 30.859375 
Q 16.703125 27.09375 16.703125 20.515625 
Q 16.703125 13.921875 20.71875 10.15625 
Q 24.75 6.390625 31.78125 6.390625 
Q 38.8125 6.390625 42.859375 10.171875 
Q 46.921875 13.96875 46.921875 20.515625 
Q 46.921875 27.09375 42.890625 30.859375 
Q 38.875 34.625 31.78125 34.625 
z
M 21.921875 38.8125 
Q 15.578125 40.375 12.03125 44.71875 
Q 8.5 49.078125 8.5 55.328125 
Q 8.5 64.0625 14.71875 69.140625 
Q 20.953125 74.21875 31.78125 74.21875 
Q 42.671875 74.21875 48.875 69.140625 
Q 55.078125 64.0625 55.078125 55.328125 
Q 55.078125 49.078125 51.53125 44.71875 
Q 48 40.375 41.703125 38.8125 
Q 48.828125 37.15625 52.796875 32.3125 
Q 56.78125 27.484375 56.78125 20.515625 
Q 56.78125 9.90625 50.3125 4.234375 
Q 43.84375 -1.421875 31.78125 -1.421875 
Q 19.734375 -1.421875 13.25 4.234375 
Q 6.78125 9.90625 6.78125 20.515625 
Q 6.78125 27.484375 10.78125 32.3125 
Q 14.796875 37.15625 21.921875 38.8125 
z
M 18.3125 54.390625 
Q 18.3125 48.734375 21.84375 45.5625 
Q 25.390625 42.390625 31.78125 42.390625 
Q 38.140625 42.390625 41.71875 45.5625 
Q 45.3125 48.734375 45.3125 54.390625 
Q 45.3125 60.0625 41.71875 63.234375 
Q 38.140625 66.40625 31.78125 66.40625 
Q 25.390625 66.40625 21.84375 63.234375 
Q 18.3125 60.0625 18.3125 54.390625 
z
" id="DejaVuSans-56"/>
      </defs>
      <g transform="translate(324.272597 322.182437)scale(0.1 -0.1)">
       <use xlink:href="#DejaVuSans-56"/>
       <use x="63.623047" xlink:href="#DejaVuSans-48"/>
       <use x="127.246094" xlink:href="#DejaVuSans-48"/>
      </g>
     </g>
    </g>
    <g id="xtick_6">
     <g id="line2d_6">
      <g>
       <use style="stroke:#000000;stroke-width:0.8;" x="398.812252" xlink:href="#m47aef26bed" y="307.584"/>
      </g>
     </g>
     <g id="text_6">
      <!-- 1000 -->
      <defs>
       <path d="M 12.40625 8.296875 
L 28.515625 8.296875 
L 28.515625 63.921875 
L 10.984375 60.40625 
L 10.984375 69.390625 
L 28.421875 72.90625 
L 38.28125 72.90625 
L 38.28125 8.296875 
L 54.390625 8.296875 
L 54.390625 0 
L 12.40625 0 
z
" id="DejaVuSans-49"/>
      </defs>
      <g transform="translate(386.087252 322.182437)scale(0.1 -0.1)">
       <use xlink:href="#DejaVuSans-49"/>
       <use x="63.623047" xlink:href="#DejaVuSans-48"/>
       <use x="127.246094" xlink:href="#DejaVuSans-48"/>
       <use x="190.869141" xlink:href="#DejaVuSans-48"/>
      </g>
     </g>
    </g>
    <g id="text_7">
     <!-- step -->
     <defs>
      <path d="M 44.28125 53.078125 
L 44.28125 44.578125 
Q 40.484375 46.53125 36.375 47.5 
Q 32.28125 48.484375 27.875 48.484375 
Q 21.1875 48.484375 17.84375 46.4375 
Q 14.5 44.390625 14.5 40.28125 
Q 14.5 37.15625 16.890625 35.375 
Q 19.28125 33.59375 26.515625 31.984375 
L 29.59375 31.296875 
Q 39.15625 29.25 43.1875 25.515625 
Q 47.21875 21.78125 47.21875 15.09375 
Q 47.21875 7.46875 41.1875 3.015625 
Q 35.15625 -1.421875 24.609375 -1.421875 
Q 20.21875 -1.421875 15.453125 -0.5625 
Q 10.6875 0.296875 5.421875 2 
L 5.421875 11.28125 
Q 10.40625 8.6875 15.234375 7.390625 
Q 20.0625 6.109375 24.8125 6.109375 
Q 31.15625 6.109375 34.5625 8.28125 
Q 37.984375 10.453125 37.984375 14.40625 
Q 37.984375 18.0625 35.515625 20.015625 
Q 33.0625 21.96875 24.703125 23.78125 
L 21.578125 24.515625 
Q 13.234375 26.265625 9.515625 29.90625 
Q 5.8125 33.546875 5.8125 39.890625 
Q 5.8125 47.609375 11.28125 51.796875 
Q 16.75 56 26.8125 56 
Q 31.78125 56 36.171875 55.265625 
Q 40.578125 54.546875 44.28125 53.078125 
z
" id="DejaVuSans-115"/>
      <path d="M 18.3125 70.21875 
L 18.3125 54.6875 
L 36.8125 54.6875 
L 36.8125 47.703125 
L 18.3125 47.703125 
L 18.3125 18.015625 
Q 18.3125 11.328125 20.140625 9.421875 
Q 21.96875 7.515625 27.59375 7.515625 
L 36.8125 7.515625 
L 36.8125 0 
L 27.59375 0 
Q 17.1875 0 13.234375 3.875 
Q 9.28125 7.765625 9.28125 18.015625 
L 9.28125 47.703125 
L 2.6875 47.703125 
L 2.6875 54.6875 
L 9.28125 54.6875 
L 9.28125 70.21875 
z
" id="DejaVuSans-116"/>
      <path d="M 56.203125 29.59375 
L 56.203125 25.203125 
L 14.890625 25.203125 
Q 15.484375 15.921875 20.484375 11.0625 
Q 25.484375 6.203125 34.421875 6.203125 
Q 39.59375 6.203125 44.453125 7.46875 
Q 49.3125 8.734375 54.109375 11.28125 
L 54.109375 2.78125 
Q 49.265625 0.734375 44.1875 -0.34375 
Q 39.109375 -1.421875 33.890625 -1.421875 
Q 20.796875 -1.421875 13.15625 6.1875 
Q 5.515625 13.8125 5.515625 26.8125 
Q 5.515625 40.234375 12.765625 48.109375 
Q 20.015625 56 32.328125 56 
Q 43.359375 56 49.78125 48.890625 
Q 56.203125 41.796875 56.203125 29.59375 
z
M 47.21875 32.234375 
Q 47.125 39.59375 43.09375 43.984375 
Q 39.0625 48.390625 32.421875 48.390625 
Q 24.90625 48.390625 20.390625 44.140625 
Q 15.875 39.890625 15.1875 32.171875 
z
" id="DejaVuSans-101"/>
      <path d="M 18.109375 8.203125 
L 18.109375 -20.796875 
L 9.078125 -20.796875 
L 9.078125 54.6875 
L 18.109375 54.6875 
L 18.109375 46.390625 
Q 20.953125 51.265625 25.265625 53.625 
Q 29.59375 56 35.59375 56 
Q 45.5625 56 51.78125 48.09375 
Q 58.015625 40.1875 58.015625 27.296875 
Q 58.015625 14.40625 51.78125 6.484375 
Q 45.5625 -1.421875 35.59375 -1.421875 
Q 29.59375 -1.421875 25.265625 0.953125 
Q 20.953125 3.328125 18.109375 8.203125 
z
M 48.6875 27.296875 
Q 48.6875 37.203125 44.609375 42.84375 
Q 40.53125 48.484375 33.40625 48.484375 
Q 26.265625 48.484375 22.1875 42.84375 
Q 18.109375 37.203125 18.109375 27.296875 
Q 18.109375 17.390625 22.1875 11.75 
Q 26.265625 6.109375 33.40625 6.109375 
Q 40.53125 6.109375 44.609375 11.75 
Q 48.6875 17.390625 48.6875 27.296875 
z
" id="DejaVuSans-112"/>
     </defs>
     <g transform="translate(225.344375 335.860562)scale(0.1 -0.1)">
      <use xlink:href="#DejaVuSans-115"/>
      <use x="52.099609" xlink:href="#DejaVuSans-116"/>
      <use x="91.308594" xlink:href="#DejaVuSans-101"/>
      <use x="152.832031" xlink:href="#DejaVuSans-112"/>
     </g>
    </g>
   </g>
   <g id="matplotlib.axis_2">
    <g id="ytick_1">
     <g id="line2d_7">
      <defs>
       <path d="M 0 0 
L -3.5 0 
" id="m04cc168810" style="stroke:#000000;stroke-width:0.8;"/>
      </defs>
      <g>
       <use style="stroke:#000000;stroke-width:0.8;" x="57.6" xlink:href="#m04cc168810" y="299.107067"/>
      </g>
     </g>
     <g id="text_8">
      <!-- 0 -->
      <g transform="translate(44.2375 302.906286)scale(0.1 -0.1)">
       <use xlink:href="#DejaVuSans-48"/>
      </g>
     </g>
    </g>
    <g id="ytick_2">
     <g id="line2d_8">
      <g>
       <use style="stroke:#000000;stroke-width:0.8;" x="57.6" xlink:href="#m04cc168810" y="247.133483"/>
      </g>
     </g>
     <g id="text_9">
      <!-- 2 -->
      <g transform="translate(44.2375 250.932702)scale(0.1 -0.1)">
       <use xlink:href="#DejaVuSans-50"/>
      </g>
     </g>
    </g>
    <g id="ytick_3">
     <g id="line2d_9">
      <g>
       <use style="stroke:#000000;stroke-width:0.8;" x="57.6" xlink:href="#m04cc168810" y="195.159899"/>
      </g>
     </g>
     <g id="text_10">
      <!-- 4 -->
      <g transform="translate(44.2375 198.959118)scale(0.1 -0.1)">
       <use xlink:href="#DejaVuSans-52"/>
      </g>
     </g>
    </g>
    <g id="ytick_4">
     <g id="line2d_10">
      <g>
       <use style="stroke:#000000;stroke-width:0.8;" x="57.6" xlink:href="#m04cc168810" y="143.186315"/>
      </g>
     </g>
     <g id="text_11">
      <!-- 6 -->
      <g transform="translate(44.2375 146.985534)scale(0.1 -0.1)">
       <use xlink:href="#DejaVuSans-54"/>
      </g>
     </g>
    </g>
    <g id="ytick_5">
     <g id="line2d_11">
      <g>
       <use style="stroke:#000000;stroke-width:0.8;" x="57.6" xlink:href="#m04cc168810" y="91.212732"/>
      </g>
     </g>
     <g id="text_12">
      <!-- 8 -->
      <g transform="translate(44.2375 95.01195)scale(0.1 -0.1)">
       <use xlink:href="#DejaVuSans-56"/>
      </g>
     </g>
    </g>
   </g>
   <g id="line2d_12">
    <path clip-path="url(#p881ff91738)" d="M 73.832727 288.096323 
L 74.157707 291.179824 
L 74.482686 290.794139 
L 74.807666 289.279589 
L 75.132645 290.378701 
L 75.457625 286.252033 
L 75.782604 286.690278 
L 76.432563 291.331105 
L 76.757543 287.881775 
L 77.082523 292.729668 
L 77.407502 287.536913 
L 77.732482 290.331121 
L 78.057461 287.327334 
L 78.382441 288.52659 
L 78.70742 294.223439 
L 79.0324 292.595762 
L 79.357379 295.488 
L 79.682359 287.461184 
L 80.007338 290.316223 
L 80.332318 291.230213 
L 80.657297 288.58647 
L 80.982277 295.009699 
L 81.307256 284.668231 
L 81.957215 292.735356 
L 82.282195 284.394126 
L 82.607174 291.638557 
L 83.257133 289.160983 
L 83.582113 292.56441 
L 84.232072 289.904038 
L 84.557052 288.902138 
L 84.882031 291.868213 
L 85.207011 287.204351 
L 85.53199 290.407434 
L 85.85697 287.9193 
L 86.181949 290.454899 
L 86.506929 286.860193 
L 86.831908 289.030478 
L 87.156888 287.263269 
L 87.481867 291.206147 
L 87.806847 288.144224 
L 88.131826 287.543254 
L 88.456806 288.340569 
L 88.781785 282.009757 
L 89.106765 288.51606 
L 89.431744 286.130626 
L 89.756724 288.705942 
L 90.081704 288.440886 
L 90.406683 287.525364 
L 90.731663 285.184006 
L 91.381622 288.805759 
L 91.706601 285.863915 
L 92.031581 288.934563 
L 92.35656 281.331673 
L 92.68154 286.974279 
L 93.006519 288.976769 
L 93.331499 286.782826 
L 93.656478 288.589434 
L 93.981458 286.466385 
L 94.306437 289.710651 
L 95.281376 283.961582 
L 95.606355 284.803461 
L 96.256314 284.352811 
L 96.581294 287.610629 
L 96.906274 287.116182 
L 97.231253 287.629092 
L 97.556233 284.784545 
L 97.881212 284.66063 
L 98.206192 290.699767 
L 98.531171 286.394217 
L 98.856151 289.37463 
L 99.18113 286.02929 
L 99.50611 287.155787 
L 99.831089 286.487068 
L 100.156069 283.828708 
L 100.806028 287.901124 
L 101.131007 283.616302 
L 101.455987 283.658687 
L 101.780966 286.755571 
L 102.105946 287.36741 
L 102.430925 286.154587 
L 102.755905 285.383186 
L 103.080885 287.138963 
L 103.730844 285.006312 
L 104.055823 280.911122 
L 104.380803 282.614181 
L 104.705782 285.494952 
L 105.030762 284.273284 
L 105.355741 281.396185 
L 105.680721 285.318631 
L 106.33068 287.971023 
L 106.980639 282.937631 
L 107.305618 289.630697 
L 107.630598 283.498718 
L 107.955577 287.486857 
L 108.280557 282.497901 
L 108.605536 282.41151 
L 108.930516 284.739034 
L 109.255495 283.028586 
L 109.580475 283.309119 
L 109.905455 280.998447 
L 110.230434 282.495301 
L 110.555414 286.378442 
L 110.880393 283.199704 
L 111.205373 278.715722 
L 111.530352 283.261659 
L 111.855332 279.285624 
L 112.505291 284.134345 
L 112.83027 282.233389 
L 113.15525 281.089984 
L 113.805209 288.046528 
L 114.130188 283.885763 
L 114.455168 283.483939 
L 114.780147 282.337398 
L 115.105127 284.643724 
L 115.430106 281.217262 
L 115.755086 285.005967 
L 116.080066 279.893144 
L 116.405045 278.891668 
L 116.730025 280.814454 
L 117.055004 281.400284 
L 117.379984 282.99097 
L 117.704963 282.093699 
L 118.029943 280.293906 
L 118.354922 280.56989 
L 118.679902 284.55279 
L 119.004881 282.942449 
L 119.329861 282.841366 
L 119.65484 277.748234 
L 119.97982 284.782373 
L 120.304799 283.346555 
L 120.629779 284.943171 
L 120.954758 283.157014 
L 121.279738 282.893775 
L 121.604717 284.102321 
L 121.929697 287.419888 
L 122.254676 286.23455 
L 122.579656 285.914539 
L 122.904636 283.722541 
L 123.229615 284.16355 
L 123.554595 281.102605 
L 123.879574 284.180576 
L 124.204554 283.132585 
L 124.529533 283.501403 
L 124.854513 284.668677 
L 125.179492 281.538004 
L 125.504472 273.663812 
L 125.829451 281.442151 
L 126.154431 280.208198 
L 126.47941 288.475713 
L 126.80439 283.613133 
L 127.129369 284.371589 
L 127.454349 279.117382 
L 127.779328 280.393539 
L 128.429287 281.34136 
L 128.754267 281.844596 
L 129.079247 281.322501 
L 129.404226 286.926997 
L 129.729206 284.531256 
L 130.054185 286.259361 
L 130.379165 282.057227 
L 130.704144 283.195128 
L 131.029124 282.037831 
L 131.354103 281.476662 
L 131.679083 284.981916 
L 132.004062 284.649862 
L 132.329042 280.945118 
L 132.654021 280.218855 
L 132.979001 284.815527 
L 133.30398 282.378178 
L 133.62896 282.990306 
L 133.953939 282.199149 
L 134.278919 284.209761 
L 134.603898 280.688279 
L 134.928878 284.294203 
L 135.253857 282.914343 
L 135.578837 282.269092 
L 135.903817 285.281566 
L 136.228796 282.410685 
L 136.553776 282.313749 
L 136.878755 283.190428 
L 137.203735 283.398983 
L 137.528714 284.045026 
L 137.853694 282.82336 
L 138.178673 284.554382 
L 138.503653 278.984354 
L 138.828632 286.254308 
L 139.153612 280.972055 
L 139.478591 283.907406 
L 139.803571 280.682487 
L 140.12855 284.403697 
L 140.45353 280.308197 
L 140.778509 282.536802 
L 141.103489 283.19937 
L 141.428468 284.432926 
L 141.753448 279.334459 
L 142.403407 285.016776 
L 142.728387 275.158337 
L 143.053366 285.967776 
L 143.378346 283.88278 
L 143.703325 278.613415 
L 144.028305 281.01227 
L 144.353284 280.014558 
L 144.678264 281.886291 
L 145.003243 277.382022 
L 145.328223 284.488967 
L 145.653202 283.424418 
L 145.978182 283.885344 
L 146.628141 282.116044 
L 146.95312 283.052846 
L 147.2781 280.5402 
L 147.603079 279.159383 
L 147.928059 275.780264 
L 148.253038 288.237361 
L 148.578018 281.642021 
L 148.902998 286.188443 
L 149.227977 286.428628 
L 149.552957 288.002392 
L 149.877936 282.436804 
L 150.202916 283.904666 
L 150.527895 281.827666 
L 150.852875 281.656959 
L 151.177854 285.659737 
L 151.502834 280.913396 
L 151.827813 280.029668 
L 152.152793 284.23421 
L 152.477772 276.854241 
L 152.802752 275.912805 
L 153.127731 280.772115 
L 153.452711 281.944836 
L 154.10267 285.615421 
L 154.752629 280.463812 
L 155.077609 280.952594 
L 155.402588 282.438973 
L 155.727568 281.276064 
L 156.052547 281.936995 
L 156.377527 279.723859 
L 156.702506 275.827546 
L 157.027486 282.848999 
L 157.352465 281.181596 
L 157.677445 283.179103 
L 158.002424 278.176904 
L 158.327404 278.414142 
L 158.977363 285.776951 
L 159.302342 284.863141 
L 159.627322 277.107123 
L 159.952301 277.314662 
L 160.277281 276.007722 
L 160.60226 280.755854 
L 160.92724 281.493068 
L 161.252219 279.560681 
L 161.577199 280.010286 
L 161.902179 277.225617 
L 162.227158 277.20668 
L 162.552138 279.3726 
L 162.877117 280.217315 
L 163.202097 279.304361 
L 163.527076 276.369184 
L 163.852056 280.870487 
L 164.177035 277.865694 
L 164.826994 278.654018 
L 165.151974 273.233588 
L 165.801933 277.037149 
L 166.126912 280.944575 
L 166.451892 279.105898 
L 166.776871 282.776875 
L 167.101851 275.220147 
L 167.42683 270.418703 
L 167.75181 272.158112 
L 168.07679 273.167765 
L 168.401769 278.55622 
L 168.726749 281.362058 
L 169.051728 273.538047 
L 169.376708 277.542779 
L 169.701687 275.797031 
L 170.026667 272.882647 
L 170.351646 274.900031 
L 170.676626 272.090202 
L 171.001605 277.12378 
L 171.326585 276.28199 
L 171.651564 275.751255 
L 171.976544 277.301429 
L 172.301523 275.114713 
L 172.951482 277.708889 
L 173.276462 272.767882 
L 173.601441 275.999642 
L 173.926421 274.435043 
L 174.2514 274.219935 
L 174.57638 277.226574 
L 174.90136 272.070562 
L 175.226339 275.73191 
L 175.551319 276.430434 
L 176.201278 274.287217 
L 176.526257 274.657361 
L 176.851237 273.438415 
L 177.501196 276.581819 
L 177.826175 272.197129 
L 178.151155 273.61375 
L 178.476134 276.868523 
L 179.126093 271.035436 
L 179.451073 273.694237 
L 179.776052 273.287467 
L 180.101032 277.178975 
L 180.426011 276.287193 
L 180.750991 272.931559 
L 181.075971 271.151502 
L 181.40095 277.423977 
L 181.72593 275.721376 
L 182.050909 278.326754 
L 182.375889 275.917091 
L 182.700868 272.647148 
L 183.025848 274.981144 
L 183.350827 274.788148 
L 184.000786 270.628343 
L 184.325766 274.312679 
L 184.650745 274.32921 
L 185.300704 277.704665 
L 185.950663 271.326641 
L 186.275643 273.838424 
L 186.600622 277.564356 
L 186.925602 276.763508 
L 187.250581 274.279335 
L 187.575561 273.832215 
L 187.900541 273.12374 
L 188.22552 272.998204 
L 188.5505 272.382662 
L 188.875479 277.797507 
L 189.200459 273.251725 
L 189.525438 274.637728 
L 190.175397 272.024827 
L 190.500377 272.931911 
L 190.825356 271.844829 
L 191.475315 275.088966 
L 191.800295 271.041196 
L 192.125274 270.248635 
L 192.450254 271.658955 
L 192.775233 273.652739 
L 193.100213 273.181409 
L 193.425192 272.47617 
L 193.750172 275.756285 
L 194.075152 269.062615 
L 194.400131 271.540954 
L 194.725111 272.138765 
L 195.37507 270.118599 
L 195.700049 271.224313 
L 196.025029 269.991614 
L 196.350008 275.917095 
L 196.674988 274.115132 
L 196.999967 272.973415 
L 197.324947 272.260174 
L 197.649926 272.190098 
L 197.974906 271.720255 
L 198.624865 275.704682 
L 198.949844 274.542988 
L 199.274824 275.10953 
L 199.599803 272.076948 
L 199.924783 271.84513 
L 200.249762 277.22775 
L 200.574742 270.230816 
L 200.899722 271.790227 
L 201.224701 269.043137 
L 201.549681 273.520352 
L 201.87466 273.630386 
L 202.19964 272.114396 
L 202.524619 274.492242 
L 202.849599 272.67935 
L 203.174578 272.19545 
L 203.824537 276.624897 
L 204.474496 271.90088 
L 204.799476 275.746554 
L 205.124455 272.76187 
L 205.449435 274.331676 
L 205.774414 272.561715 
L 206.099394 273.260642 
L 206.424373 271.754942 
L 206.749353 269.249689 
L 207.074333 269.522532 
L 207.399312 272.939864 
L 207.724292 269.918677 
L 208.049271 269.031834 
L 208.69923 272.213853 
L 209.02421 268.709404 
L 209.349189 268.187488 
L 209.674169 268.800689 
L 209.999148 271.296293 
L 210.324128 266.772339 
L 210.649107 268.41864 
L 210.974087 270.959742 
L 211.299066 269.868973 
L 211.624046 271.181044 
L 211.949025 270.196702 
L 212.274005 264.790511 
L 212.598984 263.529116 
L 212.923964 266.812894 
L 213.248943 267.874021 
L 213.573923 265.861203 
L 213.898903 269.824488 
L 214.223882 269.888404 
L 214.548862 266.359888 
L 214.873841 270.189079 
L 215.198821 269.159516 
L 215.5238 267.583283 
L 215.84878 271.433538 
L 216.173759 268.131507 
L 216.498739 270.496669 
L 216.823718 267.718897 
L 217.148698 271.719422 
L 217.473677 268.96226 
L 217.798657 269.224238 
L 218.123636 269.252076 
L 218.448616 269.723357 
L 218.773595 264.61346 
L 219.098575 270.654235 
L 219.423554 272.668374 
L 219.748534 266.032525 
L 220.073514 269.31015 
L 220.398493 270.236736 
L 220.723473 265.351878 
L 221.048452 267.397108 
L 221.373432 272.388927 
L 221.698411 269.301508 
L 222.023391 270.128611 
L 222.34837 260.099763 
L 222.67335 269.473845 
L 223.323309 267.379729 
L 223.648288 265.335252 
L 223.973268 268.108786 
L 224.298247 268.951444 
L 224.623227 267.071712 
L 224.948206 270.02309 
L 225.273186 264.930564 
L 225.598165 270.307729 
L 225.923145 270.527946 
L 226.248124 263.230054 
L 226.573104 264.724365 
L 226.898084 265.375694 
L 227.548043 269.619029 
L 227.873022 268.688525 
L 228.198002 263.168614 
L 228.522981 268.852966 
L 228.847961 267.850522 
L 229.17294 268.907154 
L 229.49792 268.449911 
L 229.822899 263.966301 
L 230.147879 267.843641 
L 230.472858 268.459074 
L 230.797838 272.609464 
L 231.122817 264.209855 
L 231.447797 267.340004 
L 231.772776 258.955164 
L 232.097756 261.904737 
L 232.747715 269.077182 
L 233.072695 265.068821 
L 233.397674 263.944672 
L 233.722654 267.89603 
L 234.047633 264.626071 
L 234.372613 264.852581 
L 234.697592 267.85842 
L 235.022572 268.290914 
L 235.672531 263.618259 
L 235.99751 265.481177 
L 236.32249 263.566515 
L 236.647469 262.746759 
L 236.972449 264.251561 
L 237.297428 260.095582 
L 237.622408 263.134696 
L 237.947387 262.997978 
L 238.272367 264.632253 
L 238.597346 268.063649 
L 238.922326 267.942763 
L 239.247305 267.289386 
L 239.572285 263.633734 
L 239.897265 265.021107 
L 240.222244 264.852333 
L 240.547224 263.496761 
L 240.872203 266.801702 
L 241.522162 264.964417 
L 241.847142 264.733846 
L 242.172121 261.988706 
L 242.497101 263.06016 
L 242.82208 258.993394 
L 243.472039 263.366569 
L 243.797019 262.341072 
L 244.121998 262.484858 
L 244.446978 261.19817 
L 244.771957 270.053677 
L 245.096937 268.414135 
L 245.421916 264.178865 
L 246.071876 266.204017 
L 246.396855 265.423235 
L 246.721835 266.445434 
L 247.046814 262.993271 
L 247.371794 261.616661 
L 247.696773 265.648434 
L 248.021753 261.707897 
L 248.346732 263.659152 
L 248.671712 263.261205 
L 248.996691 264.435812 
L 249.321671 259.624335 
L 249.64665 263.960162 
L 249.97163 262.665023 
L 250.296609 265.412256 
L 250.621589 262.195902 
L 250.946568 261.634693 
L 251.271548 262.060618 
L 251.596527 268.865654 
L 251.921507 262.865515 
L 252.246486 261.507824 
L 252.896446 264.967224 
L 253.221425 263.953836 
L 253.546405 263.529832 
L 253.871384 263.386266 
L 254.196364 265.168296 
L 254.521343 263.730903 
L 254.846323 264.973018 
L 255.171302 264.49127 
L 255.496282 261.150417 
L 255.821261 265.807112 
L 256.146241 261.779838 
L 256.47122 259.784636 
L 256.7962 263.040479 
L 257.121179 258.254992 
L 257.446159 258.895391 
L 258.096118 262.026768 
L 258.746077 257.562352 
L 259.071057 264.031668 
L 259.721016 259.639764 
L 260.370975 264.940555 
L 260.695954 254.204693 
L 261.020934 261.484667 
L 261.670893 259.148653 
L 261.995872 261.703596 
L 262.320852 260.722782 
L 262.645831 257.827427 
L 262.970811 258.254996 
L 263.29579 258.063924 
L 263.62077 266.803907 
L 263.945749 258.350371 
L 264.270729 258.081656 
L 264.595708 260.513864 
L 264.920688 257.600384 
L 265.245667 257.151417 
L 265.570647 257.817326 
L 265.895627 260.604891 
L 266.220606 261.525753 
L 266.545586 258.661752 
L 266.870565 254.530004 
L 267.195545 261.756985 
L 267.520524 255.641573 
L 267.845504 259.871137 
L 268.170483 259.273458 
L 268.495463 259.025679 
L 268.820442 254.668794 
L 269.145422 255.368111 
L 269.470401 258.304963 
L 269.795381 259.904727 
L 270.44534 255.010895 
L 270.770319 260.389071 
L 271.095299 258.357574 
L 271.420278 255.027324 
L 271.745258 258.49488 
L 272.070238 259.38135 
L 272.395217 260.865142 
L 272.720197 256.349082 
L 273.045176 255.389715 
L 273.370156 256.923216 
L 273.695135 259.2734 
L 274.020115 254.461925 
L 274.345094 256.010779 
L 274.670074 255.072793 
L 274.995053 255.794274 
L 275.320033 253.253254 
L 275.645012 255.880829 
L 275.969992 255.73015 
L 276.294971 251.080778 
L 276.619951 259.552395 
L 276.94493 259.084296 
L 277.26991 257.319066 
L 277.594889 258.210447 
L 277.919869 258.15067 
L 278.244848 256.489457 
L 278.569828 253.638136 
L 278.894808 255.75731 
L 279.219787 255.937598 
L 279.544767 254.035411 
L 279.869746 256.914645 
L 280.194726 254.429204 
L 280.519705 257.89288 
L 280.844685 256.880281 
L 281.169664 254.178371 
L 281.494644 254.828259 
L 281.819623 256.152703 
L 282.144603 250.184689 
L 283.119541 256.926847 
L 283.444521 257.395131 
L 283.7695 251.315615 
L 284.09448 251.67043 
L 284.419459 251.348658 
L 284.744439 252.372482 
L 285.069419 255.262772 
L 285.394398 253.520711 
L 285.719378 258.676182 
L 286.044357 252.824964 
L 286.369337 250.430794 
L 286.694316 254.424027 
L 287.019296 255.630213 
L 287.344275 257.636776 
L 287.669255 253.953802 
L 287.994234 257.031604 
L 288.319214 254.568784 
L 288.644193 258.549552 
L 288.969173 251.47477 
L 289.294152 252.322413 
L 289.619132 255.63742 
L 289.944111 254.536914 
L 290.269091 254.417322 
L 290.59407 253.648288 
L 291.244029 258.561928 
L 291.569009 257.930858 
L 291.893989 251.794329 
L 292.218968 255.589528 
L 292.543948 256.209065 
L 292.868927 254.000123 
L 293.193907 254.319058 
L 293.518886 257.16169 
L 293.843866 255.027693 
L 294.168845 251.816686 
L 294.818804 258.342504 
L 295.468763 252.248967 
L 295.793743 251.206563 
L 296.118722 257.372642 
L 296.443702 254.013238 
L 296.768681 255.603346 
L 297.093661 253.736588 
L 297.41864 256.989869 
L 297.74362 256.181825 
L 298.0686 256.603603 
L 298.393579 251.461039 
L 298.718559 255.852956 
L 299.043538 256.258388 
L 299.368518 253.067228 
L 299.693497 257.282405 
L 300.018477 252.261691 
L 300.343456 256.601913 
L 300.668436 251.982129 
L 301.318395 253.480499 
L 301.643374 254.53384 
L 301.968354 252.642322 
L 302.293333 255.319818 
L 302.618313 250.252978 
L 302.943292 255.006462 
L 303.268272 252.339099 
L 303.593251 252.924628 
L 303.918231 251.814575 
L 304.24321 252.509279 
L 304.56819 250.768235 
L 304.89317 254.637541 
L 305.218149 251.238464 
L 305.543129 250.431095 
L 305.868108 251.834995 
L 306.193088 255.227884 
L 306.518067 252.949695 
L 306.843047 257.360585 
L 307.168026 251.782179 
L 307.493006 260.378791 
L 308.142965 250.809461 
L 308.467944 254.660698 
L 308.792924 249.644199 
L 309.117903 250.271929 
L 309.442883 252.292816 
L 309.767862 251.009779 
L 310.092842 253.426227 
L 310.417821 253.790332 
L 310.742801 251.339056 
L 311.067781 255.083606 
L 311.39276 252.065925 
L 311.71774 251.663328 
L 312.042719 252.531423 
L 312.367699 254.714259 
L 312.692678 251.457073 
L 313.017658 254.708073 
L 313.667617 254.249148 
L 313.992596 251.491748 
L 314.317576 252.98257 
L 314.642555 251.498777 
L 314.967535 251.193694 
L 315.292514 249.396085 
L 315.617494 255.542052 
L 315.942473 252.661145 
L 316.267453 251.886141 
L 316.592432 247.583569 
L 316.917412 254.687891 
L 317.242391 247.021116 
L 317.567371 250.445958 
L 317.892351 251.312993 
L 318.21733 255.078547 
L 318.54231 248.240533 
L 318.867289 249.760669 
L 319.192269 252.118763 
L 319.517248 250.583588 
L 319.842228 251.858254 
L 320.167207 252.077365 
L 320.492187 251.219385 
L 320.817166 252.726815 
L 321.142146 248.263417 
L 321.467125 246.38411 
L 321.792105 248.831833 
L 322.117084 253.328164 
L 322.442064 246.020141 
L 322.767043 253.681412 
L 323.092023 250.777314 
L 323.417002 250.730661 
L 323.741982 247.058747 
L 324.066962 246.459515 
L 324.391941 250.688386 
L 324.716921 248.474584 
L 325.0419 251.492764 
L 325.36688 248.157417 
L 325.691859 248.050411 
L 326.016839 252.26074 
L 326.341818 249.11333 
L 326.666798 250.765313 
L 326.991777 248.935454 
L 327.316757 255.245022 
L 327.966716 251.870251 
L 328.291695 251.86428 
L 328.616675 248.390378 
L 328.941654 246.510875 
L 329.266634 250.350216 
L 329.591613 251.720694 
L 329.916593 252.09625 
L 330.241572 248.246468 
L 330.566552 252.235574 
L 330.891532 248.594557 
L 331.216511 246.374668 
L 331.541491 246.123789 
L 331.86647 246.790919 
L 332.19145 250.278109 
L 332.516429 250.071515 
L 332.841409 250.161563 
L 333.166388 243.600385 
L 333.816347 249.902378 
L 334.141327 250.624429 
L 334.791286 244.071131 
L 335.116265 244.867454 
L 335.441245 244.026076 
L 335.766224 250.192892 
L 336.091204 248.049706 
L 336.416183 245.147533 
L 336.741163 249.983388 
L 337.391122 246.274807 
L 337.716102 247.947002 
L 338.041081 247.376917 
L 338.366061 249.038463 
L 338.69104 247.115979 
L 339.01602 247.649841 
L 339.340999 250.508073 
L 339.665979 246.847705 
L 339.990958 249.838066 
L 340.315938 247.914542 
L 340.640917 250.088828 
L 340.965897 248.640018 
L 341.290876 249.402113 
L 341.615856 244.762514 
L 341.940835 248.542453 
L 342.265815 250.676878 
L 342.915774 247.514674 
L 343.240753 248.998139 
L 343.565733 248.328261 
L 343.890713 250.559133 
L 344.215692 246.589629 
L 344.540672 246.781263 
L 344.865651 244.800978 
L 345.190631 241.784686 
L 345.51561 249.611149 
L 345.84059 244.445833 
L 346.165569 244.784887 
L 346.490549 248.755911 
L 346.815528 251.109921 
L 347.140508 248.35627 
L 347.465487 247.45206 
L 347.790467 249.11867 
L 348.115446 249.8136 
L 348.765405 245.505267 
L 349.090385 239.949037 
L 349.415364 244.403409 
L 349.740344 245.984492 
L 350.065324 242.567675 
L 350.390303 248.029563 
L 350.715283 243.819214 
L 351.040262 248.300953 
L 351.365242 245.140989 
L 351.690221 246.695035 
L 352.015201 246.551236 
L 352.34018 243.915388 
L 352.66516 245.786306 
L 352.990139 248.539435 
L 353.315119 244.665043 
L 353.640098 248.597881 
L 353.965078 245.3019 
L 354.290057 244.542653 
L 354.615037 245.060843 
L 354.940016 248.596003 
L 355.264996 244.935559 
L 355.589975 245.680604 
L 355.914955 242.017183 
L 356.239934 247.045069 
L 356.564914 242.454082 
L 356.889894 243.241252 
L 357.214873 245.079708 
L 357.539853 245.630093 
L 358.189812 249.599982 
L 358.839771 243.92638 
L 359.16475 249.349093 
L 359.48973 247.928728 
L 360.139689 243.282316 
L 360.789648 244.967894 
L 361.114627 240.526086 
L 361.439607 242.042999 
L 361.764586 244.314239 
L 362.089566 241.633154 
L 362.414545 245.58544 
L 362.739525 243.920537 
L 363.064505 245.171527 
L 363.389484 243.257629 
L 363.714464 245.177687 
L 364.039443 241.652552 
L 364.364423 243.120612 
L 364.689402 245.960203 
L 365.014382 241.282978 
L 365.664341 245.865571 
L 365.98932 242.139792 
L 366.3143 244.742426 
L 366.639279 243.803113 
L 366.964259 246.742088 
L 367.289238 245.044611 
L 367.614218 244.875381 
L 367.939197 241.562476 
L 368.264177 246.201522 
L 368.589156 247.988165 
L 368.914136 244.078354 
L 369.239115 245.080406 
L 369.564095 244.603369 
L 369.889075 242.903909 
L 370.214054 242.162035 
L 370.539034 244.862758 
L 370.864013 249.110846 
L 371.188993 246.241927 
L 372.163931 243.604633 
L 372.488911 248.168448 
L 372.81389 240.200496 
L 373.13887 247.56723 
L 373.463849 246.033612 
L 373.788829 245.85481 
L 374.113808 238.412903 
L 374.438788 245.332358 
L 374.763767 245.247167 
L 375.088747 244.63686 
L 375.413726 247.899748 
L 375.738706 247.03792 
L 376.063686 240.308263 
L 376.388665 243.996608 
L 376.713645 244.85392 
L 377.038624 250.125294 
L 377.688583 241.513078 
L 378.013563 245.869027 
L 378.338542 246.512563 
L 378.663522 240.50325 
L 378.988501 241.653493 
L 379.313481 246.315921 
L 379.96344 244.667127 
L 380.288419 242.607356 
L 380.613399 241.914886 
L 380.938378 242.812027 
L 381.263358 246.626959 
L 381.588337 240.662301 
L 381.913317 244.559784 
L 382.238296 241.986775 
L 382.563276 247.666552 
L 383.213235 242.115399 
L 383.538215 242.830005 
L 383.863194 241.444418 
L 384.188174 246.222324 
L 384.513153 241.468403 
L 384.838133 244.367115 
L 385.163112 242.965926 
L 385.488092 244.157758 
L 385.813071 241.37745 
L 386.138051 244.585268 
L 386.46303 249.718195 
L 386.78801 241.90871 
L 387.437969 247.582086 
L 387.762948 241.15972 
L 388.087928 244.773594 
L 388.412907 243.54488 
L 388.737887 245.545702 
L 389.062867 243.013652 
L 389.387846 244.692772 
L 389.712826 244.512267 
L 390.037805 242.536185 
L 390.362785 245.440952 
L 390.687764 244.106539 
L 391.012744 239.905484 
L 391.337723 243.471098 
L 391.662703 243.349311 
L 391.987682 240.825152 
L 392.312662 241.265458 
L 392.637641 243.305358 
L 393.2876 236.996779 
L 393.61258 245.490769 
L 393.937559 238.954816 
L 394.262539 242.029903 
L 394.587518 243.980467 
L 394.912498 241.040719 
L 395.562457 245.380739 
L 395.887437 239.139475 
L 396.212416 248.448234 
L 396.537396 241.410524 
L 396.862375 246.174016 
L 397.187355 243.583727 
L 397.512334 241.892914 
L 397.837314 243.728395 
L 398.487273 242.604323 
L 398.487273 242.604323 
" style="fill:none;stroke:#1f77b4;stroke-linecap:square;stroke-width:1.5;"/>
   </g>
   <g id="line2d_13">
    <path clip-path="url(#p881ff91738)" d="M 73.832727 291.083566 
L 74.157707 289.486724 
L 74.482686 285.300667 
L 75.132645 290.062431 
L 75.457625 283.509295 
L 75.782604 279.930597 
L 76.107584 284.66759 
L 76.432563 281.890849 
L 76.757543 283.724868 
L 77.407502 286.354075 
L 77.732482 281.581082 
L 78.057461 283.207019 
L 78.382441 280.829431 
L 78.70742 281.192024 
L 79.0324 282.028818 
L 79.357379 286.626303 
L 79.682359 277.704335 
L 80.007338 279.75268 
L 80.332318 278.497201 
L 80.657297 278.363173 
L 80.982277 273.862431 
L 81.632236 277.824052 
L 81.957215 274.498941 
L 82.282195 275.892806 
L 82.607174 281.732908 
L 82.932154 274.964457 
L 83.582113 272.77841 
L 83.907093 279.259078 
L 84.232072 268.162989 
L 84.557052 273.356461 
L 84.882031 275.399189 
L 85.207011 269.978456 
L 85.85697 275.003565 
L 86.506929 271.172513 
L 86.831908 266.764552 
L 87.156888 268.996073 
L 87.481867 262.984321 
L 87.806847 267.731157 
L 88.131826 269.346203 
L 88.781785 260.558089 
L 89.106765 265.565272 
L 89.431744 261.770811 
L 89.756724 271.105159 
L 90.081704 265.858185 
L 90.406683 265.886249 
L 90.731663 267.582983 
L 91.056642 265.284091 
L 91.381622 264.787814 
L 91.706601 265.393587 
L 92.031581 256.511323 
L 92.35656 258.699197 
L 92.68154 262.378196 
L 93.656478 257.704294 
L 94.306437 261.458512 
L 94.631417 257.739633 
L 94.956396 258.173499 
L 95.281376 257.822396 
L 95.606355 258.019809 
L 95.931335 254.835532 
L 96.256314 257.203927 
L 96.581294 257.63612 
L 96.906274 259.867272 
L 97.231253 255.331603 
L 97.556233 256.332846 
L 97.881212 249.584462 
L 98.206192 253.689114 
L 98.531171 252.284176 
L 98.856151 255.155455 
L 99.18113 255.210674 
L 99.50611 253.151257 
L 99.831089 252.23219 
L 100.156069 250.630487 
L 100.481048 250.124059 
L 100.806028 255.039316 
L 101.131007 252.473288 
L 101.455987 248.711138 
L 101.780966 253.932321 
L 102.105946 249.436853 
L 102.430925 253.832621 
L 102.755905 247.805066 
L 103.080885 249.373543 
L 103.405864 249.32377 
L 103.730844 252.271009 
L 104.055823 251.693989 
L 104.380803 249.936302 
L 104.705782 245.831739 
L 105.030762 253.537643 
L 105.355741 245.898432 
L 105.680721 243.342755 
L 106.0057 245.303464 
L 106.33068 245.364588 
L 106.655659 249.793213 
L 106.980639 248.293234 
L 107.305618 247.741303 
L 107.630598 243.097983 
L 107.955577 246.128622 
L 108.280557 245.394394 
L 108.605536 241.969258 
L 108.930516 242.783143 
L 109.255495 239.664957 
L 109.580475 245.550147 
L 109.905455 242.669184 
L 110.230434 238.578917 
L 110.555414 243.268148 
L 111.205373 238.259021 
L 111.530352 243.279911 
L 111.855332 238.877075 
L 112.180311 243.105859 
L 112.505291 243.154307 
L 112.83027 243.547097 
L 113.15525 242.971582 
L 113.480229 239.204701 
L 113.805209 237.405209 
L 114.130188 241.518597 
L 114.455168 237.609765 
L 115.105127 238.774432 
L 115.430106 240.460149 
L 115.755086 237.923174 
L 116.080066 236.647187 
L 116.405045 239.994818 
L 116.730025 241.555568 
L 117.055004 231.972678 
L 117.379984 238.429692 
L 117.704963 235.579606 
L 118.029943 236.289002 
L 118.354922 236.316776 
L 118.679902 228.514257 
L 119.004881 234.936243 
L 119.329861 226.717625 
L 119.97982 230.585159 
L 120.304799 229.942732 
L 120.629779 230.71927 
L 120.954758 229.470369 
L 121.279738 233.991274 
L 121.604717 228.983125 
L 121.929697 230.325272 
L 122.254676 228.968554 
L 122.579656 228.954773 
L 122.904636 226.258794 
L 123.229615 222.164463 
L 123.554595 224.603033 
L 123.879574 229.648921 
L 124.204554 227.211766 
L 124.529533 227.563847 
L 124.854513 223.87886 
L 125.179492 226.116831 
L 125.829451 228.508766 
L 126.154431 223.392156 
L 126.47941 226.529725 
L 127.129369 225.951621 
L 127.454349 224.828507 
L 127.779328 228.831905 
L 128.104308 221.4484 
L 128.429287 223.662019 
L 128.754267 222.634042 
L 129.079247 222.507958 
L 129.404226 220.574152 
L 129.729206 220.156939 
L 130.054185 218.738551 
L 130.379165 222.283146 
L 130.704144 220.715965 
L 131.029124 219.90464 
L 131.354103 222.940604 
L 131.679083 223.078829 
L 132.004062 222.715774 
L 132.329042 221.722135 
L 132.654021 217.454566 
L 132.979001 222.490139 
L 133.30398 215.391385 
L 133.62896 212.596664 
L 133.953939 212.127954 
L 134.278919 212.235004 
L 134.603898 213.351683 
L 134.928878 218.910249 
L 135.253857 220.274403 
L 135.578837 213.185796 
L 135.903817 221.598396 
L 136.228796 218.419462 
L 136.553776 222.024576 
L 136.878755 215.041605 
L 137.203735 215.306387 
L 137.528714 215.053659 
L 137.853694 212.062788 
L 138.178673 215.174418 
L 138.503653 215.565627 
L 138.828632 214.544093 
L 139.153612 219.642238 
L 139.478591 215.254566 
L 139.803571 214.660096 
L 140.45353 210.385738 
L 140.778509 212.050772 
L 141.103489 213.007849 
L 141.428468 209.791863 
L 141.753448 210.533728 
L 142.078428 212.810233 
L 142.403407 210.580789 
L 142.728387 206.113786 
L 143.378346 213.248632 
L 143.703325 210.882301 
L 144.028305 212.029246 
L 144.353284 212.462646 
L 144.678264 211.378613 
L 145.003243 211.724423 
L 145.328223 208.987653 
L 145.978182 211.891005 
L 146.303161 209.289471 
L 146.628141 212.954056 
L 146.95312 212.683198 
L 147.2781 207.638199 
L 147.603079 212.764226 
L 147.928059 204.235929 
L 148.253038 206.478927 
L 148.902998 207.342487 
L 149.227977 210.10987 
L 149.552957 207.359944 
L 150.202916 204.477092 
L 150.527895 212.144635 
L 151.177854 203.284547 
L 151.502834 203.384361 
L 151.827813 199.271773 
L 152.477772 207.495297 
L 152.802752 201.583149 
L 153.127731 203.215811 
L 153.452711 200.267984 
L 153.77769 203.958341 
L 154.10267 201.304579 
L 154.427649 197.712971 
L 154.752629 200.690439 
L 155.077609 197.232095 
L 155.402588 195.055166 
L 155.727568 199.719664 
L 156.052547 197.750078 
L 156.377527 192.947457 
L 156.702506 197.823125 
L 157.027486 195.051053 
L 157.352465 198.564276 
L 157.677445 198.098232 
L 158.002424 192.825078 
L 158.327404 196.195257 
L 158.652383 193.353389 
L 158.977363 194.512052 
L 159.302342 193.853544 
L 159.952301 193.780236 
L 160.277281 195.663284 
L 160.60226 199.02488 
L 160.92724 194.299675 
L 161.252219 191.740774 
L 161.577199 196.250783 
L 161.902179 195.01374 
L 162.227158 196.205017 
L 162.552138 198.373609 
L 162.877117 198.116989 
L 163.527076 192.884515 
L 163.852056 190.376552 
L 164.502015 190.903758 
L 164.826994 192.961141 
L 165.476953 185.632788 
L 165.801933 186.771417 
L 166.126912 186.529266 
L 166.451892 189.570463 
L 167.101851 192.364289 
L 167.42683 189.986432 
L 167.75181 191.281482 
L 168.07679 189.937691 
L 168.401769 194.375472 
L 168.726749 188.930637 
L 169.051728 190.114931 
L 169.376708 185.631758 
L 170.026667 188.100526 
L 170.351646 190.117657 
L 170.676626 182.26702 
L 171.001605 189.431503 
L 171.326585 185.322843 
L 171.651564 189.428415 
L 171.976544 188.527885 
L 172.301523 190.572489 
L 172.626503 194.649161 
L 172.951482 190.225965 
L 173.276462 188.734403 
L 173.601441 188.862079 
L 173.926421 190.518686 
L 174.2514 187.028303 
L 174.57638 185.944923 
L 174.90136 184.176504 
L 175.226339 187.128365 
L 175.551319 186.628467 
L 175.876298 186.542263 
L 176.201278 188.344665 
L 176.526257 188.730245 
L 176.851237 190.435297 
L 177.176216 184.582793 
L 177.501196 187.249857 
L 177.826175 182.931808 
L 178.151155 188.885232 
L 178.476134 183.104474 
L 178.801114 186.520738 
L 179.126093 181.825969 
L 179.451073 186.975896 
L 179.776052 186.134889 
L 180.101032 182.859624 
L 180.426011 182.56722 
L 180.750991 181.306075 
L 181.075971 179.434068 
L 181.40095 183.444619 
L 181.72593 180.769711 
L 182.050909 182.786479 
L 182.375889 174.365094 
L 182.700868 176.661544 
L 183.025848 177.145516 
L 183.350827 177.276944 
L 183.675807 180.240439 
L 184.000786 176.947468 
L 184.325766 175.722061 
L 184.650745 180.039743 
L 184.975725 180.966112 
L 185.625684 176.360113 
L 185.950663 172.335633 
L 186.275643 180.334517 
L 186.600622 178.147222 
L 186.925602 170.92395 
L 187.250581 175.032025 
L 187.575561 173.620427 
L 187.900541 175.268016 
L 188.22552 172.728564 
L 188.5505 174.797082 
L 188.875479 175.081713 
L 189.525438 178.133936 
L 190.175397 169.454789 
L 190.500377 175.258996 
L 190.825356 176.627341 
L 191.475315 172.056221 
L 191.800295 172.019207 
L 192.125274 173.276652 
L 192.450254 175.030763 
L 192.775233 173.086217 
L 193.100213 167.900328 
L 193.425192 172.707346 
L 193.750172 168.814436 
L 194.075152 173.911512 
L 194.400131 168.807173 
L 194.725111 169.931675 
L 195.05009 173.46899 
L 195.37507 171.166323 
L 195.700049 174.023805 
L 196.025029 169.665432 
L 196.350008 168.583499 
L 196.674988 165.886086 
L 196.999967 167.622635 
L 197.324947 170.068586 
L 197.649926 170.73237 
L 197.974906 166.749629 
L 198.299885 168.271003 
L 198.624865 167.408641 
L 198.949844 167.006145 
L 199.274824 171.893503 
L 199.599803 168.613278 
L 199.924783 168.412355 
L 200.249762 164.528833 
L 200.574742 169.961626 
L 200.899722 165.283119 
L 201.224701 172.618741 
L 201.549681 166.282227 
L 201.87466 163.434159 
L 202.19964 163.15791 
L 202.524619 166.120972 
L 202.849599 170.833788 
L 203.174578 161.659211 
L 203.499558 166.763498 
L 203.824537 168.378263 
L 204.149517 163.466341 
L 204.474496 165.736237 
L 205.124455 163.002676 
L 205.449435 163.602539 
L 205.774414 165.275427 
L 206.099394 165.199116 
L 206.424373 165.511222 
L 206.749353 163.553441 
L 207.074333 162.278956 
L 207.399312 163.40083 
L 207.724292 165.12472 
L 208.049271 162.358749 
L 208.374251 164.638034 
L 208.69923 161.171728 
L 209.349189 169.056196 
L 209.674169 162.845517 
L 209.999148 161.739435 
L 210.324128 163.646532 
L 210.649107 157.774743 
L 210.974087 165.864246 
L 211.299066 163.349045 
L 211.624046 159.487835 
L 211.949025 162.756128 
L 212.274005 162.132279 
L 212.598984 163.829869 
L 212.923964 160.724527 
L 213.248943 164.489829 
L 213.573923 161.509324 
L 213.898903 161.781504 
L 214.223882 162.580152 
L 214.548862 161.44877 
L 214.873841 159.774871 
L 215.198821 159.298394 
L 215.5238 160.381484 
L 215.84878 160.585004 
L 216.173759 163.211894 
L 216.823718 157.638067 
L 217.148698 163.708107 
L 217.473677 157.58636 
L 217.798657 159.676897 
L 218.123636 156.503256 
L 218.448616 156.601545 
L 218.773595 158.541253 
L 219.098575 156.835158 
L 219.423554 155.869922 
L 219.748534 153.394238 
L 220.073514 157.795116 
L 220.398493 156.310634 
L 220.723473 156.230809 
L 221.048452 155.618042 
L 221.373432 158.460143 
L 221.698411 155.156218 
L 222.023391 163.497608 
L 222.34837 156.721032 
L 222.67335 154.7202 
L 222.998329 156.16451 
L 223.323309 154.23306 
L 223.648288 154.441936 
L 223.973268 152.322802 
L 224.298247 154.542211 
L 224.623227 147.873489 
L 224.948206 152.753735 
L 225.273186 153.607451 
L 225.598165 155.976255 
L 225.923145 156.969353 
L 226.248124 150.709614 
L 226.898084 159.641296 
L 227.223063 151.41874 
L 227.548043 154.991803 
L 227.873022 146.925256 
L 228.198002 153.270496 
L 228.522981 155.955424 
L 228.847961 157.694495 
L 229.17294 150.907828 
L 229.49792 155.525159 
L 229.822899 154.977013 
L 230.147879 152.545925 
L 230.472858 152.731869 
L 231.122817 147.372506 
L 231.447797 149.135424 
L 231.772776 154.90731 
L 232.097756 149.764109 
L 232.422735 150.674587 
L 233.072695 151.607785 
L 233.397674 149.174983 
L 233.722654 144.310716 
L 234.047633 152.493223 
L 234.372613 151.704239 
L 234.697592 152.330479 
L 235.022572 151.444341 
L 235.347551 149.520831 
L 235.672531 145.259778 
L 235.99751 149.580539 
L 236.32249 150.684487 
L 236.647469 150.094352 
L 236.972449 145.561343 
L 237.297428 156.815202 
L 237.622408 151.323085 
L 237.947387 143.607483 
L 238.272367 148.509008 
L 238.597346 146.043972 
L 238.922326 146.4064 
L 239.247305 146.320805 
L 239.572285 151.768398 
L 239.897265 145.911364 
L 240.222244 146.633021 
L 240.547224 149.493173 
L 240.872203 149.842785 
L 241.197183 146.422392 
L 241.522162 145.665591 
L 241.847142 143.183824 
L 242.497101 149.240994 
L 242.82208 143.617982 
L 243.14706 145.780299 
L 243.472039 144.174151 
L 244.121998 145.181374 
L 244.446978 142.495076 
L 244.771957 145.577041 
L 245.096937 145.589 
L 245.421916 153.213368 
L 245.746896 143.136217 
L 246.071876 142.313357 
L 246.396855 148.333924 
L 247.046814 141.051461 
L 247.371794 142.687956 
L 247.696773 143.240515 
L 248.021753 143.384745 
L 248.346732 140.299882 
L 248.671712 133.422622 
L 248.996691 142.469989 
L 249.321671 138.569737 
L 249.64665 140.177955 
L 249.97163 143.275755 
L 250.296609 143.393283 
L 250.621589 147.791531 
L 250.946568 144.773917 
L 251.271548 143.173842 
L 251.596527 138.693911 
L 251.921507 142.003043 
L 252.246486 138.654444 
L 252.571466 133.363223 
L 252.896446 138.891956 
L 253.221425 138.124987 
L 253.546405 139.94436 
L 253.871384 134.223578 
L 254.196364 144.005623 
L 254.521343 142.198843 
L 254.846323 138.913132 
L 255.171302 139.978488 
L 255.496282 139.592624 
L 255.821261 140.667845 
L 256.146241 138.296612 
L 256.47122 141.207064 
L 256.7962 140.581207 
L 257.121179 137.832079 
L 257.446159 141.670317 
L 257.771138 138.494907 
L 258.096118 138.204678 
L 258.421097 135.738136 
L 258.746077 138.193749 
L 259.071057 137.532934 
L 259.396036 137.18737 
L 259.721016 136.630237 
L 260.045995 141.494266 
L 260.695954 136.15711 
L 261.345913 142.67656 
L 261.670893 138.18977 
L 261.995872 135.282323 
L 262.320852 137.555657 
L 262.645831 137.205094 
L 262.970811 135.912251 
L 263.29579 141.024764 
L 263.62077 136.816676 
L 263.945749 138.154511 
L 264.270729 142.771193 
L 264.920688 135.137433 
L 265.245667 135.308575 
L 265.570647 135.626113 
L 266.220606 141.972475 
L 266.545586 136.727006 
L 266.870565 138.178934 
L 267.195545 137.969059 
L 267.520524 136.861521 
L 267.845504 137.534815 
L 268.170483 137.951676 
L 268.495463 136.941659 
L 268.820442 136.664839 
L 269.145422 137.793172 
L 269.470401 137.202393 
L 269.795381 139.837268 
L 270.12036 135.317015 
L 270.44534 137.586934 
L 270.770319 134.061094 
L 271.095299 133.104064 
L 271.420278 133.994117 
L 271.745258 139.172976 
L 272.070238 133.370975 
L 272.395217 130.857137 
L 272.720197 138.673638 
L 273.045176 137.856331 
L 273.370156 137.598772 
L 274.020115 133.80116 
L 274.345094 135.569511 
L 274.670074 136.083619 
L 275.320033 133.128786 
L 275.645012 136.331145 
L 276.294971 131.891877 
L 276.619951 132.60671 
L 276.94493 135.125446 
L 277.26991 131.019399 
L 277.594889 128.722722 
L 277.919869 135.468119 
L 278.244848 130.078561 
L 278.569828 129.121685 
L 278.894808 132.680092 
L 279.219787 130.864454 
L 279.544767 130.754427 
L 279.869746 135.99886 
L 280.194726 133.526407 
L 280.844685 127.602077 
L 281.169664 129.394274 
L 282.144603 127.921695 
L 282.469582 128.67325 
L 283.119541 133.689135 
L 283.444521 132.324733 
L 283.7695 133.024833 
L 284.09448 123.220617 
L 284.744439 131.151717 
L 285.069419 130.083958 
L 285.394398 127.731861 
L 285.719378 127.041244 
L 286.369337 122.125562 
L 286.694316 126.697492 
L 287.019296 126.118777 
L 287.344275 124.441286 
L 287.669255 128.091434 
L 287.994234 128.029877 
L 288.319214 127.572133 
L 288.644193 124.90153 
L 288.969173 121.044515 
L 289.294152 124.669632 
L 289.944111 121.695368 
L 290.269091 122.091119 
L 290.91905 123.367319 
L 291.244029 122.221415 
L 291.569009 120.601785 
L 291.893989 124.315551 
L 292.218968 122.354095 
L 292.543948 122.315748 
L 292.868927 124.538083 
L 293.193907 122.709905 
L 293.518886 121.846702 
L 293.843866 122.867938 
L 294.168845 122.026398 
L 294.493825 119.961439 
L 294.818804 124.211276 
L 295.143784 119.881281 
L 295.468763 121.63538 
L 296.118722 116.052584 
L 296.443702 121.309945 
L 296.768681 120.425521 
L 297.093661 120.948978 
L 297.41864 123.180875 
L 297.74362 124.236454 
L 298.0686 124.712539 
L 298.393579 124.46076 
L 298.718559 115.313628 
L 299.043538 120.980008 
L 299.368518 115.950218 
L 299.693497 117.076025 
L 300.018477 115.672894 
L 300.343456 117.755456 
L 300.668436 118.143834 
L 300.993415 122.261834 
L 301.318395 116.155381 
L 301.643374 114.343455 
L 301.968354 119.683924 
L 302.943292 115.963136 
L 303.268272 116.52324 
L 303.593251 116.572315 
L 303.918231 118.223104 
L 304.24321 117.342112 
L 304.56819 120.024806 
L 304.89317 117.496743 
L 305.218149 121.329477 
L 305.543129 115.857185 
L 305.868108 123.535245 
L 306.193088 119.615635 
L 306.518067 120.246325 
L 306.843047 118.11091 
L 307.168026 117.653398 
L 307.493006 117.844206 
L 307.817985 116.850587 
L 308.142965 118.438878 
L 308.467944 118.798095 
L 309.117903 114.339175 
L 309.442883 117.419929 
L 309.767862 118.791119 
L 310.092842 121.6641 
L 310.417821 116.897391 
L 310.742801 118.950811 
L 311.067781 113.883425 
L 311.39276 115.701009 
L 311.71774 119.223559 
L 312.042719 117.380149 
L 312.367699 117.206292 
L 312.692678 115.30753 
L 313.017658 119.110297 
L 313.342637 113.424593 
L 313.667617 124.390409 
L 313.992596 112.131991 
L 314.317576 121.424399 
L 314.967535 115.850776 
L 315.292514 116.618379 
L 315.617494 116.206282 
L 315.942473 113.86845 
L 316.267453 120.921819 
L 316.592432 119.992168 
L 316.917412 114.605457 
L 317.242391 116.294075 
L 317.567371 118.711995 
L 317.892351 118.052882 
L 318.21733 113.847604 
L 318.54231 114.108152 
L 318.867289 112.664121 
L 319.192269 118.412344 
L 319.517248 116.330479 
L 319.842228 116.882896 
L 320.167207 116.669326 
L 320.492187 121.230375 
L 320.817166 114.765829 
L 321.142146 121.764525 
L 321.467125 113.993772 
L 321.792105 119.296596 
L 322.442064 110.964976 
L 322.767043 116.745236 
L 323.092023 115.270564 
L 323.417002 115.627899 
L 323.741982 108.810308 
L 324.066962 113.888618 
L 324.391941 113.380503 
L 324.716921 115.799196 
L 325.0419 114.22884 
L 325.36688 113.883545 
L 325.691859 115.070924 
L 326.016839 118.82913 
L 326.341818 116.398618 
L 326.666798 118.004781 
L 326.991777 111.669405 
L 327.316757 113.803 
L 327.641736 114.694595 
L 327.966716 118.377409 
L 328.291695 114.703744 
L 328.616675 115.49811 
L 328.941654 113.228594 
L 329.266634 115.889992 
L 329.591613 117.040242 
L 329.916593 114.614966 
L 330.241572 117.167508 
L 330.566552 113.187478 
L 330.891532 111.46126 
L 331.216511 111.94115 
L 331.541491 110.675204 
L 331.86647 114.071147 
L 332.19145 113.052253 
L 332.516429 113.864611 
L 332.841409 112.674107 
L 333.166388 113.015233 
L 333.491368 119.064021 
L 333.816347 111.390911 
L 334.141327 108.742421 
L 334.466306 112.200625 
L 335.116265 115.21042 
L 335.441245 110.163368 
L 335.766224 119.461809 
L 336.091204 107.543303 
L 336.416183 113.553349 
L 336.741163 113.62446 
L 337.066143 111.114621 
L 337.391122 107.311935 
L 337.716102 112.754204 
L 338.041081 109.842125 
L 338.366061 115.024601 
L 338.69104 117.756253 
L 339.665979 106.968375 
L 339.990958 108.524387 
L 340.640917 114.781147 
L 340.965897 110.839558 
L 341.290876 111.145946 
L 341.615856 113.978732 
L 341.940835 108.586854 
L 342.265815 109.134332 
L 342.590794 108.36503 
L 342.915774 109.526186 
L 343.240753 113.587747 
L 343.565733 109.061004 
L 343.890713 113.589688 
L 344.215692 114.977672 
L 344.540672 114.571333 
L 344.865651 113.94356 
L 345.190631 108.804178 
L 345.51561 108.053377 
L 345.84059 110.938236 
L 346.165569 116.778373 
L 346.490549 109.96864 
L 346.815528 110.301258 
L 347.140508 113.389104 
L 347.465487 113.573767 
L 347.790467 108.943667 
L 348.115446 109.294665 
L 348.440426 109.417271 
L 348.765405 110.001542 
L 349.090385 111.081653 
L 349.415364 110.386273 
L 349.740344 107.710779 
L 350.065324 119.132538 
L 350.715283 105.405123 
L 351.040262 114.698125 
L 352.015201 105.108706 
L 352.34018 111.741862 
L 352.66516 106.463119 
L 352.990139 107.885197 
L 353.315119 107.769543 
L 353.640098 114.495032 
L 353.965078 111.026951 
L 354.290057 109.353608 
L 354.615037 111.085884 
L 354.940016 107.476449 
L 355.264996 106.858182 
L 355.589975 104.818462 
L 355.914955 107.699365 
L 356.239934 106.944376 
L 356.564914 107.762963 
L 356.889894 109.151391 
L 357.214873 107.938048 
L 357.539853 110.255122 
L 357.864832 105.083037 
L 358.189812 110.227908 
L 358.514791 105.851729 
L 358.839771 109.470766 
L 359.16475 103.042166 
L 359.48973 106.057048 
L 359.814709 104.183374 
L 360.139689 110.673057 
L 360.464668 108.582815 
L 360.789648 104.807481 
L 361.114627 103.012418 
L 361.439607 112.668203 
L 361.764586 105.442159 
L 362.089566 105.088243 
L 362.414545 100.933996 
L 362.739525 107.25819 
L 363.064505 108.071546 
L 363.389484 107.041238 
L 363.714464 108.186308 
L 364.039443 107.954808 
L 364.364423 110.242039 
L 365.014382 97.704943 
L 365.339361 107.100514 
L 365.664341 108.738195 
L 365.98932 107.97258 
L 366.3143 108.243796 
L 366.639279 104.455407 
L 366.964259 106.311418 
L 367.289238 103.597039 
L 367.614218 106.647056 
L 367.939197 106.846516 
L 368.264177 108.983468 
L 368.589156 109.829236 
L 368.914136 106.179455 
L 369.239115 104.998486 
L 369.564095 102.89328 
L 369.889075 107.065612 
L 370.214054 107.909428 
L 370.539034 97.047539 
L 370.864013 102.654723 
L 371.188993 103.417914 
L 371.513972 102.660256 
L 371.838952 108.142992 
L 372.163931 107.881592 
L 372.488911 102.498692 
L 372.81389 107.293329 
L 373.13887 106.734728 
L 373.463849 103.785952 
L 373.788829 104.888407 
L 374.113808 104.235738 
L 374.438788 105.886797 
L 374.763767 106.208412 
L 375.088747 105.435502 
L 375.413726 103.102112 
L 375.738706 104.985764 
L 376.063686 101.681053 
L 376.388665 102.916475 
L 376.713645 102.387336 
L 377.038624 100.168588 
L 377.363604 103.299216 
L 377.688583 104.299194 
L 378.013563 104.137536 
L 378.338542 104.834139 
L 378.663522 100.586869 
L 378.988501 103.069734 
L 379.313481 100.855146 
L 379.63846 102.279077 
L 379.96344 102.655823 
L 380.288419 109.504455 
L 380.613399 103.785431 
L 380.938378 106.777238 
L 381.263358 104.890929 
L 381.588337 103.711207 
L 381.913317 106.70526 
L 382.238296 102.696208 
L 382.563276 100.345958 
L 383.538215 102.951093 
L 383.863194 101.025514 
L 384.188174 97.700552 
L 384.513153 102.5538 
L 384.838133 103.334416 
L 385.163112 99.790119 
L 385.488092 97.802759 
L 386.138051 100.658286 
L 386.46303 99.924739 
L 386.78801 100.819353 
L 387.437969 104.255968 
L 387.762948 101.480891 
L 388.087928 93.381451 
L 388.412907 100.913815 
L 388.737887 103.485058 
L 389.387846 96.468903 
L 389.712826 106.852357 
L 390.037805 99.84221 
L 390.362785 101.548259 
L 390.687764 100.520964 
L 391.012744 98.283295 
L 391.337723 100.065472 
L 391.662703 104.174225 
L 392.312662 96.840791 
L 392.637641 100.354155 
L 392.962621 96.480461 
L 393.2876 101.174851 
L 393.61258 101.952668 
L 393.937559 99.258261 
L 394.587518 101.751765 
L 394.912498 99.946942 
L 395.237477 102.857701 
L 395.562457 102.39233 
L 395.887437 104.483821 
L 396.212416 103.28946 
L 396.537396 98.019624 
L 396.862375 99.941606 
L 397.187355 96.974284 
L 397.512334 96.664149 
L 397.837314 99.369054 
L 398.162293 99.759501 
L 398.487273 102.476085 
L 398.487273 102.476085 
" style="fill:none;stroke:#ff7f0e;stroke-dasharray:6,2.25;stroke-dashoffset:0;stroke-width:1.5;"/>
   </g>
   <g id="line2d_14">
    <path clip-path="url(#p881ff91738)" d="M 73.832727 285.441068 
L 74.157707 283.68672 
L 74.482686 288.015996 
L 74.807666 280.513604 
L 75.132645 283.393055 
L 75.782604 274.962944 
L 76.107584 274.103164 
L 76.432563 275.516697 
L 76.757543 273.576652 
L 77.082523 276.993541 
L 77.407502 273.464399 
L 77.732482 272.810087 
L 78.057461 268.681132 
L 78.382441 269.343797 
L 78.70742 265.859851 
L 79.0324 266.22264 
L 79.357379 263.963672 
L 79.682359 264.6456 
L 80.007338 264.714361 
L 80.332318 261.89296 
L 80.982277 253.163204 
L 81.307256 259.709169 
L 81.632236 258.57849 
L 81.957215 258.87721 
L 82.282195 249.000327 
L 82.607174 250.116612 
L 82.932154 242.45601 
L 83.257133 246.095113 
L 83.582113 243.833132 
L 83.907093 233.629868 
L 84.232072 239.594395 
L 84.557052 234.48714 
L 84.882031 240.004614 
L 85.207011 236.580571 
L 85.53199 239.194993 
L 86.181949 233.013313 
L 86.831908 231.842653 
L 87.156888 234.849878 
L 87.806847 225.10209 
L 88.131826 229.957244 
L 88.456806 227.000718 
L 88.781785 230.523117 
L 89.106765 228.498905 
L 89.431744 228.077743 
L 89.756724 219.831594 
L 90.081704 226.595318 
L 90.406683 220.421187 
L 90.731663 222.351723 
L 91.056642 215.305808 
L 91.381622 213.094831 
L 91.706601 220.60947 
L 92.031581 219.204163 
L 92.35656 211.099853 
L 92.68154 212.772024 
L 93.006519 208.139191 
L 93.331499 210.466909 
L 93.656478 215.40639 
L 93.981458 207.768681 
L 94.306437 209.701151 
L 94.631417 209.989795 
L 94.956396 207.512109 
L 95.281376 207.234562 
L 95.606355 206.046186 
L 96.256314 214.506299 
L 96.581294 201.75476 
L 96.906274 204.767066 
L 97.231253 205.947494 
L 97.556233 195.878189 
L 97.881212 197.116596 
L 98.206192 201.80524 
L 98.531171 198.671728 
L 98.856151 197.958129 
L 99.18113 197.95721 
L 99.50611 198.415963 
L 99.831089 192.29336 
L 100.156069 196.677717 
L 100.806028 191.747999 
L 101.131007 192.714172 
L 101.455987 195.095133 
L 101.780966 192.385815 
L 102.105946 185.895158 
L 102.430925 189.83622 
L 102.755905 191.027421 
L 103.080885 190.112671 
L 103.405864 184.473706 
L 104.055823 184.535374 
L 104.380803 186.667679 
L 104.705782 184.153513 
L 105.030762 183.686473 
L 105.355741 181.081455 
L 105.680721 182.530023 
L 106.0057 185.110576 
L 106.33068 181.661007 
L 106.655659 179.76525 
L 106.980639 180.790606 
L 107.305618 174.719431 
L 107.630598 173.965444 
L 107.955577 180.296533 
L 108.605536 168.801319 
L 108.930516 169.558118 
L 109.255495 169.218404 
L 109.580475 171.186286 
L 109.905455 166.212611 
L 110.230434 168.183421 
L 110.555414 168.776555 
L 111.205373 165.814036 
L 111.530352 165.756472 
L 111.855332 165.126234 
L 112.180311 162.304139 
L 112.505291 162.741716 
L 112.83027 164.456886 
L 113.15525 161.237108 
L 113.480229 166.758229 
L 113.805209 168.119434 
L 114.130188 156.111076 
L 114.455168 160.179119 
L 115.105127 162.160058 
L 115.430106 164.807403 
L 115.755086 159.959313 
L 116.080066 160.678193 
L 116.405045 154.814643 
L 116.730025 153.989697 
L 117.055004 157.769001 
L 117.704963 152.147875 
L 118.354922 161.6218 
L 118.679902 151.109683 
L 119.004881 154.22587 
L 119.329861 148.959349 
L 119.65484 158.179003 
L 119.97982 152.014562 
L 120.304799 158.569776 
L 120.629779 152.74148 
L 120.954758 150.644114 
L 121.279738 151.21728 
L 121.604717 145.345573 
L 121.929697 147.986913 
L 122.254676 144.605485 
L 122.579656 144.72569 
L 122.904636 148.157573 
L 123.229615 149.552453 
L 123.554595 145.869794 
L 123.879574 146.668576 
L 124.204554 143.433687 
L 124.529533 146.006068 
L 124.854513 150.857983 
L 125.179492 143.925075 
L 125.504472 148.436288 
L 125.829451 140.129515 
L 126.154431 139.131835 
L 126.47941 136.530602 
L 126.80439 141.602805 
L 127.129369 141.409569 
L 127.454349 142.06265 
L 127.779328 138.799335 
L 128.104308 143.295222 
L 128.429287 141.280908 
L 128.754267 141.509609 
L 129.079247 142.80786 
L 129.404226 137.747374 
L 129.729206 139.844427 
L 130.054185 140.980343 
L 130.379165 137.303102 
L 130.704144 142.404492 
L 131.029124 143.390062 
L 131.354103 140.514613 
L 131.679083 139.743453 
L 132.004062 138.229868 
L 132.329042 135.750253 
L 132.654021 138.46054 
L 132.979001 134.04536 
L 133.30398 134.346859 
L 133.62896 136.175028 
L 133.953939 127.295402 
L 134.278919 136.449084 
L 134.603898 130.601025 
L 134.928878 137.143909 
L 135.253857 128.923345 
L 135.578837 135.458961 
L 135.903817 130.788001 
L 136.228796 130.612534 
L 136.553776 132.130407 
L 136.878755 130.283444 
L 137.203735 117.295766 
L 137.528714 128.138771 
L 137.853694 126.614053 
L 138.178673 129.610455 
L 138.503653 130.746099 
L 138.828632 127.206979 
L 139.153612 126.765729 
L 139.478591 125.95894 
L 139.803571 122.038723 
L 140.12855 121.7893 
L 140.45353 121.775914 
L 140.778509 126.934369 
L 141.103489 123.814854 
L 141.428468 126.48163 
L 141.753448 124.738598 
L 142.078428 120.401964 
L 142.403407 121.094778 
L 142.728387 120.86153 
L 143.053366 115.253926 
L 143.378346 116.021507 
L 143.703325 118.572639 
L 144.028305 118.890283 
L 144.353284 116.041708 
L 144.678264 109.081433 
L 145.003243 116.041256 
L 145.328223 115.039962 
L 145.653202 116.104704 
L 145.978182 117.762113 
L 146.303161 109.055964 
L 146.628141 112.651768 
L 146.95312 110.441902 
L 147.2781 110.778411 
L 147.603079 108.768925 
L 147.928059 110.684628 
L 148.253038 108.503445 
L 148.578018 104.934518 
L 148.902998 114.01909 
L 149.227977 108.248453 
L 149.877936 100.144446 
L 150.202916 109.065353 
L 150.527895 105.174715 
L 150.852875 106.456363 
L 151.177854 113.010644 
L 151.502834 103.637505 
L 151.827813 104.898518 
L 152.477772 101.070836 
L 152.802752 101.922157 
L 153.127731 103.159113 
L 153.452711 105.709143 
L 153.77769 106.665452 
L 154.10267 101.313167 
L 154.427649 108.271927 
L 154.752629 103.447624 
L 155.077609 109.946532 
L 155.727568 106.005293 
L 156.052547 98.293368 
L 156.377527 109.18625 
L 156.702506 102.34229 
L 157.027486 107.260908 
L 157.352465 108.77547 
L 157.677445 102.047706 
L 158.002424 100.243645 
L 158.327404 108.752619 
L 158.652383 109.443687 
L 158.977363 103.563758 
L 159.302342 103.733388 
L 159.627322 100.174985 
L 159.952301 105.47286 
L 160.277281 102.04413 
L 160.60226 106.01101 
L 160.92724 100.112228 
L 161.252219 98.997508 
L 161.577199 96.797934 
L 161.902179 97.321309 
L 162.227158 99.172628 
L 162.552138 94.667848 
L 162.877117 92.466775 
L 163.202097 94.331755 
L 163.527076 98.615472 
L 163.852056 97.666921 
L 164.177035 93.411666 
L 164.502015 93.574252 
L 164.826994 95.903889 
L 165.151974 96.597207 
L 165.476953 95.854328 
L 165.801933 95.950552 
L 166.126912 94.154458 
L 166.451892 90.945617 
L 166.776871 93.634051 
L 167.101851 93.377357 
L 167.42683 98.695254 
L 168.401769 96.975603 
L 168.726749 86.087165 
L 169.051728 88.745608 
L 169.376708 94.777856 
L 169.701687 88.436974 
L 170.026667 93.334584 
L 170.351646 87.977126 
L 170.676626 96.838386 
L 171.001605 91.388818 
L 171.326585 89.53544 
L 171.651564 93.914921 
L 171.976544 91.991244 
L 172.301523 88.913652 
L 172.951482 94.469717 
L 173.276462 86.479534 
L 173.601441 83.800572 
L 173.926421 93.28728 
L 174.2514 95.770725 
L 174.57638 85.833646 
L 174.90136 94.195636 
L 175.226339 90.706603 
L 175.551319 88.697556 
L 175.876298 95.600133 
L 176.201278 90.67258 
L 176.526257 89.137843 
L 176.851237 90.702985 
L 177.176216 90.189506 
L 177.826175 88.679957 
L 178.151155 86.108958 
L 178.476134 95.10835 
L 178.801114 86.656318 
L 179.126093 92.362795 
L 179.451073 89.533681 
L 179.776052 90.96755 
L 180.101032 88.782187 
L 180.426011 85.820511 
L 181.075971 92.550094 
L 181.40095 88.982639 
L 181.72593 89.151974 
L 182.050909 87.018982 
L 182.375889 90.618054 
L 182.700868 92.922589 
L 183.025848 85.328119 
L 183.350827 88.174421 
L 183.675807 83.533171 
L 184.000786 89.53096 
L 184.325766 88.903663 
L 184.650745 85.31901 
L 184.975725 88.966135 
L 185.300704 89.953747 
L 185.625684 91.451252 
L 185.950663 91.136966 
L 186.275643 89.159703 
L 186.600622 91.486989 
L 186.925602 83.66875 
L 187.250581 82.648197 
L 187.575561 86.017243 
L 187.900541 81.366878 
L 188.22552 86.857405 
L 188.5505 83.380818 
L 188.875479 84.264676 
L 189.525438 80.119655 
L 189.850418 81.25625 
L 190.175397 83.545948 
L 190.500377 80.600043 
L 190.825356 85.976314 
L 191.150336 81.961933 
L 191.475315 83.266156 
L 191.800295 84.006117 
L 192.450254 78.605894 
L 193.100213 82.862474 
L 193.425192 75.784878 
L 193.750172 82.559191 
L 194.075152 78.061337 
L 194.400131 82.933161 
L 194.725111 80.896059 
L 195.05009 78.048496 
L 195.37507 78.731736 
L 195.700049 80.101068 
L 196.350008 76.735639 
L 196.674988 81.695049 
L 196.999967 75.251317 
L 197.324947 76.430965 
L 197.649926 81.08396 
L 198.299885 75.441872 
L 198.624865 82.860289 
L 198.949844 76.072045 
L 199.274824 74.514607 
L 199.599803 75.761223 
L 199.924783 77.488884 
L 200.249762 77.71891 
L 200.574742 74.452315 
L 200.899722 80.257447 
L 201.224701 77.524612 
L 201.549681 77.093519 
L 201.87466 77.398051 
L 202.19964 79.042238 
L 202.524619 79.230884 
L 203.174578 74.046236 
L 203.499558 73.51 
L 203.824537 80.085705 
L 204.149517 78.758737 
L 204.474496 72.454121 
L 204.799476 76.180234 
L 205.124455 73.864014 
L 205.449435 74.547589 
L 205.774414 76.705048 
L 206.099394 70.56499 
L 206.749353 74.151881 
L 207.074333 77.292733 
L 207.399312 75.467412 
L 207.724292 77.977638 
L 208.049271 78.751139 
L 208.374251 78.041675 
L 208.69923 73.463642 
L 209.02421 70.980715 
L 209.349189 74.856637 
L 209.674169 76.407071 
L 209.999148 78.603561 
L 210.649107 71.54668 
L 210.974087 69.61297 
L 211.299066 72.877069 
L 211.624046 69.416405 
L 211.949025 74.261933 
L 212.274005 74.279496 
L 212.598984 72.419498 
L 212.923964 75.622041 
L 213.248943 71.739667 
L 213.573923 69.678279 
L 213.898903 75.848636 
L 214.223882 78.195332 
L 214.548862 75.082002 
L 214.873841 74.853542 
L 215.198821 75.035873 
L 215.5238 78.653274 
L 215.84878 70.00924 
L 216.173759 75.502169 
L 216.498739 78.813567 
L 217.148698 65.87536 
L 217.473677 74.491481 
L 218.123636 66.174584 
L 218.448616 75.735421 
L 218.773595 71.21853 
L 219.098575 75.405679 
L 219.423554 74.58595 
L 219.748534 68.184612 
L 220.073514 67.186643 
L 220.398493 73.125972 
L 220.723473 75.0947 
L 221.048452 72.999205 
L 221.373432 73.609283 
L 221.698411 68.72119 
L 222.023391 74.460191 
L 222.34837 69.088267 
L 222.67335 71.309098 
L 222.998329 69.855653 
L 223.323309 73.6578 
L 223.648288 70.571753 
L 223.973268 76.62519 
L 224.298247 66.28988 
L 224.623227 71.414049 
L 224.948206 65.33218 
L 225.273186 69.353775 
L 225.598165 70.248665 
L 226.248124 70.262342 
L 226.573104 71.102466 
L 226.898084 73.513019 
L 227.223063 68.38909 
L 227.548043 68.241839 
L 227.873022 69.918465 
L 228.198002 70.649047 
L 228.522981 74.027711 
L 229.17294 67.61406 
L 229.49792 70.929632 
L 229.822899 68.223338 
L 230.147879 70.723898 
L 230.797838 67.302565 
L 231.122817 67.777018 
L 231.447797 73.300951 
L 232.422735 66.061889 
L 232.747715 69.910591 
L 233.072695 72.363737 
L 233.397674 67.182468 
L 233.722654 70.333823 
L 234.047633 65.609717 
L 234.372613 75.064167 
L 234.697592 66.522008 
L 235.347551 69.857951 
L 235.672531 71.013546 
L 235.99751 65.38599 
L 236.32249 70.108569 
L 236.647469 71.001768 
L 236.972449 68.485094 
L 237.297428 67.116935 
L 237.622408 64.639262 
L 237.947387 63.205065 
L 238.272367 67.188032 
L 238.597346 66.774572 
L 238.922326 67.158866 
L 239.247305 70.444153 
L 239.572285 69.071576 
L 239.897265 68.3163 
L 240.222244 71.563592 
L 240.547224 63.481326 
L 240.872203 68.14939 
L 241.197183 61.525194 
L 241.522162 69.287677 
L 241.847142 65.153035 
L 242.172121 68.64349 
L 242.497101 69.10626 
L 242.82208 65.005531 
L 243.14706 74.516388 
L 243.472039 66.151454 
L 243.797019 66.131977 
L 244.121998 68.585277 
L 244.446978 65.757952 
L 244.771957 67.221535 
L 245.096937 62.611351 
L 245.421916 70.80539 
L 245.746896 69.831504 
L 246.071876 68.066758 
L 246.396855 67.169108 
L 246.721835 69.091001 
L 247.046814 70.338019 
L 247.371794 65.64967 
L 247.696773 64.423254 
L 248.021753 66.732447 
L 248.346732 76.757156 
L 248.671712 65.147446 
L 248.996691 71.524231 
L 249.321671 62.713076 
L 249.64665 72.031374 
L 249.97163 65.637791 
L 250.296609 68.1478 
L 250.621589 60.890592 
L 250.946568 68.603476 
L 251.271548 63.247322 
L 251.596527 67.979564 
L 251.921507 70.529451 
L 252.246486 63.287622 
L 252.571466 67.89461 
L 252.896446 69.393823 
L 253.221425 66.779554 
L 253.546405 69.000762 
L 254.196364 63.863098 
L 254.521343 63.447073 
L 254.846323 63.62301 
L 255.171302 69.027899 
L 255.496282 63.510104 
L 256.146241 69.12331 
L 256.47122 64.875424 
L 256.7962 65.760367 
L 257.121179 60.973288 
L 257.446159 65.74935 
L 257.771138 66.605616 
L 258.421097 63.803212 
L 258.746077 63.296932 
L 259.071057 65.100447 
L 259.396036 64.317247 
L 259.721016 64.800737 
L 260.045995 60.705751 
L 260.370975 71.081022 
L 260.695954 64.07357 
L 261.020934 65.637124 
L 261.345913 68.472846 
L 261.670893 67.207445 
L 262.320852 60.363451 
L 262.645831 62.167755 
L 262.970811 58.252532 
L 263.29579 65.365046 
L 263.62077 61.13414 
L 263.945749 65.959107 
L 264.270729 65.942241 
L 264.595708 65.065527 
L 264.920688 66.261529 
L 265.245667 64.223489 
L 265.570647 65.6669 
L 265.895627 62.146049 
L 266.220606 64.584098 
L 266.545586 69.178026 
L 266.870565 71.039508 
L 267.195545 60.46851 
L 267.520524 63.319818 
L 267.845504 64.171241 
L 268.170483 66.981576 
L 268.495463 62.948099 
L 268.820442 64.203375 
L 269.145422 60.801923 
L 269.470401 64.984057 
L 269.795381 62.968781 
L 270.12036 64.066649 
L 270.770319 59.453251 
L 271.095299 64.434127 
L 271.420278 59.994434 
L 271.745258 69.244773 
L 272.070238 62.569957 
L 272.395217 59.116646 
L 272.720197 66.431432 
L 273.045176 59.64476 
L 273.370156 67.531941 
L 273.695135 62.642345 
L 274.020115 65.541221 
L 274.345094 62.877532 
L 274.670074 69.392929 
L 274.995053 58.202662 
L 275.320033 58.9446 
L 275.645012 70.71544 
L 275.969992 62.217748 
L 276.294971 59.947019 
L 276.619951 63.557509 
L 276.94493 61.743566 
L 277.26991 64.673615 
L 277.594889 58.058257 
L 277.919869 66.221429 
L 278.244848 64.137046 
L 278.569828 68.448233 
L 278.894808 63.776275 
L 279.219787 61.563256 
L 279.544767 64.452598 
L 279.869746 63.942646 
L 280.194726 60.976352 
L 280.519705 64.423842 
L 280.844685 64.989573 
L 281.169664 58.046511 
L 281.494644 63.915017 
L 281.819623 62.291171 
L 282.144603 61.834059 
L 282.469582 66.795846 
L 282.794562 65.490027 
L 283.119541 61.787 
L 283.444521 61.02423 
L 283.7695 64.507927 
L 284.09448 62.458164 
L 284.419459 62.414152 
L 284.744439 62.641333 
L 285.069419 62.056917 
L 285.394398 60.53238 
L 285.719378 64.023825 
L 286.044357 63.690583 
L 286.369337 62.763749 
L 286.694316 59.866298 
L 287.019296 60.407915 
L 287.344275 69.165715 
L 287.669255 56.130876 
L 287.994234 61.291836 
L 288.319214 62.430706 
L 288.644193 64.673319 
L 288.969173 58.879896 
L 289.294152 57.200004 
L 289.619132 64.501749 
L 289.944111 62.283026 
L 290.269091 63.10594 
L 290.59407 72.183159 
L 290.91905 64.907505 
L 291.244029 65.816551 
L 291.569009 60.155931 
L 291.893989 64.380763 
L 292.218968 60.876252 
L 292.543948 60.981723 
L 292.868927 69.772477 
L 293.193907 61.462773 
L 293.518886 64.037387 
L 293.843866 61.507845 
L 294.168845 67.60326 
L 294.493825 66.072632 
L 294.818804 62.506414 
L 295.143784 64.187938 
L 295.468763 61.629613 
L 295.793743 66.688313 
L 296.118722 64.683223 
L 296.443702 66.176878 
L 296.768681 65.228824 
L 297.093661 63.910673 
L 297.41864 63.63872 
L 297.74362 62.936808 
L 298.0686 68.845953 
L 298.393579 62.608443 
L 298.718559 64.819882 
L 299.043538 58.143066 
L 299.368518 57.989237 
L 300.018477 66.106887 
L 300.668436 57.241801 
L 300.993415 65.158447 
L 301.318395 62.00943 
L 301.643374 60.37649 
L 301.968354 60.960542 
L 302.293333 63.583213 
L 302.618313 63.9253 
L 302.943292 59.39854 
L 303.268272 57.22482 
L 303.593251 64.2517 
L 303.918231 62.090101 
L 304.24321 64.001456 
L 304.56819 67.127564 
L 304.89317 62.51292 
L 305.218149 59.815492 
L 305.543129 58.631405 
L 305.868108 62.43075 
L 306.193088 59.200104 
L 306.518067 57.673126 
L 306.843047 61.504494 
L 307.168026 60.291288 
L 307.493006 58.141018 
L 308.142965 66.045411 
L 308.467944 59.103785 
L 308.792924 63.539956 
L 309.117903 64.712461 
L 309.442883 61.491915 
L 309.767862 61.661059 
L 310.092842 64.28123 
L 310.417821 74.066496 
L 310.742801 65.617147 
L 311.067781 62.45338 
L 311.39276 54.922797 
L 311.71774 60.495729 
L 312.042719 62.988155 
L 312.367699 62.258848 
L 312.692678 66.918153 
L 313.017658 60.52559 
L 313.342637 57.644098 
L 313.667617 66.001726 
L 313.992596 63.314964 
L 314.317576 62.420845 
L 314.642555 67.112031 
L 314.967535 58.62053 
L 315.292514 64.788623 
L 315.617494 65.245918 
L 315.942473 63.739617 
L 316.267453 60.409355 
L 316.592432 61.474336 
L 316.917412 61.68892 
L 317.242391 59.533352 
L 317.567371 64.941512 
L 317.892351 60.135878 
L 318.21733 61.210681 
L 318.54231 61.857722 
L 318.867289 60.610718 
L 319.192269 71.114358 
L 319.517248 62.046777 
L 319.842228 60.203078 
L 320.167207 62.096857 
L 320.492187 60.153995 
L 320.817166 63.199322 
L 321.142146 61.393246 
L 321.467125 71.167133 
L 321.792105 63.164962 
L 322.117084 65.177978 
L 322.442064 66.193328 
L 322.767043 61.012551 
L 323.092023 62.2441 
L 323.417002 58.185344 
L 324.066962 61.211145 
L 324.391941 56.042072 
L 324.716921 58.407108 
L 325.0419 57.252113 
L 325.36688 63.841351 
L 326.016839 57.090651 
L 326.341818 61.010269 
L 326.666798 69.599111 
L 326.991777 60.818114 
L 327.316757 60.398918 
L 327.641736 62.823397 
L 327.966716 60.479764 
L 328.291695 68.096955 
L 328.941654 57.800448 
L 329.266634 65.022336 
L 329.591613 67.788897 
L 329.916593 57.995708 
L 330.241572 62.359107 
L 330.566552 59.115447 
L 330.891532 63.642326 
L 331.216511 63.188048 
L 331.541491 60.089514 
L 331.86647 62.436609 
L 332.19145 63.343691 
L 332.516429 59.138564 
L 332.841409 58.734952 
L 333.166388 61.227161 
L 333.491368 66.906845 
L 333.816347 61.813674 
L 334.141327 62.942385 
L 334.466306 58.384077 
L 334.791286 58.583135 
L 335.116265 64.795506 
L 335.441245 61.016421 
L 335.766224 68.679642 
L 336.091204 59.373444 
L 336.416183 59.101475 
L 336.741163 61.133316 
L 337.066143 62.253282 
L 337.391122 58.356225 
L 337.716102 65.568129 
L 338.041081 61.900287 
L 338.69104 57.851268 
L 339.01602 62.927506 
L 339.340999 57.979709 
L 339.665979 59.095906 
L 339.990958 56.762935 
L 340.315938 65.411465 
L 340.965897 56.497742 
L 341.290876 62.115461 
L 341.940835 60.081634 
L 342.265815 54.793838 
L 342.590794 60.759968 
L 342.915774 54.914224 
L 343.240753 59.181697 
L 343.565733 55.139335 
L 343.890713 61.073234 
L 344.215692 60.19909 
L 344.540672 64.985681 
L 344.865651 66.530444 
L 345.190631 54.632194 
L 345.51561 60.07763 
L 346.165569 61.49511 
L 346.490549 56.459056 
L 346.815528 64.983071 
L 347.140508 57.218355 
L 347.465487 58.3502 
L 347.790467 56.87394 
L 348.115446 60.729063 
L 348.440426 58.204826 
L 348.765405 61.616822 
L 349.090385 62.639755 
L 349.415364 61.33418 
L 349.740344 62.709076 
L 350.065324 60.321102 
L 350.390303 54.128107 
L 350.715283 55.363941 
L 351.040262 61.846425 
L 351.365242 56.463995 
L 351.690221 59.348648 
L 352.015201 65.764433 
L 352.34018 58.684876 
L 352.66516 59.270455 
L 352.990139 63.349066 
L 353.315119 61.987561 
L 353.640098 61.112286 
L 353.965078 62.751175 
L 354.290057 63.408059 
L 354.615037 62.620952 
L 354.940016 61.246916 
L 355.264996 62.221997 
L 355.589975 62.030354 
L 355.914955 60.644307 
L 356.239934 57.171348 
L 356.564914 62.604207 
L 356.889894 59.797296 
L 357.214873 58.918276 
L 357.864832 60.741486 
L 358.189812 64.380422 
L 358.514791 59.197358 
L 358.839771 56.618685 
L 359.16475 64.958358 
L 359.48973 58.292532 
L 359.814709 55.405195 
L 360.139689 63.35004 
L 360.464668 62.199045 
L 360.789648 59.929725 
L 361.114627 60.278407 
L 361.439607 60.108504 
L 361.764586 62.577603 
L 362.089566 61.574126 
L 362.414545 58.226007 
L 362.739525 62.495562 
L 363.064505 58.881641 
L 363.389484 62.143008 
L 363.714464 62.406112 
L 364.039443 63.637554 
L 364.364423 61.402492 
L 364.689402 57.70038 
L 365.014382 60.267082 
L 365.339361 60.906535 
L 365.664341 60.51313 
L 365.98932 60.648376 
L 366.3143 56.815367 
L 366.639279 61.505984 
L 366.964259 63.47575 
L 367.289238 57.889847 
L 367.614218 64.2059 
L 367.939197 61.953731 
L 368.264177 58.016059 
L 368.589156 62.328095 
L 368.914136 63.792113 
L 369.564095 58.198571 
L 369.889075 60.853815 
L 370.214054 59.404709 
L 370.539034 63.569229 
L 370.864013 59.824847 
L 371.188993 58.922575 
L 371.513972 68.628625 
L 371.838952 57.702068 
L 372.163931 59.926015 
L 372.488911 64.712919 
L 372.81389 59.353554 
L 373.13887 63.99218 
L 373.463849 57.972719 
L 373.788829 59.269741 
L 374.113808 58.705196 
L 374.763767 62.931539 
L 375.088747 57.987351 
L 375.413726 61.593746 
L 375.738706 60.871921 
L 376.063686 61.57712 
L 376.388665 58.591898 
L 376.713645 57.968553 
L 377.038624 65.994136 
L 377.363604 61.952447 
L 377.688583 53.568 
L 378.013563 56.378115 
L 378.338542 64.424612 
L 378.663522 60.610654 
L 378.988501 63.745742 
L 379.63846 55.903818 
L 379.96344 60.27919 
L 380.288419 62.431607 
L 380.613399 60.337136 
L 380.938378 62.302741 
L 381.263358 57.770931 
L 381.588337 60.53185 
L 381.913317 55.377196 
L 382.238296 62.05468 
L 382.563276 64.030243 
L 382.888256 57.177086 
L 383.213235 67.541908 
L 383.538215 63.002893 
L 383.863194 63.232515 
L 384.188174 57.430397 
L 384.513153 62.674052 
L 384.838133 61.95526 
L 385.163112 56.775915 
L 385.488092 55.911152 
L 385.813071 60.839949 
L 386.138051 53.595791 
L 386.46303 59.940524 
L 386.78801 61.040173 
L 387.112989 59.469761 
L 387.437969 68.255351 
L 387.762948 55.880089 
L 388.087928 53.76075 
L 388.412907 62.447673 
L 388.737887 62.967352 
L 389.062867 57.099097 
L 389.387846 58.165408 
L 390.037805 63.79566 
L 390.362785 62.281123 
L 390.687764 62.48171 
L 391.012744 59.992358 
L 391.337723 56.426222 
L 391.987682 66.151456 
L 392.312662 58.896562 
L 392.637641 61.165037 
L 392.962621 57.039824 
L 393.2876 62.362 
L 393.61258 64.61671 
L 393.937559 65.87231 
L 394.262539 55.046579 
L 394.587518 58.016215 
L 394.912498 58.871251 
L 395.237477 64.827053 
L 395.562457 64.519731 
L 395.887437 57.724364 
L 396.212416 63.49988 
L 396.537396 61.642601 
L 396.862375 63.092272 
L 397.187355 60.855802 
L 397.512334 54.30269 
L 397.837314 59.157896 
L 398.162293 57.100548 
L 398.487273 56.903081 
L 398.487273 56.903081 
" style="fill:none;stroke:#2ca02c;stroke-dasharray:1.5,1.5;stroke-dashoffset:0;stroke-width:1.5;"/>
   </g>
   <g id="line2d_15"/>
   <g id="line2d_16"/>
   <g id="line2d_17"/>
   <g id="patch_3">
    <path d="M 57.6 307.584 
L 57.6 41.472 
" style="fill:none;stroke:#000000;stroke-linecap:square;stroke-linejoin:miter;stroke-width:0.8;"/>
   </g>
   <g id="patch_4">
    <path d="M 414.72 307.584 
L 414.72 41.472 
" style="fill:none;stroke:#000000;stroke-linecap:square;stroke-linejoin:miter;stroke-width:0.8;"/>
   </g>
   <g id="patch_5">
    <path d="M 57.6 307.584 
L 414.72 307.584 
" style="fill:none;stroke:#000000;stroke-linecap:square;stroke-linejoin:miter;stroke-width:0.8;"/>
   </g>
   <g id="patch_6">
    <path d="M 57.6 41.472 
L 414.72 41.472 
" style="fill:none;stroke:#000000;stroke-linecap:square;stroke-linejoin:miter;stroke-width:0.8;"/>
   </g>
   <g id="text_13">
    <!-- Average reward per step -->
    <defs>
     <path d="M 34.1875 63.1875 
L 20.796875 26.90625 
L 47.609375 26.90625 
z
M 28.609375 72.90625 
L 39.796875 72.90625 
L 67.578125 0 
L 57.328125 0 
L 50.6875 18.703125 
L 17.828125 18.703125 
L 11.1875 0 
L 0.78125 0 
z
" id="DejaVuSans-65"/>
     <path d="M 2.984375 54.6875 
L 12.5 54.6875 
L 29.59375 8.796875 
L 46.6875 54.6875 
L 56.203125 54.6875 
L 35.6875 0 
L 23.484375 0 
z
" id="DejaVuSans-118"/>
     <path d="M 41.109375 46.296875 
Q 39.59375 47.171875 37.8125 47.578125 
Q 36.03125 48 33.890625 48 
Q 26.265625 48 22.1875 43.046875 
Q 18.109375 38.09375 18.109375 28.8125 
L 18.109375 0 
L 9.078125 0 
L 9.078125 54.6875 
L 18.109375 54.6875 
L 18.109375 46.1875 
Q 20.953125 51.171875 25.484375 53.578125 
Q 30.03125 56 36.53125 56 
Q 37.453125 56 38.578125 55.875 
Q 39.703125 55.765625 41.0625 55.515625 
z
" id="DejaVuSans-114"/>
     <path d="M 34.28125 27.484375 
Q 23.390625 27.484375 19.1875 25 
Q 14.984375 22.515625 14.984375 16.5 
Q 14.984375 11.71875 18.140625 8.90625 
Q 21.296875 6.109375 26.703125 6.109375 
Q 34.1875 6.109375 38.703125 11.40625 
Q 43.21875 16.703125 43.21875 25.484375 
L 43.21875 27.484375 
z
M 52.203125 31.203125 
L 52.203125 0 
L 43.21875 0 
L 43.21875 8.296875 
Q 40.140625 3.328125 35.546875 0.953125 
Q 30.953125 -1.421875 24.3125 -1.421875 
Q 15.921875 -1.421875 10.953125 3.296875 
Q 6 8.015625 6 15.921875 
Q 6 25.140625 12.171875 29.828125 
Q 18.359375 34.515625 30.609375 34.515625 
L 43.21875 34.515625 
L 43.21875 35.40625 
Q 43.21875 41.609375 39.140625 45 
Q 35.0625 48.390625 27.6875 48.390625 
Q 23 48.390625 18.546875 47.265625 
Q 14.109375 46.140625 10.015625 43.890625 
L 10.015625 52.203125 
Q 14.9375 54.109375 19.578125 55.046875 
Q 24.21875 56 28.609375 56 
Q 40.484375 56 46.34375 49.84375 
Q 52.203125 43.703125 52.203125 31.203125 
z
" id="DejaVuSans-97"/>
     <path d="M 45.40625 27.984375 
Q 45.40625 37.75 41.375 43.109375 
Q 37.359375 48.484375 30.078125 48.484375 
Q 22.859375 48.484375 18.828125 43.109375 
Q 14.796875 37.75 14.796875 27.984375 
Q 14.796875 18.265625 18.828125 12.890625 
Q 22.859375 7.515625 30.078125 7.515625 
Q 37.359375 7.515625 41.375 12.890625 
Q 45.40625 18.265625 45.40625 27.984375 
z
M 54.390625 6.78125 
Q 54.390625 -7.171875 48.1875 -13.984375 
Q 42 -20.796875 29.203125 -20.796875 
Q 24.46875 -20.796875 20.265625 -20.09375 
Q 16.0625 -19.390625 12.109375 -17.921875 
L 12.109375 -9.1875 
Q 16.0625 -11.328125 19.921875 -12.34375 
Q 23.78125 -13.375 27.78125 -13.375 
Q 36.625 -13.375 41.015625 -8.765625 
Q 45.40625 -4.15625 45.40625 5.171875 
L 45.40625 9.625 
Q 42.625 4.78125 38.28125 2.390625 
Q 33.9375 0 27.875 0 
Q 17.828125 0 11.671875 7.65625 
Q 5.515625 15.328125 5.515625 27.984375 
Q 5.515625 40.671875 11.671875 48.328125 
Q 17.828125 56 27.875 56 
Q 33.9375 56 38.28125 53.609375 
Q 42.625 51.21875 45.40625 46.390625 
L 45.40625 54.6875 
L 54.390625 54.6875 
z
" id="DejaVuSans-103"/>
     <path id="DejaVuSans-32"/>
     <path d="M 4.203125 54.6875 
L 13.1875 54.6875 
L 24.421875 12.015625 
L 35.59375 54.6875 
L 46.1875 54.6875 
L 57.421875 12.015625 
L 68.609375 54.6875 
L 77.59375 54.6875 
L 63.28125 0 
L 52.6875 0 
L 40.921875 44.828125 
L 29.109375 0 
L 18.5 0 
z
" id="DejaVuSans-119"/>
     <path d="M 45.40625 46.390625 
L 45.40625 75.984375 
L 54.390625 75.984375 
L 54.390625 0 
L 45.40625 0 
L 45.40625 8.203125 
Q 42.578125 3.328125 38.25 0.953125 
Q 33.9375 -1.421875 27.875 -1.421875 
Q 17.96875 -1.421875 11.734375 6.484375 
Q 5.515625 14.40625 5.515625 27.296875 
Q 5.515625 40.1875 11.734375 48.09375 
Q 17.96875 56 27.875 56 
Q 33.9375 56 38.25 53.625 
Q 42.578125 51.265625 45.40625 46.390625 
z
M 14.796875 27.296875 
Q 14.796875 17.390625 18.875 11.75 
Q 22.953125 6.109375 30.078125 6.109375 
Q 37.203125 6.109375 41.296875 11.75 
Q 45.40625 17.390625 45.40625 27.296875 
Q 45.40625 37.203125 41.296875 42.84375 
Q 37.203125 48.484375 30.078125 48.484375 
Q 22.953125 48.484375 18.875 42.84375 
Q 14.796875 37.203125 14.796875 27.296875 
z
" id="DejaVuSans-100"/>
    </defs>
    <g transform="translate(161.490938 35.472)scale(0.12 -0.12)">
     <use xlink:href="#DejaVuSans-65"/>
     <use x="68.330078" xlink:href="#DejaVuSans-118"/>
     <use x="127.509766" xlink:href="#DejaVuSans-101"/>
     <use x="189.033203" xlink:href="#DejaVuSans-114"/>
     <use x="230.146484" xlink:href="#DejaVuSans-97"/>
     <use x="291.425781" xlink:href="#DejaVuSans-103"/>
     <use x="354.902344" xlink:href="#DejaVuSans-101"/>
     <use x="416.425781" xlink:href="#DejaVuSans-32"/>
     <use x="448.212891" xlink:href="#DejaVuSans-114"/>
     <use x="489.294922" xlink:href="#DejaVuSans-101"/>
     <use x="550.818359" xlink:href="#DejaVuSans-119"/>
     <use x="632.605469" xlink:href="#DejaVuSans-97"/>
     <use x="693.884766" xlink:href="#DejaVuSans-114"/>
     <use x="734.982422" xlink:href="#DejaVuSans-100"/>
     <use x="798.458984" xlink:href="#DejaVuSans-32"/>
     <use x="830.246094" xlink:href="#DejaVuSans-112"/>
     <use x="893.722656" xlink:href="#DejaVuSans-101"/>
     <use x="955.246094" xlink:href="#DejaVuSans-114"/>
     <use x="996.359375" xlink:href="#DejaVuSans-32"/>
     <use x="1028.146484" xlink:href="#DejaVuSans-115"/>
     <use x="1080.246094" xlink:href="#DejaVuSans-116"/>
     <use x="1119.455078" xlink:href="#DejaVuSans-101"/>
     <use x="1180.978516" xlink:href="#DejaVuSans-112"/>
    </g>
   </g>
   <g id="legend_1">
    <g id="patch_7">
     <path d="M 289.680938 198.462375 
L 407.72 198.462375 
Q 409.72 198.462375 409.72 196.462375 
L 409.72 152.593625 
Q 409.72 150.593625 407.72 150.593625 
L 289.680938 150.593625 
Q 287.680938 150.593625 287.680938 152.593625 
L 287.680938 196.462375 
Q 287.680938 198.462375 289.680938 198.462375 
z
" style="fill:#ffffff;opacity:0.8;stroke:#cccccc;stroke-linejoin:miter;"/>
    </g>
    <g id="line2d_18">
     <path d="M 291.680938 158.692063 
L 311.680938 158.692063 
" style="fill:none;stroke:#1f77b4;stroke-linecap:square;stroke-width:1.5;"/>
    </g>
    <g id="line2d_19"/>
    <g id="text_14">
     <!-- env__n_arms=9 -->
     <defs>
      <path d="M 54.890625 33.015625 
L 54.890625 0 
L 45.90625 0 
L 45.90625 32.71875 
Q 45.90625 40.484375 42.875 44.328125 
Q 39.84375 48.1875 33.796875 48.1875 
Q 26.515625 48.1875 22.3125 43.546875 
Q 18.109375 38.921875 18.109375 30.90625 
L 18.109375 0 
L 9.078125 0 
L 9.078125 54.6875 
L 18.109375 54.6875 
L 18.109375 46.1875 
Q 21.34375 51.125 25.703125 53.5625 
Q 30.078125 56 35.796875 56 
Q 45.21875 56 50.046875 50.171875 
Q 54.890625 44.34375 54.890625 33.015625 
z
" id="DejaVuSans-110"/>
      <path d="M 50.984375 -16.609375 
L 50.984375 -23.578125 
L -0.984375 -23.578125 
L -0.984375 -16.609375 
z
" id="DejaVuSans-95"/>
      <path d="M 52 44.1875 
Q 55.375 50.25 60.0625 53.125 
Q 64.75 56 71.09375 56 
Q 79.640625 56 84.28125 50.015625 
Q 88.921875 44.046875 88.921875 33.015625 
L 88.921875 0 
L 79.890625 0 
L 79.890625 32.71875 
Q 79.890625 40.578125 77.09375 44.375 
Q 74.3125 48.1875 68.609375 48.1875 
Q 61.625 48.1875 57.5625 43.546875 
Q 53.515625 38.921875 53.515625 30.90625 
L 53.515625 0 
L 44.484375 0 
L 44.484375 32.71875 
Q 44.484375 40.625 41.703125 44.40625 
Q 38.921875 48.1875 33.109375 48.1875 
Q 26.21875 48.1875 22.15625 43.53125 
Q 18.109375 38.875 18.109375 30.90625 
L 18.109375 0 
L 9.078125 0 
L 9.078125 54.6875 
L 18.109375 54.6875 
L 18.109375 46.1875 
Q 21.1875 51.21875 25.484375 53.609375 
Q 29.78125 56 35.6875 56 
Q 41.65625 56 45.828125 52.96875 
Q 50 49.953125 52 44.1875 
z
" id="DejaVuSans-109"/>
      <path d="M 10.59375 45.40625 
L 73.1875 45.40625 
L 73.1875 37.203125 
L 10.59375 37.203125 
z
M 10.59375 25.484375 
L 73.1875 25.484375 
L 73.1875 17.1875 
L 10.59375 17.1875 
z
" id="DejaVuSans-61"/>
      <path d="M 10.984375 1.515625 
L 10.984375 10.5 
Q 14.703125 8.734375 18.5 7.8125 
Q 22.3125 6.890625 25.984375 6.890625 
Q 35.75 6.890625 40.890625 13.453125 
Q 46.046875 20.015625 46.78125 33.40625 
Q 43.953125 29.203125 39.59375 26.953125 
Q 35.25 24.703125 29.984375 24.703125 
Q 19.046875 24.703125 12.671875 31.3125 
Q 6.296875 37.9375 6.296875 49.421875 
Q 6.296875 60.640625 12.9375 67.421875 
Q 19.578125 74.21875 30.609375 74.21875 
Q 43.265625 74.21875 49.921875 64.515625 
Q 56.59375 54.828125 56.59375 36.375 
Q 56.59375 19.140625 48.40625 8.859375 
Q 40.234375 -1.421875 26.421875 -1.421875 
Q 22.703125 -1.421875 18.890625 -0.6875 
Q 15.09375 0.046875 10.984375 1.515625 
z
M 30.609375 32.421875 
Q 37.25 32.421875 41.125 36.953125 
Q 45.015625 41.5 45.015625 49.421875 
Q 45.015625 57.28125 41.125 61.84375 
Q 37.25 66.40625 30.609375 66.40625 
Q 23.96875 66.40625 20.09375 61.84375 
Q 16.21875 57.28125 16.21875 49.421875 
Q 16.21875 41.5 20.09375 36.953125 
Q 23.96875 32.421875 30.609375 32.421875 
z
" id="DejaVuSans-57"/>
     </defs>
     <g transform="translate(319.680938 162.192063)scale(0.1 -0.1)">
      <use xlink:href="#DejaVuSans-101"/>
      <use x="61.523438" xlink:href="#DejaVuSans-110"/>
      <use x="124.902344" xlink:href="#DejaVuSans-118"/>
      <use x="184.082031" xlink:href="#DejaVuSans-95"/>
      <use x="234.082031" xlink:href="#DejaVuSans-95"/>
      <use x="284.082031" xlink:href="#DejaVuSans-110"/>
      <use x="347.460938" xlink:href="#DejaVuSans-95"/>
      <use x="397.460938" xlink:href="#DejaVuSans-97"/>
      <use x="458.740234" xlink:href="#DejaVuSans-114"/>
      <use x="499.837891" xlink:href="#DejaVuSans-109"/>
      <use x="597.25" xlink:href="#DejaVuSans-115"/>
      <use x="649.349609" xlink:href="#DejaVuSans-61"/>
      <use x="733.138672" xlink:href="#DejaVuSans-57"/>
     </g>
    </g>
    <g id="line2d_20">
     <path d="M 291.680938 173.648313 
L 311.680938 173.648313 
" style="fill:none;stroke:#ff7f0e;stroke-dasharray:6,2.25;stroke-dashoffset:0;stroke-width:1.5;"/>
    </g>
    <g id="line2d_21"/>
    <g id="text_15">
     <!-- env__n_arms=10 -->
     <g transform="translate(319.680938 177.148313)scale(0.1 -0.1)">
      <use xlink:href="#DejaVuSans-101"/>
      <use x="61.523438" xlink:href="#DejaVuSans-110"/>
      <use x="124.902344" xlink:href="#DejaVuSans-118"/>
      <use x="184.082031" xlink:href="#DejaVuSans-95"/>
      <use x="234.082031" xlink:href="#DejaVuSans-95"/>
      <use x="284.082031" xlink:href="#DejaVuSans-110"/>
      <use x="347.460938" xlink:href="#DejaVuSans-95"/>
      <use x="397.460938" xlink:href="#DejaVuSans-97"/>
      <use x="458.740234" xlink:href="#DejaVuSans-114"/>
      <use x="499.837891" xlink:href="#DejaVuSans-109"/>
      <use x="597.25" xlink:href="#DejaVuSans-115"/>
      <use x="649.349609" xlink:href="#DejaVuSans-61"/>
      <use x="733.138672" xlink:href="#DejaVuSans-49"/>
      <use x="796.761719" xlink:href="#DejaVuSans-48"/>
     </g>
    </g>
    <g id="line2d_22">
     <path d="M 291.680938 188.604563 
L 311.680938 188.604563 
" style="fill:none;stroke:#2ca02c;stroke-dasharray:1.5,1.5;stroke-dashoffset:0;stroke-width:1.5;"/>
    </g>
    <g id="line2d_23"/>
    <g id="text_16">
     <!-- env__n_arms=11 -->
     <g transform="translate(319.680938 192.104563)scale(0.1 -0.1)">
      <use xlink:href="#DejaVuSans-101"/>
      <use x="61.523438" xlink:href="#DejaVuSans-110"/>
      <use x="124.902344" xlink:href="#DejaVuSans-118"/>
      <use x="184.082031" xlink:href="#DejaVuSans-95"/>
      <use x="234.082031" xlink:href="#DejaVuSans-95"/>
      <use x="284.082031" xlink:href="#DejaVuSans-110"/>
      <use x="347.460938" xlink:href="#DejaVuSans-95"/>
      <use x="397.460938" xlink:href="#DejaVuSans-97"/>
      <use x="458.740234" xlink:href="#DejaVuSans-114"/>
      <use x="499.837891" xlink:href="#DejaVuSans-109"/>
      <use x="597.25" xlink:href="#DejaVuSans-115"/>
      <use x="649.349609" xlink:href="#DejaVuSans-61"/>
      <use x="733.138672" xlink:href="#DejaVuSans-49"/>
      <use x="796.761719" xlink:href="#DejaVuSans-49"/>
     </g>
    </g>
   </g>
  </g>
 </g>
 <defs>
  <clipPath id="p881ff91738">
   <rect height="266.112" width="357.12" x="57.6" y="41.472"/>
  </clipPath>
 </defs>
</svg>
