<?xml version="1.0" encoding="utf-8" standalone="no"?>
<!DOCTYPE svg PUBLIC "-//W3C//DTD SVG 1.1//EN"
  "http://www.w3.org/Graphics/SVG/1.1/DTD/svg11.dtd">
<!-- Created with matplotlib (https://matplotlib.org/) -->
<svg height="345.6pt" version="1.1" viewBox="0 0 460.8 345.6" width="460.8pt" xmlns="http://www.w3.org/2000/svg" xmlns:xlink="http://www.w3.org/1999/xlink">
 <defs>
  <style type="text/css">
*{stroke-linecap:butt;stroke-linejoin:round;}
  </style>
 </defs>
 <g id="figure_1">
  <g id="patch_1">
   <path d="M 0 345.6 
L 460.8 345.6 
L 460.8 0 
L 0 0 
z
" style="fill:#ffffff;"/>
  </g>
  <g id="axes_1">
   <g id="patch_2">
    <path d="M 57.6 307.584 
L 414.72 307.584 
L 414.72 41.472 
L 57.6 41.472 
z
" style="fill:#ffffff;"/>
   </g>
   <g id="matplotlib.axis_1">
    <g id="xtick_1">
     <g id="line2d_1">
      <defs>
       <path d="M 0 0 
L 0 3.5 
" id="ma261aacfa2" style="stroke:#000000;stroke-width:0.8;"/>
      </defs>
      <g>
       <use style="stroke:#000000;stroke-width:0.8;" x="73.832727" xlink:href="#ma261aacfa2" y="307.584"/>
      </g>
     </g>
     <g id="text_1">
      <!-- 0 -->
      <defs>
       <path d="M 31.78125 66.40625 
Q 24.171875 66.40625 20.328125 58.90625 
Q 16.5 51.421875 16.5 36.375 
Q 16.5 21.390625 20.328125 13.890625 
Q 24.171875 6.390625 31.78125 6.390625 
Q 39.453125 6.390625 43.28125 13.890625 
Q 47.125 21.390625 47.125 36.375 
Q 47.125 51.421875 43.28125 58.90625 
Q 39.453125 66.40625 31.78125 66.40625 
z
M 31.78125 74.21875 
Q 44.046875 74.21875 50.515625 64.515625 
Q 56.984375 54.828125 56.984375 36.375 
Q 56.984375 17.96875 50.515625 8.265625 
Q 44.046875 -1.421875 31.78125 -1.421875 
Q 19.53125 -1.421875 13.0625 8.265625 
Q 6.59375 17.96875 6.59375 36.375 
Q 6.59375 54.828125 13.0625 64.515625 
Q 19.53125 74.21875 31.78125 74.21875 
z
" id="DejaVuSans-48"/>
      </defs>
      <g transform="translate(70.651477 322.182437)scale(0.1 -0.1)">
       <use xlink:href="#DejaVuSans-48"/>
      </g>
     </g>
    </g>
    <g id="xtick_2">
     <g id="line2d_2">
      <g>
       <use style="stroke:#000000;stroke-width:0.8;" x="138.828632" xlink:href="#ma261aacfa2" y="307.584"/>
      </g>
     </g>
     <g id="text_2">
      <!-- 200 -->
      <defs>
       <path d="M 19.1875 8.296875 
L 53.609375 8.296875 
L 53.609375 0 
L 7.328125 0 
L 7.328125 8.296875 
Q 12.9375 14.109375 22.625 23.890625 
Q 32.328125 33.6875 34.8125 36.53125 
Q 39.546875 41.84375 41.421875 45.53125 
Q 43.3125 49.21875 43.3125 52.78125 
Q 43.3125 58.59375 39.234375 62.25 
Q 35.15625 65.921875 28.609375 65.921875 
Q 23.96875 65.921875 18.8125 64.3125 
Q 13.671875 62.703125 7.8125 59.421875 
L 7.8125 69.390625 
Q 13.765625 71.78125 18.9375 73 
Q 24.125 74.21875 28.421875 74.21875 
Q 39.75 74.21875 46.484375 68.546875 
Q 53.21875 62.890625 53.21875 53.421875 
Q 53.21875 48.921875 51.53125 44.890625 
Q 49.859375 40.875 45.40625 35.40625 
Q 44.1875 33.984375 37.640625 27.21875 
Q 31.109375 20.453125 19.1875 8.296875 
z
" id="DejaVuSans-50"/>
      </defs>
      <g transform="translate(129.284882 322.182437)scale(0.1 -0.1)">
       <use xlink:href="#DejaVuSans-50"/>
       <use x="63.623047" xlink:href="#DejaVuSans-48"/>
       <use x="127.246094" xlink:href="#DejaVuSans-48"/>
      </g>
     </g>
    </g>
    <g id="xtick_3">
     <g id="line2d_3">
      <g>
       <use style="stroke:#000000;stroke-width:0.8;" x="203.824537" xlink:href="#ma261aacfa2" y="307.584"/>
      </g>
     </g>
     <g id="text_3">
      <!-- 400 -->
      <defs>
       <path d="M 37.796875 64.3125 
L 12.890625 25.390625 
L 37.796875 25.390625 
z
M 35.203125 72.90625 
L 47.609375 72.90625 
L 47.609375 25.390625 
L 58.015625 25.390625 
L 58.015625 17.1875 
L 47.609375 17.1875 
L 47.609375 0 
L 37.796875 0 
L 37.796875 17.1875 
L 4.890625 17.1875 
L 4.890625 26.703125 
z
" id="DejaVuSans-52"/>
      </defs>
      <g transform="translate(194.280787 322.182437)scale(0.1 -0.1)">
       <use xlink:href="#DejaVuSans-52"/>
       <use x="63.623047" xlink:href="#DejaVuSans-48"/>
       <use x="127.246094" xlink:href="#DejaVuSans-48"/>
      </g>
     </g>
    </g>
    <g id="xtick_4">
     <g id="line2d_4">
      <g>
       <use style="stroke:#000000;stroke-width:0.8;" x="268.820442" xlink:href="#ma261aacfa2" y="307.584"/>
      </g>
     </g>
     <g id="text_4">
      <!-- 600 -->
      <defs>
       <path d="M 33.015625 40.375 
Q 26.375 40.375 22.484375 35.828125 
Q 18.609375 31.296875 18.609375 23.390625 
Q 18.609375 15.53125 22.484375 10.953125 
Q 26.375 6.390625 33.015625 6.390625 
Q 39.65625 6.390625 43.53125 10.953125 
Q 47.40625 15.53125 47.40625 23.390625 
Q 47.40625 31.296875 43.53125 35.828125 
Q 39.65625 40.375 33.015625 40.375 
z
M 52.59375 71.296875 
L 52.59375 62.3125 
Q 48.875 64.0625 45.09375 64.984375 
Q 41.3125 65.921875 37.59375 65.921875 
Q 27.828125 65.921875 22.671875 59.328125 
Q 17.53125 52.734375 16.796875 39.40625 
Q 19.671875 43.65625 24.015625 45.921875 
Q 28.375 48.1875 33.59375 48.1875 
Q 44.578125 48.1875 50.953125 41.515625 
Q 57.328125 34.859375 57.328125 23.390625 
Q 57.328125 12.15625 50.6875 5.359375 
Q 44.046875 -1.421875 33.015625 -1.421875 
Q 20.359375 -1.421875 13.671875 8.265625 
Q 6.984375 17.96875 6.984375 36.375 
Q 6.984375 53.65625 15.1875 63.9375 
Q 23.390625 74.21875 37.203125 74.21875 
Q 40.921875 74.21875 44.703125 73.484375 
Q 48.484375 72.75 52.59375 71.296875 
z
" id="DejaVuSans-54"/>
      </defs>
      <g transform="translate(259.276692 322.182437)scale(0.1 -0.1)">
       <use xlink:href="#DejaVuSans-54"/>
       <use x="63.623047" xlink:href="#DejaVuSans-48"/>
       <use x="127.246094" xlink:href="#DejaVuSans-48"/>
      </g>
     </g>
    </g>
    <g id="xtick_5">
     <g id="line2d_5">
      <g>
       <use style="stroke:#000000;stroke-width:0.8;" x="333.816347" xlink:href="#ma261aacfa2" y="307.584"/>
      </g>
     </g>
     <g id="text_5">
      <!-- 800 -->
      <defs>
       <path d="M 31.78125 34.625 
Q 24.75 34.625 20.71875 30.859375 
Q 16.703125 27.09375 16.703125 20.515625 
Q 16.703125 13.921875 20.71875 10.15625 
Q 24.75 6.390625 31.78125 6.390625 
Q 38.8125 6.390625 42.859375 10.171875 
Q 46.921875 13.96875 46.921875 20.515625 
Q 46.921875 27.09375 42.890625 30.859375 
Q 38.875 34.625 31.78125 34.625 
z
M 21.921875 38.8125 
Q 15.578125 40.375 12.03125 44.71875 
Q 8.5 49.078125 8.5 55.328125 
Q 8.5 64.0625 14.71875 69.140625 
Q 20.953125 74.21875 31.78125 74.21875 
Q 42.671875 74.21875 48.875 69.140625 
Q 55.078125 64.0625 55.078125 55.328125 
Q 55.078125 49.078125 51.53125 44.71875 
Q 48 40.375 41.703125 38.8125 
Q 48.828125 37.15625 52.796875 32.3125 
Q 56.78125 27.484375 56.78125 20.515625 
Q 56.78125 9.90625 50.3125 4.234375 
Q 43.84375 -1.421875 31.78125 -1.421875 
Q 19.734375 -1.421875 13.25 4.234375 
Q 6.78125 9.90625 6.78125 20.515625 
Q 6.78125 27.484375 10.78125 32.3125 
Q 14.796875 37.15625 21.921875 38.8125 
z
M 18.3125 54.390625 
Q 18.3125 48.734375 21.84375 45.5625 
Q 25.390625 42.390625 31.78125 42.390625 
Q 38.140625 42.390625 41.71875 45.5625 
Q 45.3125 48.734375 45.3125 54.390625 
Q 45.3125 60.0625 41.71875 63.234375 
Q 38.140625 66.40625 31.78125 66.40625 
Q 25.390625 66.40625 21.84375 63.234375 
Q 18.3125 60.0625 18.3125 54.390625 
z
" id="DejaVuSans-56"/>
      </defs>
      <g transform="translate(324.272597 322.182437)scale(0.1 -0.1)">
       <use xlink:href="#DejaVuSans-56"/>
       <use x="63.623047" xlink:href="#DejaVuSans-48"/>
       <use x="127.246094" xlink:href="#DejaVuSans-48"/>
      </g>
     </g>
    </g>
    <g id="xtick_6">
     <g id="line2d_6">
      <g>
       <use style="stroke:#000000;stroke-width:0.8;" x="398.812252" xlink:href="#ma261aacfa2" y="307.584"/>
      </g>
     </g>
     <g id="text_6">
      <!-- 1000 -->
      <defs>
       <path d="M 12.40625 8.296875 
L 28.515625 8.296875 
L 28.515625 63.921875 
L 10.984375 60.40625 
L 10.984375 69.390625 
L 28.421875 72.90625 
L 38.28125 72.90625 
L 38.28125 8.296875 
L 54.390625 8.296875 
L 54.390625 0 
L 12.40625 0 
z
" id="DejaVuSans-49"/>
      </defs>
      <g transform="translate(386.087252 322.182437)scale(0.1 -0.1)">
       <use xlink:href="#DejaVuSans-49"/>
       <use x="63.623047" xlink:href="#DejaVuSans-48"/>
       <use x="127.246094" xlink:href="#DejaVuSans-48"/>
       <use x="190.869141" xlink:href="#DejaVuSans-48"/>
      </g>
     </g>
    </g>
   </g>
   <g id="matplotlib.axis_2">
    <g id="ytick_1">
     <g id="line2d_7">
      <defs>
       <path d="M 0 0 
L -3.5 0 
" id="mda2d67bddb" style="stroke:#000000;stroke-width:0.8;"/>
      </defs>
      <g>
       <use style="stroke:#000000;stroke-width:0.8;" x="57.6" xlink:href="#mda2d67bddb" y="296.85478"/>
      </g>
     </g>
     <g id="text_7">
      <!-- 0.0 -->
      <defs>
       <path d="M 10.6875 12.40625 
L 21 12.40625 
L 21 0 
L 10.6875 0 
z
" id="DejaVuSans-46"/>
      </defs>
      <g transform="translate(34.696875 300.653998)scale(0.1 -0.1)">
       <use xlink:href="#DejaVuSans-48"/>
       <use x="63.623047" xlink:href="#DejaVuSans-46"/>
       <use x="95.410156" xlink:href="#DejaVuSans-48"/>
      </g>
     </g>
    </g>
    <g id="ytick_2">
     <g id="line2d_8">
      <g>
       <use style="stroke:#000000;stroke-width:0.8;" x="57.6" xlink:href="#mda2d67bddb" y="262.685288"/>
      </g>
     </g>
     <g id="text_8">
      <!-- 0.1 -->
      <g transform="translate(34.696875 266.484507)scale(0.1 -0.1)">
       <use xlink:href="#DejaVuSans-48"/>
       <use x="63.623047" xlink:href="#DejaVuSans-46"/>
       <use x="95.410156" xlink:href="#DejaVuSans-49"/>
      </g>
     </g>
    </g>
    <g id="ytick_3">
     <g id="line2d_9">
      <g>
       <use style="stroke:#000000;stroke-width:0.8;" x="57.6" xlink:href="#mda2d67bddb" y="228.515797"/>
      </g>
     </g>
     <g id="text_9">
      <!-- 0.2 -->
      <g transform="translate(34.696875 232.315015)scale(0.1 -0.1)">
       <use xlink:href="#DejaVuSans-48"/>
       <use x="63.623047" xlink:href="#DejaVuSans-46"/>
       <use x="95.410156" xlink:href="#DejaVuSans-50"/>
      </g>
     </g>
    </g>
    <g id="ytick_4">
     <g id="line2d_10">
      <g>
       <use style="stroke:#000000;stroke-width:0.8;" x="57.6" xlink:href="#mda2d67bddb" y="194.346305"/>
      </g>
     </g>
     <g id="text_10">
      <!-- 0.3 -->
      <defs>
       <path d="M 40.578125 39.3125 
Q 47.65625 37.796875 51.625 33 
Q 55.609375 28.21875 55.609375 21.1875 
Q 55.609375 10.40625 48.1875 4.484375 
Q 40.765625 -1.421875 27.09375 -1.421875 
Q 22.515625 -1.421875 17.65625 -0.515625 
Q 12.796875 0.390625 7.625 2.203125 
L 7.625 11.71875 
Q 11.71875 9.328125 16.59375 8.109375 
Q 21.484375 6.890625 26.8125 6.890625 
Q 36.078125 6.890625 40.9375 10.546875 
Q 45.796875 14.203125 45.796875 21.1875 
Q 45.796875 27.640625 41.28125 31.265625 
Q 36.765625 34.90625 28.71875 34.90625 
L 20.21875 34.90625 
L 20.21875 43.015625 
L 29.109375 43.015625 
Q 36.375 43.015625 40.234375 45.921875 
Q 44.09375 48.828125 44.09375 54.296875 
Q 44.09375 59.90625 40.109375 62.90625 
Q 36.140625 65.921875 28.71875 65.921875 
Q 24.65625 65.921875 20.015625 65.03125 
Q 15.375 64.15625 9.8125 62.3125 
L 9.8125 71.09375 
Q 15.4375 72.65625 20.34375 73.4375 
Q 25.25 74.21875 29.59375 74.21875 
Q 40.828125 74.21875 47.359375 69.109375 
Q 53.90625 64.015625 53.90625 55.328125 
Q 53.90625 49.265625 50.4375 45.09375 
Q 46.96875 40.921875 40.578125 39.3125 
z
" id="DejaVuSans-51"/>
      </defs>
      <g transform="translate(34.696875 198.145524)scale(0.1 -0.1)">
       <use xlink:href="#DejaVuSans-48"/>
       <use x="63.623047" xlink:href="#DejaVuSans-46"/>
       <use x="95.410156" xlink:href="#DejaVuSans-51"/>
      </g>
     </g>
    </g>
    <g id="ytick_5">
     <g id="line2d_11">
      <g>
       <use style="stroke:#000000;stroke-width:0.8;" x="57.6" xlink:href="#mda2d67bddb" y="160.176814"/>
      </g>
     </g>
     <g id="text_11">
      <!-- 0.4 -->
      <g transform="translate(34.696875 163.976032)scale(0.1 -0.1)">
       <use xlink:href="#DejaVuSans-48"/>
       <use x="63.623047" xlink:href="#DejaVuSans-46"/>
       <use x="95.410156" xlink:href="#DejaVuSans-52"/>
      </g>
     </g>
    </g>
    <g id="ytick_6">
     <g id="line2d_12">
      <g>
       <use style="stroke:#000000;stroke-width:0.8;" x="57.6" xlink:href="#mda2d67bddb" y="126.007322"/>
      </g>
     </g>
     <g id="text_12">
      <!-- 0.5 -->
      <defs>
       <path d="M 10.796875 72.90625 
L 49.515625 72.90625 
L 49.515625 64.59375 
L 19.828125 64.59375 
L 19.828125 46.734375 
Q 21.96875 47.46875 24.109375 47.828125 
Q 26.265625 48.1875 28.421875 48.1875 
Q 40.625 48.1875 47.75 41.5 
Q 54.890625 34.8125 54.890625 23.390625 
Q 54.890625 11.625 47.5625 5.09375 
Q 40.234375 -1.421875 26.90625 -1.421875 
Q 22.3125 -1.421875 17.546875 -0.640625 
Q 12.796875 0.140625 7.71875 1.703125 
L 7.71875 11.625 
Q 12.109375 9.234375 16.796875 8.0625 
Q 21.484375 6.890625 26.703125 6.890625 
Q 35.15625 6.890625 40.078125 11.328125 
Q 45.015625 15.765625 45.015625 23.390625 
Q 45.015625 31 40.078125 35.4375 
Q 35.15625 39.890625 26.703125 39.890625 
Q 22.75 39.890625 18.8125 39.015625 
Q 14.890625 38.140625 10.796875 36.28125 
z
" id="DejaVuSans-53"/>
      </defs>
      <g transform="translate(34.696875 129.806541)scale(0.1 -0.1)">
       <use xlink:href="#DejaVuSans-48"/>
       <use x="63.623047" xlink:href="#DejaVuSans-46"/>
       <use x="95.410156" xlink:href="#DejaVuSans-53"/>
      </g>
     </g>
    </g>
    <g id="ytick_7">
     <g id="line2d_13">
      <g>
       <use style="stroke:#000000;stroke-width:0.8;" x="57.6" xlink:href="#mda2d67bddb" y="91.837831"/>
      </g>
     </g>
     <g id="text_13">
      <!-- 0.6 -->
      <g transform="translate(34.696875 95.637049)scale(0.1 -0.1)">
       <use xlink:href="#DejaVuSans-48"/>
       <use x="63.623047" xlink:href="#DejaVuSans-46"/>
       <use x="95.410156" xlink:href="#DejaVuSans-54"/>
      </g>
     </g>
    </g>
    <g id="ytick_8">
     <g id="line2d_14">
      <g>
       <use style="stroke:#000000;stroke-width:0.8;" x="57.6" xlink:href="#mda2d67bddb" y="57.668339"/>
      </g>
     </g>
     <g id="text_14">
      <!-- 0.7 -->
      <defs>
       <path d="M 8.203125 72.90625 
L 55.078125 72.90625 
L 55.078125 68.703125 
L 28.609375 0 
L 18.3125 0 
L 43.21875 64.59375 
L 8.203125 64.59375 
z
" id="DejaVuSans-55"/>
      </defs>
      <g transform="translate(34.696875 61.467558)scale(0.1 -0.1)">
       <use xlink:href="#DejaVuSans-48"/>
       <use x="63.623047" xlink:href="#DejaVuSans-46"/>
       <use x="95.410156" xlink:href="#DejaVuSans-55"/>
      </g>
     </g>
    </g>
   </g>
   <g id="line2d_15">
    <path clip-path="url(#pf2c5ad6ea1)" d="M 73.832727 295.488 
L 74.482686 289.679186 
L 74.807666 289.679186 
L 75.132645 287.970712 
L 75.457625 284.212068 
L 75.782604 282.845288 
L 76.107584 282.161898 
L 76.432563 280.453424 
L 76.757543 279.428339 
L 77.082523 279.086644 
L 77.407502 278.061559 
L 77.732482 278.744949 
L 78.057461 274.302915 
L 78.70742 271.227661 
L 79.0324 269.860881 
L 79.357379 269.519186 
L 80.007338 266.443932 
L 80.657297 260.293424 
L 80.982277 261.318508 
L 81.307256 259.610034 
L 81.632236 255.85139 
L 81.957215 256.53478 
L 82.282195 253.459525 
L 82.607174 252.092746 
L 82.932154 253.117831 
L 83.257133 251.409356 
L 83.907093 249.359186 
L 84.232072 247.309017 
L 84.557052 247.650712 
L 84.882031 245.258847 
L 85.207011 246.967322 
L 85.53199 245.258847 
L 85.85697 242.183593 
L 86.181949 243.208678 
L 86.506929 239.450034 
L 86.831908 241.500203 
L 87.156888 240.133424 
L 87.481867 240.475119 
L 87.806847 239.791729 
L 88.131826 238.083254 
L 88.456806 237.741559 
L 89.106765 232.957831 
L 89.431744 234.666305 
L 89.756724 234.666305 
L 90.081704 229.882576 
L 90.406683 232.616136 
L 90.731663 228.174102 
L 91.056642 229.199186 
L 91.381622 224.073763 
L 91.706601 225.782237 
L 92.031581 220.315119 
L 92.35656 222.706983 
L 92.68154 223.390373 
L 93.006519 219.973424 
L 93.331499 218.948339 
L 93.656478 216.898169 
L 93.981458 218.264949 
L 94.306437 213.822915 
L 94.631417 213.48122 
L 94.956396 217.923254 
L 95.931335 209.380881 
L 96.256314 209.722576 
L 96.581294 207.672407 
L 96.906274 206.989017 
L 97.881212 208.014102 
L 98.206192 207.330712 
L 98.531171 205.622237 
L 99.18113 199.471729 
L 99.50611 200.155119 
L 99.831089 195.713085 
L 100.156069 200.496814 
L 100.481048 195.713085 
L 100.806028 192.979525 
L 101.131007 193.32122 
L 101.455987 191.271051 
L 101.780966 193.32122 
L 102.105946 188.879186 
L 102.430925 189.220881 
L 102.755905 190.245966 
L 103.080885 192.979525 
L 103.405864 189.904271 
L 103.730844 183.412068 
L 104.055823 183.412068 
L 104.380803 187.854102 
L 104.705782 182.728678 
L 105.030762 183.753763 
L 105.355741 180.336814 
L 105.680721 180.678508 
L 106.0057 182.045288 
L 106.33068 181.020203 
L 106.980639 175.89478 
L 107.305618 177.261559 
L 107.630598 175.553085 
L 108.280557 174.869695 
L 108.930516 172.477831 
L 109.255495 173.16122 
L 109.580475 170.427661 
L 109.905455 170.769356 
L 110.230434 168.719186 
L 110.555414 171.111051 
L 110.880393 165.643932 
L 111.205373 169.060881 
L 111.530352 164.618847 
L 111.855332 162.910373 
L 112.180311 163.252068 
L 112.505291 167.010712 
L 112.83027 163.935458 
L 113.15525 157.784949 
L 113.805209 159.493424 
L 114.130188 159.151729 
L 114.455168 156.418169 
L 114.780147 158.468339 
L 115.105127 156.418169 
L 115.430106 157.101559 
L 115.755086 156.759864 
L 116.080066 158.126644 
L 116.405045 156.418169 
L 116.730025 157.101559 
L 117.055004 155.05139 
L 117.379984 151.634441 
L 117.704963 149.584271 
L 118.029943 152.317831 
L 118.354922 152.317831 
L 118.679902 151.292746 
L 119.004881 152.317831 
L 119.329861 150.267661 
L 119.65484 142.066983 
L 119.97982 149.242576 
L 120.304799 145.142237 
L 120.629779 148.900881 
L 120.954758 145.825627 
L 121.279738 148.217492 
L 121.604717 146.509017 
L 121.929697 145.483932 
L 122.254676 146.167322 
L 122.579656 143.092068 
L 122.904636 144.800542 
L 123.229615 145.142237 
L 123.879574 137.966644 
L 124.529533 139.333424 
L 124.854513 140.700203 
L 125.179492 138.991729 
L 125.504472 138.991729 
L 126.154431 138.308339 
L 126.47941 136.258169 
L 126.80439 141.383593 
L 127.129369 137.283254 
L 127.454349 138.650034 
L 127.779328 137.966644 
L 128.104308 138.991729 
L 128.754267 132.157831 
L 129.079247 136.258169 
L 129.404226 133.52461 
L 129.729206 133.182915 
L 130.054185 126.349017 
L 130.379165 132.499525 
L 130.704144 134.549695 
L 131.029124 127.715797 
L 131.354103 130.791051 
L 131.679083 126.349017 
L 132.004062 127.715797 
L 132.329042 127.374102 
L 132.654021 130.791051 
L 132.979001 126.007322 
L 133.30398 124.640542 
L 133.62896 129.765966 
L 133.953939 122.932068 
L 134.278919 129.424271 
L 134.603898 127.715797 
L 134.928878 128.399186 
L 135.578837 122.248678 
L 135.903817 126.007322 
L 136.228796 126.007322 
L 136.553776 123.273763 
L 136.878755 124.982237 
L 137.203735 124.298847 
L 137.528714 123.957153 
L 137.853694 122.248678 
L 138.178673 121.565288 
L 138.503653 116.781559 
L 138.828632 120.540203 
L 139.153612 121.565288 
L 139.478591 117.806644 
L 139.803571 125.665627 
L 140.12855 118.490034 
L 140.45353 121.223593 
L 140.778509 122.932068 
L 141.103489 116.781559 
L 141.428468 119.173424 
L 141.753448 119.173424 
L 142.078428 117.464949 
L 142.403407 113.706305 
L 142.728387 120.881898 
L 143.378346 115.41478 
L 143.703325 116.781559 
L 144.028305 114.73139 
L 144.353284 114.73139 
L 144.678264 115.756475 
L 145.003243 114.73139 
L 145.328223 115.073085 
L 145.653202 115.073085 
L 145.978182 111.997831 
L 146.303161 114.73139 
L 146.628141 114.389695 
L 146.95312 117.464949 
L 147.603079 108.580881 
L 147.928059 112.68122 
L 148.253038 104.822237 
L 148.578018 108.922576 
L 148.902998 109.264271 
L 149.227977 112.68122 
L 149.552957 112.68122 
L 149.877936 105.505627 
L 150.202916 104.138847 
L 150.527895 109.605966 
L 150.852875 106.189017 
L 151.177854 104.822237 
L 151.502834 108.922576 
L 151.827813 109.947661 
L 152.152793 107.214102 
L 152.477772 110.289356 
L 152.802752 102.772068 
L 153.127731 108.580881 
L 153.452711 105.505627 
L 153.77769 110.289356 
L 154.427649 101.746983 
L 154.752629 105.163932 
L 155.077609 105.847322 
L 155.402588 110.289356 
L 155.727568 100.380203 
L 156.052547 103.455458 
L 156.377527 101.746983 
L 156.702506 103.455458 
L 157.027486 105.847322 
L 157.352465 101.746983 
L 157.677445 105.163932 
L 158.002424 101.405288 
L 158.327404 101.063593 
L 158.652383 103.113763 
L 158.977363 101.063593 
L 159.302342 106.530712 
L 159.627322 102.772068 
L 159.952301 107.555797 
L 160.277281 98.330034 
L 160.60226 105.505627 
L 160.92724 96.963254 
L 161.252219 99.355119 
L 161.577199 98.330034 
L 161.902179 100.038508 
L 162.227158 99.013424 
L 162.552138 104.480542 
L 163.202097 98.330034 
L 163.527076 94.913085 
L 163.852056 101.063593 
L 164.177035 100.038508 
L 164.502015 100.721898 
L 164.826994 99.355119 
L 165.151974 100.721898 
L 165.476953 99.013424 
L 165.801933 97.988339 
L 166.126912 92.862915 
L 167.101851 100.721898 
L 167.42683 97.304949 
L 167.75181 96.963254 
L 168.07679 97.988339 
L 168.401769 96.279864 
L 168.726749 98.671729 
L 169.051728 95.938169 
L 169.376708 98.671729 
L 169.701687 97.988339 
L 170.026667 93.20461 
L 170.351646 92.179525 
L 170.676626 95.596475 
L 171.001605 87.737492 
L 171.651564 99.013424 
L 171.976544 94.57139 
L 172.626503 91.837831 
L 172.951482 94.57139 
L 173.601441 93.888 
L 173.926421 99.013424 
L 174.57638 90.471051 
L 174.90136 93.888 
L 175.226339 93.888 
L 175.551319 92.862915 
L 175.876298 96.963254 
L 176.201278 93.546305 
L 176.526257 92.179525 
L 177.176216 94.229695 
L 177.501196 90.471051 
L 177.826175 91.496136 
L 178.151155 93.888 
L 178.476134 90.129356 
L 178.801114 90.471051 
L 179.126093 88.762576 
L 179.451073 90.471051 
L 179.776052 92.862915 
L 180.101032 88.420881 
L 180.426011 87.737492 
L 180.750991 90.129356 
L 181.075971 85.345627 
L 181.40095 86.370712 
L 181.72593 88.079186 
L 182.050909 84.320542 
L 182.375889 88.420881 
L 182.700868 87.737492 
L 183.025848 82.612068 
L 183.675807 91.837831 
L 184.000786 87.395797 
L 184.325766 88.079186 
L 184.650745 92.179525 
L 184.975725 86.712407 
L 185.300704 87.737492 
L 185.625684 83.295458 
L 185.950663 89.445966 
L 186.275643 87.054102 
L 186.600622 82.953763 
L 186.925602 85.003932 
L 187.250581 86.029017 
L 187.575561 84.662237 
L 187.900541 87.737492 
L 188.5505 91.154441 
L 188.875479 90.812746 
L 189.200459 81.928678 
L 189.525438 82.612068 
L 189.850418 90.471051 
L 190.175397 86.029017 
L 190.500377 84.320542 
L 190.825356 83.978847 
L 191.150336 88.079186 
L 191.475315 83.978847 
L 191.800295 85.003932 
L 192.125274 83.978847 
L 192.450254 83.637153 
L 192.775233 86.029017 
L 193.100213 78.511729 
L 193.425192 82.270373 
L 193.750172 79.195119 
L 194.075152 80.903593 
L 194.400131 80.561898 
L 194.725111 85.687322 
L 195.05009 83.295458 
L 195.37507 77.828339 
L 195.700049 86.370712 
L 196.025029 84.662237 
L 196.350008 80.220203 
L 196.674988 83.637153 
L 196.999967 81.586983 
L 197.324947 81.586983 
L 197.649926 78.853424 
L 197.974906 84.320542 
L 198.299885 78.853424 
L 198.624865 79.878508 
L 198.949844 83.295458 
L 199.274824 78.170034 
L 199.924783 80.561898 
L 200.249762 81.245288 
L 200.574742 81.245288 
L 200.899722 85.003932 
L 201.549681 77.144949 
L 201.87466 76.803254 
L 202.19964 77.828339 
L 202.524619 74.41139 
L 202.849599 78.170034 
L 203.174578 75.09478 
L 203.499558 78.853424 
L 203.824537 75.09478 
L 204.149517 81.245288 
L 204.474496 72.702915 
L 204.799476 78.170034 
L 205.124455 76.803254 
L 205.449435 78.511729 
L 205.774414 73.386305 
L 206.424373 78.853424 
L 206.749353 80.220203 
L 207.074333 72.36122 
L 207.399312 78.853424 
L 207.724292 79.536814 
L 208.049271 76.119864 
L 208.374251 83.637153 
L 208.69923 75.778169 
L 209.02421 80.220203 
L 209.349189 74.069695 
L 209.674169 79.195119 
L 209.999148 76.461559 
L 210.324128 77.144949 
L 210.974087 81.586983 
L 211.299066 75.09478 
L 211.624046 75.778169 
L 212.598984 73.04461 
L 212.923964 77.828339 
L 213.248943 69.285966 
L 213.573923 76.803254 
L 213.898903 73.386305 
L 214.548862 78.511729 
L 214.873841 77.486644 
L 215.5238 67.235797 
L 215.84878 73.04461 
L 216.173759 76.461559 
L 216.498739 66.552407 
L 216.823718 73.728 
L 217.148698 72.36122 
L 217.473677 75.09478 
L 217.798657 76.803254 
L 218.123636 79.195119 
L 218.448616 72.702915 
L 218.773595 73.04461 
L 219.098575 77.486644 
L 219.748534 69.969356 
L 220.073514 72.36122 
L 220.398493 80.220203 
L 221.048452 69.969356 
L 221.373432 72.702915 
L 221.698411 69.627661 
L 222.023391 77.144949 
L 222.34837 76.803254 
L 222.67335 76.119864 
L 222.998329 77.144949 
L 223.323309 69.627661 
L 223.648288 73.04461 
L 223.973268 67.235797 
L 224.298247 72.019525 
L 224.623227 66.552407 
L 224.948206 74.069695 
L 225.273186 69.627661 
L 225.598165 77.486644 
L 225.923145 66.210712 
L 226.248124 69.969356 
L 226.573104 70.994441 
L 226.898084 74.753085 
L 227.223063 74.069695 
L 227.548043 72.019525 
L 227.873022 71.336136 
L 228.198002 69.627661 
L 228.522981 70.994441 
L 228.847961 70.994441 
L 229.17294 67.235797 
L 229.49792 73.728 
L 229.822899 77.144949 
L 230.147879 71.336136 
L 230.472858 69.627661 
L 230.797838 74.069695 
L 231.447797 66.894102 
L 231.772776 72.36122 
L 232.097756 68.602576 
L 232.422735 71.336136 
L 232.747715 69.969356 
L 233.072695 70.311051 
L 233.397674 74.069695 
L 233.722654 75.436475 
L 234.047633 70.652746 
L 234.372613 70.311051 
L 234.697592 65.869017 
L 235.022572 66.552407 
L 235.347551 70.994441 
L 235.672531 73.728 
L 235.99751 73.728 
L 236.32249 75.09478 
L 236.647469 67.577492 
L 236.972449 66.894102 
L 237.297428 65.185627 
L 237.622408 69.969356 
L 237.947387 70.652746 
L 238.272367 71.677831 
L 238.597346 68.602576 
L 238.922326 69.285966 
L 239.247305 69.285966 
L 239.572285 67.235797 
L 239.897265 67.235797 
L 240.222244 74.753085 
L 240.547224 70.652746 
L 240.872203 71.336136 
L 241.197183 70.311051 
L 241.522162 70.652746 
L 241.847142 71.677831 
L 242.172121 71.336136 
L 242.497101 69.285966 
L 242.82208 69.969356 
L 243.472039 69.969356 
L 243.797019 68.602576 
L 244.121998 70.652746 
L 244.446978 67.235797 
L 244.771957 66.552407 
L 245.096937 74.41139 
L 245.421916 67.235797 
L 245.746896 70.652746 
L 246.071876 64.160542 
L 246.396855 69.285966 
L 246.721835 64.843932 
L 247.046814 67.235797 
L 247.371794 72.019525 
L 247.696773 67.919186 
L 248.021753 65.527322 
L 248.346732 66.210712 
L 248.671712 72.019525 
L 248.996691 67.577492 
L 249.321671 70.311051 
L 249.64665 63.477153 
L 249.97163 67.919186 
L 250.296609 65.185627 
L 250.621589 66.894102 
L 250.946568 66.210712 
L 251.271548 69.969356 
L 251.596527 65.869017 
L 251.921507 69.285966 
L 252.246486 67.235797 
L 252.571466 62.110373 
L 252.896446 69.285966 
L 253.221425 62.793763 
L 253.546405 72.702915 
L 253.871384 66.894102 
L 254.196364 68.944271 
L 254.521343 69.627661 
L 254.846323 69.969356 
L 255.171302 64.502237 
L 255.496282 68.260881 
L 255.821261 63.818847 
L 256.146241 66.552407 
L 256.47122 70.311051 
L 256.7962 64.843932 
L 257.121179 64.843932 
L 257.446159 67.577492 
L 257.771138 68.260881 
L 258.096118 64.160542 
L 258.421097 67.235797 
L 258.746077 72.702915 
L 259.071057 65.527322 
L 259.396036 67.235797 
L 259.721016 64.160542 
L 260.045995 67.577492 
L 260.370975 67.235797 
L 260.695954 67.235797 
L 261.020934 72.019525 
L 261.345913 68.260881 
L 261.995872 65.869017 
L 262.645831 66.552407 
L 262.970811 62.452068 
L 263.29579 68.944271 
L 263.62077 69.285966 
L 263.945749 66.894102 
L 264.270729 61.768678 
L 264.595708 65.869017 
L 264.920688 64.160542 
L 265.245667 65.185627 
L 265.570647 70.994441 
L 265.895627 65.869017 
L 266.220606 66.552407 
L 266.545586 66.552407 
L 266.870565 65.527322 
L 267.195545 67.919186 
L 267.520524 68.602576 
L 267.845504 65.527322 
L 268.170483 64.160542 
L 268.495463 66.210712 
L 268.820442 65.527322 
L 269.145422 63.477153 
L 269.470401 64.160542 
L 269.795381 62.452068 
L 270.12036 69.969356 
L 270.44534 60.743593 
L 270.770319 66.552407 
L 271.095299 67.235797 
L 271.420278 69.285966 
L 272.395217 63.477153 
L 272.720197 63.135458 
L 273.045176 65.527322 
L 273.370156 64.160542 
L 273.695135 69.627661 
L 274.020115 61.426983 
L 274.345094 67.235797 
L 274.670074 62.452068 
L 274.995053 69.627661 
L 275.320033 68.944271 
L 275.645012 65.527322 
L 275.969992 64.502237 
L 276.294971 65.527322 
L 276.619951 65.527322 
L 276.94493 61.085288 
L 277.26991 66.552407 
L 277.594889 65.869017 
L 277.919869 62.452068 
L 278.244848 62.452068 
L 278.569828 61.768678 
L 278.894808 63.135458 
L 279.219787 63.135458 
L 279.544767 64.843932 
L 279.869746 68.602576 
L 280.194726 67.235797 
L 280.844685 67.919186 
L 281.169664 66.552407 
L 281.494644 60.401898 
L 281.819623 66.552407 
L 282.144603 67.919186 
L 282.469582 63.135458 
L 282.794562 64.502237 
L 283.119541 67.235797 
L 283.444521 65.869017 
L 283.7695 58.693424 
L 284.09448 62.793763 
L 284.419459 61.426983 
L 284.744439 63.477153 
L 285.069419 62.793763 
L 285.394398 66.894102 
L 285.719378 65.869017 
L 286.044357 66.210712 
L 286.369337 63.818847 
L 286.694316 69.627661 
L 287.019296 65.185627 
L 287.344275 64.502237 
L 287.669255 65.185627 
L 287.994234 61.426983 
L 288.319214 65.869017 
L 288.644193 61.085288 
L 288.969173 59.718508 
L 289.619132 69.627661 
L 289.944111 60.401898 
L 290.269091 71.336136 
L 291.244029 66.552407 
L 291.569009 63.477153 
L 291.893989 67.919186 
L 292.218968 68.944271 
L 292.868927 63.818847 
L 293.193907 66.894102 
L 293.518886 62.793763 
L 293.843866 67.577492 
L 294.168845 70.652746 
L 294.493825 63.818847 
L 294.818804 64.502237 
L 295.143784 64.502237 
L 295.468763 62.793763 
L 295.793743 67.919186 
L 296.118722 61.426983 
L 296.443702 64.502237 
L 296.768681 60.743593 
L 297.093661 61.085288 
L 297.41864 65.527322 
L 297.74362 66.210712 
L 298.0686 60.743593 
L 298.393579 65.527322 
L 298.718559 61.085288 
L 299.043538 64.502237 
L 299.693497 60.401898 
L 300.018477 64.502237 
L 300.343456 65.869017 
L 300.668436 64.843932 
L 300.993415 58.693424 
L 301.318395 62.110373 
L 301.643374 60.401898 
L 301.968354 70.311051 
L 302.293333 65.185627 
L 302.618313 64.502237 
L 302.943292 63.135458 
L 303.268272 61.085288 
L 303.593251 63.477153 
L 303.918231 62.452068 
L 304.24321 60.743593 
L 304.56819 62.452068 
L 304.89317 60.743593 
L 305.218149 56.643254 
L 305.543129 66.552407 
L 305.868108 67.235797 
L 306.193088 67.577492 
L 306.518067 60.401898 
L 306.843047 65.869017 
L 307.168026 59.035119 
L 307.493006 64.843932 
L 307.817985 59.035119 
L 308.142965 68.260881 
L 308.467944 67.235797 
L 308.792924 58.010034 
L 309.117903 66.552407 
L 309.442883 63.818847 
L 309.767862 63.135458 
L 310.092842 56.984949 
L 310.417821 63.818847 
L 310.742801 61.768678 
L 311.067781 66.210712 
L 311.39276 61.768678 
L 311.71774 61.426983 
L 312.042719 61.768678 
L 312.367699 64.843932 
L 312.692678 66.210712 
L 313.017658 68.944271 
L 313.342637 63.818847 
L 313.667617 61.085288 
L 313.992596 60.743593 
L 314.317576 62.452068 
L 314.642555 60.401898 
L 314.967535 66.210712 
L 315.292514 61.768678 
L 315.617494 62.452068 
L 315.942473 64.160542 
L 316.592432 66.210712 
L 316.917412 63.818847 
L 317.242391 59.718508 
L 317.567371 60.401898 
L 317.892351 60.743593 
L 318.21733 61.768678 
L 318.54231 64.843932 
L 318.867289 62.452068 
L 319.192269 63.477153 
L 319.517248 63.818847 
L 319.842228 59.376814 
L 320.167207 56.643254 
L 320.492187 62.452068 
L 320.817166 61.085288 
L 321.142146 58.693424 
L 321.467125 62.452068 
L 321.792105 64.843932 
L 322.117084 63.135458 
L 322.442064 60.743593 
L 322.767043 56.984949 
L 323.092023 61.426983 
L 323.417002 62.110373 
L 323.741982 63.477153 
L 324.066962 63.477153 
L 324.391941 60.060203 
L 324.716921 64.160542 
L 325.0419 58.351729 
L 325.36688 65.185627 
L 325.691859 59.376814 
L 326.016839 60.401898 
L 326.341818 69.969356 
L 326.666798 59.376814 
L 327.316757 62.793763 
L 327.641736 56.984949 
L 327.966716 66.894102 
L 328.291695 62.793763 
L 328.616675 64.160542 
L 328.941654 62.793763 
L 329.266634 63.818847 
L 329.591613 61.426983 
L 329.916593 64.502237 
L 330.241572 62.793763 
L 330.566552 62.793763 
L 330.891532 62.452068 
L 331.216511 61.426983 
L 331.541491 58.693424 
L 331.86647 61.768678 
L 332.19145 61.085288 
L 332.516429 61.426983 
L 332.841409 60.401898 
L 333.166388 62.793763 
L 333.491368 59.035119 
L 333.816347 65.869017 
L 334.141327 63.135458 
L 334.791286 69.285966 
L 335.116265 61.085288 
L 335.441245 67.235797 
L 335.766224 56.301559 
L 336.091204 61.768678 
L 336.416183 62.452068 
L 336.741163 65.185627 
L 337.066143 64.502237 
L 337.391122 61.426983 
L 337.716102 56.984949 
L 338.041081 65.185627 
L 338.366061 58.010034 
L 338.69104 63.818847 
L 339.01602 66.210712 
L 339.340999 59.376814 
L 339.665979 60.060203 
L 339.990958 60.060203 
L 340.315938 64.502237 
L 340.640917 65.869017 
L 340.965897 59.718508 
L 341.290876 62.452068 
L 341.615856 67.235797 
L 341.940835 62.793763 
L 342.265815 61.085288 
L 342.590794 66.210712 
L 342.915774 59.035119 
L 343.240753 63.477153 
L 343.565733 61.085288 
L 343.890713 63.477153 
L 344.215692 62.793763 
L 344.540672 61.085288 
L 344.865651 63.818847 
L 345.190631 63.135458 
L 345.51561 62.110373 
L 345.84059 58.693424 
L 346.165569 64.843932 
L 346.490549 61.085288 
L 346.815528 63.477153 
L 347.140508 60.743593 
L 347.465487 63.135458 
L 347.790467 60.401898 
L 348.115446 63.818847 
L 348.440426 61.085288 
L 348.765405 61.426983 
L 349.090385 59.376814 
L 349.415364 60.060203 
L 349.740344 65.527322 
L 350.065324 59.035119 
L 350.390303 60.743593 
L 350.715283 64.502237 
L 351.040262 62.452068 
L 351.365242 62.452068 
L 351.690221 62.793763 
L 352.015201 58.351729 
L 352.34018 63.135458 
L 352.66516 59.718508 
L 352.990139 58.351729 
L 353.315119 64.160542 
L 353.640098 64.160542 
L 353.965078 61.426983 
L 354.290057 61.426983 
L 354.615037 63.818847 
L 354.940016 61.085288 
L 355.264996 60.060203 
L 355.589975 58.351729 
L 355.914955 62.110373 
L 356.239934 59.376814 
L 356.564914 60.401898 
L 356.889894 62.452068 
L 357.539853 60.060203 
L 357.864832 64.843932 
L 358.189812 62.110373 
L 358.514791 62.110373 
L 358.839771 62.452068 
L 359.16475 66.552407 
L 360.139689 57.326644 
L 360.464668 63.818847 
L 360.789648 58.351729 
L 361.114627 65.527322 
L 361.439607 61.426983 
L 361.764586 64.160542 
L 362.089566 61.426983 
L 362.739525 59.376814 
L 363.064505 63.818847 
L 363.389484 65.527322 
L 364.039443 59.035119 
L 364.364423 63.477153 
L 364.689402 63.477153 
L 365.014382 59.035119 
L 365.339361 61.426983 
L 365.664341 59.376814 
L 365.98932 60.060203 
L 366.3143 59.376814 
L 366.639279 64.843932 
L 366.964259 57.668339 
L 367.289238 62.110373 
L 367.939197 56.984949 
L 368.264177 64.160542 
L 368.589156 61.768678 
L 368.914136 64.843932 
L 369.239115 62.793763 
L 369.564095 64.843932 
L 369.889075 58.693424 
L 370.214054 64.502237 
L 370.539034 58.010034 
L 370.864013 58.351729 
L 371.513972 63.135458 
L 372.163931 60.401898 
L 372.488911 65.527322 
L 372.81389 56.643254 
L 373.13887 61.085288 
L 373.463849 63.135458 
L 373.788829 63.477153 
L 374.113808 64.502237 
L 374.438788 57.326644 
L 374.763767 61.085288 
L 375.088747 61.768678 
L 375.413726 58.351729 
L 375.738706 63.477153 
L 376.388665 55.276475 
L 376.713645 61.768678 
L 377.038624 63.135458 
L 377.363604 57.326644 
L 377.688583 56.643254 
L 378.013563 59.376814 
L 378.338542 60.060203 
L 378.663522 65.869017 
L 378.988501 61.085288 
L 379.313481 58.693424 
L 379.63846 60.401898 
L 379.96344 64.502237 
L 380.288419 60.743593 
L 380.613399 65.527322 
L 380.938378 64.502237 
L 381.263358 62.793763 
L 381.588337 56.301559 
L 382.238296 61.768678 
L 382.563276 60.060203 
L 382.888256 53.568 
L 383.213235 59.718508 
L 383.538215 60.060203 
L 383.863194 59.718508 
L 384.188174 65.185627 
L 384.513153 59.718508 
L 384.838133 60.401898 
L 385.163112 60.060203 
L 385.488092 62.452068 
L 385.813071 61.426983 
L 386.138051 62.110373 
L 386.46303 60.743593 
L 386.78801 54.25139 
L 387.112989 57.326644 
L 387.437969 55.618169 
L 387.762948 59.718508 
L 388.087928 59.035119 
L 388.412907 61.768678 
L 389.387846 54.93478 
L 389.712826 54.93478 
L 390.037805 59.718508 
L 391.012744 63.135458 
L 391.337723 57.326644 
L 391.662703 66.210712 
L 391.987682 62.452068 
L 392.312662 61.768678 
L 392.637641 62.793763 
L 392.962621 58.010034 
L 393.2876 63.135458 
L 393.61258 62.793763 
L 393.937559 57.668339 
L 394.262539 63.135458 
L 394.587518 61.426983 
L 394.912498 56.301559 
L 395.237477 57.326644 
L 395.562457 55.618169 
L 395.887437 62.793763 
L 396.212416 58.693424 
L 396.537396 62.452068 
L 396.862375 63.477153 
L 397.187355 65.869017 
L 397.837314 56.643254 
L 398.162293 69.285966 
L 398.487273 62.110373 
L 398.487273 62.110373 
" style="fill:none;stroke:#1f77b4;stroke-linecap:square;stroke-width:1.5;"/>
   </g>
   <g id="patch_3">
    <path d="M 57.6 307.584 
L 57.6 41.472 
" style="fill:none;stroke:#000000;stroke-linecap:square;stroke-linejoin:miter;stroke-width:0.8;"/>
   </g>
   <g id="patch_4">
    <path d="M 414.72 307.584 
L 414.72 41.472 
" style="fill:none;stroke:#000000;stroke-linecap:square;stroke-linejoin:miter;stroke-width:0.8;"/>
   </g>
   <g id="patch_5">
    <path d="M 57.6 307.584 
L 414.72 307.584 
" style="fill:none;stroke:#000000;stroke-linecap:square;stroke-linejoin:miter;stroke-width:0.8;"/>
   </g>
   <g id="patch_6">
    <path d="M 57.6 41.472 
L 414.72 41.472 
" style="fill:none;stroke:#000000;stroke-linecap:square;stroke-linejoin:miter;stroke-width:0.8;"/>
   </g>
   <g id="text_15">
    <!-- % Optimal Action -->
    <defs>
     <path d="M 72.703125 32.078125 
Q 68.453125 32.078125 66.03125 28.46875 
Q 63.625 24.859375 63.625 18.40625 
Q 63.625 12.0625 66.03125 8.421875 
Q 68.453125 4.78125 72.703125 4.78125 
Q 76.859375 4.78125 79.265625 8.421875 
Q 81.6875 12.0625 81.6875 18.40625 
Q 81.6875 24.8125 79.265625 28.4375 
Q 76.859375 32.078125 72.703125 32.078125 
z
M 72.703125 38.28125 
Q 80.421875 38.28125 84.953125 32.90625 
Q 89.5 27.546875 89.5 18.40625 
Q 89.5 9.28125 84.9375 3.921875 
Q 80.375 -1.421875 72.703125 -1.421875 
Q 64.890625 -1.421875 60.34375 3.921875 
Q 55.8125 9.28125 55.8125 18.40625 
Q 55.8125 27.59375 60.375 32.9375 
Q 64.9375 38.28125 72.703125 38.28125 
z
M 22.3125 68.015625 
Q 18.109375 68.015625 15.6875 64.375 
Q 13.28125 60.75 13.28125 54.390625 
Q 13.28125 47.953125 15.671875 44.328125 
Q 18.0625 40.71875 22.3125 40.71875 
Q 26.5625 40.71875 28.96875 44.328125 
Q 31.390625 47.953125 31.390625 54.390625 
Q 31.390625 60.6875 28.953125 64.34375 
Q 26.515625 68.015625 22.3125 68.015625 
z
M 66.40625 74.21875 
L 74.21875 74.21875 
L 28.609375 -1.421875 
L 20.796875 -1.421875 
z
M 22.3125 74.21875 
Q 30.03125 74.21875 34.609375 68.875 
Q 39.203125 63.53125 39.203125 54.390625 
Q 39.203125 45.171875 34.640625 39.84375 
Q 30.078125 34.515625 22.3125 34.515625 
Q 14.546875 34.515625 10.03125 39.859375 
Q 5.515625 45.21875 5.515625 54.390625 
Q 5.515625 63.484375 10.046875 68.84375 
Q 14.59375 74.21875 22.3125 74.21875 
z
" id="DejaVuSans-37"/>
     <path id="DejaVuSans-32"/>
     <path d="M 39.40625 66.21875 
Q 28.65625 66.21875 22.328125 58.203125 
Q 16.015625 50.203125 16.015625 36.375 
Q 16.015625 22.609375 22.328125 14.59375 
Q 28.65625 6.59375 39.40625 6.59375 
Q 50.140625 6.59375 56.421875 14.59375 
Q 62.703125 22.609375 62.703125 36.375 
Q 62.703125 50.203125 56.421875 58.203125 
Q 50.140625 66.21875 39.40625 66.21875 
z
M 39.40625 74.21875 
Q 54.734375 74.21875 63.90625 63.9375 
Q 73.09375 53.65625 73.09375 36.375 
Q 73.09375 19.140625 63.90625 8.859375 
Q 54.734375 -1.421875 39.40625 -1.421875 
Q 24.03125 -1.421875 14.8125 8.828125 
Q 5.609375 19.09375 5.609375 36.375 
Q 5.609375 53.65625 14.8125 63.9375 
Q 24.03125 74.21875 39.40625 74.21875 
z
" id="DejaVuSans-79"/>
     <path d="M 18.109375 8.203125 
L 18.109375 -20.796875 
L 9.078125 -20.796875 
L 9.078125 54.6875 
L 18.109375 54.6875 
L 18.109375 46.390625 
Q 20.953125 51.265625 25.265625 53.625 
Q 29.59375 56 35.59375 56 
Q 45.5625 56 51.78125 48.09375 
Q 58.015625 40.1875 58.015625 27.296875 
Q 58.015625 14.40625 51.78125 6.484375 
Q 45.5625 -1.421875 35.59375 -1.421875 
Q 29.59375 -1.421875 25.265625 0.953125 
Q 20.953125 3.328125 18.109375 8.203125 
z
M 48.6875 27.296875 
Q 48.6875 37.203125 44.609375 42.84375 
Q 40.53125 48.484375 33.40625 48.484375 
Q 26.265625 48.484375 22.1875 42.84375 
Q 18.109375 37.203125 18.109375 27.296875 
Q 18.109375 17.390625 22.1875 11.75 
Q 26.265625 6.109375 33.40625 6.109375 
Q 40.53125 6.109375 44.609375 11.75 
Q 48.6875 17.390625 48.6875 27.296875 
z
" id="DejaVuSans-112"/>
     <path d="M 18.3125 70.21875 
L 18.3125 54.6875 
L 36.8125 54.6875 
L 36.8125 47.703125 
L 18.3125 47.703125 
L 18.3125 18.015625 
Q 18.3125 11.328125 20.140625 9.421875 
Q 21.96875 7.515625 27.59375 7.515625 
L 36.8125 7.515625 
L 36.8125 0 
L 27.59375 0 
Q 17.1875 0 13.234375 3.875 
Q 9.28125 7.765625 9.28125 18.015625 
L 9.28125 47.703125 
L 2.6875 47.703125 
L 2.6875 54.6875 
L 9.28125 54.6875 
L 9.28125 70.21875 
z
" id="DejaVuSans-116"/>
     <path d="M 9.421875 54.6875 
L 18.40625 54.6875 
L 18.40625 0 
L 9.421875 0 
z
M 9.421875 75.984375 
L 18.40625 75.984375 
L 18.40625 64.59375 
L 9.421875 64.59375 
z
" id="DejaVuSans-105"/>
     <path d="M 52 44.1875 
Q 55.375 50.25 60.0625 53.125 
Q 64.75 56 71.09375 56 
Q 79.640625 56 84.28125 50.015625 
Q 88.921875 44.046875 88.921875 33.015625 
L 88.921875 0 
L 79.890625 0 
L 79.890625 32.71875 
Q 79.890625 40.578125 77.09375 44.375 
Q 74.3125 48.1875 68.609375 48.1875 
Q 61.625 48.1875 57.5625 43.546875 
Q 53.515625 38.921875 53.515625 30.90625 
L 53.515625 0 
L 44.484375 0 
L 44.484375 32.71875 
Q 44.484375 40.625 41.703125 44.40625 
Q 38.921875 48.1875 33.109375 48.1875 
Q 26.21875 48.1875 22.15625 43.53125 
Q 18.109375 38.875 18.109375 30.90625 
L 18.109375 0 
L 9.078125 0 
L 9.078125 54.6875 
L 18.109375 54.6875 
L 18.109375 46.1875 
Q 21.1875 51.21875 25.484375 53.609375 
Q 29.78125 56 35.6875 56 
Q 41.65625 56 45.828125 52.96875 
Q 50 49.953125 52 44.1875 
z
" id="DejaVuSans-109"/>
     <path d="M 34.28125 27.484375 
Q 23.390625 27.484375 19.1875 25 
Q 14.984375 22.515625 14.984375 16.5 
Q 14.984375 11.71875 18.140625 8.90625 
Q 21.296875 6.109375 26.703125 6.109375 
Q 34.1875 6.109375 38.703125 11.40625 
Q 43.21875 16.703125 43.21875 25.484375 
L 43.21875 27.484375 
z
M 52.203125 31.203125 
L 52.203125 0 
L 43.21875 0 
L 43.21875 8.296875 
Q 40.140625 3.328125 35.546875 0.953125 
Q 30.953125 -1.421875 24.3125 -1.421875 
Q 15.921875 -1.421875 10.953125 3.296875 
Q 6 8.015625 6 15.921875 
Q 6 25.140625 12.171875 29.828125 
Q 18.359375 34.515625 30.609375 34.515625 
L 43.21875 34.515625 
L 43.21875 35.40625 
Q 43.21875 41.609375 39.140625 45 
Q 35.0625 48.390625 27.6875 48.390625 
Q 23 48.390625 18.546875 47.265625 
Q 14.109375 46.140625 10.015625 43.890625 
L 10.015625 52.203125 
Q 14.9375 54.109375 19.578125 55.046875 
Q 24.21875 56 28.609375 56 
Q 40.484375 56 46.34375 49.84375 
Q 52.203125 43.703125 52.203125 31.203125 
z
" id="DejaVuSans-97"/>
     <path d="M 9.421875 75.984375 
L 18.40625 75.984375 
L 18.40625 0 
L 9.421875 0 
z
" id="DejaVuSans-108"/>
     <path d="M 34.1875 63.1875 
L 20.796875 26.90625 
L 47.609375 26.90625 
z
M 28.609375 72.90625 
L 39.796875 72.90625 
L 67.578125 0 
L 57.328125 0 
L 50.6875 18.703125 
L 17.828125 18.703125 
L 11.1875 0 
L 0.78125 0 
z
" id="DejaVuSans-65"/>
     <path d="M 48.78125 52.59375 
L 48.78125 44.1875 
Q 44.96875 46.296875 41.140625 47.34375 
Q 37.3125 48.390625 33.40625 48.390625 
Q 24.65625 48.390625 19.8125 42.84375 
Q 14.984375 37.3125 14.984375 27.296875 
Q 14.984375 17.28125 19.8125 11.734375 
Q 24.65625 6.203125 33.40625 6.203125 
Q 37.3125 6.203125 41.140625 7.25 
Q 44.96875 8.296875 48.78125 10.40625 
L 48.78125 2.09375 
Q 45.015625 0.34375 40.984375 -0.53125 
Q 36.96875 -1.421875 32.421875 -1.421875 
Q 20.0625 -1.421875 12.78125 6.34375 
Q 5.515625 14.109375 5.515625 27.296875 
Q 5.515625 40.671875 12.859375 48.328125 
Q 20.21875 56 33.015625 56 
Q 37.15625 56 41.109375 55.140625 
Q 45.0625 54.296875 48.78125 52.59375 
z
" id="DejaVuSans-99"/>
     <path d="M 30.609375 48.390625 
Q 23.390625 48.390625 19.1875 42.75 
Q 14.984375 37.109375 14.984375 27.296875 
Q 14.984375 17.484375 19.15625 11.84375 
Q 23.34375 6.203125 30.609375 6.203125 
Q 37.796875 6.203125 41.984375 11.859375 
Q 46.1875 17.53125 46.1875 27.296875 
Q 46.1875 37.015625 41.984375 42.703125 
Q 37.796875 48.390625 30.609375 48.390625 
z
M 30.609375 56 
Q 42.328125 56 49.015625 48.375 
Q 55.71875 40.765625 55.71875 27.296875 
Q 55.71875 13.875 49.015625 6.21875 
Q 42.328125 -1.421875 30.609375 -1.421875 
Q 18.84375 -1.421875 12.171875 6.21875 
Q 5.515625 13.875 5.515625 27.296875 
Q 5.515625 40.765625 12.171875 48.375 
Q 18.84375 56 30.609375 56 
z
" id="DejaVuSans-111"/>
     <path d="M 54.890625 33.015625 
L 54.890625 0 
L 45.90625 0 
L 45.90625 32.71875 
Q 45.90625 40.484375 42.875 44.328125 
Q 39.84375 48.1875 33.796875 48.1875 
Q 26.515625 48.1875 22.3125 43.546875 
Q 18.109375 38.921875 18.109375 30.90625 
L 18.109375 0 
L 9.078125 0 
L 9.078125 54.6875 
L 18.109375 54.6875 
L 18.109375 46.1875 
Q 21.34375 51.125 25.703125 53.5625 
Q 30.078125 56 35.796875 56 
Q 45.21875 56 50.046875 50.171875 
Q 54.890625 44.34375 54.890625 33.015625 
z
" id="DejaVuSans-110"/>
    </defs>
    <g transform="translate(184.010625 35.472)scale(0.12 -0.12)">
     <use xlink:href="#DejaVuSans-37"/>
     <use x="95.019531" xlink:href="#DejaVuSans-32"/>
     <use x="126.806641" xlink:href="#DejaVuSans-79"/>
     <use x="205.517578" xlink:href="#DejaVuSans-112"/>
     <use x="268.994141" xlink:href="#DejaVuSans-116"/>
     <use x="308.203125" xlink:href="#DejaVuSans-105"/>
     <use x="335.986328" xlink:href="#DejaVuSans-109"/>
     <use x="433.398438" xlink:href="#DejaVuSans-97"/>
     <use x="494.677734" xlink:href="#DejaVuSans-108"/>
     <use x="522.460938" xlink:href="#DejaVuSans-32"/>
     <use x="554.248047" xlink:href="#DejaVuSans-65"/>
     <use x="622.640625" xlink:href="#DejaVuSans-99"/>
     <use x="677.621094" xlink:href="#DejaVuSans-116"/>
     <use x="716.830078" xlink:href="#DejaVuSans-105"/>
     <use x="744.613281" xlink:href="#DejaVuSans-111"/>
     <use x="805.794922" xlink:href="#DejaVuSans-110"/>
    </g>
   </g>
  </g>
 </g>
 <defs>
  <clipPath id="pf2c5ad6ea1">
   <rect height="266.112" width="357.12" x="57.6" y="41.472"/>
  </clipPath>
 </defs>
</svg>
