<?xml version="1.0" encoding="utf-8" standalone="no"?>
<!DOCTYPE svg PUBLIC "-//W3C//DTD SVG 1.1//EN"
  "http://www.w3.org/Graphics/SVG/1.1/DTD/svg11.dtd">
<!-- Created with matplotlib (https://matplotlib.org/) -->
<svg height="345.6pt" version="1.1" viewBox="0 0 460.8 345.6" width="460.8pt" xmlns="http://www.w3.org/2000/svg" xmlns:xlink="http://www.w3.org/1999/xlink">
 <defs>
  <style type="text/css">
*{stroke-linecap:butt;stroke-linejoin:round;}
  </style>
 </defs>
 <g id="figure_1">
  <g id="patch_1">
   <path d="M 0 345.6 
L 460.8 345.6 
L 460.8 0 
L 0 0 
z
" style="fill:#ffffff;"/>
  </g>
  <g id="axes_1">
   <g id="patch_2">
    <path d="M 57.6 307.584 
L 414.72 307.584 
L 414.72 41.472 
L 57.6 41.472 
z
" style="fill:#ffffff;"/>
   </g>
   <g id="matplotlib.axis_1">
    <g id="xtick_1">
     <g id="line2d_1">
      <defs>
       <path d="M 0 0 
L 0 3.5 
" id="m94a5a393fd" style="stroke:#000000;stroke-width:0.8;"/>
      </defs>
      <g>
       <use style="stroke:#000000;stroke-width:0.8;" x="73.832727" xlink:href="#m94a5a393fd" y="307.584"/>
      </g>
     </g>
     <g id="text_1">
      <!-- 0 -->
      <defs>
       <path d="M 31.78125 66.40625 
Q 24.171875 66.40625 20.328125 58.90625 
Q 16.5 51.421875 16.5 36.375 
Q 16.5 21.390625 20.328125 13.890625 
Q 24.171875 6.390625 31.78125 6.390625 
Q 39.453125 6.390625 43.28125 13.890625 
Q 47.125 21.390625 47.125 36.375 
Q 47.125 51.421875 43.28125 58.90625 
Q 39.453125 66.40625 31.78125 66.40625 
z
M 31.78125 74.21875 
Q 44.046875 74.21875 50.515625 64.515625 
Q 56.984375 54.828125 56.984375 36.375 
Q 56.984375 17.96875 50.515625 8.265625 
Q 44.046875 -1.421875 31.78125 -1.421875 
Q 19.53125 -1.421875 13.0625 8.265625 
Q 6.59375 17.96875 6.59375 36.375 
Q 6.59375 54.828125 13.0625 64.515625 
Q 19.53125 74.21875 31.78125 74.21875 
z
" id="DejaVuSans-48"/>
      </defs>
      <g transform="translate(70.651477 322.182437)scale(0.1 -0.1)">
       <use xlink:href="#DejaVuSans-48"/>
      </g>
     </g>
    </g>
    <g id="xtick_2">
     <g id="line2d_2">
      <g>
       <use style="stroke:#000000;stroke-width:0.8;" x="138.828632" xlink:href="#m94a5a393fd" y="307.584"/>
      </g>
     </g>
     <g id="text_2">
      <!-- 200 -->
      <defs>
       <path d="M 19.1875 8.296875 
L 53.609375 8.296875 
L 53.609375 0 
L 7.328125 0 
L 7.328125 8.296875 
Q 12.9375 14.109375 22.625 23.890625 
Q 32.328125 33.6875 34.8125 36.53125 
Q 39.546875 41.84375 41.421875 45.53125 
Q 43.3125 49.21875 43.3125 52.78125 
Q 43.3125 58.59375 39.234375 62.25 
Q 35.15625 65.921875 28.609375 65.921875 
Q 23.96875 65.921875 18.8125 64.3125 
Q 13.671875 62.703125 7.8125 59.421875 
L 7.8125 69.390625 
Q 13.765625 71.78125 18.9375 73 
Q 24.125 74.21875 28.421875 74.21875 
Q 39.75 74.21875 46.484375 68.546875 
Q 53.21875 62.890625 53.21875 53.421875 
Q 53.21875 48.921875 51.53125 44.890625 
Q 49.859375 40.875 45.40625 35.40625 
Q 44.1875 33.984375 37.640625 27.21875 
Q 31.109375 20.453125 19.1875 8.296875 
z
" id="DejaVuSans-50"/>
      </defs>
      <g transform="translate(129.284882 322.182437)scale(0.1 -0.1)">
       <use xlink:href="#DejaVuSans-50"/>
       <use x="63.623047" xlink:href="#DejaVuSans-48"/>
       <use x="127.246094" xlink:href="#DejaVuSans-48"/>
      </g>
     </g>
    </g>
    <g id="xtick_3">
     <g id="line2d_3">
      <g>
       <use style="stroke:#000000;stroke-width:0.8;" x="203.824537" xlink:href="#m94a5a393fd" y="307.584"/>
      </g>
     </g>
     <g id="text_3">
      <!-- 400 -->
      <defs>
       <path d="M 37.796875 64.3125 
L 12.890625 25.390625 
L 37.796875 25.390625 
z
M 35.203125 72.90625 
L 47.609375 72.90625 
L 47.609375 25.390625 
L 58.015625 25.390625 
L 58.015625 17.1875 
L 47.609375 17.1875 
L 47.609375 0 
L 37.796875 0 
L 37.796875 17.1875 
L 4.890625 17.1875 
L 4.890625 26.703125 
z
" id="DejaVuSans-52"/>
      </defs>
      <g transform="translate(194.280787 322.182437)scale(0.1 -0.1)">
       <use xlink:href="#DejaVuSans-52"/>
       <use x="63.623047" xlink:href="#DejaVuSans-48"/>
       <use x="127.246094" xlink:href="#DejaVuSans-48"/>
      </g>
     </g>
    </g>
    <g id="xtick_4">
     <g id="line2d_4">
      <g>
       <use style="stroke:#000000;stroke-width:0.8;" x="268.820442" xlink:href="#m94a5a393fd" y="307.584"/>
      </g>
     </g>
     <g id="text_4">
      <!-- 600 -->
      <defs>
       <path d="M 33.015625 40.375 
Q 26.375 40.375 22.484375 35.828125 
Q 18.609375 31.296875 18.609375 23.390625 
Q 18.609375 15.53125 22.484375 10.953125 
Q 26.375 6.390625 33.015625 6.390625 
Q 39.65625 6.390625 43.53125 10.953125 
Q 47.40625 15.53125 47.40625 23.390625 
Q 47.40625 31.296875 43.53125 35.828125 
Q 39.65625 40.375 33.015625 40.375 
z
M 52.59375 71.296875 
L 52.59375 62.3125 
Q 48.875 64.0625 45.09375 64.984375 
Q 41.3125 65.921875 37.59375 65.921875 
Q 27.828125 65.921875 22.671875 59.328125 
Q 17.53125 52.734375 16.796875 39.40625 
Q 19.671875 43.65625 24.015625 45.921875 
Q 28.375 48.1875 33.59375 48.1875 
Q 44.578125 48.1875 50.953125 41.515625 
Q 57.328125 34.859375 57.328125 23.390625 
Q 57.328125 12.15625 50.6875 5.359375 
Q 44.046875 -1.421875 33.015625 -1.421875 
Q 20.359375 -1.421875 13.671875 8.265625 
Q 6.984375 17.96875 6.984375 36.375 
Q 6.984375 53.65625 15.1875 63.9375 
Q 23.390625 74.21875 37.203125 74.21875 
Q 40.921875 74.21875 44.703125 73.484375 
Q 48.484375 72.75 52.59375 71.296875 
z
" id="DejaVuSans-54"/>
      </defs>
      <g transform="translate(259.276692 322.182437)scale(0.1 -0.1)">
       <use xlink:href="#DejaVuSans-54"/>
       <use x="63.623047" xlink:href="#DejaVuSans-48"/>
       <use x="127.246094" xlink:href="#DejaVuSans-48"/>
      </g>
     </g>
    </g>
    <g id="xtick_5">
     <g id="line2d_5">
      <g>
       <use style="stroke:#000000;stroke-width:0.8;" x="333.816347" xlink:href="#m94a5a393fd" y="307.584"/>
      </g>
     </g>
     <g id="text_5">
      <!-- 800 -->
      <defs>
       <path d="M 31.78125 34.625 
Q 24.75 34.625 20.71875 30.859375 
Q 16.703125 27.09375 16.703125 20.515625 
Q 16.703125 13.921875 20.71875 10.15625 
Q 24.75 6.390625 31.78125 6.390625 
Q 38.8125 6.390625 42.859375 10.171875 
Q 46.921875 13.96875 46.921875 20.515625 
Q 46.921875 27.09375 42.890625 30.859375 
Q 38.875 34.625 31.78125 34.625 
z
M 21.921875 38.8125 
Q 15.578125 40.375 12.03125 44.71875 
Q 8.5 49.078125 8.5 55.328125 
Q 8.5 64.0625 14.71875 69.140625 
Q 20.953125 74.21875 31.78125 74.21875 
Q 42.671875 74.21875 48.875 69.140625 
Q 55.078125 64.0625 55.078125 55.328125 
Q 55.078125 49.078125 51.53125 44.71875 
Q 48 40.375 41.703125 38.8125 
Q 48.828125 37.15625 52.796875 32.3125 
Q 56.78125 27.484375 56.78125 20.515625 
Q 56.78125 9.90625 50.3125 4.234375 
Q 43.84375 -1.421875 31.78125 -1.421875 
Q 19.734375 -1.421875 13.25 4.234375 
Q 6.78125 9.90625 6.78125 20.515625 
Q 6.78125 27.484375 10.78125 32.3125 
Q 14.796875 37.15625 21.921875 38.8125 
z
M 18.3125 54.390625 
Q 18.3125 48.734375 21.84375 45.5625 
Q 25.390625 42.390625 31.78125 42.390625 
Q 38.140625 42.390625 41.71875 45.5625 
Q 45.3125 48.734375 45.3125 54.390625 
Q 45.3125 60.0625 41.71875 63.234375 
Q 38.140625 66.40625 31.78125 66.40625 
Q 25.390625 66.40625 21.84375 63.234375 
Q 18.3125 60.0625 18.3125 54.390625 
z
" id="DejaVuSans-56"/>
      </defs>
      <g transform="translate(324.272597 322.182437)scale(0.1 -0.1)">
       <use xlink:href="#DejaVuSans-56"/>
       <use x="63.623047" xlink:href="#DejaVuSans-48"/>
       <use x="127.246094" xlink:href="#DejaVuSans-48"/>
      </g>
     </g>
    </g>
    <g id="xtick_6">
     <g id="line2d_6">
      <g>
       <use style="stroke:#000000;stroke-width:0.8;" x="398.812252" xlink:href="#m94a5a393fd" y="307.584"/>
      </g>
     </g>
     <g id="text_6">
      <!-- 1000 -->
      <defs>
       <path d="M 12.40625 8.296875 
L 28.515625 8.296875 
L 28.515625 63.921875 
L 10.984375 60.40625 
L 10.984375 69.390625 
L 28.421875 72.90625 
L 38.28125 72.90625 
L 38.28125 8.296875 
L 54.390625 8.296875 
L 54.390625 0 
L 12.40625 0 
z
" id="DejaVuSans-49"/>
      </defs>
      <g transform="translate(386.087252 322.182437)scale(0.1 -0.1)">
       <use xlink:href="#DejaVuSans-49"/>
       <use x="63.623047" xlink:href="#DejaVuSans-48"/>
       <use x="127.246094" xlink:href="#DejaVuSans-48"/>
       <use x="190.869141" xlink:href="#DejaVuSans-48"/>
      </g>
     </g>
    </g>
   </g>
   <g id="matplotlib.axis_2">
    <g id="ytick_1">
     <g id="line2d_7">
      <defs>
       <path d="M 0 0 
L -3.5 0 
" id="m18d4315ce5" style="stroke:#000000;stroke-width:0.8;"/>
      </defs>
      <g>
       <use style="stroke:#000000;stroke-width:0.8;" x="57.6" xlink:href="#m18d4315ce5" y="299.651059"/>
      </g>
     </g>
     <g id="text_7">
      <!-- 0.0 -->
      <defs>
       <path d="M 10.6875 12.40625 
L 21 12.40625 
L 21 0 
L 10.6875 0 
z
" id="DejaVuSans-46"/>
      </defs>
      <g transform="translate(34.696875 303.450278)scale(0.1 -0.1)">
       <use xlink:href="#DejaVuSans-48"/>
       <use x="63.623047" xlink:href="#DejaVuSans-46"/>
       <use x="95.410156" xlink:href="#DejaVuSans-48"/>
      </g>
     </g>
    </g>
    <g id="ytick_2">
     <g id="line2d_8">
      <g>
       <use style="stroke:#000000;stroke-width:0.8;" x="57.6" xlink:href="#m18d4315ce5" y="253.394845"/>
      </g>
     </g>
     <g id="text_8">
      <!-- 0.1 -->
      <g transform="translate(34.696875 257.194064)scale(0.1 -0.1)">
       <use xlink:href="#DejaVuSans-48"/>
       <use x="63.623047" xlink:href="#DejaVuSans-46"/>
       <use x="95.410156" xlink:href="#DejaVuSans-49"/>
      </g>
     </g>
    </g>
    <g id="ytick_3">
     <g id="line2d_9">
      <g>
       <use style="stroke:#000000;stroke-width:0.8;" x="57.6" xlink:href="#m18d4315ce5" y="207.138631"/>
      </g>
     </g>
     <g id="text_9">
      <!-- 0.2 -->
      <g transform="translate(34.696875 210.93785)scale(0.1 -0.1)">
       <use xlink:href="#DejaVuSans-48"/>
       <use x="63.623047" xlink:href="#DejaVuSans-46"/>
       <use x="95.410156" xlink:href="#DejaVuSans-50"/>
      </g>
     </g>
    </g>
    <g id="ytick_4">
     <g id="line2d_10">
      <g>
       <use style="stroke:#000000;stroke-width:0.8;" x="57.6" xlink:href="#m18d4315ce5" y="160.882417"/>
      </g>
     </g>
     <g id="text_10">
      <!-- 0.3 -->
      <defs>
       <path d="M 40.578125 39.3125 
Q 47.65625 37.796875 51.625 33 
Q 55.609375 28.21875 55.609375 21.1875 
Q 55.609375 10.40625 48.1875 4.484375 
Q 40.765625 -1.421875 27.09375 -1.421875 
Q 22.515625 -1.421875 17.65625 -0.515625 
Q 12.796875 0.390625 7.625 2.203125 
L 7.625 11.71875 
Q 11.71875 9.328125 16.59375 8.109375 
Q 21.484375 6.890625 26.8125 6.890625 
Q 36.078125 6.890625 40.9375 10.546875 
Q 45.796875 14.203125 45.796875 21.1875 
Q 45.796875 27.640625 41.28125 31.265625 
Q 36.765625 34.90625 28.71875 34.90625 
L 20.21875 34.90625 
L 20.21875 43.015625 
L 29.109375 43.015625 
Q 36.375 43.015625 40.234375 45.921875 
Q 44.09375 48.828125 44.09375 54.296875 
Q 44.09375 59.90625 40.109375 62.90625 
Q 36.140625 65.921875 28.71875 65.921875 
Q 24.65625 65.921875 20.015625 65.03125 
Q 15.375 64.15625 9.8125 62.3125 
L 9.8125 71.09375 
Q 15.4375 72.65625 20.34375 73.4375 
Q 25.25 74.21875 29.59375 74.21875 
Q 40.828125 74.21875 47.359375 69.109375 
Q 53.90625 64.015625 53.90625 55.328125 
Q 53.90625 49.265625 50.4375 45.09375 
Q 46.96875 40.921875 40.578125 39.3125 
z
" id="DejaVuSans-51"/>
      </defs>
      <g transform="translate(34.696875 164.681636)scale(0.1 -0.1)">
       <use xlink:href="#DejaVuSans-48"/>
       <use x="63.623047" xlink:href="#DejaVuSans-46"/>
       <use x="95.410156" xlink:href="#DejaVuSans-51"/>
      </g>
     </g>
    </g>
    <g id="ytick_5">
     <g id="line2d_11">
      <g>
       <use style="stroke:#000000;stroke-width:0.8;" x="57.6" xlink:href="#m18d4315ce5" y="114.626203"/>
      </g>
     </g>
     <g id="text_11">
      <!-- 0.4 -->
      <g transform="translate(34.696875 118.425421)scale(0.1 -0.1)">
       <use xlink:href="#DejaVuSans-48"/>
       <use x="63.623047" xlink:href="#DejaVuSans-46"/>
       <use x="95.410156" xlink:href="#DejaVuSans-52"/>
      </g>
     </g>
    </g>
    <g id="ytick_6">
     <g id="line2d_12">
      <g>
       <use style="stroke:#000000;stroke-width:0.8;" x="57.6" xlink:href="#m18d4315ce5" y="68.369989"/>
      </g>
     </g>
     <g id="text_12">
      <!-- 0.5 -->
      <defs>
       <path d="M 10.796875 72.90625 
L 49.515625 72.90625 
L 49.515625 64.59375 
L 19.828125 64.59375 
L 19.828125 46.734375 
Q 21.96875 47.46875 24.109375 47.828125 
Q 26.265625 48.1875 28.421875 48.1875 
Q 40.625 48.1875 47.75 41.5 
Q 54.890625 34.8125 54.890625 23.390625 
Q 54.890625 11.625 47.5625 5.09375 
Q 40.234375 -1.421875 26.90625 -1.421875 
Q 22.3125 -1.421875 17.546875 -0.640625 
Q 12.796875 0.140625 7.71875 1.703125 
L 7.71875 11.625 
Q 12.109375 9.234375 16.796875 8.0625 
Q 21.484375 6.890625 26.703125 6.890625 
Q 35.15625 6.890625 40.078125 11.328125 
Q 45.015625 15.765625 45.015625 23.390625 
Q 45.015625 31 40.078125 35.4375 
Q 35.15625 39.890625 26.703125 39.890625 
Q 22.75 39.890625 18.8125 39.015625 
Q 14.890625 38.140625 10.796875 36.28125 
z
" id="DejaVuSans-53"/>
      </defs>
      <g transform="translate(34.696875 72.169207)scale(0.1 -0.1)">
       <use xlink:href="#DejaVuSans-48"/>
       <use x="63.623047" xlink:href="#DejaVuSans-46"/>
       <use x="95.410156" xlink:href="#DejaVuSans-53"/>
      </g>
     </g>
    </g>
   </g>
   <g id="line2d_13">
    <path clip-path="url(#p4fb1094bd4)" d="M 73.832727 295.025438 
L 74.157707 295.488 
L 74.807666 292.712627 
L 75.132645 289.474692 
L 75.457625 291.324941 
L 75.782604 290.399816 
L 76.107584 287.161881 
L 76.432563 286.699319 
L 76.757543 285.311633 
L 77.082523 286.699319 
L 77.407502 284.386509 
L 77.732482 284.849071 
L 78.057461 282.53626 
L 78.382441 282.073698 
L 78.70742 280.223449 
L 79.0324 280.223449 
L 79.682359 279.298325 
L 80.007338 278.373201 
L 80.332318 272.359893 
L 80.657297 276.522952 
L 80.982277 274.210141 
L 81.307256 270.972207 
L 81.632236 272.359893 
L 81.957215 269.58452 
L 82.282195 269.58452 
L 82.607174 268.659396 
L 82.932154 270.047082 
L 83.257133 267.734272 
L 83.907093 264.496337 
L 84.232072 265.421461 
L 84.557052 265.884023 
L 85.207011 263.10865 
L 85.53199 259.408153 
L 85.85697 260.333277 
L 86.181949 262.646088 
L 86.506929 261.720964 
L 86.831908 261.720964 
L 87.156888 256.63278 
L 87.481867 257.557904 
L 88.456806 252.932283 
L 88.781785 253.857407 
L 89.106765 254.319969 
L 89.431744 253.394845 
L 89.756724 251.082034 
L 90.081704 251.544597 
L 90.406683 249.694348 
L 90.731663 251.082034 
L 91.056642 247.844099 
L 91.381622 245.993851 
L 91.706601 247.381537 
L 92.031581 244.143602 
L 92.35656 245.068727 
L 92.68154 241.830792 
L 93.331499 246.456413 
L 93.656478 243.68104 
L 93.981458 242.755916 
L 94.306437 241.368229 
L 94.631417 243.218478 
L 94.956396 241.368229 
L 95.281376 243.218478 
L 95.606355 240.905667 
L 95.931335 240.443105 
L 96.256314 241.830792 
L 96.581294 239.517981 
L 96.906274 239.980543 
L 97.231253 236.742608 
L 97.556233 235.354922 
L 97.881212 234.892359 
L 98.206192 235.817484 
L 98.531171 237.20517 
L 99.18113 233.967235 
L 99.50611 230.7293 
L 99.831089 232.579549 
L 100.156069 232.116987 
L 100.481048 232.579549 
L 100.806028 234.892359 
L 101.131007 230.266738 
L 101.455987 230.7293 
L 101.780966 227.953927 
L 102.105946 228.416489 
L 102.755905 223.328306 
L 103.080885 222.865744 
L 103.405864 221.94062 
L 103.730844 218.702685 
L 104.055823 219.627809 
L 104.380803 221.94062 
L 105.030762 218.702685 
L 105.355741 218.702685 
L 105.680721 216.389874 
L 106.33068 218.240122 
L 106.655659 217.314998 
L 106.980639 211.30169 
L 107.630598 215.46475 
L 107.955577 216.389874 
L 108.280557 217.77756 
L 108.605536 215.002187 
L 108.930516 217.77756 
L 109.580475 214.539625 
L 109.905455 212.689377 
L 110.555414 211.764252 
L 110.880393 208.98888 
L 111.205373 212.689377 
L 111.530352 217.77756 
L 111.855332 208.98888 
L 112.180311 210.376566 
L 112.505291 203.438134 
L 112.83027 208.98888 
L 113.15525 208.526317 
L 113.480229 207.601193 
L 113.805209 202.050447 
L 114.130188 207.138631 
L 114.455168 202.050447 
L 114.780147 205.750945 
L 115.105127 200.662761 
L 115.430106 197.424826 
L 115.755086 202.975572 
L 116.080066 206.213507 
L 116.405045 203.438134 
L 116.730025 198.812512 
L 117.055004 201.125323 
L 117.379984 198.812512 
L 117.704963 201.587885 
L 118.029943 202.975572 
L 118.354922 199.737637 
L 118.679902 199.275075 
L 119.004881 196.962264 
L 119.329861 199.275075 
L 119.65484 197.424826 
L 119.97982 202.975572 
L 120.304799 196.03714 
L 120.629779 193.724329 
L 120.954758 196.03714 
L 121.279738 196.03714 
L 121.604717 193.724329 
L 122.254676 197.424826 
L 122.579656 191.87408 
L 122.904636 193.261767 
L 123.229615 195.574577 
L 123.554595 195.112015 
L 123.879574 196.499702 
L 124.204554 196.03714 
L 124.529533 192.336642 
L 124.854513 193.724329 
L 125.504472 189.098707 
L 125.829451 190.486394 
L 126.154431 196.03714 
L 126.47941 184.473086 
L 126.80439 189.56127 
L 127.129369 190.948956 
L 127.454349 190.486394 
L 127.779328 183.0854 
L 128.104308 184.473086 
L 128.429287 189.56127 
L 129.079247 178.459778 
L 129.404226 184.473086 
L 130.054185 180.310027 
L 130.379165 182.622837 
L 130.704144 183.547962 
L 131.029124 181.235151 
L 131.354103 181.697713 
L 132.004062 177.072092 
L 132.329042 180.772589 
L 132.654021 182.622837 
L 132.979001 182.622837 
L 133.30398 177.997216 
L 133.62896 178.92234 
L 133.953939 177.997216 
L 134.278919 178.92234 
L 134.603898 176.60953 
L 134.928878 179.847465 
L 135.253857 177.997216 
L 135.578837 180.310027 
L 135.903817 172.909033 
L 136.228796 173.371595 
L 136.878755 178.92234 
L 137.203735 177.534654 
L 137.528714 172.44647 
L 137.853694 174.759281 
L 138.503653 168.745973 
L 138.828632 172.44647 
L 139.153612 172.44647 
L 139.478591 171.983908 
L 139.803571 169.671098 
L 140.12855 172.909033 
L 140.45353 171.058784 
L 140.778509 166.895725 
L 141.103489 166.895725 
L 141.428468 171.058784 
L 141.753448 168.283411 
L 142.078428 166.895725 
L 142.403407 170.596222 
L 142.728387 171.521346 
L 143.053366 167.358287 
L 143.378346 166.895725 
L 143.703325 171.983908 
L 144.028305 163.195228 
L 144.353284 162.270103 
L 144.678264 167.358287 
L 145.003243 167.358287 
L 145.328223 166.433163 
L 145.653202 169.208535 
L 145.978182 163.195228 
L 146.303161 162.270103 
L 146.628141 164.582914 
L 146.95312 162.270103 
L 147.603079 161.344979 
L 147.928059 161.807541 
L 148.253038 163.65779 
L 148.578018 164.120352 
L 149.227977 161.807541 
L 149.552957 165.508038 
L 149.877936 161.807541 
L 150.202916 163.195228 
L 150.527895 159.032168 
L 150.852875 164.120352 
L 151.177854 162.270103 
L 151.502834 163.65779 
L 151.827813 160.419855 
L 152.152793 160.882417 
L 152.477772 158.569606 
L 152.802752 166.433163 
L 153.127731 159.032168 
L 153.452711 160.419855 
L 153.77769 156.719358 
L 154.10267 159.957293 
L 154.427649 152.556298 
L 154.752629 152.556298 
L 155.077609 157.18192 
L 155.402588 159.49473 
L 155.727568 159.49473 
L 156.052547 156.256795 
L 156.377527 157.18192 
L 156.702506 157.644482 
L 157.027486 155.331671 
L 157.352465 153.943985 
L 157.677445 147.930677 
L 158.002424 150.70605 
L 158.327404 154.869109 
L 158.652383 151.631174 
L 158.977363 155.331671 
L 159.627322 151.631174 
L 159.952301 151.168612 
L 160.277281 152.093736 
L 160.60226 148.855801 
L 160.92724 157.644482 
L 161.252219 149.318363 
L 161.577199 151.168612 
L 161.902179 152.093736 
L 162.227158 151.631174 
L 162.552138 150.243488 
L 162.877117 153.01886 
L 163.202097 148.855801 
L 163.527076 147.468115 
L 163.852056 147.930677 
L 164.177035 149.318363 
L 164.502015 147.930677 
L 164.826994 149.318363 
L 165.151974 145.155304 
L 165.476953 148.393239 
L 165.801933 145.155304 
L 166.126912 150.70605 
L 166.451892 151.631174 
L 166.776871 148.393239 
L 167.101851 148.855801 
L 167.42683 144.692742 
L 167.75181 142.379931 
L 168.07679 144.23018 
L 168.401769 147.930677 
L 168.726749 142.379931 
L 169.051728 150.70605 
L 169.376708 140.992245 
L 169.701687 150.243488 
L 170.026667 143.305055 
L 170.351646 143.767618 
L 170.676626 150.243488 
L 171.001605 145.617866 
L 171.326585 143.767618 
L 171.651564 144.23018 
L 171.976544 148.855801 
L 172.301523 143.767618 
L 172.626503 144.23018 
L 172.951482 147.468115 
L 173.276462 143.305055 
L 173.601441 141.917369 
L 173.926421 141.917369 
L 174.2514 143.767618 
L 174.90136 144.692742 
L 175.226339 142.842493 
L 175.551319 138.216872 
L 175.876298 145.155304 
L 176.201278 138.216872 
L 176.526257 138.216872 
L 176.851237 144.23018 
L 177.176216 138.216872 
L 177.501196 140.992245 
L 177.826175 136.366623 
L 178.151155 140.992245 
L 178.476134 139.604558 
L 178.801114 143.767618 
L 179.126093 135.904061 
L 179.451073 136.366623 
L 179.776052 140.529683 
L 180.101032 137.291748 
L 180.426011 144.692742 
L 180.750991 138.216872 
L 181.075971 139.141996 
L 181.40095 136.829185 
L 181.72593 140.529683 
L 182.050909 140.529683 
L 182.700868 138.216872 
L 183.025848 140.529683 
L 183.350827 134.053813 
L 183.675807 140.992245 
L 184.000786 131.741002 
L 184.325766 138.216872 
L 184.650745 139.141996 
L 184.975725 135.904061 
L 185.300704 134.516375 
L 185.625684 131.741002 
L 185.950663 140.992245 
L 186.275643 140.06712 
L 186.600622 129.890753 
L 186.925602 135.441499 
L 187.250581 128.503067 
L 187.575561 134.516375 
L 187.900541 136.829185 
L 188.22552 132.666126 
L 188.5505 132.666126 
L 188.875479 133.59125 
L 189.200459 130.815878 
L 189.525438 134.053813 
L 189.850418 134.978937 
L 190.500377 129.428191 
L 190.825356 129.428191 
L 191.150336 132.666126 
L 191.475315 142.379931 
L 191.800295 130.815878 
L 192.125274 134.053813 
L 192.450254 132.203564 
L 192.775233 132.666126 
L 193.100213 129.428191 
L 193.425192 131.27844 
L 193.750172 134.053813 
L 194.075152 128.040505 
L 194.400131 129.428191 
L 194.725111 125.265132 
L 195.05009 126.652818 
L 195.37507 126.652818 
L 195.700049 125.265132 
L 196.025029 128.503067 
L 196.350008 128.503067 
L 196.674988 128.965629 
L 196.999967 128.040505 
L 197.324947 125.727694 
L 197.649926 128.040505 
L 197.974906 124.340008 
L 198.299885 124.80257 
L 198.624865 126.190256 
L 198.949844 126.190256 
L 199.274824 134.516375 
L 199.599803 124.340008 
L 199.924783 126.190256 
L 200.249762 124.340008 
L 200.574742 129.428191 
L 200.899722 123.877446 
L 201.224701 127.577943 
L 201.549681 120.639511 
L 201.87466 124.80257 
L 202.19964 130.815878 
L 202.524619 125.727694 
L 202.849599 124.80257 
L 203.174578 125.265132 
L 203.499558 129.428191 
L 203.824537 122.489759 
L 204.149517 120.176948 
L 204.474496 125.727694 
L 204.799476 123.414883 
L 205.124455 125.265132 
L 205.449435 125.265132 
L 205.774414 122.952321 
L 206.099394 128.040505 
L 206.424373 121.102073 
L 206.749353 122.489759 
L 207.074333 126.190256 
L 207.399312 117.864138 
L 207.724292 122.489759 
L 208.049271 124.80257 
L 208.374251 125.727694 
L 208.69923 124.340008 
L 209.02421 121.564635 
L 209.674169 128.503067 
L 209.999148 117.401576 
L 210.324128 123.877446 
L 210.649107 125.727694 
L 210.974087 123.414883 
L 211.299066 119.714386 
L 211.624046 132.203564 
L 211.949025 125.265132 
L 212.274005 124.80257 
L 212.598984 123.414883 
L 212.923964 128.503067 
L 213.248943 120.176948 
L 213.573923 123.877446 
L 213.898903 118.3267 
L 214.223882 120.176948 
L 214.548862 115.551327 
L 214.873841 117.864138 
L 215.198821 123.414883 
L 215.5238 117.864138 
L 215.84878 118.789262 
L 216.173759 114.626203 
L 216.498739 119.251824 
L 216.823718 119.714386 
L 217.148698 118.3267 
L 217.473677 122.489759 
L 217.798657 117.864138 
L 218.123636 120.176948 
L 218.448616 116.013889 
L 218.773595 118.3267 
L 219.423554 120.176948 
L 219.748534 118.3267 
L 220.073514 122.027197 
L 220.723473 114.163641 
L 221.048452 116.939013 
L 221.373432 115.088765 
L 221.698411 120.639511 
L 222.023391 116.013889 
L 222.34837 119.714386 
L 222.67335 115.551327 
L 222.998329 118.789262 
L 223.323309 115.088765 
L 223.648288 121.102073 
L 223.973268 116.939013 
L 224.298247 116.013889 
L 224.623227 111.85083 
L 224.948206 114.163641 
L 225.273186 117.401576 
L 225.598165 119.251824 
L 225.923145 112.775954 
L 226.248124 116.476451 
L 226.573104 112.775954 
L 226.898084 118.789262 
L 227.223063 117.864138 
L 227.548043 116.013889 
L 227.873022 118.789262 
L 228.198002 113.238516 
L 228.522981 111.388268 
L 229.17294 117.864138 
L 229.49792 111.85083 
L 229.822899 116.476451 
L 230.147879 114.163641 
L 230.472858 119.714386 
L 230.797838 113.238516 
L 231.122817 114.163641 
L 231.447797 109.538019 
L 231.772776 115.551327 
L 232.097756 116.939013 
L 232.422735 114.626203 
L 232.747715 114.626203 
L 233.072695 112.775954 
L 233.397674 115.088765 
L 233.722654 112.775954 
L 234.047633 111.85083 
L 234.372613 116.476451 
L 234.697592 114.163641 
L 235.022572 115.551327 
L 235.347551 111.85083 
L 235.672531 114.626203 
L 235.99751 113.701078 
L 236.32249 111.388268 
L 236.647469 113.701078 
L 236.972449 113.701078 
L 237.297428 114.163641 
L 237.947387 110.000581 
L 238.597346 109.075457 
L 238.922326 111.85083 
L 239.247305 112.775954 
L 239.572285 109.538019 
L 239.897265 107.687771 
L 240.222244 107.225208 
L 240.547224 107.687771 
L 240.872203 109.538019 
L 241.197183 113.701078 
L 241.522162 107.687771 
L 241.847142 115.088765 
L 242.172121 108.612895 
L 242.82208 105.837522 
L 243.14706 116.939013 
L 243.472039 106.762646 
L 243.797019 108.150333 
L 244.121998 101.211901 
L 244.446978 111.85083 
L 244.771957 110.925706 
L 245.096937 113.701078 
L 245.421916 111.85083 
L 245.746896 109.075457 
L 246.071876 109.538019 
L 246.396855 107.687771 
L 246.721835 101.674463 
L 247.046814 108.150333 
L 247.371794 105.837522 
L 247.696773 108.150333 
L 248.021753 111.388268 
L 248.346732 103.524711 
L 248.996691 110.463143 
L 249.321671 103.062149 
L 249.64665 113.238516 
L 249.97163 107.687771 
L 250.296609 104.912398 
L 250.621589 106.762646 
L 250.946568 100.749338 
L 251.271548 107.687771 
L 251.596527 104.912398 
L 252.246486 109.075457 
L 252.571466 109.538019 
L 252.896446 103.524711 
L 253.221425 100.749338 
L 253.546405 103.062149 
L 254.196364 108.612895 
L 254.521343 103.987273 
L 254.846323 106.300084 
L 255.171302 105.37496 
L 255.496282 103.987273 
L 255.821261 108.612895 
L 256.146241 100.749338 
L 256.47122 103.987273 
L 256.7962 100.749338 
L 257.121179 104.912398 
L 257.446159 103.987273 
L 257.771138 99.361652 
L 258.096118 108.612895 
L 258.421097 99.361652 
L 259.071057 103.062149 
L 259.396036 106.762646 
L 259.721016 100.749338 
L 260.045995 103.524711 
L 260.370975 101.211901 
L 260.695954 104.912398 
L 261.020934 98.436528 
L 261.345913 103.062149 
L 261.670893 101.674463 
L 261.995872 102.599587 
L 262.320852 101.674463 
L 262.645831 101.211901 
L 262.970811 101.674463 
L 263.29579 103.987273 
L 263.62077 104.912398 
L 263.945749 95.198593 
L 264.270729 103.524711 
L 264.595708 103.062149 
L 264.920688 96.123717 
L 265.570647 100.286776 
L 265.895627 99.824214 
L 266.220606 98.89909 
L 266.545586 96.123717 
L 266.870565 97.973966 
L 267.195545 98.436528 
L 267.520524 94.273468 
L 268.170483 99.361652 
L 268.495463 94.736031 
L 268.820442 98.436528 
L 269.145422 91.498096 
L 269.795381 101.211901 
L 270.12036 101.674463 
L 270.44534 96.123717 
L 270.770319 100.749338 
L 271.095299 103.524711 
L 271.420278 99.361652 
L 271.745258 99.824214 
L 272.070238 94.736031 
L 272.395217 96.123717 
L 272.720197 94.736031 
L 273.045176 99.824214 
L 273.370156 97.511403 
L 273.695135 103.062149 
L 274.020115 93.810906 
L 274.670074 101.211901 
L 274.995053 94.273468 
L 275.320033 97.511403 
L 275.645012 98.436528 
L 275.969992 95.661155 
L 276.294971 97.973966 
L 277.26991 94.273468 
L 277.594889 97.973966 
L 278.244848 91.960658 
L 278.569828 97.973966 
L 278.894808 92.42322 
L 279.219787 96.586279 
L 279.544767 91.035533 
L 279.869746 93.810906 
L 280.194726 94.273468 
L 280.519705 97.973966 
L 280.844685 89.647847 
L 281.169664 96.123717 
L 281.494644 97.973966 
L 281.819623 90.572971 
L 282.469582 95.661155 
L 282.794562 87.335036 
L 283.119541 96.123717 
L 283.444521 96.586279 
L 283.7695 88.260161 
L 284.09448 87.335036 
L 284.419459 97.973966 
L 284.744439 91.498096 
L 285.069419 96.586279 
L 285.394398 94.273468 
L 285.719378 97.511403 
L 286.044357 102.137025 
L 286.369337 92.42322 
L 286.694316 88.260161 
L 287.019296 96.586279 
L 287.344275 90.572971 
L 287.669255 93.348344 
L 287.994234 88.260161 
L 288.644193 92.42322 
L 288.969173 89.185285 
L 289.294152 96.586279 
L 289.619132 94.273468 
L 289.944111 94.273468 
L 290.269091 92.885782 
L 290.59407 94.736031 
L 290.91905 87.335036 
L 291.244029 94.736031 
L 291.569009 86.409912 
L 291.893989 87.797598 
L 292.218968 93.348344 
L 292.543948 93.348344 
L 292.868927 85.94735 
L 293.193907 87.335036 
L 293.518886 87.797598 
L 293.843866 93.348344 
L 294.168845 85.484788 
L 294.493825 89.185285 
L 294.818804 91.035533 
L 295.143784 81.784291 
L 295.468763 90.572971 
L 295.793743 90.572971 
L 296.118722 93.810906 
L 296.443702 86.872474 
L 296.768681 89.185285 
L 297.093661 82.246853 
L 297.41864 87.335036 
L 297.74362 90.110409 
L 298.0686 90.110409 
L 298.393579 86.872474 
L 298.718559 86.872474 
L 299.043538 82.246853 
L 299.368518 91.960658 
L 299.693497 88.260161 
L 300.018477 94.273468 
L 300.343456 91.035533 
L 300.668436 86.409912 
L 301.318395 86.409912 
L 301.643374 84.097101 
L 301.968354 85.022226 
L 302.293333 85.022226 
L 302.943292 91.035533 
L 303.268272 86.872474 
L 303.593251 86.872474 
L 303.918231 91.498096 
L 304.56819 83.171977 
L 304.89317 88.260161 
L 305.218149 78.083793 
L 305.543129 93.348344 
L 305.868108 78.546356 
L 306.193088 84.097101 
L 306.843047 88.722723 
L 307.168026 88.260161 
L 307.493006 82.709415 
L 307.817985 88.260161 
L 308.142965 81.321728 
L 308.792924 87.797598 
L 309.117903 81.784291 
L 309.442883 91.035533 
L 309.767862 89.185285 
L 310.417821 88.260161 
L 310.742801 84.559663 
L 311.067781 76.696107 
L 311.39276 87.797598 
L 311.71774 85.022226 
L 312.042719 83.634539 
L 312.367699 84.097101 
L 312.692678 84.097101 
L 313.017658 83.171977 
L 313.342637 79.47148 
L 313.667617 83.634539 
L 313.992596 79.47148 
L 314.317576 86.409912 
L 314.642555 82.246853 
L 314.967535 74.845859 
L 315.292514 84.097101 
L 315.617494 81.321728 
L 315.942473 87.335036 
L 316.267453 85.022226 
L 316.592432 84.559663 
L 316.917412 89.185285 
L 317.242391 79.47148 
L 317.567371 87.797598 
L 317.892351 86.409912 
L 318.54231 79.47148 
L 318.867289 79.47148 
L 319.192269 80.396604 
L 319.517248 82.709415 
L 319.842228 73.920734 
L 320.492187 80.396604 
L 320.817166 79.934042 
L 321.142146 87.335036 
L 321.467125 82.709415 
L 321.792105 76.233545 
L 322.117084 89.647847 
L 322.442064 83.634539 
L 322.767043 81.321728 
L 323.092023 79.934042 
L 323.741982 84.097101 
L 324.066962 80.396604 
L 324.391941 78.546356 
L 324.716921 79.47148 
L 325.0419 82.709415 
L 325.36688 79.47148 
L 325.691859 85.022226 
L 326.016839 83.634539 
L 326.341818 80.396604 
L 326.666798 81.321728 
L 326.991777 85.022226 
L 327.316757 79.47148 
L 327.641736 79.008918 
L 327.966716 79.008918 
L 328.291695 79.934042 
L 328.616675 75.308421 
L 328.941654 81.321728 
L 329.266634 77.158669 
L 329.591613 78.083793 
L 329.916593 85.022226 
L 330.241572 76.233545 
L 330.566552 81.321728 
L 330.891532 77.158669 
L 331.216511 75.770983 
L 331.541491 75.770983 
L 331.86647 74.845859 
L 332.19145 76.233545 
L 332.516429 81.784291 
L 333.166388 79.934042 
L 333.491368 76.696107 
L 333.816347 79.47148 
L 334.141327 79.934042 
L 334.466306 72.533048 
L 334.791286 83.634539 
L 335.116265 73.920734 
L 335.441245 79.008918 
L 335.766224 72.533048 
L 336.091204 77.621231 
L 336.416183 77.621231 
L 336.741163 71.607924 
L 337.066143 71.607924 
L 337.391122 70.682799 
L 337.716102 78.546356 
L 338.041081 79.47148 
L 338.366061 79.008918 
L 338.69104 79.934042 
L 339.01602 75.308421 
L 339.340999 75.770983 
L 339.665979 70.220237 
L 339.990958 78.546356 
L 340.315938 76.233545 
L 340.640917 78.083793 
L 340.965897 76.233545 
L 341.615856 78.083793 
L 341.940835 78.083793 
L 342.265815 73.920734 
L 342.590794 75.770983 
L 342.915774 70.220237 
L 343.240753 72.070486 
L 343.565733 77.621231 
L 343.890713 79.47148 
L 344.215692 74.845859 
L 344.540672 72.070486 
L 344.865651 70.682799 
L 345.190631 76.233545 
L 345.51561 72.070486 
L 345.84059 77.621231 
L 346.165569 69.757675 
L 346.490549 77.158669 
L 346.815528 71.145361 
L 347.140508 75.308421 
L 347.465487 76.696107 
L 347.790467 71.145361 
L 348.115446 74.845859 
L 348.440426 69.295113 
L 348.765405 73.920734 
L 349.090385 75.770983 
L 349.415364 75.308421 
L 349.740344 69.295113 
L 350.065324 72.070486 
L 350.390303 65.594616 
L 350.715283 79.47148 
L 351.040262 66.51974 
L 351.365242 72.070486 
L 352.015201 70.220237 
L 352.34018 70.220237 
L 352.66516 73.458172 
L 352.990139 72.533048 
L 353.315119 75.308421 
L 353.640098 74.383296 
L 353.965078 72.99561 
L 354.290057 73.458172 
L 354.615037 66.057178 
L 354.940016 66.982302 
L 355.264996 67.444864 
L 355.589975 73.458172 
L 355.914955 67.444864 
L 356.239934 74.383296 
L 356.564914 70.220237 
L 356.889894 72.99561 
L 357.214873 68.369989 
L 357.539853 66.982302 
L 357.864832 71.145361 
L 358.189812 63.744367 
L 358.839771 70.682799 
L 359.16475 68.369989 
L 359.48973 66.982302 
L 360.139689 73.458172 
L 360.464668 68.832551 
L 360.789648 72.070486 
L 361.114627 70.682799 
L 361.439607 68.369989 
L 361.764586 74.383296 
L 362.089566 63.744367 
L 362.414545 69.295113 
L 362.739525 72.070486 
L 363.064505 66.057178 
L 363.389484 68.369989 
L 363.714464 68.832551 
L 364.039443 67.907426 
L 364.364423 70.682799 
L 364.689402 71.145361 
L 365.014382 61.431556 
L 365.339361 70.220237 
L 365.664341 68.369989 
L 365.98932 72.533048 
L 366.639279 65.132054 
L 366.964259 68.832551 
L 367.614218 65.594616 
L 367.939197 69.295113 
L 368.264177 76.696107 
L 368.914136 65.132054 
L 369.239115 76.696107 
L 369.564095 74.383296 
L 369.889075 65.594616 
L 370.214054 67.444864 
L 370.539034 67.907426 
L 370.864013 68.832551 
L 371.188993 67.907426 
L 371.513972 63.281805 
L 371.838952 72.533048 
L 372.163931 68.832551 
L 372.488911 71.145361 
L 372.81389 64.206929 
L 373.13887 71.145361 
L 373.463849 73.920734 
L 373.788829 63.281805 
L 374.113808 66.057178 
L 374.438788 65.132054 
L 374.763767 66.057178 
L 375.088747 66.057178 
L 375.413726 72.99561 
L 375.738706 69.757675 
L 376.063686 67.907426 
L 376.388665 63.281805 
L 376.713645 63.744367 
L 377.038624 70.682799 
L 377.363604 66.057178 
L 377.688583 66.51974 
L 378.013563 62.819243 
L 378.338542 65.594616 
L 378.663522 66.057178 
L 378.988501 71.145361 
L 379.313481 59.581308 
L 379.63846 64.206929 
L 379.96344 66.057178 
L 380.288419 66.51974 
L 380.613399 60.04387 
L 381.263358 71.607924 
L 381.588337 62.819243 
L 381.913317 64.206929 
L 382.238296 62.819243 
L 382.563276 62.819243 
L 382.888256 65.594616 
L 383.213235 65.132054 
L 383.538215 67.444864 
L 383.863194 72.070486 
L 384.513153 61.431556 
L 384.838133 64.206929 
L 385.163112 59.118746 
L 385.813071 63.744367 
L 386.138051 64.206929 
L 386.46303 66.982302 
L 386.78801 64.206929 
L 387.437969 67.444864 
L 387.762948 65.594616 
L 388.087928 68.832551 
L 388.412907 61.431556 
L 388.737887 65.132054 
L 389.062867 61.431556 
L 389.387846 62.819243 
L 389.712826 60.968994 
L 390.037805 61.894119 
L 390.362785 64.669491 
L 391.012744 59.118746 
L 391.662703 66.057178 
L 391.987682 64.206929 
L 392.312662 65.594616 
L 392.962621 62.356681 
L 393.2876 64.669491 
L 393.61258 55.418249 
L 393.937559 63.744367 
L 394.262539 60.968994 
L 394.587518 64.206929 
L 394.912498 69.757675 
L 395.237477 63.281805 
L 395.562457 65.132054 
L 395.887437 64.669491 
L 396.212416 62.356681 
L 396.537396 62.356681 
L 396.862375 67.444864 
L 397.512334 53.568 
L 398.162293 60.506432 
L 398.487273 58.656184 
L 398.487273 58.656184 
" style="fill:none;stroke:#1f77b4;stroke-linecap:square;stroke-width:1.5;"/>
   </g>
   <g id="patch_3">
    <path d="M 57.6 307.584 
L 57.6 41.472 
" style="fill:none;stroke:#000000;stroke-linecap:square;stroke-linejoin:miter;stroke-width:0.8;"/>
   </g>
   <g id="patch_4">
    <path d="M 414.72 307.584 
L 414.72 41.472 
" style="fill:none;stroke:#000000;stroke-linecap:square;stroke-linejoin:miter;stroke-width:0.8;"/>
   </g>
   <g id="patch_5">
    <path d="M 57.6 307.584 
L 414.72 307.584 
" style="fill:none;stroke:#000000;stroke-linecap:square;stroke-linejoin:miter;stroke-width:0.8;"/>
   </g>
   <g id="patch_6">
    <path d="M 57.6 41.472 
L 414.72 41.472 
" style="fill:none;stroke:#000000;stroke-linecap:square;stroke-linejoin:miter;stroke-width:0.8;"/>
   </g>
   <g id="text_13">
    <!-- % Optimal Action -->
    <defs>
     <path d="M 72.703125 32.078125 
Q 68.453125 32.078125 66.03125 28.46875 
Q 63.625 24.859375 63.625 18.40625 
Q 63.625 12.0625 66.03125 8.421875 
Q 68.453125 4.78125 72.703125 4.78125 
Q 76.859375 4.78125 79.265625 8.421875 
Q 81.6875 12.0625 81.6875 18.40625 
Q 81.6875 24.8125 79.265625 28.4375 
Q 76.859375 32.078125 72.703125 32.078125 
z
M 72.703125 38.28125 
Q 80.421875 38.28125 84.953125 32.90625 
Q 89.5 27.546875 89.5 18.40625 
Q 89.5 9.28125 84.9375 3.921875 
Q 80.375 -1.421875 72.703125 -1.421875 
Q 64.890625 -1.421875 60.34375 3.921875 
Q 55.8125 9.28125 55.8125 18.40625 
Q 55.8125 27.59375 60.375 32.9375 
Q 64.9375 38.28125 72.703125 38.28125 
z
M 22.3125 68.015625 
Q 18.109375 68.015625 15.6875 64.375 
Q 13.28125 60.75 13.28125 54.390625 
Q 13.28125 47.953125 15.671875 44.328125 
Q 18.0625 40.71875 22.3125 40.71875 
Q 26.5625 40.71875 28.96875 44.328125 
Q 31.390625 47.953125 31.390625 54.390625 
Q 31.390625 60.6875 28.953125 64.34375 
Q 26.515625 68.015625 22.3125 68.015625 
z
M 66.40625 74.21875 
L 74.21875 74.21875 
L 28.609375 -1.421875 
L 20.796875 -1.421875 
z
M 22.3125 74.21875 
Q 30.03125 74.21875 34.609375 68.875 
Q 39.203125 63.53125 39.203125 54.390625 
Q 39.203125 45.171875 34.640625 39.84375 
Q 30.078125 34.515625 22.3125 34.515625 
Q 14.546875 34.515625 10.03125 39.859375 
Q 5.515625 45.21875 5.515625 54.390625 
Q 5.515625 63.484375 10.046875 68.84375 
Q 14.59375 74.21875 22.3125 74.21875 
z
" id="DejaVuSans-37"/>
     <path id="DejaVuSans-32"/>
     <path d="M 39.40625 66.21875 
Q 28.65625 66.21875 22.328125 58.203125 
Q 16.015625 50.203125 16.015625 36.375 
Q 16.015625 22.609375 22.328125 14.59375 
Q 28.65625 6.59375 39.40625 6.59375 
Q 50.140625 6.59375 56.421875 14.59375 
Q 62.703125 22.609375 62.703125 36.375 
Q 62.703125 50.203125 56.421875 58.203125 
Q 50.140625 66.21875 39.40625 66.21875 
z
M 39.40625 74.21875 
Q 54.734375 74.21875 63.90625 63.9375 
Q 73.09375 53.65625 73.09375 36.375 
Q 73.09375 19.140625 63.90625 8.859375 
Q 54.734375 -1.421875 39.40625 -1.421875 
Q 24.03125 -1.421875 14.8125 8.828125 
Q 5.609375 19.09375 5.609375 36.375 
Q 5.609375 53.65625 14.8125 63.9375 
Q 24.03125 74.21875 39.40625 74.21875 
z
" id="DejaVuSans-79"/>
     <path d="M 18.109375 8.203125 
L 18.109375 -20.796875 
L 9.078125 -20.796875 
L 9.078125 54.6875 
L 18.109375 54.6875 
L 18.109375 46.390625 
Q 20.953125 51.265625 25.265625 53.625 
Q 29.59375 56 35.59375 56 
Q 45.5625 56 51.78125 48.09375 
Q 58.015625 40.1875 58.015625 27.296875 
Q 58.015625 14.40625 51.78125 6.484375 
Q 45.5625 -1.421875 35.59375 -1.421875 
Q 29.59375 -1.421875 25.265625 0.953125 
Q 20.953125 3.328125 18.109375 8.203125 
z
M 48.6875 27.296875 
Q 48.6875 37.203125 44.609375 42.84375 
Q 40.53125 48.484375 33.40625 48.484375 
Q 26.265625 48.484375 22.1875 42.84375 
Q 18.109375 37.203125 18.109375 27.296875 
Q 18.109375 17.390625 22.1875 11.75 
Q 26.265625 6.109375 33.40625 6.109375 
Q 40.53125 6.109375 44.609375 11.75 
Q 48.6875 17.390625 48.6875 27.296875 
z
" id="DejaVuSans-112"/>
     <path d="M 18.3125 70.21875 
L 18.3125 54.6875 
L 36.8125 54.6875 
L 36.8125 47.703125 
L 18.3125 47.703125 
L 18.3125 18.015625 
Q 18.3125 11.328125 20.140625 9.421875 
Q 21.96875 7.515625 27.59375 7.515625 
L 36.8125 7.515625 
L 36.8125 0 
L 27.59375 0 
Q 17.1875 0 13.234375 3.875 
Q 9.28125 7.765625 9.28125 18.015625 
L 9.28125 47.703125 
L 2.6875 47.703125 
L 2.6875 54.6875 
L 9.28125 54.6875 
L 9.28125 70.21875 
z
" id="DejaVuSans-116"/>
     <path d="M 9.421875 54.6875 
L 18.40625 54.6875 
L 18.40625 0 
L 9.421875 0 
z
M 9.421875 75.984375 
L 18.40625 75.984375 
L 18.40625 64.59375 
L 9.421875 64.59375 
z
" id="DejaVuSans-105"/>
     <path d="M 52 44.1875 
Q 55.375 50.25 60.0625 53.125 
Q 64.75 56 71.09375 56 
Q 79.640625 56 84.28125 50.015625 
Q 88.921875 44.046875 88.921875 33.015625 
L 88.921875 0 
L 79.890625 0 
L 79.890625 32.71875 
Q 79.890625 40.578125 77.09375 44.375 
Q 74.3125 48.1875 68.609375 48.1875 
Q 61.625 48.1875 57.5625 43.546875 
Q 53.515625 38.921875 53.515625 30.90625 
L 53.515625 0 
L 44.484375 0 
L 44.484375 32.71875 
Q 44.484375 40.625 41.703125 44.40625 
Q 38.921875 48.1875 33.109375 48.1875 
Q 26.21875 48.1875 22.15625 43.53125 
Q 18.109375 38.875 18.109375 30.90625 
L 18.109375 0 
L 9.078125 0 
L 9.078125 54.6875 
L 18.109375 54.6875 
L 18.109375 46.1875 
Q 21.1875 51.21875 25.484375 53.609375 
Q 29.78125 56 35.6875 56 
Q 41.65625 56 45.828125 52.96875 
Q 50 49.953125 52 44.1875 
z
" id="DejaVuSans-109"/>
     <path d="M 34.28125 27.484375 
Q 23.390625 27.484375 19.1875 25 
Q 14.984375 22.515625 14.984375 16.5 
Q 14.984375 11.71875 18.140625 8.90625 
Q 21.296875 6.109375 26.703125 6.109375 
Q 34.1875 6.109375 38.703125 11.40625 
Q 43.21875 16.703125 43.21875 25.484375 
L 43.21875 27.484375 
z
M 52.203125 31.203125 
L 52.203125 0 
L 43.21875 0 
L 43.21875 8.296875 
Q 40.140625 3.328125 35.546875 0.953125 
Q 30.953125 -1.421875 24.3125 -1.421875 
Q 15.921875 -1.421875 10.953125 3.296875 
Q 6 8.015625 6 15.921875 
Q 6 25.140625 12.171875 29.828125 
Q 18.359375 34.515625 30.609375 34.515625 
L 43.21875 34.515625 
L 43.21875 35.40625 
Q 43.21875 41.609375 39.140625 45 
Q 35.0625 48.390625 27.6875 48.390625 
Q 23 48.390625 18.546875 47.265625 
Q 14.109375 46.140625 10.015625 43.890625 
L 10.015625 52.203125 
Q 14.9375 54.109375 19.578125 55.046875 
Q 24.21875 56 28.609375 56 
Q 40.484375 56 46.34375 49.84375 
Q 52.203125 43.703125 52.203125 31.203125 
z
" id="DejaVuSans-97"/>
     <path d="M 9.421875 75.984375 
L 18.40625 75.984375 
L 18.40625 0 
L 9.421875 0 
z
" id="DejaVuSans-108"/>
     <path d="M 34.1875 63.1875 
L 20.796875 26.90625 
L 47.609375 26.90625 
z
M 28.609375 72.90625 
L 39.796875 72.90625 
L 67.578125 0 
L 57.328125 0 
L 50.6875 18.703125 
L 17.828125 18.703125 
L 11.1875 0 
L 0.78125 0 
z
" id="DejaVuSans-65"/>
     <path d="M 48.78125 52.59375 
L 48.78125 44.1875 
Q 44.96875 46.296875 41.140625 47.34375 
Q 37.3125 48.390625 33.40625 48.390625 
Q 24.65625 48.390625 19.8125 42.84375 
Q 14.984375 37.3125 14.984375 27.296875 
Q 14.984375 17.28125 19.8125 11.734375 
Q 24.65625 6.203125 33.40625 6.203125 
Q 37.3125 6.203125 41.140625 7.25 
Q 44.96875 8.296875 48.78125 10.40625 
L 48.78125 2.09375 
Q 45.015625 0.34375 40.984375 -0.53125 
Q 36.96875 -1.421875 32.421875 -1.421875 
Q 20.0625 -1.421875 12.78125 6.34375 
Q 5.515625 14.109375 5.515625 27.296875 
Q 5.515625 40.671875 12.859375 48.328125 
Q 20.21875 56 33.015625 56 
Q 37.15625 56 41.109375 55.140625 
Q 45.0625 54.296875 48.78125 52.59375 
z
" id="DejaVuSans-99"/>
     <path d="M 30.609375 48.390625 
Q 23.390625 48.390625 19.1875 42.75 
Q 14.984375 37.109375 14.984375 27.296875 
Q 14.984375 17.484375 19.15625 11.84375 
Q 23.34375 6.203125 30.609375 6.203125 
Q 37.796875 6.203125 41.984375 11.859375 
Q 46.1875 17.53125 46.1875 27.296875 
Q 46.1875 37.015625 41.984375 42.703125 
Q 37.796875 48.390625 30.609375 48.390625 
z
M 30.609375 56 
Q 42.328125 56 49.015625 48.375 
Q 55.71875 40.765625 55.71875 27.296875 
Q 55.71875 13.875 49.015625 6.21875 
Q 42.328125 -1.421875 30.609375 -1.421875 
Q 18.84375 -1.421875 12.171875 6.21875 
Q 5.515625 13.875 5.515625 27.296875 
Q 5.515625 40.765625 12.171875 48.375 
Q 18.84375 56 30.609375 56 
z
" id="DejaVuSans-111"/>
     <path d="M 54.890625 33.015625 
L 54.890625 0 
L 45.90625 0 
L 45.90625 32.71875 
Q 45.90625 40.484375 42.875 44.328125 
Q 39.84375 48.1875 33.796875 48.1875 
Q 26.515625 48.1875 22.3125 43.546875 
Q 18.109375 38.921875 18.109375 30.90625 
L 18.109375 0 
L 9.078125 0 
L 9.078125 54.6875 
L 18.109375 54.6875 
L 18.109375 46.1875 
Q 21.34375 51.125 25.703125 53.5625 
Q 30.078125 56 35.796875 56 
Q 45.21875 56 50.046875 50.171875 
Q 54.890625 44.34375 54.890625 33.015625 
z
" id="DejaVuSans-110"/>
    </defs>
    <g transform="translate(184.010625 35.472)scale(0.12 -0.12)">
     <use xlink:href="#DejaVuSans-37"/>
     <use x="95.019531" xlink:href="#DejaVuSans-32"/>
     <use x="126.806641" xlink:href="#DejaVuSans-79"/>
     <use x="205.517578" xlink:href="#DejaVuSans-112"/>
     <use x="268.994141" xlink:href="#DejaVuSans-116"/>
     <use x="308.203125" xlink:href="#DejaVuSans-105"/>
     <use x="335.986328" xlink:href="#DejaVuSans-109"/>
     <use x="433.398438" xlink:href="#DejaVuSans-97"/>
     <use x="494.677734" xlink:href="#DejaVuSans-108"/>
     <use x="522.460938" xlink:href="#DejaVuSans-32"/>
     <use x="554.248047" xlink:href="#DejaVuSans-65"/>
     <use x="622.640625" xlink:href="#DejaVuSans-99"/>
     <use x="677.621094" xlink:href="#DejaVuSans-116"/>
     <use x="716.830078" xlink:href="#DejaVuSans-105"/>
     <use x="744.613281" xlink:href="#DejaVuSans-111"/>
     <use x="805.794922" xlink:href="#DejaVuSans-110"/>
    </g>
   </g>
  </g>
 </g>
 <defs>
  <clipPath id="p4fb1094bd4">
   <rect height="266.112" width="357.12" x="57.6" y="41.472"/>
  </clipPath>
 </defs>
</svg>
