<?xml version="1.0" encoding="utf-8" standalone="no"?>
<!DOCTYPE svg PUBLIC "-//W3C//DTD SVG 1.1//EN"
  "http://www.w3.org/Graphics/SVG/1.1/DTD/svg11.dtd">
<!-- Created with matplotlib (https://matplotlib.org/) -->
<svg height="345.6pt" version="1.1" viewBox="0 0 460.8 345.6" width="460.8pt" xmlns="http://www.w3.org/2000/svg" xmlns:xlink="http://www.w3.org/1999/xlink">
 <defs>
  <style type="text/css">
*{stroke-linecap:butt;stroke-linejoin:round;}
  </style>
 </defs>
 <g id="figure_1">
  <g id="patch_1">
   <path d="M 0 345.6 
L 460.8 345.6 
L 460.8 0 
L 0 0 
z
" style="fill:#ffffff;"/>
  </g>
  <g id="axes_1">
   <g id="patch_2">
    <path d="M 57.6 307.584 
L 414.72 307.584 
L 414.72 41.472 
L 57.6 41.472 
z
" style="fill:#ffffff;"/>
   </g>
   <g id="matplotlib.axis_1">
    <g id="xtick_1">
     <g id="line2d_1">
      <defs>
       <path d="M 0 0 
L 0 3.5 
" id="meab0f5b373" style="stroke:#000000;stroke-width:0.8;"/>
      </defs>
      <g>
       <use style="stroke:#000000;stroke-width:0.8;" x="73.832727" xlink:href="#meab0f5b373" y="307.584"/>
      </g>
     </g>
     <g id="text_1">
      <!-- 0 -->
      <defs>
       <path d="M 31.78125 66.40625 
Q 24.171875 66.40625 20.328125 58.90625 
Q 16.5 51.421875 16.5 36.375 
Q 16.5 21.390625 20.328125 13.890625 
Q 24.171875 6.390625 31.78125 6.390625 
Q 39.453125 6.390625 43.28125 13.890625 
Q 47.125 21.390625 47.125 36.375 
Q 47.125 51.421875 43.28125 58.90625 
Q 39.453125 66.40625 31.78125 66.40625 
z
M 31.78125 74.21875 
Q 44.046875 74.21875 50.515625 64.515625 
Q 56.984375 54.828125 56.984375 36.375 
Q 56.984375 17.96875 50.515625 8.265625 
Q 44.046875 -1.421875 31.78125 -1.421875 
Q 19.53125 -1.421875 13.0625 8.265625 
Q 6.59375 17.96875 6.59375 36.375 
Q 6.59375 54.828125 13.0625 64.515625 
Q 19.53125 74.21875 31.78125 74.21875 
z
" id="DejaVuSans-48"/>
      </defs>
      <g transform="translate(70.651477 322.182437)scale(0.1 -0.1)">
       <use xlink:href="#DejaVuSans-48"/>
      </g>
     </g>
    </g>
    <g id="xtick_2">
     <g id="line2d_2">
      <g>
       <use style="stroke:#000000;stroke-width:0.8;" x="138.828632" xlink:href="#meab0f5b373" y="307.584"/>
      </g>
     </g>
     <g id="text_2">
      <!-- 200 -->
      <defs>
       <path d="M 19.1875 8.296875 
L 53.609375 8.296875 
L 53.609375 0 
L 7.328125 0 
L 7.328125 8.296875 
Q 12.9375 14.109375 22.625 23.890625 
Q 32.328125 33.6875 34.8125 36.53125 
Q 39.546875 41.84375 41.421875 45.53125 
Q 43.3125 49.21875 43.3125 52.78125 
Q 43.3125 58.59375 39.234375 62.25 
Q 35.15625 65.921875 28.609375 65.921875 
Q 23.96875 65.921875 18.8125 64.3125 
Q 13.671875 62.703125 7.8125 59.421875 
L 7.8125 69.390625 
Q 13.765625 71.78125 18.9375 73 
Q 24.125 74.21875 28.421875 74.21875 
Q 39.75 74.21875 46.484375 68.546875 
Q 53.21875 62.890625 53.21875 53.421875 
Q 53.21875 48.921875 51.53125 44.890625 
Q 49.859375 40.875 45.40625 35.40625 
Q 44.1875 33.984375 37.640625 27.21875 
Q 31.109375 20.453125 19.1875 8.296875 
z
" id="DejaVuSans-50"/>
      </defs>
      <g transform="translate(129.284882 322.182437)scale(0.1 -0.1)">
       <use xlink:href="#DejaVuSans-50"/>
       <use x="63.623047" xlink:href="#DejaVuSans-48"/>
       <use x="127.246094" xlink:href="#DejaVuSans-48"/>
      </g>
     </g>
    </g>
    <g id="xtick_3">
     <g id="line2d_3">
      <g>
       <use style="stroke:#000000;stroke-width:0.8;" x="203.824537" xlink:href="#meab0f5b373" y="307.584"/>
      </g>
     </g>
     <g id="text_3">
      <!-- 400 -->
      <defs>
       <path d="M 37.796875 64.3125 
L 12.890625 25.390625 
L 37.796875 25.390625 
z
M 35.203125 72.90625 
L 47.609375 72.90625 
L 47.609375 25.390625 
L 58.015625 25.390625 
L 58.015625 17.1875 
L 47.609375 17.1875 
L 47.609375 0 
L 37.796875 0 
L 37.796875 17.1875 
L 4.890625 17.1875 
L 4.890625 26.703125 
z
" id="DejaVuSans-52"/>
      </defs>
      <g transform="translate(194.280787 322.182437)scale(0.1 -0.1)">
       <use xlink:href="#DejaVuSans-52"/>
       <use x="63.623047" xlink:href="#DejaVuSans-48"/>
       <use x="127.246094" xlink:href="#DejaVuSans-48"/>
      </g>
     </g>
    </g>
    <g id="xtick_4">
     <g id="line2d_4">
      <g>
       <use style="stroke:#000000;stroke-width:0.8;" x="268.820442" xlink:href="#meab0f5b373" y="307.584"/>
      </g>
     </g>
     <g id="text_4">
      <!-- 600 -->
      <defs>
       <path d="M 33.015625 40.375 
Q 26.375 40.375 22.484375 35.828125 
Q 18.609375 31.296875 18.609375 23.390625 
Q 18.609375 15.53125 22.484375 10.953125 
Q 26.375 6.390625 33.015625 6.390625 
Q 39.65625 6.390625 43.53125 10.953125 
Q 47.40625 15.53125 47.40625 23.390625 
Q 47.40625 31.296875 43.53125 35.828125 
Q 39.65625 40.375 33.015625 40.375 
z
M 52.59375 71.296875 
L 52.59375 62.3125 
Q 48.875 64.0625 45.09375 64.984375 
Q 41.3125 65.921875 37.59375 65.921875 
Q 27.828125 65.921875 22.671875 59.328125 
Q 17.53125 52.734375 16.796875 39.40625 
Q 19.671875 43.65625 24.015625 45.921875 
Q 28.375 48.1875 33.59375 48.1875 
Q 44.578125 48.1875 50.953125 41.515625 
Q 57.328125 34.859375 57.328125 23.390625 
Q 57.328125 12.15625 50.6875 5.359375 
Q 44.046875 -1.421875 33.015625 -1.421875 
Q 20.359375 -1.421875 13.671875 8.265625 
Q 6.984375 17.96875 6.984375 36.375 
Q 6.984375 53.65625 15.1875 63.9375 
Q 23.390625 74.21875 37.203125 74.21875 
Q 40.921875 74.21875 44.703125 73.484375 
Q 48.484375 72.75 52.59375 71.296875 
z
" id="DejaVuSans-54"/>
      </defs>
      <g transform="translate(259.276692 322.182437)scale(0.1 -0.1)">
       <use xlink:href="#DejaVuSans-54"/>
       <use x="63.623047" xlink:href="#DejaVuSans-48"/>
       <use x="127.246094" xlink:href="#DejaVuSans-48"/>
      </g>
     </g>
    </g>
    <g id="xtick_5">
     <g id="line2d_5">
      <g>
       <use style="stroke:#000000;stroke-width:0.8;" x="333.816347" xlink:href="#meab0f5b373" y="307.584"/>
      </g>
     </g>
     <g id="text_5">
      <!-- 800 -->
      <defs>
       <path d="M 31.78125 34.625 
Q 24.75 34.625 20.71875 30.859375 
Q 16.703125 27.09375 16.703125 20.515625 
Q 16.703125 13.921875 20.71875 10.15625 
Q 24.75 6.390625 31.78125 6.390625 
Q 38.8125 6.390625 42.859375 10.171875 
Q 46.921875 13.96875 46.921875 20.515625 
Q 46.921875 27.09375 42.890625 30.859375 
Q 38.875 34.625 31.78125 34.625 
z
M 21.921875 38.8125 
Q 15.578125 40.375 12.03125 44.71875 
Q 8.5 49.078125 8.5 55.328125 
Q 8.5 64.0625 14.71875 69.140625 
Q 20.953125 74.21875 31.78125 74.21875 
Q 42.671875 74.21875 48.875 69.140625 
Q 55.078125 64.0625 55.078125 55.328125 
Q 55.078125 49.078125 51.53125 44.71875 
Q 48 40.375 41.703125 38.8125 
Q 48.828125 37.15625 52.796875 32.3125 
Q 56.78125 27.484375 56.78125 20.515625 
Q 56.78125 9.90625 50.3125 4.234375 
Q 43.84375 -1.421875 31.78125 -1.421875 
Q 19.734375 -1.421875 13.25 4.234375 
Q 6.78125 9.90625 6.78125 20.515625 
Q 6.78125 27.484375 10.78125 32.3125 
Q 14.796875 37.15625 21.921875 38.8125 
z
M 18.3125 54.390625 
Q 18.3125 48.734375 21.84375 45.5625 
Q 25.390625 42.390625 31.78125 42.390625 
Q 38.140625 42.390625 41.71875 45.5625 
Q 45.3125 48.734375 45.3125 54.390625 
Q 45.3125 60.0625 41.71875 63.234375 
Q 38.140625 66.40625 31.78125 66.40625 
Q 25.390625 66.40625 21.84375 63.234375 
Q 18.3125 60.0625 18.3125 54.390625 
z
" id="DejaVuSans-56"/>
      </defs>
      <g transform="translate(324.272597 322.182437)scale(0.1 -0.1)">
       <use xlink:href="#DejaVuSans-56"/>
       <use x="63.623047" xlink:href="#DejaVuSans-48"/>
       <use x="127.246094" xlink:href="#DejaVuSans-48"/>
      </g>
     </g>
    </g>
    <g id="xtick_6">
     <g id="line2d_6">
      <g>
       <use style="stroke:#000000;stroke-width:0.8;" x="398.812252" xlink:href="#meab0f5b373" y="307.584"/>
      </g>
     </g>
     <g id="text_6">
      <!-- 1000 -->
      <defs>
       <path d="M 12.40625 8.296875 
L 28.515625 8.296875 
L 28.515625 63.921875 
L 10.984375 60.40625 
L 10.984375 69.390625 
L 28.421875 72.90625 
L 38.28125 72.90625 
L 38.28125 8.296875 
L 54.390625 8.296875 
L 54.390625 0 
L 12.40625 0 
z
" id="DejaVuSans-49"/>
      </defs>
      <g transform="translate(386.087252 322.182437)scale(0.1 -0.1)">
       <use xlink:href="#DejaVuSans-49"/>
       <use x="63.623047" xlink:href="#DejaVuSans-48"/>
       <use x="127.246094" xlink:href="#DejaVuSans-48"/>
       <use x="190.869141" xlink:href="#DejaVuSans-48"/>
      </g>
     </g>
    </g>
    <g id="text_7">
     <!-- step -->
     <defs>
      <path d="M 44.28125 53.078125 
L 44.28125 44.578125 
Q 40.484375 46.53125 36.375 47.5 
Q 32.28125 48.484375 27.875 48.484375 
Q 21.1875 48.484375 17.84375 46.4375 
Q 14.5 44.390625 14.5 40.28125 
Q 14.5 37.15625 16.890625 35.375 
Q 19.28125 33.59375 26.515625 31.984375 
L 29.59375 31.296875 
Q 39.15625 29.25 43.1875 25.515625 
Q 47.21875 21.78125 47.21875 15.09375 
Q 47.21875 7.46875 41.1875 3.015625 
Q 35.15625 -1.421875 24.609375 -1.421875 
Q 20.21875 -1.421875 15.453125 -0.5625 
Q 10.6875 0.296875 5.421875 2 
L 5.421875 11.28125 
Q 10.40625 8.6875 15.234375 7.390625 
Q 20.0625 6.109375 24.8125 6.109375 
Q 31.15625 6.109375 34.5625 8.28125 
Q 37.984375 10.453125 37.984375 14.40625 
Q 37.984375 18.0625 35.515625 20.015625 
Q 33.0625 21.96875 24.703125 23.78125 
L 21.578125 24.515625 
Q 13.234375 26.265625 9.515625 29.90625 
Q 5.8125 33.546875 5.8125 39.890625 
Q 5.8125 47.609375 11.28125 51.796875 
Q 16.75 56 26.8125 56 
Q 31.78125 56 36.171875 55.265625 
Q 40.578125 54.546875 44.28125 53.078125 
z
" id="DejaVuSans-115"/>
      <path d="M 18.3125 70.21875 
L 18.3125 54.6875 
L 36.8125 54.6875 
L 36.8125 47.703125 
L 18.3125 47.703125 
L 18.3125 18.015625 
Q 18.3125 11.328125 20.140625 9.421875 
Q 21.96875 7.515625 27.59375 7.515625 
L 36.8125 7.515625 
L 36.8125 0 
L 27.59375 0 
Q 17.1875 0 13.234375 3.875 
Q 9.28125 7.765625 9.28125 18.015625 
L 9.28125 47.703125 
L 2.6875 47.703125 
L 2.6875 54.6875 
L 9.28125 54.6875 
L 9.28125 70.21875 
z
" id="DejaVuSans-116"/>
      <path d="M 56.203125 29.59375 
L 56.203125 25.203125 
L 14.890625 25.203125 
Q 15.484375 15.921875 20.484375 11.0625 
Q 25.484375 6.203125 34.421875 6.203125 
Q 39.59375 6.203125 44.453125 7.46875 
Q 49.3125 8.734375 54.109375 11.28125 
L 54.109375 2.78125 
Q 49.265625 0.734375 44.1875 -0.34375 
Q 39.109375 -1.421875 33.890625 -1.421875 
Q 20.796875 -1.421875 13.15625 6.1875 
Q 5.515625 13.8125 5.515625 26.8125 
Q 5.515625 40.234375 12.765625 48.109375 
Q 20.015625 56 32.328125 56 
Q 43.359375 56 49.78125 48.890625 
Q 56.203125 41.796875 56.203125 29.59375 
z
M 47.21875 32.234375 
Q 47.125 39.59375 43.09375 43.984375 
Q 39.0625 48.390625 32.421875 48.390625 
Q 24.90625 48.390625 20.390625 44.140625 
Q 15.875 39.890625 15.1875 32.171875 
z
" id="DejaVuSans-101"/>
      <path d="M 18.109375 8.203125 
L 18.109375 -20.796875 
L 9.078125 -20.796875 
L 9.078125 54.6875 
L 18.109375 54.6875 
L 18.109375 46.390625 
Q 20.953125 51.265625 25.265625 53.625 
Q 29.59375 56 35.59375 56 
Q 45.5625 56 51.78125 48.09375 
Q 58.015625 40.1875 58.015625 27.296875 
Q 58.015625 14.40625 51.78125 6.484375 
Q 45.5625 -1.421875 35.59375 -1.421875 
Q 29.59375 -1.421875 25.265625 0.953125 
Q 20.953125 3.328125 18.109375 8.203125 
z
M 48.6875 27.296875 
Q 48.6875 37.203125 44.609375 42.84375 
Q 40.53125 48.484375 33.40625 48.484375 
Q 26.265625 48.484375 22.1875 42.84375 
Q 18.109375 37.203125 18.109375 27.296875 
Q 18.109375 17.390625 22.1875 11.75 
Q 26.265625 6.109375 33.40625 6.109375 
Q 40.53125 6.109375 44.609375 11.75 
Q 48.6875 17.390625 48.6875 27.296875 
z
" id="DejaVuSans-112"/>
     </defs>
     <g transform="translate(225.344375 335.860562)scale(0.1 -0.1)">
      <use xlink:href="#DejaVuSans-115"/>
      <use x="52.099609" xlink:href="#DejaVuSans-116"/>
      <use x="91.308594" xlink:href="#DejaVuSans-101"/>
      <use x="152.832031" xlink:href="#DejaVuSans-112"/>
     </g>
    </g>
   </g>
   <g id="matplotlib.axis_2">
    <g id="ytick_1">
     <g id="line2d_7">
      <defs>
       <path d="M 0 0 
L -3.5 0 
" id="m47c41b50b7" style="stroke:#000000;stroke-width:0.8;"/>
      </defs>
      <g>
       <use style="stroke:#000000;stroke-width:0.8;" x="57.6" xlink:href="#m47c41b50b7" y="296.43186"/>
      </g>
     </g>
     <g id="text_8">
      <!-- 0.0 -->
      <defs>
       <path d="M 10.6875 12.40625 
L 21 12.40625 
L 21 0 
L 10.6875 0 
z
" id="DejaVuSans-46"/>
      </defs>
      <g transform="translate(34.696875 300.231079)scale(0.1 -0.1)">
       <use xlink:href="#DejaVuSans-48"/>
       <use x="63.623047" xlink:href="#DejaVuSans-46"/>
       <use x="95.410156" xlink:href="#DejaVuSans-48"/>
      </g>
     </g>
    </g>
    <g id="ytick_2">
     <g id="line2d_8">
      <g>
       <use style="stroke:#000000;stroke-width:0.8;" x="57.6" xlink:href="#m47c41b50b7" y="263.585519"/>
      </g>
     </g>
     <g id="text_9">
      <!-- 0.1 -->
      <g transform="translate(34.696875 267.384737)scale(0.1 -0.1)">
       <use xlink:href="#DejaVuSans-48"/>
       <use x="63.623047" xlink:href="#DejaVuSans-46"/>
       <use x="95.410156" xlink:href="#DejaVuSans-49"/>
      </g>
     </g>
    </g>
    <g id="ytick_3">
     <g id="line2d_9">
      <g>
       <use style="stroke:#000000;stroke-width:0.8;" x="57.6" xlink:href="#m47c41b50b7" y="230.739177"/>
      </g>
     </g>
     <g id="text_10">
      <!-- 0.2 -->
      <g transform="translate(34.696875 234.538396)scale(0.1 -0.1)">
       <use xlink:href="#DejaVuSans-48"/>
       <use x="63.623047" xlink:href="#DejaVuSans-46"/>
       <use x="95.410156" xlink:href="#DejaVuSans-50"/>
      </g>
     </g>
    </g>
    <g id="ytick_4">
     <g id="line2d_10">
      <g>
       <use style="stroke:#000000;stroke-width:0.8;" x="57.6" xlink:href="#m47c41b50b7" y="197.892835"/>
      </g>
     </g>
     <g id="text_11">
      <!-- 0.3 -->
      <defs>
       <path d="M 40.578125 39.3125 
Q 47.65625 37.796875 51.625 33 
Q 55.609375 28.21875 55.609375 21.1875 
Q 55.609375 10.40625 48.1875 4.484375 
Q 40.765625 -1.421875 27.09375 -1.421875 
Q 22.515625 -1.421875 17.65625 -0.515625 
Q 12.796875 0.390625 7.625 2.203125 
L 7.625 11.71875 
Q 11.71875 9.328125 16.59375 8.109375 
Q 21.484375 6.890625 26.8125 6.890625 
Q 36.078125 6.890625 40.9375 10.546875 
Q 45.796875 14.203125 45.796875 21.1875 
Q 45.796875 27.640625 41.28125 31.265625 
Q 36.765625 34.90625 28.71875 34.90625 
L 20.21875 34.90625 
L 20.21875 43.015625 
L 29.109375 43.015625 
Q 36.375 43.015625 40.234375 45.921875 
Q 44.09375 48.828125 44.09375 54.296875 
Q 44.09375 59.90625 40.109375 62.90625 
Q 36.140625 65.921875 28.71875 65.921875 
Q 24.65625 65.921875 20.015625 65.03125 
Q 15.375 64.15625 9.8125 62.3125 
L 9.8125 71.09375 
Q 15.4375 72.65625 20.34375 73.4375 
Q 25.25 74.21875 29.59375 74.21875 
Q 40.828125 74.21875 47.359375 69.109375 
Q 53.90625 64.015625 53.90625 55.328125 
Q 53.90625 49.265625 50.4375 45.09375 
Q 46.96875 40.921875 40.578125 39.3125 
z
" id="DejaVuSans-51"/>
      </defs>
      <g transform="translate(34.696875 201.692054)scale(0.1 -0.1)">
       <use xlink:href="#DejaVuSans-48"/>
       <use x="63.623047" xlink:href="#DejaVuSans-46"/>
       <use x="95.410156" xlink:href="#DejaVuSans-51"/>
      </g>
     </g>
    </g>
    <g id="ytick_5">
     <g id="line2d_11">
      <g>
       <use style="stroke:#000000;stroke-width:0.8;" x="57.6" xlink:href="#m47c41b50b7" y="165.046493"/>
      </g>
     </g>
     <g id="text_12">
      <!-- 0.4 -->
      <g transform="translate(34.696875 168.845712)scale(0.1 -0.1)">
       <use xlink:href="#DejaVuSans-48"/>
       <use x="63.623047" xlink:href="#DejaVuSans-46"/>
       <use x="95.410156" xlink:href="#DejaVuSans-52"/>
      </g>
     </g>
    </g>
    <g id="ytick_6">
     <g id="line2d_12">
      <g>
       <use style="stroke:#000000;stroke-width:0.8;" x="57.6" xlink:href="#m47c41b50b7" y="132.200152"/>
      </g>
     </g>
     <g id="text_13">
      <!-- 0.5 -->
      <defs>
       <path d="M 10.796875 72.90625 
L 49.515625 72.90625 
L 49.515625 64.59375 
L 19.828125 64.59375 
L 19.828125 46.734375 
Q 21.96875 47.46875 24.109375 47.828125 
Q 26.265625 48.1875 28.421875 48.1875 
Q 40.625 48.1875 47.75 41.5 
Q 54.890625 34.8125 54.890625 23.390625 
Q 54.890625 11.625 47.5625 5.09375 
Q 40.234375 -1.421875 26.90625 -1.421875 
Q 22.3125 -1.421875 17.546875 -0.640625 
Q 12.796875 0.140625 7.71875 1.703125 
L 7.71875 11.625 
Q 12.109375 9.234375 16.796875 8.0625 
Q 21.484375 6.890625 26.703125 6.890625 
Q 35.15625 6.890625 40.078125 11.328125 
Q 45.015625 15.765625 45.015625 23.390625 
Q 45.015625 31 40.078125 35.4375 
Q 35.15625 39.890625 26.703125 39.890625 
Q 22.75 39.890625 18.8125 39.015625 
Q 14.890625 38.140625 10.796875 36.28125 
z
" id="DejaVuSans-53"/>
      </defs>
      <g transform="translate(34.696875 135.99937)scale(0.1 -0.1)">
       <use xlink:href="#DejaVuSans-48"/>
       <use x="63.623047" xlink:href="#DejaVuSans-46"/>
       <use x="95.410156" xlink:href="#DejaVuSans-53"/>
      </g>
     </g>
    </g>
    <g id="ytick_7">
     <g id="line2d_13">
      <g>
       <use style="stroke:#000000;stroke-width:0.8;" x="57.6" xlink:href="#m47c41b50b7" y="99.35381"/>
      </g>
     </g>
     <g id="text_14">
      <!-- 0.6 -->
      <g transform="translate(34.696875 103.153028)scale(0.1 -0.1)">
       <use xlink:href="#DejaVuSans-48"/>
       <use x="63.623047" xlink:href="#DejaVuSans-46"/>
       <use x="95.410156" xlink:href="#DejaVuSans-54"/>
      </g>
     </g>
    </g>
    <g id="ytick_8">
     <g id="line2d_14">
      <g>
       <use style="stroke:#000000;stroke-width:0.8;" x="57.6" xlink:href="#m47c41b50b7" y="66.507468"/>
      </g>
     </g>
     <g id="text_15">
      <!-- 0.7 -->
      <defs>
       <path d="M 8.203125 72.90625 
L 55.078125 72.90625 
L 55.078125 68.703125 
L 28.609375 0 
L 18.3125 0 
L 43.21875 64.59375 
L 8.203125 64.59375 
z
" id="DejaVuSans-55"/>
      </defs>
      <g transform="translate(34.696875 70.306687)scale(0.1 -0.1)">
       <use xlink:href="#DejaVuSans-48"/>
       <use x="63.623047" xlink:href="#DejaVuSans-46"/>
       <use x="95.410156" xlink:href="#DejaVuSans-55"/>
      </g>
     </g>
    </g>
   </g>
   <g id="line2d_15">
    <path clip-path="url(#pbddb8396b6)" d="M 73.832727 292.656419 
L 74.157707 291.712558 
L 74.482686 294.54414 
L 74.807666 293.600279 
L 75.132645 289.824838 
L 75.457625 291.712558 
L 75.782604 292.656419 
L 76.432563 292.656419 
L 76.757543 289.824838 
L 77.082523 293.600279 
L 77.407502 292.656419 
L 77.732482 295.488 
L 78.057461 288.880977 
L 78.382441 292.656419 
L 79.0324 294.54414 
L 79.357379 294.54414 
L 79.682359 291.712558 
L 80.007338 292.656419 
L 80.332318 292.656419 
L 80.657297 290.768698 
L 80.982277 291.712558 
L 81.632236 289.824838 
L 81.957215 294.54414 
L 82.282195 292.656419 
L 82.607174 294.54414 
L 82.932154 290.768698 
L 83.257133 292.656419 
L 83.582113 293.600279 
L 84.232072 291.712558 
L 84.882031 293.600279 
L 85.207011 290.768698 
L 85.85697 294.54414 
L 86.181949 293.600279 
L 86.506929 290.768698 
L 86.831908 293.600279 
L 87.156888 287.937117 
L 87.481867 291.712558 
L 88.131826 287.937117 
L 88.456806 291.712558 
L 88.781785 289.824838 
L 89.106765 286.993256 
L 89.431744 290.768698 
L 89.756724 290.768698 
L 90.081704 292.656419 
L 90.406683 288.880977 
L 90.731663 291.712558 
L 91.056642 290.768698 
L 91.706601 290.768698 
L 92.031581 292.656419 
L 92.35656 286.049396 
L 92.68154 291.712558 
L 93.006519 290.768698 
L 93.981458 290.768698 
L 94.306437 292.656419 
L 94.631417 286.049396 
L 94.956396 289.824838 
L 95.281376 288.880977 
L 95.931335 282.273954 
L 96.581294 289.824838 
L 96.906274 286.993256 
L 97.231253 286.993256 
L 97.556233 285.105536 
L 97.881212 287.937117 
L 98.206192 287.937117 
L 98.531171 285.105536 
L 98.856151 289.824838 
L 99.18113 286.993256 
L 99.50611 289.824838 
L 99.831089 284.161675 
L 100.156069 286.049396 
L 100.481048 286.993256 
L 100.806028 290.768698 
L 101.131007 288.880977 
L 101.455987 283.217815 
L 101.780966 287.937117 
L 102.105946 289.824838 
L 102.430925 286.993256 
L 102.755905 286.049396 
L 103.080885 286.993256 
L 103.405864 286.993256 
L 103.730844 286.049396 
L 104.055823 288.880977 
L 104.380803 286.993256 
L 104.705782 286.993256 
L 105.030762 285.105536 
L 105.680721 286.993256 
L 106.0057 286.049396 
L 106.33068 286.049396 
L 106.655659 283.217815 
L 106.980639 284.161675 
L 107.305618 288.880977 
L 107.630598 286.049396 
L 107.955577 286.049396 
L 108.280557 286.993256 
L 108.605536 286.049396 
L 108.930516 286.993256 
L 109.255495 283.217815 
L 109.580475 286.993256 
L 109.905455 283.217815 
L 110.230434 284.161675 
L 110.555414 289.824838 
L 110.880393 281.330094 
L 111.205373 285.105536 
L 111.530352 286.993256 
L 111.855332 283.217815 
L 112.180311 281.330094 
L 112.505291 283.217815 
L 112.83027 286.049396 
L 113.15525 284.161675 
L 113.480229 284.161675 
L 113.805209 289.824838 
L 114.130188 283.217815 
L 114.455168 281.330094 
L 114.780147 286.049396 
L 115.430106 284.161675 
L 115.755086 284.161675 
L 116.080066 286.049396 
L 116.730025 277.554652 
L 117.055004 285.105536 
L 117.704963 283.217815 
L 118.029943 285.105536 
L 118.354922 286.049396 
L 118.679902 285.105536 
L 119.004881 286.993256 
L 119.65484 280.386234 
L 119.97982 282.273954 
L 120.629779 284.161675 
L 120.954758 281.330094 
L 121.279738 286.049396 
L 121.604717 284.161675 
L 121.929697 285.105536 
L 122.254676 282.273954 
L 122.579656 284.161675 
L 122.904636 284.161675 
L 123.229615 283.217815 
L 123.554595 283.217815 
L 123.879574 284.161675 
L 124.204554 283.217815 
L 124.529533 286.049396 
L 124.854513 282.273954 
L 125.179492 286.049396 
L 125.504472 282.273954 
L 125.829451 281.330094 
L 126.47941 287.937117 
L 126.80439 280.386234 
L 127.129369 286.049396 
L 127.454349 277.554652 
L 127.779328 283.217815 
L 128.104308 282.273954 
L 128.429287 279.442373 
L 128.754267 285.105536 
L 129.079247 283.217815 
L 129.729206 285.105536 
L 130.054185 283.217815 
L 130.379165 283.217815 
L 130.704144 284.161675 
L 131.029124 281.330094 
L 131.354103 281.330094 
L 131.679083 284.161675 
L 132.004062 284.161675 
L 132.329042 281.330094 
L 132.654021 280.386234 
L 132.979001 284.161675 
L 133.30398 282.273954 
L 133.62896 283.217815 
L 133.953939 282.273954 
L 134.278919 286.049396 
L 134.603898 281.330094 
L 134.928878 285.105536 
L 135.253857 285.105536 
L 135.578837 280.386234 
L 135.903817 284.161675 
L 136.228796 284.161675 
L 136.553776 283.217815 
L 136.878755 285.105536 
L 137.203735 282.273954 
L 137.528714 283.217815 
L 137.853694 283.217815 
L 138.178673 281.330094 
L 138.503653 281.330094 
L 138.828632 285.105536 
L 139.153612 283.217815 
L 139.478591 285.105536 
L 139.803571 283.217815 
L 140.12855 284.161675 
L 140.45353 282.273954 
L 140.778509 282.273954 
L 141.103489 283.217815 
L 141.753448 283.217815 
L 142.078428 282.273954 
L 142.403407 285.105536 
L 142.728387 281.330094 
L 143.053366 285.105536 
L 143.378346 285.105536 
L 143.703325 282.273954 
L 144.028305 282.273954 
L 144.353284 280.386234 
L 144.678264 286.049396 
L 145.003243 281.330094 
L 145.328223 281.330094 
L 145.653202 284.161675 
L 145.978182 282.273954 
L 146.303161 283.217815 
L 146.628141 283.217815 
L 146.95312 284.161675 
L 147.2781 283.217815 
L 147.603079 279.442373 
L 147.928059 279.442373 
L 148.253038 286.993256 
L 148.578018 285.105536 
L 148.902998 286.049396 
L 149.227977 282.273954 
L 149.552957 283.217815 
L 150.202916 281.330094 
L 150.527895 283.217815 
L 150.852875 281.330094 
L 151.177854 284.161675 
L 151.502834 280.386234 
L 151.827813 284.161675 
L 152.152793 282.273954 
L 152.477772 278.498513 
L 152.802752 279.442373 
L 153.452711 286.049396 
L 153.77769 284.161675 
L 154.10267 284.161675 
L 154.427649 283.217815 
L 154.752629 283.217815 
L 155.077609 280.386234 
L 155.402588 279.442373 
L 155.727568 285.105536 
L 156.377527 281.330094 
L 156.702506 283.217815 
L 157.027486 286.993256 
L 157.352465 282.273954 
L 157.677445 280.386234 
L 158.002424 279.442373 
L 158.327404 284.161675 
L 158.652383 282.273954 
L 158.977363 281.330094 
L 159.302342 281.330094 
L 159.627322 278.498513 
L 159.952301 278.498513 
L 160.277281 276.610792 
L 160.60226 280.386234 
L 160.92724 278.498513 
L 161.252219 278.498513 
L 162.227158 275.666932 
L 162.552138 272.835351 
L 162.877117 279.442373 
L 163.202097 273.779211 
L 163.527076 275.666932 
L 163.852056 275.666932 
L 164.177035 277.554652 
L 164.826994 270.94763 
L 165.151974 273.779211 
L 165.476953 273.779211 
L 165.801933 277.554652 
L 166.451892 275.666932 
L 166.776871 276.610792 
L 167.42683 270.003769 
L 167.75181 270.003769 
L 168.726749 278.498513 
L 169.051728 272.835351 
L 169.376708 271.89149 
L 169.701687 273.779211 
L 170.026667 269.059909 
L 171.001605 274.723071 
L 171.326585 272.835351 
L 172.301523 275.666932 
L 172.626503 272.835351 
L 172.951482 272.835351 
L 173.276462 270.003769 
L 173.601441 275.666932 
L 173.926421 273.779211 
L 174.2514 270.003769 
L 174.57638 272.835351 
L 174.90136 270.003769 
L 175.226339 274.723071 
L 175.551319 273.779211 
L 175.876298 269.059909 
L 176.201278 270.94763 
L 176.526257 269.059909 
L 176.851237 271.89149 
L 177.826175 271.89149 
L 178.151155 270.94763 
L 178.476134 270.94763 
L 178.801114 273.779211 
L 179.126093 268.116049 
L 179.451073 272.835351 
L 179.776052 269.059909 
L 180.101032 271.89149 
L 180.426011 272.835351 
L 180.750991 270.003769 
L 181.075971 270.94763 
L 181.40095 272.835351 
L 181.72593 271.89149 
L 182.050909 272.835351 
L 182.375889 270.94763 
L 183.025848 270.94763 
L 183.350827 272.835351 
L 183.675807 270.94763 
L 184.000786 270.94763 
L 184.325766 274.723071 
L 184.650745 272.835351 
L 184.975725 274.723071 
L 185.300704 273.779211 
L 185.625684 271.89149 
L 186.275643 270.003769 
L 186.925602 273.779211 
L 187.250581 272.835351 
L 187.575561 274.723071 
L 187.900541 269.059909 
L 188.22552 272.835351 
L 188.5505 271.89149 
L 188.875479 273.779211 
L 189.200459 271.89149 
L 189.850418 273.779211 
L 190.175397 270.003769 
L 190.500377 270.94763 
L 190.825356 266.228328 
L 191.150336 270.003769 
L 191.475315 271.89149 
L 191.800295 272.835351 
L 192.125274 270.003769 
L 192.450254 270.94763 
L 192.775233 269.059909 
L 193.425192 273.779211 
L 193.750172 270.94763 
L 194.075152 266.228328 
L 194.400131 271.89149 
L 194.725111 268.116049 
L 195.05009 269.059909 
L 195.37507 271.89149 
L 195.700049 269.059909 
L 196.025029 269.059909 
L 196.350008 270.94763 
L 196.674988 274.723071 
L 196.999967 272.835351 
L 197.324947 267.172188 
L 197.649926 271.89149 
L 197.974906 270.003769 
L 198.299885 270.94763 
L 198.624865 274.723071 
L 198.949844 271.89149 
L 199.274824 270.94763 
L 199.599803 272.835351 
L 199.924783 268.116049 
L 200.249762 272.835351 
L 200.574742 269.059909 
L 200.899722 270.94763 
L 201.224701 269.059909 
L 201.549681 268.116049 
L 201.87466 271.89149 
L 202.19964 270.94763 
L 202.524619 270.94763 
L 202.849599 267.172188 
L 203.174578 266.228328 
L 203.499558 268.116049 
L 203.824537 271.89149 
L 204.149517 269.059909 
L 204.474496 268.116049 
L 204.799476 270.94763 
L 205.124455 268.116049 
L 205.449435 270.94763 
L 205.774414 266.228328 
L 206.099394 269.059909 
L 206.424373 267.172188 
L 206.749353 266.228328 
L 207.074333 264.340607 
L 207.724292 269.059909 
L 208.049271 266.228328 
L 208.374251 270.003769 
L 208.69923 264.340607 
L 209.02421 265.284467 
L 209.349189 260.565165 
L 209.674169 266.228328 
L 209.999148 267.172188 
L 210.324128 265.284467 
L 210.649107 266.228328 
L 210.974087 261.509026 
L 211.299066 267.172188 
L 211.624046 265.284467 
L 211.949025 267.172188 
L 212.274005 262.452886 
L 212.598984 259.621305 
L 212.923964 264.340607 
L 213.248943 261.509026 
L 213.898903 263.396747 
L 214.223882 267.172188 
L 214.548862 265.284467 
L 214.873841 264.340607 
L 215.198821 264.340607 
L 215.5238 261.509026 
L 216.173759 268.116049 
L 216.498739 264.340607 
L 216.823718 265.284467 
L 217.148698 264.340607 
L 217.473677 262.452886 
L 217.798657 263.396747 
L 218.123636 262.452886 
L 218.448616 262.452886 
L 218.773595 263.396747 
L 219.098575 265.284467 
L 219.423554 265.284467 
L 219.748534 263.396747 
L 220.073514 265.284467 
L 221.048452 262.452886 
L 221.373432 269.059909 
L 221.698411 259.621305 
L 222.023391 263.396747 
L 222.34837 261.509026 
L 222.67335 265.284467 
L 222.998329 260.565165 
L 223.323309 259.621305 
L 223.648288 259.621305 
L 223.973268 258.677445 
L 224.298247 262.452886 
L 224.623227 261.509026 
L 224.948206 264.340607 
L 225.273186 262.452886 
L 225.598165 262.452886 
L 225.923145 260.565165 
L 226.248124 260.565165 
L 226.573104 261.509026 
L 227.223063 261.509026 
L 227.548043 263.396747 
L 228.198002 256.789724 
L 228.522981 260.565165 
L 228.847961 261.509026 
L 229.17294 260.565165 
L 229.49792 263.396747 
L 229.822899 259.621305 
L 230.472858 264.340607 
L 230.797838 260.565165 
L 231.122817 261.509026 
L 231.447797 259.621305 
L 231.772776 255.845863 
L 232.097756 262.452886 
L 232.422735 260.565165 
L 232.747715 260.565165 
L 233.072695 257.733584 
L 233.397674 259.621305 
L 233.722654 262.452886 
L 234.047633 262.452886 
L 234.372613 263.396747 
L 234.697592 259.621305 
L 235.022572 262.452886 
L 235.347551 261.509026 
L 235.672531 258.677445 
L 235.99751 260.565165 
L 236.32249 256.789724 
L 236.647469 256.789724 
L 236.972449 254.902003 
L 237.297428 252.070422 
L 237.622408 260.565165 
L 237.947387 257.733584 
L 238.272367 259.621305 
L 238.597346 260.565165 
L 238.922326 259.621305 
L 239.247305 262.452886 
L 239.572285 258.677445 
L 239.897265 258.677445 
L 240.222244 259.621305 
L 240.547224 257.733584 
L 240.872203 261.509026 
L 241.197183 255.845863 
L 241.522162 256.789724 
L 241.847142 253.958143 
L 242.172121 253.958143 
L 242.497101 259.621305 
L 242.82208 253.014282 
L 243.14706 258.677445 
L 243.472039 258.677445 
L 244.121998 254.902003 
L 244.446978 257.733584 
L 244.771957 262.452886 
L 245.096937 261.509026 
L 245.421916 258.677445 
L 245.746896 259.621305 
L 246.071876 256.789724 
L 246.396855 257.733584 
L 246.721835 257.733584 
L 247.046814 259.621305 
L 247.371794 254.902003 
L 247.696773 262.452886 
L 248.021753 253.958143 
L 248.346732 253.014282 
L 248.671712 259.621305 
L 248.996691 254.902003 
L 249.321671 252.070422 
L 249.64665 259.621305 
L 249.97163 255.845863 
L 250.296609 261.509026 
L 250.621589 259.621305 
L 250.946568 252.070422 
L 251.271548 251.126561 
L 251.596527 259.621305 
L 251.921507 257.733584 
L 252.246486 254.902003 
L 252.571466 254.902003 
L 252.896446 257.733584 
L 253.221425 254.902003 
L 253.871384 256.789724 
L 254.196364 256.789724 
L 254.521343 255.845863 
L 254.846323 253.958143 
L 255.171302 257.733584 
L 255.496282 254.902003 
L 255.821261 255.845863 
L 256.146241 254.902003 
L 256.47122 254.902003 
L 256.7962 252.070422 
L 257.121179 253.014282 
L 257.446159 250.182701 
L 257.771138 255.845863 
L 258.096118 258.677445 
L 258.421097 252.070422 
L 258.746077 248.29498 
L 259.071057 252.070422 
L 259.396036 251.126561 
L 260.045995 251.126561 
L 260.695954 247.35112 
L 261.020934 251.126561 
L 261.345913 250.182701 
L 261.670893 248.29498 
L 261.995872 252.070422 
L 262.320852 250.182701 
L 262.645831 251.126561 
L 262.970811 248.29498 
L 263.29579 253.014282 
L 263.62077 253.014282 
L 264.270729 246.407259 
L 264.595708 251.126561 
L 265.245667 251.126561 
L 265.570647 250.182701 
L 265.895627 252.070422 
L 266.220606 248.29498 
L 266.870565 244.519539 
L 267.195545 251.126561 
L 267.520524 246.407259 
L 268.170483 250.182701 
L 268.495463 249.238841 
L 268.820442 247.35112 
L 269.145422 251.126561 
L 269.470401 246.407259 
L 269.795381 245.463399 
L 270.12036 250.182701 
L 270.44534 245.463399 
L 270.770319 252.070422 
L 271.095299 253.014282 
L 271.420278 247.35112 
L 271.745258 246.407259 
L 272.395217 248.29498 
L 272.720197 246.407259 
L 273.045176 246.407259 
L 273.370156 247.35112 
L 273.695135 250.182701 
L 274.345094 248.29498 
L 274.670074 248.29498 
L 274.995053 243.575678 
L 275.320033 245.463399 
L 275.645012 243.575678 
L 275.969992 245.463399 
L 276.294971 246.407259 
L 276.619951 243.575678 
L 277.26991 250.182701 
L 277.594889 248.29498 
L 277.919869 245.463399 
L 278.244848 245.463399 
L 278.569828 238.856376 
L 278.894808 241.687957 
L 279.219787 249.238841 
L 279.544767 241.687957 
L 279.869746 245.463399 
L 280.194726 246.407259 
L 280.519705 246.407259 
L 280.844685 242.631818 
L 281.169664 240.744097 
L 281.494644 244.519539 
L 282.144603 237.912516 
L 282.469582 245.463399 
L 282.794562 239.800237 
L 283.119541 245.463399 
L 283.444521 247.35112 
L 283.7695 241.687957 
L 284.09448 238.856376 
L 284.419459 239.800237 
L 285.069419 244.519539 
L 285.394398 241.687957 
L 285.719378 244.519539 
L 286.369337 242.631818 
L 286.694316 237.912516 
L 287.019296 243.575678 
L 287.344275 244.519539 
L 287.669255 243.575678 
L 287.994234 240.744097 
L 288.319214 241.687957 
L 288.644193 245.463399 
L 288.969173 240.744097 
L 289.294152 239.800237 
L 289.619132 240.744097 
L 289.944111 246.407259 
L 290.269091 241.687957 
L 290.59407 241.687957 
L 290.91905 243.575678 
L 291.244029 244.519539 
L 291.569009 244.519539 
L 291.893989 245.463399 
L 292.218968 245.463399 
L 292.543948 242.631818 
L 292.868927 244.519539 
L 293.193907 242.631818 
L 293.518886 248.29498 
L 293.843866 239.800237 
L 294.168845 238.856376 
L 294.493825 245.463399 
L 294.818804 244.519539 
L 295.143784 244.519539 
L 295.468763 239.800237 
L 295.793743 240.744097 
L 296.118722 244.519539 
L 296.443702 239.800237 
L 296.768681 245.463399 
L 297.093661 240.744097 
L 297.41864 241.687957 
L 297.74362 247.35112 
L 298.0686 241.687957 
L 298.718559 241.687957 
L 299.043538 242.631818 
L 299.368518 242.631818 
L 299.693497 240.744097 
L 300.018477 242.631818 
L 300.343456 241.687957 
L 300.668436 238.856376 
L 300.993415 240.744097 
L 301.318395 241.687957 
L 301.643374 238.856376 
L 301.968354 238.856376 
L 302.293333 243.575678 
L 303.268272 237.912516 
L 303.593251 237.912516 
L 303.918231 240.744097 
L 304.24321 239.800237 
L 304.56819 237.912516 
L 304.89317 241.687957 
L 305.218149 239.800237 
L 305.543129 236.968655 
L 305.868108 240.744097 
L 306.193088 239.800237 
L 306.518067 237.912516 
L 306.843047 237.912516 
L 307.493006 244.519539 
L 307.817985 237.912516 
L 308.142965 237.912516 
L 308.467944 239.800237 
L 308.792924 236.968655 
L 309.117903 236.968655 
L 309.442883 241.687957 
L 309.767862 240.744097 
L 310.092842 236.024795 
L 310.742801 240.744097 
L 311.39276 240.744097 
L 311.71774 237.912516 
L 312.042719 238.856376 
L 312.367699 241.687957 
L 312.692678 238.856376 
L 313.017658 240.744097 
L 313.342637 239.800237 
L 313.667617 236.968655 
L 313.992596 236.024795 
L 314.317576 243.575678 
L 314.642555 237.912516 
L 314.967535 237.912516 
L 315.292514 236.024795 
L 315.617494 237.912516 
L 316.267453 236.024795 
L 316.592432 238.856376 
L 316.917412 238.856376 
L 317.242391 236.024795 
L 317.567371 240.744097 
L 317.892351 239.800237 
L 318.21733 239.800237 
L 318.54231 232.249353 
L 319.192269 241.687957 
L 319.517248 236.024795 
L 319.842228 235.080935 
L 320.167207 237.912516 
L 320.492187 235.080935 
L 320.817166 238.856376 
L 321.142146 234.137074 
L 321.467125 234.137074 
L 321.792105 235.080935 
L 322.117084 238.856376 
L 322.442064 235.080935 
L 322.767043 235.080935 
L 323.417002 240.744097 
L 324.066962 230.361633 
L 324.391941 238.856376 
L 324.716921 233.193214 
L 325.0419 233.193214 
L 325.36688 234.137074 
L 325.691859 236.024795 
L 326.016839 236.968655 
L 326.341818 232.249353 
L 326.666798 236.968655 
L 326.991777 234.137074 
L 327.316757 237.912516 
L 327.641736 236.024795 
L 328.291695 237.912516 
L 328.616675 229.417772 
L 328.941654 231.305493 
L 329.266634 239.800237 
L 329.591613 237.912516 
L 329.916593 235.080935 
L 330.241572 235.080935 
L 330.566552 236.968655 
L 330.891532 232.249353 
L 331.216511 230.361633 
L 331.541491 234.137074 
L 331.86647 230.361633 
L 332.516429 235.080935 
L 332.841409 236.968655 
L 333.166388 226.586191 
L 333.816347 232.249353 
L 334.141327 233.193214 
L 334.791286 233.193214 
L 335.116265 229.417772 
L 335.441245 234.137074 
L 335.766224 231.305493 
L 336.091204 231.305493 
L 336.416183 230.361633 
L 336.741163 233.193214 
L 337.066143 230.361633 
L 337.391122 232.249353 
L 337.716102 230.361633 
L 338.041081 234.137074 
L 338.366061 231.305493 
L 338.69104 235.080935 
L 339.01602 228.473912 
L 339.340999 233.193214 
L 339.665979 230.361633 
L 339.990958 234.137074 
L 340.315938 232.249353 
L 340.640917 234.137074 
L 340.965897 236.968655 
L 341.290876 235.080935 
L 341.615856 224.69847 
L 341.940835 235.080935 
L 342.265815 238.856376 
L 342.590794 231.305493 
L 342.915774 226.586191 
L 343.240753 231.305493 
L 343.565733 233.193214 
L 343.890713 236.024795 
L 344.215692 230.361633 
L 344.540672 233.193214 
L 344.865651 230.361633 
L 345.190631 232.249353 
L 345.51561 231.305493 
L 345.84059 231.305493 
L 346.165569 233.193214 
L 346.490549 226.586191 
L 347.140508 236.968655 
L 347.465487 232.249353 
L 347.790467 231.305493 
L 348.115446 231.305493 
L 348.440426 236.024795 
L 348.765405 229.417772 
L 349.090385 225.642331 
L 349.415364 232.249353 
L 349.740344 230.361633 
L 350.065324 227.530052 
L 350.390303 229.417772 
L 350.715283 228.473912 
L 351.040262 230.361633 
L 351.365242 227.530052 
L 351.690221 229.417772 
L 352.015201 228.473912 
L 352.34018 231.305493 
L 352.66516 229.417772 
L 352.990139 230.361633 
L 353.315119 230.361633 
L 353.640098 229.417772 
L 353.965078 229.417772 
L 354.290057 227.530052 
L 354.615037 231.305493 
L 354.940016 228.473912 
L 355.264996 229.417772 
L 355.589975 225.642331 
L 355.914955 226.586191 
L 356.564914 231.305493 
L 356.889894 223.75461 
L 357.214873 229.417772 
L 357.539853 228.473912 
L 357.864832 231.305493 
L 358.189812 231.305493 
L 358.514791 234.137074 
L 358.839771 229.417772 
L 359.48973 236.024795 
L 359.814709 228.473912 
L 360.464668 235.080935 
L 360.789648 228.473912 
L 361.439607 228.473912 
L 361.764586 231.305493 
L 362.089566 225.642331 
L 362.414545 229.417772 
L 362.739525 226.586191 
L 363.064505 226.586191 
L 363.389484 228.473912 
L 363.714464 227.530052 
L 364.039443 227.530052 
L 364.364423 229.417772 
L 364.689402 227.530052 
L 365.014382 226.586191 
L 365.339361 226.586191 
L 365.664341 225.642331 
L 365.98932 220.923029 
L 366.639279 232.249353 
L 366.964259 228.473912 
L 367.289238 232.249353 
L 367.614218 226.586191 
L 367.939197 225.642331 
L 368.264177 229.417772 
L 368.589156 228.473912 
L 368.914136 230.361633 
L 369.239115 231.305493 
L 369.564095 228.473912 
L 369.889075 221.866889 
L 370.214054 226.586191 
L 370.539034 223.75461 
L 371.188993 231.305493 
L 371.838952 227.530052 
L 372.163931 226.586191 
L 372.488911 231.305493 
L 372.81389 225.642331 
L 373.13887 229.417772 
L 373.463849 230.361633 
L 373.788829 228.473912 
L 374.113808 225.642331 
L 374.438788 226.586191 
L 374.763767 232.249353 
L 375.088747 227.530052 
L 375.413726 229.417772 
L 376.388665 226.586191 
L 376.713645 226.586191 
L 377.038624 231.305493 
L 377.363604 229.417772 
L 377.688583 225.642331 
L 378.013563 227.530052 
L 378.338542 225.642331 
L 378.663522 221.866889 
L 378.988501 223.75461 
L 379.313481 222.81075 
L 379.96344 226.586191 
L 380.288419 225.642331 
L 380.613399 227.530052 
L 380.938378 222.81075 
L 381.263358 227.530052 
L 381.913317 225.642331 
L 382.238296 226.586191 
L 382.563276 230.361633 
L 382.888256 226.586191 
L 383.213235 227.530052 
L 383.538215 225.642331 
L 383.863194 226.586191 
L 384.188174 228.473912 
L 384.513153 225.642331 
L 385.163112 223.75461 
L 385.488092 232.249353 
L 385.813071 227.530052 
L 386.138051 224.69847 
L 386.46303 227.530052 
L 386.78801 225.642331 
L 387.112989 227.530052 
L 387.437969 231.305493 
L 387.762948 225.642331 
L 388.087928 227.530052 
L 388.412907 226.586191 
L 388.737887 230.361633 
L 389.062867 230.361633 
L 389.387846 229.417772 
L 389.712826 223.75461 
L 390.037805 223.75461 
L 390.362785 230.361633 
L 390.687764 229.417772 
L 391.012744 222.81075 
L 391.337723 229.417772 
L 391.987682 221.866889 
L 392.312662 226.586191 
L 392.637641 228.473912 
L 393.2876 218.091448 
L 393.61258 225.642331 
L 393.937559 223.75461 
L 394.262539 226.586191 
L 394.912498 224.69847 
L 395.562457 229.417772 
L 395.887437 225.642331 
L 396.212416 233.193214 
L 396.537396 227.530052 
L 396.862375 228.473912 
L 397.187355 227.530052 
L 397.837314 227.530052 
L 398.162293 223.75461 
L 398.487273 224.69847 
L 398.487273 224.69847 
" style="fill:none;stroke:#1f77b4;stroke-linecap:square;stroke-width:1.5;"/>
   </g>
   <g id="line2d_16">
    <path clip-path="url(#pbddb8396b6)" d="M 73.832727 294.441173 
L 74.157707 294.441173 
L 74.482686 290.459798 
L 74.807666 289.464455 
L 75.132645 293.445829 
L 75.457625 288.469111 
L 75.782604 286.478423 
L 76.107584 288.469111 
L 76.432563 286.478423 
L 76.757543 288.469111 
L 77.082523 289.464455 
L 77.407502 288.469111 
L 77.732482 284.487736 
L 78.057461 287.473767 
L 78.382441 287.473767 
L 78.70742 283.492392 
L 79.0324 285.48308 
L 79.357379 286.478423 
L 79.682359 279.511018 
L 80.007338 279.511018 
L 80.332318 280.506361 
L 80.657297 278.515674 
L 80.982277 277.52033 
L 81.632236 281.501705 
L 81.957215 275.529643 
L 82.282195 278.515674 
L 82.607174 278.515674 
L 82.932154 275.529643 
L 83.582113 275.529643 
L 83.907093 279.511018 
L 84.232072 271.548268 
L 84.557052 273.538956 
L 84.882031 272.543612 
L 85.207011 272.543612 
L 85.53199 271.548268 
L 85.85697 272.543612 
L 86.181949 270.552924 
L 86.506929 269.557581 
L 86.831908 269.557581 
L 87.156888 262.590175 
L 87.481867 261.594831 
L 87.806847 264.580862 
L 88.781785 264.580862 
L 89.106765 259.604144 
L 89.431744 261.594831 
L 89.756724 264.580862 
L 90.081704 260.599488 
L 90.406683 260.599488 
L 90.731663 259.604144 
L 91.056642 263.585519 
L 91.381622 263.585519 
L 91.706601 259.604144 
L 92.031581 257.613456 
L 92.35656 256.618113 
L 93.006519 261.594831 
L 93.331499 257.613456 
L 93.656478 258.6088 
L 93.981458 257.613456 
L 94.306437 255.622769 
L 94.631417 255.622769 
L 94.956396 254.627425 
L 95.606355 259.604144 
L 95.931335 254.627425 
L 96.256314 258.6088 
L 96.581294 255.622769 
L 96.906274 255.622769 
L 97.231253 253.632082 
L 97.556233 253.632082 
L 97.881212 248.655363 
L 98.206192 249.650707 
L 98.531171 249.650707 
L 98.856151 253.632082 
L 99.18113 251.641394 
L 99.50611 253.632082 
L 99.831089 248.655363 
L 100.156069 252.636738 
L 100.481048 252.636738 
L 100.806028 254.627425 
L 101.455987 249.650707 
L 101.780966 247.66002 
L 102.105946 246.664676 
L 102.430925 248.655363 
L 102.755905 246.664676 
L 103.080885 242.683301 
L 103.405864 242.683301 
L 103.730844 249.650707 
L 104.055823 244.673989 
L 104.380803 245.669332 
L 104.705782 245.669332 
L 105.030762 244.673989 
L 105.355741 240.692614 
L 105.680721 241.687957 
L 106.0057 240.692614 
L 106.33068 245.669332 
L 106.655659 241.687957 
L 106.980639 244.673989 
L 107.305618 242.683301 
L 107.630598 235.715895 
L 108.280557 242.683301 
L 108.605536 237.706583 
L 108.930516 239.69727 
L 109.255495 238.701926 
L 109.580475 238.701926 
L 109.905455 237.706583 
L 110.230434 238.701926 
L 110.555414 240.692614 
L 110.880393 233.725208 
L 111.205373 233.725208 
L 111.530352 238.701926 
L 111.855332 237.706583 
L 112.180311 237.706583 
L 112.505291 235.715895 
L 112.83027 236.711239 
L 113.15525 236.711239 
L 113.480229 234.720552 
L 113.805209 228.748489 
L 114.130188 235.715895 
L 114.455168 233.725208 
L 114.780147 229.743833 
L 115.105127 229.743833 
L 115.430106 232.729864 
L 115.755086 227.753146 
L 116.080066 231.734521 
L 116.405045 229.743833 
L 116.730025 231.734521 
L 117.055004 228.748489 
L 117.379984 229.743833 
L 117.704963 224.767115 
L 118.029943 231.734521 
L 118.354922 229.743833 
L 118.679902 224.767115 
L 119.004881 232.729864 
L 119.329861 222.776427 
L 119.65484 219.790396 
L 119.97982 220.78574 
L 120.304799 223.771771 
L 120.629779 223.771771 
L 120.954758 221.781084 
L 121.279738 226.757802 
L 121.929697 220.78574 
L 122.254676 222.776427 
L 122.904636 218.795053 
L 123.229615 217.799709 
L 123.554595 215.809021 
L 124.204554 224.767115 
L 124.529533 217.799709 
L 124.854513 217.799709 
L 125.179492 215.809021 
L 125.504472 212.82299 
L 125.829451 214.813678 
L 126.154431 217.799709 
L 126.47941 215.809021 
L 126.80439 214.813678 
L 127.454349 214.813678 
L 127.779328 218.795053 
L 128.754267 210.832303 
L 129.079247 213.818334 
L 129.404226 212.82299 
L 129.729206 209.836959 
L 130.054185 212.82299 
L 130.379165 213.818334 
L 130.704144 215.809021 
L 131.029124 206.850928 
L 131.354103 212.82299 
L 131.679083 210.832303 
L 132.004062 209.836959 
L 132.329042 212.82299 
L 132.654021 211.827647 
L 133.30398 204.860241 
L 133.62896 205.855585 
L 134.278919 203.864897 
L 134.603898 205.855585 
L 134.928878 205.855585 
L 135.578837 201.87421 
L 135.903817 209.836959 
L 136.228796 204.860241 
L 136.553776 211.827647 
L 136.878755 198.888179 
L 137.203735 199.883522 
L 137.528714 203.864897 
L 138.178673 203.864897 
L 138.503653 202.869554 
L 138.828632 195.902148 
L 139.153612 206.850928 
L 139.478591 202.869554 
L 139.803571 205.855585 
L 140.12855 206.850928 
L 140.45353 202.869554 
L 140.778509 203.864897 
L 141.103489 202.869554 
L 141.428468 202.869554 
L 141.753448 201.87421 
L 142.078428 201.87421 
L 142.403407 200.878866 
L 142.728387 192.916117 
L 143.053366 197.892835 
L 143.378346 200.878866 
L 143.703325 198.888179 
L 144.353284 206.850928 
L 144.678264 204.860241 
L 145.003243 195.902148 
L 145.328223 195.902148 
L 145.653202 202.869554 
L 146.303161 198.888179 
L 146.628141 203.864897 
L 146.95312 199.883522 
L 147.2781 197.892835 
L 147.603079 198.888179 
L 147.928059 194.906804 
L 148.253038 194.906804 
L 148.578018 193.91146 
L 148.902998 185.948711 
L 149.227977 195.902148 
L 149.552957 191.920773 
L 149.877936 193.91146 
L 150.202916 191.920773 
L 150.527895 191.920773 
L 151.177854 193.91146 
L 151.502834 192.916117 
L 151.827813 188.934742 
L 152.152793 187.939398 
L 152.477772 194.906804 
L 152.802752 191.920773 
L 153.452711 182.96268 
L 153.77769 189.930086 
L 154.10267 192.916117 
L 154.427649 187.939398 
L 154.752629 187.939398 
L 155.077609 189.930086 
L 155.402588 181.967336 
L 156.052547 183.958023 
L 156.377527 177.985961 
L 156.702506 186.944054 
L 157.027486 175.995274 
L 157.677445 183.958023 
L 158.002424 178.981305 
L 158.327404 176.990618 
L 158.652383 178.981305 
L 158.977363 176.990618 
L 159.302342 181.967336 
L 159.627322 179.976649 
L 159.952301 180.971992 
L 160.277281 179.976649 
L 160.60226 182.96268 
L 160.92724 180.971992 
L 161.252219 176.990618 
L 161.577199 184.953367 
L 161.902179 174.99993 
L 162.227158 174.99993 
L 162.552138 179.976649 
L 162.877117 179.976649 
L 163.202097 176.990618 
L 163.527076 175.995274 
L 163.852056 176.990618 
L 164.502015 171.018555 
L 164.826994 179.976649 
L 165.151974 173.009243 
L 165.476953 172.013899 
L 165.801933 172.013899 
L 166.126912 170.023212 
L 167.101851 179.976649 
L 167.42683 174.99993 
L 167.75181 180.971992 
L 168.07679 174.99993 
L 168.401769 176.990618 
L 168.726749 173.009243 
L 169.051728 174.004587 
L 169.376708 168.032524 
L 169.701687 170.023212 
L 170.026667 174.004587 
L 170.676626 168.032524 
L 171.001605 176.990618 
L 171.326585 172.013899 
L 171.651564 174.99993 
L 171.976544 171.018555 
L 172.301523 177.985961 
L 172.626503 178.981305 
L 173.601441 170.023212 
L 173.926421 174.004587 
L 174.2514 166.041837 
L 174.57638 173.009243 
L 174.90136 172.013899 
L 175.226339 165.046493 
L 175.551319 171.018555 
L 175.876298 169.027868 
L 176.526257 171.018555 
L 176.851237 164.05115 
L 177.176216 174.004587 
L 177.501196 169.027868 
L 177.826175 166.041837 
L 178.151155 170.023212 
L 178.476134 168.032524 
L 178.801114 170.023212 
L 179.126093 165.046493 
L 179.451073 165.046493 
L 179.776052 173.009243 
L 180.101032 164.05115 
L 180.426011 168.032524 
L 180.750991 162.060462 
L 181.075971 159.074431 
L 181.40095 163.055806 
L 181.72593 164.05115 
L 182.050909 170.023212 
L 182.375889 151.111682 
L 182.700868 160.069775 
L 183.350827 154.097713 
L 183.675807 157.083744 
L 184.000786 157.083744 
L 184.325766 156.0884 
L 184.650745 156.0884 
L 184.975725 162.060462 
L 185.950663 151.111682 
L 186.275643 160.069775 
L 186.600622 156.0884 
L 186.925602 149.120994 
L 187.250581 154.097713 
L 187.575561 152.107025 
L 187.900541 157.083744 
L 188.5505 152.107025 
L 188.875479 150.116338 
L 189.200459 162.060462 
L 189.525438 159.074431 
L 189.850418 153.102369 
L 190.175397 153.102369 
L 190.500377 156.0884 
L 190.825356 153.102369 
L 191.475315 157.083744 
L 192.125274 148.125651 
L 192.450254 158.079087 
L 192.775233 152.107025 
L 193.100213 149.120994 
L 193.425192 158.079087 
L 193.750172 148.125651 
L 194.075152 150.116338 
L 194.400131 145.139619 
L 194.725111 149.120994 
L 195.05009 151.111682 
L 195.37507 149.120994 
L 195.700049 154.097713 
L 196.025029 144.144276 
L 196.350008 146.134963 
L 196.674988 145.139619 
L 196.999967 148.125651 
L 197.324947 146.134963 
L 197.649926 145.139619 
L 197.974906 147.130307 
L 198.299885 147.130307 
L 198.624865 142.153588 
L 198.949844 141.158245 
L 199.274824 151.111682 
L 199.599803 145.139619 
L 199.924783 151.111682 
L 200.249762 142.153588 
L 200.574742 149.120994 
L 200.899722 136.181526 
L 201.224701 155.093056 
L 201.549681 139.167557 
L 201.87466 137.17687 
L 202.19964 141.158245 
L 202.524619 142.153588 
L 202.849599 144.144276 
L 203.174578 141.158245 
L 203.824537 145.139619 
L 204.149517 140.162901 
L 204.474496 150.116338 
L 204.799476 144.144276 
L 205.124455 144.144276 
L 205.774414 140.162901 
L 206.099394 135.186183 
L 206.424373 146.134963 
L 206.749353 134.190839 
L 207.074333 138.172214 
L 207.399312 136.181526 
L 207.724292 137.17687 
L 208.049271 147.130307 
L 208.374251 144.144276 
L 208.69923 139.167557 
L 209.02421 138.172214 
L 209.349189 143.148932 
L 209.674169 146.134963 
L 209.999148 142.153588 
L 210.324128 141.158245 
L 210.649107 137.17687 
L 210.974087 142.153588 
L 211.299066 136.181526 
L 211.949025 134.190839 
L 212.274005 140.162901 
L 212.598984 141.158245 
L 212.923964 135.186183 
L 213.248943 139.167557 
L 213.573923 135.186183 
L 213.898903 138.172214 
L 214.223882 139.167557 
L 214.873841 130.209464 
L 215.198821 131.204808 
L 215.5238 138.172214 
L 215.84878 137.17687 
L 216.173759 137.17687 
L 216.498739 135.186183 
L 216.823718 131.204808 
L 217.148698 141.158245 
L 217.473677 133.195495 
L 217.798657 132.200152 
L 218.123636 134.190839 
L 218.448616 131.204808 
L 218.773595 136.181526 
L 219.098575 132.200152 
L 219.423554 131.204808 
L 219.748534 132.200152 
L 220.073514 129.21412 
L 220.398493 134.190839 
L 220.723473 133.195495 
L 221.048452 127.223433 
L 221.373432 135.186183 
L 221.698411 130.209464 
L 222.023391 140.162901 
L 222.34837 130.209464 
L 222.998329 132.200152 
L 223.323309 129.21412 
L 223.648288 134.190839 
L 223.973268 125.232746 
L 224.298247 128.218777 
L 224.623227 129.21412 
L 224.948206 125.232746 
L 225.273186 133.195495 
L 225.598165 130.209464 
L 225.923145 132.200152 
L 226.248124 126.228089 
L 226.573104 123.242058 
L 226.898084 133.195495 
L 227.223063 128.218777 
L 227.548043 126.228089 
L 227.873022 125.232746 
L 228.198002 130.209464 
L 228.522981 131.204808 
L 228.847961 127.223433 
L 229.17294 127.223433 
L 229.49792 133.195495 
L 229.822899 123.242058 
L 230.147879 128.218777 
L 230.472858 125.232746 
L 230.797838 120.256027 
L 231.122817 121.251371 
L 231.447797 121.251371 
L 231.772776 126.228089 
L 232.422735 122.246715 
L 232.747715 124.237402 
L 233.072695 124.237402 
L 233.397674 120.256027 
L 233.722654 114.283965 
L 234.047633 124.237402 
L 234.372613 126.228089 
L 234.697592 123.242058 
L 235.022572 131.204808 
L 235.347551 119.260684 
L 235.672531 119.260684 
L 235.99751 123.242058 
L 236.32249 123.242058 
L 236.647469 124.237402 
L 236.972449 117.269996 
L 237.297428 131.204808 
L 237.622408 127.223433 
L 237.947387 119.260684 
L 238.272367 121.251371 
L 238.597346 116.274652 
L 238.922326 113.288621 
L 239.572285 124.237402 
L 239.897265 110.30259 
L 240.222244 120.256027 
L 240.547224 121.251371 
L 240.872203 117.269996 
L 241.197183 121.251371 
L 241.522162 127.223433 
L 241.847142 117.269996 
L 242.172121 120.256027 
L 242.497101 121.251371 
L 242.82208 116.274652 
L 243.14706 124.237402 
L 243.472039 115.279309 
L 243.797019 114.283965 
L 244.121998 118.26534 
L 244.446978 115.279309 
L 244.771957 116.274652 
L 245.096937 119.260684 
L 245.421916 132.200152 
L 245.746896 116.274652 
L 246.071876 110.30259 
L 246.396855 120.256027 
L 247.046814 111.297934 
L 247.371794 110.30259 
L 247.696773 114.283965 
L 248.021753 113.288621 
L 248.346732 115.279309 
L 248.671712 105.325872 
L 248.996691 113.288621 
L 249.321671 117.269996 
L 249.64665 106.321216 
L 249.97163 115.279309 
L 250.296609 119.260684 
L 250.621589 118.26534 
L 250.946568 118.26534 
L 251.271548 115.279309 
L 251.596527 109.307247 
L 251.921507 110.30259 
L 252.246486 113.288621 
L 252.571466 104.330528 
L 253.221425 110.30259 
L 253.546405 103.335185 
L 253.871384 111.297934 
L 254.196364 114.283965 
L 254.521343 111.297934 
L 254.846323 113.288621 
L 255.171302 107.316559 
L 255.496282 107.316559 
L 255.821261 108.311903 
L 256.146241 113.288621 
L 256.7962 109.307247 
L 257.121179 115.279309 
L 257.446159 114.283965 
L 257.771138 106.321216 
L 258.096118 103.335185 
L 258.421097 109.307247 
L 259.071057 109.307247 
L 259.396036 102.339841 
L 259.721016 105.325872 
L 260.045995 116.274652 
L 260.370975 105.325872 
L 260.695954 98.358466 
L 261.020934 111.297934 
L 261.345913 117.269996 
L 261.995872 102.339841 
L 262.320852 106.321216 
L 262.645831 107.316559 
L 262.970811 104.330528 
L 263.29579 108.311903 
L 263.62077 107.316559 
L 263.945749 103.335185 
L 264.270729 116.274652 
L 264.595708 103.335185 
L 264.920688 104.330528 
L 265.245667 103.335185 
L 265.570647 110.30259 
L 265.895627 109.307247 
L 266.220606 106.321216 
L 266.545586 106.321216 
L 266.870565 110.30259 
L 267.520524 105.325872 
L 267.845504 103.335185 
L 268.170483 113.288621 
L 268.495463 105.325872 
L 268.820442 111.297934 
L 269.145422 100.349153 
L 269.470401 106.321216 
L 269.795381 115.279309 
L 270.12036 106.321216 
L 270.44534 109.307247 
L 270.770319 103.335185 
L 271.095299 102.339841 
L 271.420278 108.311903 
L 271.745258 111.297934 
L 272.070238 103.335185 
L 272.395217 101.344497 
L 272.720197 107.316559 
L 273.045176 110.30259 
L 273.370156 110.30259 
L 273.695135 109.307247 
L 274.020115 103.335185 
L 274.345094 103.335185 
L 274.995053 99.35381 
L 275.320033 110.30259 
L 275.645012 106.321216 
L 275.969992 105.325872 
L 276.294971 100.349153 
L 276.619951 106.321216 
L 276.94493 104.330528 
L 277.594889 97.363122 
L 277.919869 107.316559 
L 278.569828 95.372435 
L 278.894808 99.35381 
L 279.219787 97.363122 
L 279.544767 96.367779 
L 279.869746 107.316559 
L 280.194726 102.339841 
L 280.519705 94.377091 
L 280.844685 93.381748 
L 281.169664 100.349153 
L 281.494644 94.377091 
L 281.819623 97.363122 
L 282.144603 95.372435 
L 282.469582 100.349153 
L 283.119541 100.349153 
L 283.444521 101.344497 
L 283.7695 99.35381 
L 284.09448 87.409685 
L 284.419459 90.395717 
L 284.744439 99.35381 
L 285.069419 99.35381 
L 285.394398 88.405029 
L 285.719378 92.386404 
L 286.044357 89.400373 
L 286.369337 91.39106 
L 286.694316 90.395717 
L 287.019296 97.363122 
L 287.344275 89.400373 
L 287.669255 96.367779 
L 287.994234 94.377091 
L 288.319214 98.358466 
L 288.644193 89.400373 
L 288.969173 87.409685 
L 289.294152 99.35381 
L 289.619132 94.377091 
L 289.944111 86.414342 
L 290.269091 88.405029 
L 290.59407 89.400373 
L 290.91905 93.381748 
L 291.244029 91.39106 
L 291.569009 85.418998 
L 291.893989 94.377091 
L 292.218968 91.39106 
L 292.543948 98.358466 
L 292.868927 95.372435 
L 293.193907 86.414342 
L 293.518886 92.386404 
L 293.843866 91.39106 
L 294.168845 89.400373 
L 294.493825 93.381748 
L 294.818804 85.418998 
L 295.143784 82.432967 
L 295.468763 91.39106 
L 295.793743 91.39106 
L 296.118722 83.428311 
L 296.443702 88.405029 
L 296.768681 91.39106 
L 297.093661 90.395717 
L 297.41864 87.409685 
L 297.74362 90.395717 
L 298.393579 92.386404 
L 298.718559 82.432967 
L 299.043538 91.39106 
L 299.368518 81.437623 
L 299.693497 83.428311 
L 300.018477 79.446936 
L 300.343456 85.418998 
L 300.668436 83.428311 
L 300.993415 91.39106 
L 301.318395 87.409685 
L 301.643374 75.465561 
L 301.968354 81.437623 
L 302.293333 80.44228 
L 302.618313 85.418998 
L 302.943292 79.446936 
L 303.268272 81.437623 
L 303.918231 87.409685 
L 304.24321 80.44228 
L 304.56819 95.372435 
L 305.218149 82.432967 
L 305.868108 87.409685 
L 306.193088 88.405029 
L 306.518067 87.409685 
L 306.843047 79.446936 
L 307.168026 85.418998 
L 307.493006 82.432967 
L 307.817985 85.418998 
L 308.142965 90.395717 
L 308.467944 87.409685 
L 308.792924 86.414342 
L 309.117903 84.423654 
L 309.442883 89.400373 
L 309.767862 89.400373 
L 310.092842 85.418998 
L 310.417821 87.409685 
L 310.742801 82.432967 
L 311.067781 82.432967 
L 311.39276 87.409685 
L 312.042719 83.428311 
L 312.367699 74.470217 
L 312.692678 88.405029 
L 313.017658 91.39106 
L 313.342637 84.423654 
L 313.667617 92.386404 
L 313.992596 76.460905 
L 314.317576 86.414342 
L 314.642555 82.432967 
L 314.967535 85.418998 
L 315.292514 81.437623 
L 315.617494 84.423654 
L 315.942473 76.460905 
L 316.267453 91.39106 
L 316.592432 82.432967 
L 316.917412 77.456249 
L 317.242391 81.437623 
L 317.567371 83.428311 
L 317.892351 86.414342 
L 318.21733 78.451592 
L 318.54231 80.44228 
L 318.867289 75.465561 
L 319.192269 90.395717 
L 319.517248 92.386404 
L 319.842228 83.428311 
L 320.167207 82.432967 
L 320.492187 94.377091 
L 320.817166 84.423654 
L 321.142146 87.409685 
L 321.467125 75.465561 
L 321.792105 82.432967 
L 322.117084 82.432967 
L 322.442064 78.451592 
L 322.767043 83.428311 
L 323.417002 79.446936 
L 323.741982 76.460905 
L 324.066962 80.44228 
L 324.391941 81.437623 
L 324.716921 78.451592 
L 325.0419 77.456249 
L 325.36688 74.470217 
L 325.691859 81.437623 
L 326.016839 83.428311 
L 326.341818 86.414342 
L 326.666798 81.437623 
L 326.991777 73.474874 
L 327.316757 80.44228 
L 327.641736 82.432967 
L 328.291695 84.423654 
L 328.616675 82.432967 
L 328.941654 77.456249 
L 329.266634 80.44228 
L 329.591613 88.405029 
L 329.916593 80.44228 
L 330.241572 82.432967 
L 330.566552 74.470217 
L 330.891532 73.474874 
L 331.216511 75.465561 
L 331.541491 74.470217 
L 332.19145 74.470217 
L 332.516429 81.437623 
L 332.841409 80.44228 
L 333.166388 76.460905 
L 333.491368 89.400373 
L 333.816347 78.451592 
L 334.141327 74.470217 
L 334.466306 78.451592 
L 334.791286 77.456249 
L 335.441245 79.446936 
L 335.766224 83.428311 
L 336.091204 69.493499 
L 336.416183 77.456249 
L 336.741163 80.44228 
L 337.391122 70.488843 
L 337.716102 71.484186 
L 338.041081 71.484186 
L 338.366061 87.409685 
L 339.01602 72.47953 
L 339.340999 81.437623 
L 339.665979 76.460905 
L 339.990958 75.465561 
L 340.315938 76.460905 
L 340.640917 86.414342 
L 340.965897 77.456249 
L 341.290876 81.437623 
L 341.615856 77.456249 
L 341.940835 70.488843 
L 342.265815 72.47953 
L 342.915774 81.437623 
L 343.565733 77.456249 
L 343.890713 84.423654 
L 344.215692 76.460905 
L 344.540672 79.446936 
L 344.865651 77.456249 
L 345.190631 78.451592 
L 345.51561 77.456249 
L 345.84059 77.456249 
L 346.165569 72.47953 
L 346.490549 77.456249 
L 346.815528 75.465561 
L 347.140508 78.451592 
L 347.465487 76.460905 
L 347.790467 76.460905 
L 348.115446 80.44228 
L 348.440426 74.470217 
L 348.765405 76.460905 
L 349.090385 74.470217 
L 349.415364 81.437623 
L 349.740344 76.460905 
L 350.065324 87.409685 
L 350.390303 73.474874 
L 350.715283 69.493499 
L 351.040262 79.446936 
L 351.365242 73.474874 
L 351.690221 76.460905 
L 352.015201 76.460905 
L 352.34018 79.446936 
L 352.66516 72.47953 
L 352.990139 73.474874 
L 353.315119 73.474874 
L 353.640098 87.409685 
L 354.290057 69.493499 
L 354.615037 73.474874 
L 354.940016 65.512124 
L 355.264996 70.488843 
L 355.589975 63.521437 
L 356.239934 74.470217 
L 356.564914 72.47953 
L 357.214873 72.47953 
L 357.539853 73.474874 
L 357.864832 66.507468 
L 358.189812 73.474874 
L 358.514791 71.484186 
L 358.839771 71.484186 
L 359.16475 67.502812 
L 359.48973 74.470217 
L 359.814709 66.507468 
L 360.139689 80.44228 
L 360.464668 73.474874 
L 360.789648 71.484186 
L 361.114627 70.488843 
L 361.439607 84.423654 
L 361.764586 70.488843 
L 362.089566 69.493499 
L 362.414545 65.512124 
L 362.739525 74.470217 
L 363.064505 79.446936 
L 363.389484 71.484186 
L 363.714464 75.465561 
L 364.039443 71.484186 
L 364.364423 78.451592 
L 364.689402 68.498155 
L 365.014382 67.502812 
L 365.339361 75.465561 
L 365.98932 73.474874 
L 366.3143 74.470217 
L 366.639279 67.502812 
L 367.289238 65.512124 
L 367.614218 72.47953 
L 367.939197 72.47953 
L 368.264177 74.470217 
L 368.589156 71.484186 
L 368.914136 71.484186 
L 369.239115 69.493499 
L 369.564095 69.493499 
L 369.889075 70.488843 
L 370.214054 72.47953 
L 370.539034 58.544718 
L 370.864013 64.516781 
L 371.188993 62.526093 
L 371.513972 67.502812 
L 371.838952 78.451592 
L 372.488911 62.526093 
L 372.81389 72.47953 
L 373.13887 69.493499 
L 373.463849 70.488843 
L 373.788829 70.488843 
L 374.113808 62.526093 
L 374.438788 70.488843 
L 374.763767 74.470217 
L 375.088747 73.474874 
L 375.413726 68.498155 
L 375.738706 71.484186 
L 376.063686 62.526093 
L 376.388665 65.512124 
L 376.713645 61.53075 
L 377.038624 63.521437 
L 377.363604 68.498155 
L 377.688583 69.493499 
L 378.013563 68.498155 
L 378.663522 61.53075 
L 378.988501 64.516781 
L 379.313481 63.521437 
L 379.63846 69.493499 
L 379.96344 69.493499 
L 380.288419 77.456249 
L 380.613399 70.488843 
L 380.938378 71.484186 
L 381.263358 73.474874 
L 381.588337 67.502812 
L 381.913317 71.484186 
L 382.238296 64.516781 
L 382.563276 64.516781 
L 382.888256 59.540062 
L 383.213235 64.516781 
L 383.538215 60.535406 
L 383.863194 65.512124 
L 384.188174 55.558687 
L 384.513153 68.498155 
L 384.838133 66.507468 
L 385.163112 60.535406 
L 385.488092 57.549375 
L 385.813071 64.516781 
L 386.138051 58.544718 
L 386.46303 59.540062 
L 386.78801 61.53075 
L 387.112989 69.493499 
L 387.437969 69.493499 
L 388.087928 56.554031 
L 388.412907 60.535406 
L 388.737887 62.526093 
L 389.062867 63.521437 
L 389.387846 54.563344 
L 389.712826 65.512124 
L 390.037805 56.554031 
L 390.362785 63.521437 
L 390.687764 61.53075 
L 391.012744 64.516781 
L 391.337723 58.544718 
L 391.662703 66.507468 
L 392.312662 53.568 
L 392.637641 66.507468 
L 392.962621 58.544718 
L 393.2876 61.53075 
L 393.61258 62.526093 
L 393.937559 57.549375 
L 394.262539 59.540062 
L 394.587518 62.526093 
L 395.237477 64.516781 
L 395.562457 66.507468 
L 395.887437 62.526093 
L 396.212416 64.516781 
L 396.537396 58.544718 
L 396.862375 58.544718 
L 397.512334 56.554031 
L 397.837314 57.549375 
L 398.487273 67.502812 
L 398.487273 67.502812 
" style="fill:none;stroke:#ff7f0e;stroke-dasharray:6,2.25;stroke-dashoffset:0;stroke-width:1.5;"/>
   </g>
   <g id="line2d_17">
    <path clip-path="url(#pbddb8396b6)" d="M 73.832727 294.391715 
L 74.157707 289.291351 
L 74.482686 292.351569 
L 74.807666 291.331497 
L 75.132645 292.351569 
L 75.457625 289.291351 
L 75.782604 290.311424 
L 76.107584 287.251206 
L 76.432563 287.251206 
L 76.757543 286.231133 
L 77.082523 287.251206 
L 77.407502 284.190988 
L 77.732482 287.251206 
L 78.057461 282.150842 
L 78.382441 281.13077 
L 78.70742 282.150842 
L 79.357379 277.050479 
L 79.682359 276.030406 
L 80.007338 276.030406 
L 80.332318 272.970188 
L 80.657297 271.950115 
L 80.982277 269.90997 
L 81.307256 270.930042 
L 81.632236 270.930042 
L 82.282195 260.729315 
L 82.607174 262.76946 
L 82.932154 256.649024 
L 83.257133 254.608879 
L 83.582113 255.628951 
L 83.907093 251.54866 
L 84.232072 252.568733 
L 84.557052 250.528588 
L 84.882031 252.568733 
L 85.207011 250.528588 
L 85.85697 250.528588 
L 86.181949 246.448297 
L 86.831908 246.448297 
L 87.156888 245.428224 
L 87.481867 245.428224 
L 87.806847 238.287715 
L 88.131826 239.307788 
L 88.456806 245.428224 
L 88.781785 239.307788 
L 89.106765 242.368006 
L 89.431744 237.267642 
L 89.756724 229.10706 
L 90.081704 236.24757 
L 90.406683 231.147206 
L 90.731663 235.227497 
L 91.056642 232.167279 
L 91.381622 234.207424 
L 91.706601 232.167279 
L 92.031581 234.207424 
L 92.35656 221.966551 
L 92.68154 225.02677 
L 93.006519 225.02677 
L 93.331499 227.066915 
L 93.656478 221.966551 
L 93.981458 222.986624 
L 94.306437 222.986624 
L 94.956396 225.02677 
L 95.281376 224.006697 
L 95.606355 219.926406 
L 95.931335 222.986624 
L 96.256314 220.946479 
L 96.581294 217.88626 
L 96.906274 222.986624 
L 97.231253 220.946479 
L 97.556233 221.966551 
L 97.881212 210.745751 
L 98.206192 218.906333 
L 98.531171 209.725679 
L 98.856151 211.765824 
L 99.831089 211.765824 
L 100.156069 212.785897 
L 100.481048 209.725679 
L 100.806028 209.725679 
L 101.131007 211.765824 
L 101.455987 210.745751 
L 101.780966 206.665461 
L 102.105946 206.665461 
L 102.430925 203.605242 
L 102.755905 209.725679 
L 103.080885 207.685533 
L 103.405864 204.625315 
L 103.730844 197.484806 
L 104.055823 204.625315 
L 104.705782 202.58517 
L 105.030762 196.464733 
L 105.680721 200.545024 
L 106.0057 199.524951 
L 106.33068 194.424588 
L 106.655659 196.464733 
L 106.980639 195.444661 
L 107.305618 197.484806 
L 107.630598 189.324224 
L 107.955577 199.524951 
L 108.280557 188.304151 
L 108.605536 188.304151 
L 108.930516 185.243933 
L 109.255495 193.404515 
L 109.580475 183.203788 
L 109.905455 187.284079 
L 110.555414 179.123497 
L 110.880393 188.304151 
L 111.205373 180.14357 
L 111.530352 185.243933 
L 111.855332 180.14357 
L 112.180311 180.14357 
L 112.505291 177.083351 
L 112.83027 183.203788 
L 113.15525 176.063279 
L 113.480229 187.284079 
L 114.130188 174.023133 
L 114.455168 176.063279 
L 114.780147 171.982988 
L 115.105127 174.023133 
L 115.430106 181.163642 
L 115.755086 175.043206 
L 116.080066 176.063279 
L 116.405045 171.982988 
L 116.730025 171.982988 
L 117.055004 176.063279 
L 117.379984 171.982988 
L 117.704963 174.023133 
L 118.029943 173.003061 
L 118.354922 177.083351 
L 118.679902 168.92277 
L 119.004881 176.063279 
L 119.329861 168.92277 
L 119.65484 178.103424 
L 119.97982 165.862551 
L 120.304799 177.083351 
L 120.629779 167.902697 
L 121.279738 178.103424 
L 121.604717 168.92277 
L 121.929697 166.882624 
L 122.254676 167.902697 
L 122.579656 163.822406 
L 122.904636 163.822406 
L 123.229615 169.942842 
L 123.554595 170.962915 
L 123.879574 167.902697 
L 124.204554 179.123497 
L 124.529533 167.902697 
L 124.854513 175.043206 
L 125.179492 164.842479 
L 125.504472 168.92277 
L 125.829451 159.742115 
L 126.154431 159.742115 
L 126.47941 161.782261 
L 126.80439 155.661824 
L 127.129369 159.742115 
L 127.454349 159.742115 
L 127.779328 163.822406 
L 128.429287 163.822406 
L 128.754267 164.842479 
L 129.079247 168.92277 
L 129.404226 156.681897 
L 129.729206 156.681897 
L 130.054185 164.842479 
L 130.379165 157.70197 
L 130.704144 162.802333 
L 131.029124 159.742115 
L 131.354103 154.641751 
L 131.679083 163.822406 
L 132.004062 156.681897 
L 132.329042 162.802333 
L 132.654021 158.722042 
L 132.979001 157.70197 
L 133.30398 157.70197 
L 133.62896 161.782261 
L 133.953939 151.581533 
L 134.278919 150.561461 
L 134.603898 152.601606 
L 134.928878 157.70197 
L 135.253857 149.541388 
L 135.578837 150.561461 
L 135.903817 152.601606 
L 136.228796 148.521315 
L 136.553776 148.521315 
L 136.878755 152.601606 
L 137.203735 139.340661 
L 137.528714 152.601606 
L 137.853694 141.380806 
L 138.178673 145.461097 
L 138.503653 155.661824 
L 138.828632 152.601606 
L 139.153612 152.601606 
L 139.478591 150.561461 
L 139.803571 140.360733 
L 140.12855 139.340661 
L 140.45353 144.441024 
L 140.778509 156.681897 
L 141.103489 144.441024 
L 141.428468 148.521315 
L 142.078428 144.441024 
L 142.403407 145.461097 
L 142.728387 145.461097 
L 143.053366 135.26037 
L 143.378346 137.300515 
L 143.703325 137.300515 
L 144.028305 140.360733 
L 144.353284 146.48117 
L 144.678264 129.139933 
L 145.003243 137.300515 
L 145.328223 131.180079 
L 145.978182 137.300515 
L 146.303161 126.079715 
L 146.628141 134.240297 
L 146.95312 133.220224 
L 147.2781 129.139933 
L 147.603079 131.180079 
L 147.928059 132.200152 
L 148.253038 131.180079 
L 148.578018 129.139933 
L 149.227977 131.180079 
L 149.552957 125.059642 
L 149.877936 127.099788 
L 150.202916 131.180079 
L 150.852875 124.03957 
L 151.177854 133.220224 
L 151.502834 121.999424 
L 151.827813 130.160006 
L 152.152793 126.079715 
L 152.477772 125.059642 
L 152.802752 118.939206 
L 153.127731 127.099788 
L 153.77769 133.220224 
L 154.10267 120.979352 
L 154.427649 130.160006 
L 154.752629 125.059642 
L 155.077609 133.220224 
L 155.402588 126.079715 
L 155.727568 129.139933 
L 156.052547 126.079715 
L 156.377527 133.220224 
L 156.702506 123.019497 
L 157.027486 131.180079 
L 157.352465 127.099788 
L 157.677445 128.119861 
L 158.002424 125.059642 
L 158.652383 134.240297 
L 158.977363 124.03957 
L 159.302342 129.139933 
L 159.627322 119.959279 
L 159.952301 133.220224 
L 160.60226 119.959279 
L 160.92724 121.999424 
L 161.252219 126.079715 
L 161.902179 120.979352 
L 162.227158 124.03957 
L 162.552138 125.059642 
L 162.877117 118.939206 
L 163.202097 115.878988 
L 163.527076 129.139933 
L 163.852056 115.878988 
L 164.177035 119.959279 
L 164.502015 117.919133 
L 164.826994 118.939206 
L 165.151974 116.899061 
L 165.476953 112.81877 
L 166.126912 118.939206 
L 166.451892 117.919133 
L 166.776871 114.858915 
L 167.101851 109.758552 
L 167.42683 129.139933 
L 167.75181 125.059642 
L 168.07679 124.03957 
L 168.401769 120.979352 
L 168.726749 106.698333 
L 169.051728 106.698333 
L 169.376708 120.979352 
L 169.701687 107.718406 
L 170.026667 112.81877 
L 170.351646 114.858915 
L 170.676626 121.999424 
L 171.001605 119.959279 
L 171.326585 111.798697 
L 171.651564 114.858915 
L 171.976544 113.838842 
L 172.301523 107.718406 
L 172.626503 112.81877 
L 172.951482 121.999424 
L 173.276462 108.738479 
L 173.601441 111.798697 
L 173.926421 116.899061 
L 174.2514 115.878988 
L 174.57638 112.81877 
L 174.90136 115.878988 
L 175.226339 110.778624 
L 175.551319 115.878988 
L 175.876298 110.778624 
L 176.201278 117.919133 
L 176.851237 110.778624 
L 177.176216 110.778624 
L 177.501196 113.838842 
L 178.151155 108.738479 
L 178.476134 115.878988 
L 178.801114 109.758552 
L 179.126093 123.019497 
L 179.451073 116.899061 
L 179.776052 116.899061 
L 180.101032 115.878988 
L 180.426011 111.798697 
L 180.750991 116.899061 
L 181.075971 117.919133 
L 181.40095 112.81877 
L 181.72593 114.858915 
L 182.050909 111.798697 
L 182.375889 121.999424 
L 183.025848 110.778624 
L 183.350827 107.718406 
L 183.675807 109.758552 
L 184.000786 109.758552 
L 184.325766 102.618042 
L 184.650745 105.678261 
L 184.975725 118.939206 
L 185.300704 113.838842 
L 185.950663 113.838842 
L 186.275643 111.798697 
L 186.600622 111.798697 
L 186.925602 108.738479 
L 187.250581 109.758552 
L 187.575561 101.59797 
L 187.900541 103.638115 
L 188.22552 107.718406 
L 188.5505 100.577897 
L 188.875479 105.678261 
L 189.200459 100.577897 
L 189.525438 103.638115 
L 189.850418 109.758552 
L 190.175397 102.618042 
L 190.500377 103.638115 
L 190.825356 111.798697 
L 191.150336 97.517679 
L 191.475315 107.718406 
L 191.800295 108.738479 
L 192.125274 105.678261 
L 192.450254 109.758552 
L 192.775233 108.738479 
L 193.100213 106.698333 
L 193.425192 97.517679 
L 193.750172 100.577897 
L 194.075152 101.59797 
L 194.400131 101.59797 
L 194.725111 103.638115 
L 195.05009 100.577897 
L 195.37507 105.678261 
L 195.700049 104.658188 
L 196.350008 97.517679 
L 196.674988 107.718406 
L 196.999967 105.678261 
L 197.324947 94.457461 
L 197.649926 103.638115 
L 197.974906 103.638115 
L 198.299885 100.577897 
L 199.274824 97.517679 
L 199.599803 99.557824 
L 199.924783 103.638115 
L 200.249762 105.678261 
L 200.574742 93.437388 
L 200.899722 108.738479 
L 201.224701 96.497606 
L 201.549681 98.537752 
L 201.87466 104.658188 
L 202.19964 101.59797 
L 202.524619 104.658188 
L 202.849599 95.477533 
L 203.174578 99.557824 
L 203.499558 96.497606 
L 203.824537 110.778624 
L 204.149517 96.497606 
L 204.474496 92.417315 
L 204.799476 98.537752 
L 205.124455 92.417315 
L 205.449435 98.537752 
L 205.774414 101.59797 
L 206.099394 90.37717 
L 206.424373 93.437388 
L 206.749353 99.557824 
L 207.074333 98.537752 
L 207.399312 101.59797 
L 207.724292 97.517679 
L 208.049271 102.618042 
L 208.374251 105.678261 
L 209.02421 90.37717 
L 209.349189 94.457461 
L 209.674169 100.577897 
L 210.324128 96.497606 
L 210.649107 93.437388 
L 210.974087 93.437388 
L 211.299066 96.497606 
L 211.624046 89.357097 
L 211.949025 102.618042 
L 212.274005 95.477533 
L 212.598984 96.497606 
L 212.923964 94.457461 
L 213.248943 89.357097 
L 213.573923 92.417315 
L 213.898903 100.577897 
L 214.223882 103.638115 
L 214.548862 104.658188 
L 214.873841 97.517679 
L 215.198821 101.59797 
L 215.5238 103.638115 
L 215.84878 98.537752 
L 216.173759 100.577897 
L 216.498739 97.517679 
L 216.823718 96.497606 
L 217.148698 91.397242 
L 217.473677 99.557824 
L 217.798657 94.457461 
L 218.123636 94.457461 
L 218.448616 97.517679 
L 218.773595 91.397242 
L 219.098575 95.477533 
L 219.423554 96.497606 
L 220.073514 89.357097 
L 220.398493 97.517679 
L 220.723473 98.537752 
L 221.048452 102.618042 
L 221.373432 97.517679 
L 221.698411 96.497606 
L 222.34837 91.397242 
L 222.67335 102.618042 
L 223.648288 89.357097 
L 223.973268 95.477533 
L 224.298247 86.296879 
L 224.623227 93.437388 
L 225.273186 86.296879 
L 225.598165 94.457461 
L 226.248124 88.337024 
L 226.573104 91.397242 
L 226.898084 90.37717 
L 227.223063 92.417315 
L 227.548043 91.397242 
L 227.873022 95.477533 
L 228.198002 94.457461 
L 228.522981 95.477533 
L 228.847961 87.316952 
L 229.17294 88.337024 
L 229.49792 92.417315 
L 229.822899 91.397242 
L 230.147879 94.457461 
L 230.472858 93.437388 
L 230.797838 90.37717 
L 231.122817 90.37717 
L 231.447797 97.517679 
L 232.097756 89.357097 
L 232.747715 96.497606 
L 233.072695 92.417315 
L 233.397674 94.457461 
L 233.722654 93.437388 
L 234.047633 85.276806 
L 234.372613 102.618042 
L 234.697592 86.296879 
L 235.022572 95.477533 
L 235.672531 90.37717 
L 235.99751 93.437388 
L 236.32249 93.437388 
L 236.647469 101.59797 
L 236.972449 98.537752 
L 237.297428 89.357097 
L 237.622408 85.276806 
L 237.947387 83.236661 
L 238.272367 87.316952 
L 238.597346 89.357097 
L 238.922326 94.457461 
L 239.247305 96.497606 
L 239.897265 91.397242 
L 240.222244 98.537752 
L 240.547224 83.236661 
L 240.872203 89.357097 
L 241.197183 84.256733 
L 241.522162 94.457461 
L 241.847142 91.397242 
L 242.172121 93.437388 
L 242.497101 88.337024 
L 242.82208 91.397242 
L 243.14706 90.37717 
L 243.472039 88.337024 
L 243.797019 89.357097 
L 244.121998 92.417315 
L 244.446978 85.276806 
L 244.771957 89.357097 
L 245.096937 90.37717 
L 245.421916 95.477533 
L 245.746896 88.337024 
L 246.071876 85.276806 
L 246.396855 91.397242 
L 246.721835 94.457461 
L 247.046814 95.477533 
L 247.371794 88.337024 
L 248.021753 95.477533 
L 248.346732 100.577897 
L 248.671712 85.276806 
L 248.996691 95.477533 
L 249.321671 85.276806 
L 249.64665 94.457461 
L 249.97163 93.437388 
L 250.296609 90.37717 
L 250.621589 84.256733 
L 250.946568 93.437388 
L 251.271548 88.337024 
L 251.921507 97.517679 
L 252.246486 88.337024 
L 252.571466 92.417315 
L 252.896446 90.37717 
L 253.221425 94.457461 
L 253.871384 92.417315 
L 254.196364 78.136297 
L 254.521343 86.296879 
L 254.846323 87.316952 
L 255.171302 95.477533 
L 255.496282 80.176442 
L 256.146241 102.618042 
L 256.47122 87.316952 
L 256.7962 86.296879 
L 257.121179 79.15637 
L 257.446159 88.337024 
L 257.771138 86.296879 
L 258.096118 91.397242 
L 258.421097 85.276806 
L 258.746077 91.397242 
L 259.071057 87.316952 
L 259.396036 88.337024 
L 259.721016 94.457461 
L 260.045995 87.316952 
L 260.370975 93.437388 
L 260.695954 92.417315 
L 261.020934 90.37717 
L 261.345913 98.537752 
L 261.995872 87.316952 
L 262.320852 86.296879 
L 262.645831 86.296879 
L 262.970811 80.176442 
L 263.29579 93.437388 
L 263.62077 84.256733 
L 263.945749 89.357097 
L 264.270729 85.276806 
L 264.595708 86.296879 
L 264.920688 89.357097 
L 265.245667 81.196515 
L 265.570647 89.357097 
L 265.895627 86.296879 
L 266.220606 91.397242 
L 266.870565 95.477533 
L 267.195545 79.15637 
L 267.520524 86.296879 
L 267.845504 86.296879 
L 268.170483 94.457461 
L 269.145422 75.076079 
L 269.470401 86.296879 
L 269.795381 87.316952 
L 270.44534 87.316952 
L 270.770319 79.15637 
L 271.095299 84.256733 
L 271.420278 81.196515 
L 271.745258 93.437388 
L 272.070238 87.316952 
L 272.395217 90.37717 
L 272.720197 87.316952 
L 273.045176 70.995788 
L 273.370156 99.557824 
L 273.695135 82.216588 
L 274.020115 91.397242 
L 274.345094 85.276806 
L 274.670074 93.437388 
L 274.995053 82.216588 
L 275.320033 86.296879 
L 275.645012 88.337024 
L 275.969992 85.276806 
L 276.294971 80.176442 
L 276.619951 84.256733 
L 276.94493 83.236661 
L 277.26991 87.316952 
L 277.594889 85.276806 
L 277.919869 85.276806 
L 278.244848 90.37717 
L 278.569828 87.316952 
L 278.894808 91.397242 
L 279.219787 83.236661 
L 279.544767 86.296879 
L 279.869746 93.437388 
L 280.194726 82.216588 
L 280.844685 92.417315 
L 281.169664 80.176442 
L 281.494644 93.437388 
L 281.819623 83.236661 
L 282.144603 87.316952 
L 282.469582 87.316952 
L 283.119541 82.216588 
L 283.444521 82.216588 
L 283.7695 85.276806 
L 284.09448 78.136297 
L 284.744439 94.457461 
L 285.069419 82.216588 
L 285.719378 88.337024 
L 286.044357 89.357097 
L 286.369337 85.276806 
L 286.694316 83.236661 
L 287.019296 85.276806 
L 287.344275 96.497606 
L 287.669255 87.316952 
L 287.994234 87.316952 
L 288.644193 91.397242 
L 288.969173 77.116224 
L 289.294152 78.136297 
L 289.619132 91.397242 
L 289.944111 85.276806 
L 290.269091 86.296879 
L 290.59407 98.537752 
L 290.91905 78.136297 
L 291.244029 86.296879 
L 291.569009 85.276806 
L 291.893989 83.236661 
L 292.218968 80.176442 
L 292.868927 88.337024 
L 293.193907 84.256733 
L 293.518886 86.296879 
L 293.843866 82.216588 
L 294.168845 94.457461 
L 294.493825 84.256733 
L 295.143784 88.337024 
L 295.468763 79.15637 
L 295.793743 90.37717 
L 296.118722 87.316952 
L 296.443702 82.216588 
L 297.41864 90.37717 
L 297.74362 79.15637 
L 298.0686 99.557824 
L 298.393579 82.216588 
L 298.718559 89.357097 
L 299.368518 80.176442 
L 299.693497 81.196515 
L 300.018477 87.316952 
L 300.343456 87.316952 
L 300.668436 74.056006 
L 300.993415 82.216588 
L 301.318395 79.15637 
L 301.643374 84.256733 
L 301.968354 86.296879 
L 302.293333 86.296879 
L 302.618313 88.337024 
L 302.943292 86.296879 
L 303.268272 81.196515 
L 303.593251 92.417315 
L 303.918231 84.256733 
L 304.24321 86.296879 
L 304.56819 94.457461 
L 304.89317 90.37717 
L 305.543129 75.076079 
L 305.868108 89.357097 
L 306.193088 82.216588 
L 306.518067 79.15637 
L 306.843047 86.296879 
L 307.168026 83.236661 
L 307.493006 78.136297 
L 307.817985 79.15637 
L 308.142965 86.296879 
L 308.467944 83.236661 
L 308.792924 91.397242 
L 309.117903 95.477533 
L 309.442883 80.176442 
L 309.767862 81.196515 
L 310.417821 96.497606 
L 310.742801 81.196515 
L 311.067781 79.15637 
L 311.39276 73.035933 
L 311.71774 81.196515 
L 312.042719 83.236661 
L 312.367699 83.236661 
L 312.692678 87.316952 
L 313.017658 78.136297 
L 313.342637 79.15637 
L 313.667617 90.37717 
L 314.317576 82.216588 
L 314.642555 89.357097 
L 314.967535 79.15637 
L 315.292514 80.176442 
L 315.617494 89.357097 
L 315.942473 82.216588 
L 316.267453 80.176442 
L 316.592432 79.15637 
L 316.917412 82.216588 
L 317.242391 75.076079 
L 317.567371 79.15637 
L 317.892351 76.096152 
L 318.21733 78.136297 
L 318.54231 83.236661 
L 318.867289 78.136297 
L 319.192269 95.477533 
L 319.842228 83.236661 
L 320.167207 83.236661 
L 320.492187 81.196515 
L 320.817166 87.316952 
L 321.142146 86.296879 
L 321.467125 95.477533 
L 321.792105 81.196515 
L 322.117084 86.296879 
L 322.442064 89.357097 
L 322.767043 78.136297 
L 323.092023 83.236661 
L 323.417002 80.176442 
L 323.741982 82.216588 
L 324.066962 82.216588 
L 324.391941 76.096152 
L 324.716921 83.236661 
L 325.0419 75.076079 
L 325.36688 83.236661 
L 325.691859 77.116224 
L 326.016839 81.196515 
L 326.341818 81.196515 
L 326.666798 95.477533 
L 326.991777 81.196515 
L 327.316757 81.196515 
L 327.641736 83.236661 
L 327.966716 82.216588 
L 328.291695 85.276806 
L 328.616675 86.296879 
L 328.941654 74.056006 
L 329.266634 85.276806 
L 329.591613 88.337024 
L 329.916593 78.136297 
L 330.241572 82.216588 
L 330.566552 80.176442 
L 330.891532 91.397242 
L 331.541491 74.056006 
L 331.86647 77.116224 
L 332.19145 85.276806 
L 332.516429 80.176442 
L 332.841409 79.15637 
L 333.166388 86.296879 
L 333.491368 87.316952 
L 333.816347 79.15637 
L 334.141327 86.296879 
L 334.466306 85.276806 
L 334.791286 87.316952 
L 335.116265 90.37717 
L 335.441245 84.256733 
L 335.766224 91.397242 
L 336.091204 87.316952 
L 336.416183 81.196515 
L 337.391122 81.196515 
L 337.716102 88.337024 
L 338.041081 86.296879 
L 338.366061 77.116224 
L 338.69104 78.136297 
L 339.01602 88.337024 
L 339.340999 82.216588 
L 339.990958 76.096152 
L 340.315938 83.236661 
L 340.640917 82.216588 
L 340.965897 78.136297 
L 341.290876 81.196515 
L 341.615856 82.216588 
L 341.940835 78.136297 
L 342.265815 69.975715 
L 342.590794 86.296879 
L 342.915774 76.096152 
L 343.240753 81.196515 
L 343.565733 72.015861 
L 343.890713 85.276806 
L 344.215692 83.236661 
L 344.540672 83.236661 
L 344.865651 91.397242 
L 345.190631 77.116224 
L 345.51561 90.37717 
L 345.84059 79.15637 
L 346.165569 78.136297 
L 346.490549 78.136297 
L 346.815528 90.37717 
L 347.140508 77.116224 
L 347.465487 75.076079 
L 347.790467 74.056006 
L 348.115446 86.296879 
L 348.440426 82.216588 
L 348.765405 82.216588 
L 349.090385 79.15637 
L 349.415364 78.136297 
L 349.740344 82.216588 
L 350.065324 88.337024 
L 350.390303 70.995788 
L 350.715283 74.056006 
L 351.040262 90.37717 
L 351.365242 77.116224 
L 351.690221 88.337024 
L 352.015201 89.357097 
L 352.34018 82.216588 
L 352.66516 80.176442 
L 352.990139 86.296879 
L 353.315119 85.276806 
L 353.640098 79.15637 
L 354.290057 88.337024 
L 354.615037 87.316952 
L 354.940016 80.176442 
L 355.264996 88.337024 
L 355.914955 82.216588 
L 356.239934 88.337024 
L 356.564914 86.296879 
L 356.889894 81.196515 
L 357.214873 80.176442 
L 357.539853 86.296879 
L 357.864832 82.216588 
L 358.189812 87.316952 
L 358.514791 81.196515 
L 358.839771 78.136297 
L 359.16475 86.296879 
L 359.48973 78.136297 
L 359.814709 75.076079 
L 360.464668 87.316952 
L 360.789648 80.176442 
L 361.114627 77.116224 
L 361.439607 85.276806 
L 361.764586 85.276806 
L 362.089566 86.296879 
L 362.414545 76.096152 
L 362.739525 82.216588 
L 363.064505 78.136297 
L 363.389484 83.236661 
L 364.039443 75.076079 
L 364.364423 85.276806 
L 364.689402 81.196515 
L 365.014382 81.196515 
L 365.339361 79.15637 
L 365.664341 80.176442 
L 365.98932 79.15637 
L 366.3143 74.056006 
L 366.639279 80.176442 
L 366.964259 89.357097 
L 367.289238 83.236661 
L 367.614218 85.276806 
L 367.939197 79.15637 
L 368.264177 78.136297 
L 368.589156 82.216588 
L 368.914136 81.196515 
L 369.239115 77.116224 
L 369.564095 79.15637 
L 369.889075 76.096152 
L 370.214054 77.116224 
L 370.539034 82.216588 
L 370.864013 74.056006 
L 371.188993 77.116224 
L 371.513972 89.357097 
L 371.838952 73.035933 
L 372.163931 83.236661 
L 372.488911 87.316952 
L 372.81389 77.116224 
L 373.13887 82.216588 
L 373.463849 79.15637 
L 374.113808 81.196515 
L 374.438788 85.276806 
L 374.763767 82.216588 
L 375.088747 82.216588 
L 375.413726 81.196515 
L 376.063686 77.116224 
L 376.388665 80.176442 
L 376.713645 80.176442 
L 377.038624 91.397242 
L 377.363604 85.276806 
L 377.688583 74.056006 
L 378.013563 76.096152 
L 378.338542 84.256733 
L 378.663522 89.357097 
L 378.988501 79.15637 
L 379.63846 72.015861 
L 379.96344 83.236661 
L 380.288419 89.357097 
L 380.613399 74.056006 
L 380.938378 89.357097 
L 381.263358 80.176442 
L 381.588337 78.136297 
L 381.913317 78.136297 
L 382.238296 84.256733 
L 382.563276 87.316952 
L 382.888256 73.035933 
L 383.213235 84.256733 
L 383.538215 86.296879 
L 384.188174 72.015861 
L 384.513153 79.15637 
L 384.838133 80.176442 
L 385.163112 75.076079 
L 385.813071 75.076079 
L 386.138051 72.015861 
L 386.46303 79.15637 
L 386.78801 81.196515 
L 387.112989 81.196515 
L 387.437969 89.357097 
L 387.762948 77.116224 
L 388.087928 75.076079 
L 388.412907 83.236661 
L 388.737887 82.216588 
L 389.062867 74.056006 
L 389.387846 81.196515 
L 389.712826 84.256733 
L 390.037805 81.196515 
L 390.362785 82.216588 
L 390.687764 85.276806 
L 391.337723 75.076079 
L 391.662703 83.236661 
L 391.987682 87.316952 
L 392.312662 82.216588 
L 392.637641 83.236661 
L 392.962621 82.216588 
L 393.2876 85.276806 
L 393.61258 84.256733 
L 393.937559 85.276806 
L 394.262539 76.096152 
L 394.587518 78.136297 
L 394.912498 79.15637 
L 395.237477 83.236661 
L 395.562457 85.276806 
L 395.887437 84.256733 
L 396.212416 77.116224 
L 396.537396 79.15637 
L 396.862375 74.056006 
L 397.187355 79.15637 
L 397.512334 77.116224 
L 397.837314 80.176442 
L 398.162293 81.196515 
L 398.487273 80.176442 
L 398.487273 80.176442 
" style="fill:none;stroke:#2ca02c;stroke-dasharray:1.5,1.5;stroke-dashoffset:0;stroke-width:1.5;"/>
   </g>
   <g id="line2d_18"/>
   <g id="line2d_19"/>
   <g id="line2d_20"/>
   <g id="patch_3">
    <path d="M 57.6 307.584 
L 57.6 41.472 
" style="fill:none;stroke:#000000;stroke-linecap:square;stroke-linejoin:miter;stroke-width:0.8;"/>
   </g>
   <g id="patch_4">
    <path d="M 414.72 307.584 
L 414.72 41.472 
" style="fill:none;stroke:#000000;stroke-linecap:square;stroke-linejoin:miter;stroke-width:0.8;"/>
   </g>
   <g id="patch_5">
    <path d="M 57.6 307.584 
L 414.72 307.584 
" style="fill:none;stroke:#000000;stroke-linecap:square;stroke-linejoin:miter;stroke-width:0.8;"/>
   </g>
   <g id="patch_6">
    <path d="M 57.6 41.472 
L 414.72 41.472 
" style="fill:none;stroke:#000000;stroke-linecap:square;stroke-linejoin:miter;stroke-width:0.8;"/>
   </g>
   <g id="text_16">
    <!-- % Optimal Action -->
    <defs>
     <path d="M 72.703125 32.078125 
Q 68.453125 32.078125 66.03125 28.46875 
Q 63.625 24.859375 63.625 18.40625 
Q 63.625 12.0625 66.03125 8.421875 
Q 68.453125 4.78125 72.703125 4.78125 
Q 76.859375 4.78125 79.265625 8.421875 
Q 81.6875 12.0625 81.6875 18.40625 
Q 81.6875 24.8125 79.265625 28.4375 
Q 76.859375 32.078125 72.703125 32.078125 
z
M 72.703125 38.28125 
Q 80.421875 38.28125 84.953125 32.90625 
Q 89.5 27.546875 89.5 18.40625 
Q 89.5 9.28125 84.9375 3.921875 
Q 80.375 -1.421875 72.703125 -1.421875 
Q 64.890625 -1.421875 60.34375 3.921875 
Q 55.8125 9.28125 55.8125 18.40625 
Q 55.8125 27.59375 60.375 32.9375 
Q 64.9375 38.28125 72.703125 38.28125 
z
M 22.3125 68.015625 
Q 18.109375 68.015625 15.6875 64.375 
Q 13.28125 60.75 13.28125 54.390625 
Q 13.28125 47.953125 15.671875 44.328125 
Q 18.0625 40.71875 22.3125 40.71875 
Q 26.5625 40.71875 28.96875 44.328125 
Q 31.390625 47.953125 31.390625 54.390625 
Q 31.390625 60.6875 28.953125 64.34375 
Q 26.515625 68.015625 22.3125 68.015625 
z
M 66.40625 74.21875 
L 74.21875 74.21875 
L 28.609375 -1.421875 
L 20.796875 -1.421875 
z
M 22.3125 74.21875 
Q 30.03125 74.21875 34.609375 68.875 
Q 39.203125 63.53125 39.203125 54.390625 
Q 39.203125 45.171875 34.640625 39.84375 
Q 30.078125 34.515625 22.3125 34.515625 
Q 14.546875 34.515625 10.03125 39.859375 
Q 5.515625 45.21875 5.515625 54.390625 
Q 5.515625 63.484375 10.046875 68.84375 
Q 14.59375 74.21875 22.3125 74.21875 
z
" id="DejaVuSans-37"/>
     <path id="DejaVuSans-32"/>
     <path d="M 39.40625 66.21875 
Q 28.65625 66.21875 22.328125 58.203125 
Q 16.015625 50.203125 16.015625 36.375 
Q 16.015625 22.609375 22.328125 14.59375 
Q 28.65625 6.59375 39.40625 6.59375 
Q 50.140625 6.59375 56.421875 14.59375 
Q 62.703125 22.609375 62.703125 36.375 
Q 62.703125 50.203125 56.421875 58.203125 
Q 50.140625 66.21875 39.40625 66.21875 
z
M 39.40625 74.21875 
Q 54.734375 74.21875 63.90625 63.9375 
Q 73.09375 53.65625 73.09375 36.375 
Q 73.09375 19.140625 63.90625 8.859375 
Q 54.734375 -1.421875 39.40625 -1.421875 
Q 24.03125 -1.421875 14.8125 8.828125 
Q 5.609375 19.09375 5.609375 36.375 
Q 5.609375 53.65625 14.8125 63.9375 
Q 24.03125 74.21875 39.40625 74.21875 
z
" id="DejaVuSans-79"/>
     <path d="M 9.421875 54.6875 
L 18.40625 54.6875 
L 18.40625 0 
L 9.421875 0 
z
M 9.421875 75.984375 
L 18.40625 75.984375 
L 18.40625 64.59375 
L 9.421875 64.59375 
z
" id="DejaVuSans-105"/>
     <path d="M 52 44.1875 
Q 55.375 50.25 60.0625 53.125 
Q 64.75 56 71.09375 56 
Q 79.640625 56 84.28125 50.015625 
Q 88.921875 44.046875 88.921875 33.015625 
L 88.921875 0 
L 79.890625 0 
L 79.890625 32.71875 
Q 79.890625 40.578125 77.09375 44.375 
Q 74.3125 48.1875 68.609375 48.1875 
Q 61.625 48.1875 57.5625 43.546875 
Q 53.515625 38.921875 53.515625 30.90625 
L 53.515625 0 
L 44.484375 0 
L 44.484375 32.71875 
Q 44.484375 40.625 41.703125 44.40625 
Q 38.921875 48.1875 33.109375 48.1875 
Q 26.21875 48.1875 22.15625 43.53125 
Q 18.109375 38.875 18.109375 30.90625 
L 18.109375 0 
L 9.078125 0 
L 9.078125 54.6875 
L 18.109375 54.6875 
L 18.109375 46.1875 
Q 21.1875 51.21875 25.484375 53.609375 
Q 29.78125 56 35.6875 56 
Q 41.65625 56 45.828125 52.96875 
Q 50 49.953125 52 44.1875 
z
" id="DejaVuSans-109"/>
     <path d="M 34.28125 27.484375 
Q 23.390625 27.484375 19.1875 25 
Q 14.984375 22.515625 14.984375 16.5 
Q 14.984375 11.71875 18.140625 8.90625 
Q 21.296875 6.109375 26.703125 6.109375 
Q 34.1875 6.109375 38.703125 11.40625 
Q 43.21875 16.703125 43.21875 25.484375 
L 43.21875 27.484375 
z
M 52.203125 31.203125 
L 52.203125 0 
L 43.21875 0 
L 43.21875 8.296875 
Q 40.140625 3.328125 35.546875 0.953125 
Q 30.953125 -1.421875 24.3125 -1.421875 
Q 15.921875 -1.421875 10.953125 3.296875 
Q 6 8.015625 6 15.921875 
Q 6 25.140625 12.171875 29.828125 
Q 18.359375 34.515625 30.609375 34.515625 
L 43.21875 34.515625 
L 43.21875 35.40625 
Q 43.21875 41.609375 39.140625 45 
Q 35.0625 48.390625 27.6875 48.390625 
Q 23 48.390625 18.546875 47.265625 
Q 14.109375 46.140625 10.015625 43.890625 
L 10.015625 52.203125 
Q 14.9375 54.109375 19.578125 55.046875 
Q 24.21875 56 28.609375 56 
Q 40.484375 56 46.34375 49.84375 
Q 52.203125 43.703125 52.203125 31.203125 
z
" id="DejaVuSans-97"/>
     <path d="M 9.421875 75.984375 
L 18.40625 75.984375 
L 18.40625 0 
L 9.421875 0 
z
" id="DejaVuSans-108"/>
     <path d="M 34.1875 63.1875 
L 20.796875 26.90625 
L 47.609375 26.90625 
z
M 28.609375 72.90625 
L 39.796875 72.90625 
L 67.578125 0 
L 57.328125 0 
L 50.6875 18.703125 
L 17.828125 18.703125 
L 11.1875 0 
L 0.78125 0 
z
" id="DejaVuSans-65"/>
     <path d="M 48.78125 52.59375 
L 48.78125 44.1875 
Q 44.96875 46.296875 41.140625 47.34375 
Q 37.3125 48.390625 33.40625 48.390625 
Q 24.65625 48.390625 19.8125 42.84375 
Q 14.984375 37.3125 14.984375 27.296875 
Q 14.984375 17.28125 19.8125 11.734375 
Q 24.65625 6.203125 33.40625 6.203125 
Q 37.3125 6.203125 41.140625 7.25 
Q 44.96875 8.296875 48.78125 10.40625 
L 48.78125 2.09375 
Q 45.015625 0.34375 40.984375 -0.53125 
Q 36.96875 -1.421875 32.421875 -1.421875 
Q 20.0625 -1.421875 12.78125 6.34375 
Q 5.515625 14.109375 5.515625 27.296875 
Q 5.515625 40.671875 12.859375 48.328125 
Q 20.21875 56 33.015625 56 
Q 37.15625 56 41.109375 55.140625 
Q 45.0625 54.296875 48.78125 52.59375 
z
" id="DejaVuSans-99"/>
     <path d="M 30.609375 48.390625 
Q 23.390625 48.390625 19.1875 42.75 
Q 14.984375 37.109375 14.984375 27.296875 
Q 14.984375 17.484375 19.15625 11.84375 
Q 23.34375 6.203125 30.609375 6.203125 
Q 37.796875 6.203125 41.984375 11.859375 
Q 46.1875 17.53125 46.1875 27.296875 
Q 46.1875 37.015625 41.984375 42.703125 
Q 37.796875 48.390625 30.609375 48.390625 
z
M 30.609375 56 
Q 42.328125 56 49.015625 48.375 
Q 55.71875 40.765625 55.71875 27.296875 
Q 55.71875 13.875 49.015625 6.21875 
Q 42.328125 -1.421875 30.609375 -1.421875 
Q 18.84375 -1.421875 12.171875 6.21875 
Q 5.515625 13.875 5.515625 27.296875 
Q 5.515625 40.765625 12.171875 48.375 
Q 18.84375 56 30.609375 56 
z
" id="DejaVuSans-111"/>
     <path d="M 54.890625 33.015625 
L 54.890625 0 
L 45.90625 0 
L 45.90625 32.71875 
Q 45.90625 40.484375 42.875 44.328125 
Q 39.84375 48.1875 33.796875 48.1875 
Q 26.515625 48.1875 22.3125 43.546875 
Q 18.109375 38.921875 18.109375 30.90625 
L 18.109375 0 
L 9.078125 0 
L 9.078125 54.6875 
L 18.109375 54.6875 
L 18.109375 46.1875 
Q 21.34375 51.125 25.703125 53.5625 
Q 30.078125 56 35.796875 56 
Q 45.21875 56 50.046875 50.171875 
Q 54.890625 44.34375 54.890625 33.015625 
z
" id="DejaVuSans-110"/>
    </defs>
    <g transform="translate(184.010625 35.472)scale(0.12 -0.12)">
     <use xlink:href="#DejaVuSans-37"/>
     <use x="95.019531" xlink:href="#DejaVuSans-32"/>
     <use x="126.806641" xlink:href="#DejaVuSans-79"/>
     <use x="205.517578" xlink:href="#DejaVuSans-112"/>
     <use x="268.994141" xlink:href="#DejaVuSans-116"/>
     <use x="308.203125" xlink:href="#DejaVuSans-105"/>
     <use x="335.986328" xlink:href="#DejaVuSans-109"/>
     <use x="433.398438" xlink:href="#DejaVuSans-97"/>
     <use x="494.677734" xlink:href="#DejaVuSans-108"/>
     <use x="522.460938" xlink:href="#DejaVuSans-32"/>
     <use x="554.248047" xlink:href="#DejaVuSans-65"/>
     <use x="622.640625" xlink:href="#DejaVuSans-99"/>
     <use x="677.621094" xlink:href="#DejaVuSans-116"/>
     <use x="716.830078" xlink:href="#DejaVuSans-105"/>
     <use x="744.613281" xlink:href="#DejaVuSans-111"/>
     <use x="805.794922" xlink:href="#DejaVuSans-110"/>
    </g>
   </g>
   <g id="legend_1">
    <g id="patch_7">
     <path d="M 64.6 94.34075 
L 182.639062 94.34075 
Q 184.639062 94.34075 184.639062 92.34075 
L 184.639062 48.472 
Q 184.639062 46.472 182.639062 46.472 
L 64.6 46.472 
Q 62.6 46.472 62.6 48.472 
L 62.6 92.34075 
Q 62.6 94.34075 64.6 94.34075 
z
" style="fill:#ffffff;opacity:0.8;stroke:#cccccc;stroke-linejoin:miter;"/>
    </g>
    <g id="line2d_21">
     <path d="M 66.6 54.570438 
L 86.6 54.570438 
" style="fill:none;stroke:#1f77b4;stroke-linecap:square;stroke-width:1.5;"/>
    </g>
    <g id="line2d_22"/>
    <g id="text_17">
     <!-- env__n_arms=9 -->
     <defs>
      <path d="M 2.984375 54.6875 
L 12.5 54.6875 
L 29.59375 8.796875 
L 46.6875 54.6875 
L 56.203125 54.6875 
L 35.6875 0 
L 23.484375 0 
z
" id="DejaVuSans-118"/>
      <path d="M 50.984375 -16.609375 
L 50.984375 -23.578125 
L -0.984375 -23.578125 
L -0.984375 -16.609375 
z
" id="DejaVuSans-95"/>
      <path d="M 41.109375 46.296875 
Q 39.59375 47.171875 37.8125 47.578125 
Q 36.03125 48 33.890625 48 
Q 26.265625 48 22.1875 43.046875 
Q 18.109375 38.09375 18.109375 28.8125 
L 18.109375 0 
L 9.078125 0 
L 9.078125 54.6875 
L 18.109375 54.6875 
L 18.109375 46.1875 
Q 20.953125 51.171875 25.484375 53.578125 
Q 30.03125 56 36.53125 56 
Q 37.453125 56 38.578125 55.875 
Q 39.703125 55.765625 41.0625 55.515625 
z
" id="DejaVuSans-114"/>
      <path d="M 10.59375 45.40625 
L 73.1875 45.40625 
L 73.1875 37.203125 
L 10.59375 37.203125 
z
M 10.59375 25.484375 
L 73.1875 25.484375 
L 73.1875 17.1875 
L 10.59375 17.1875 
z
" id="DejaVuSans-61"/>
      <path d="M 10.984375 1.515625 
L 10.984375 10.5 
Q 14.703125 8.734375 18.5 7.8125 
Q 22.3125 6.890625 25.984375 6.890625 
Q 35.75 6.890625 40.890625 13.453125 
Q 46.046875 20.015625 46.78125 33.40625 
Q 43.953125 29.203125 39.59375 26.953125 
Q 35.25 24.703125 29.984375 24.703125 
Q 19.046875 24.703125 12.671875 31.3125 
Q 6.296875 37.9375 6.296875 49.421875 
Q 6.296875 60.640625 12.9375 67.421875 
Q 19.578125 74.21875 30.609375 74.21875 
Q 43.265625 74.21875 49.921875 64.515625 
Q 56.59375 54.828125 56.59375 36.375 
Q 56.59375 19.140625 48.40625 8.859375 
Q 40.234375 -1.421875 26.421875 -1.421875 
Q 22.703125 -1.421875 18.890625 -0.6875 
Q 15.09375 0.046875 10.984375 1.515625 
z
M 30.609375 32.421875 
Q 37.25 32.421875 41.125 36.953125 
Q 45.015625 41.5 45.015625 49.421875 
Q 45.015625 57.28125 41.125 61.84375 
Q 37.25 66.40625 30.609375 66.40625 
Q 23.96875 66.40625 20.09375 61.84375 
Q 16.21875 57.28125 16.21875 49.421875 
Q 16.21875 41.5 20.09375 36.953125 
Q 23.96875 32.421875 30.609375 32.421875 
z
" id="DejaVuSans-57"/>
     </defs>
     <g transform="translate(94.6 58.070438)scale(0.1 -0.1)">
      <use xlink:href="#DejaVuSans-101"/>
      <use x="61.523438" xlink:href="#DejaVuSans-110"/>
      <use x="124.902344" xlink:href="#DejaVuSans-118"/>
      <use x="184.082031" xlink:href="#DejaVuSans-95"/>
      <use x="234.082031" xlink:href="#DejaVuSans-95"/>
      <use x="284.082031" xlink:href="#DejaVuSans-110"/>
      <use x="347.460938" xlink:href="#DejaVuSans-95"/>
      <use x="397.460938" xlink:href="#DejaVuSans-97"/>
      <use x="458.740234" xlink:href="#DejaVuSans-114"/>
      <use x="499.837891" xlink:href="#DejaVuSans-109"/>
      <use x="597.25" xlink:href="#DejaVuSans-115"/>
      <use x="649.349609" xlink:href="#DejaVuSans-61"/>
      <use x="733.138672" xlink:href="#DejaVuSans-57"/>
     </g>
    </g>
    <g id="line2d_23">
     <path d="M 66.6 69.526688 
L 86.6 69.526688 
" style="fill:none;stroke:#ff7f0e;stroke-dasharray:6,2.25;stroke-dashoffset:0;stroke-width:1.5;"/>
    </g>
    <g id="line2d_24"/>
    <g id="text_18">
     <!-- env__n_arms=10 -->
     <g transform="translate(94.6 73.026688)scale(0.1 -0.1)">
      <use xlink:href="#DejaVuSans-101"/>
      <use x="61.523438" xlink:href="#DejaVuSans-110"/>
      <use x="124.902344" xlink:href="#DejaVuSans-118"/>
      <use x="184.082031" xlink:href="#DejaVuSans-95"/>
      <use x="234.082031" xlink:href="#DejaVuSans-95"/>
      <use x="284.082031" xlink:href="#DejaVuSans-110"/>
      <use x="347.460938" xlink:href="#DejaVuSans-95"/>
      <use x="397.460938" xlink:href="#DejaVuSans-97"/>
      <use x="458.740234" xlink:href="#DejaVuSans-114"/>
      <use x="499.837891" xlink:href="#DejaVuSans-109"/>
      <use x="597.25" xlink:href="#DejaVuSans-115"/>
      <use x="649.349609" xlink:href="#DejaVuSans-61"/>
      <use x="733.138672" xlink:href="#DejaVuSans-49"/>
      <use x="796.761719" xlink:href="#DejaVuSans-48"/>
     </g>
    </g>
    <g id="line2d_25">
     <path d="M 66.6 84.482938 
L 86.6 84.482938 
" style="fill:none;stroke:#2ca02c;stroke-dasharray:1.5,1.5;stroke-dashoffset:0;stroke-width:1.5;"/>
    </g>
    <g id="line2d_26"/>
    <g id="text_19">
     <!-- env__n_arms=11 -->
     <g transform="translate(94.6 87.982938)scale(0.1 -0.1)">
      <use xlink:href="#DejaVuSans-101"/>
      <use x="61.523438" xlink:href="#DejaVuSans-110"/>
      <use x="124.902344" xlink:href="#DejaVuSans-118"/>
      <use x="184.082031" xlink:href="#DejaVuSans-95"/>
      <use x="234.082031" xlink:href="#DejaVuSans-95"/>
      <use x="284.082031" xlink:href="#DejaVuSans-110"/>
      <use x="347.460938" xlink:href="#DejaVuSans-95"/>
      <use x="397.460938" xlink:href="#DejaVuSans-97"/>
      <use x="458.740234" xlink:href="#DejaVuSans-114"/>
      <use x="499.837891" xlink:href="#DejaVuSans-109"/>
      <use x="597.25" xlink:href="#DejaVuSans-115"/>
      <use x="649.349609" xlink:href="#DejaVuSans-61"/>
      <use x="733.138672" xlink:href="#DejaVuSans-49"/>
      <use x="796.761719" xlink:href="#DejaVuSans-49"/>
     </g>
    </g>
   </g>
  </g>
 </g>
 <defs>
  <clipPath id="pbddb8396b6">
   <rect height="266.112" width="357.12" x="57.6" y="41.472"/>
  </clipPath>
 </defs>
</svg>
