<?xml version="1.0" encoding="utf-8" standalone="no"?>
<!DOCTYPE svg PUBLIC "-//W3C//DTD SVG 1.1//EN"
  "http://www.w3.org/Graphics/SVG/1.1/DTD/svg11.dtd">
<!-- Created with matplotlib (https://matplotlib.org/) -->
<svg height="345.6pt" version="1.1" viewBox="0 0 460.8 345.6" width="460.8pt" xmlns="http://www.w3.org/2000/svg" xmlns:xlink="http://www.w3.org/1999/xlink">
 <defs>
  <style type="text/css">
*{stroke-linecap:butt;stroke-linejoin:round;}
  </style>
 </defs>
 <g id="figure_1">
  <g id="patch_1">
   <path d="M 0 345.6 
L 460.8 345.6 
L 460.8 0 
L 0 0 
z
" style="fill:#ffffff;"/>
  </g>
  <g id="axes_1">
   <g id="patch_2">
    <path d="M 57.6 307.584 
L 414.72 307.584 
L 414.72 41.472 
L 57.6 41.472 
z
" style="fill:#ffffff;"/>
   </g>
   <g id="matplotlib.axis_1">
    <g id="xtick_1">
     <g id="line2d_1">
      <defs>
       <path d="M 0 0 
L 0 3.5 
" id="mf937165708" style="stroke:#000000;stroke-width:0.8;"/>
      </defs>
      <g>
       <use style="stroke:#000000;stroke-width:0.8;" x="73.832727" xlink:href="#mf937165708" y="307.584"/>
      </g>
     </g>
     <g id="text_1">
      <!-- 0 -->
      <defs>
       <path d="M 31.78125 66.40625 
Q 24.171875 66.40625 20.328125 58.90625 
Q 16.5 51.421875 16.5 36.375 
Q 16.5 21.390625 20.328125 13.890625 
Q 24.171875 6.390625 31.78125 6.390625 
Q 39.453125 6.390625 43.28125 13.890625 
Q 47.125 21.390625 47.125 36.375 
Q 47.125 51.421875 43.28125 58.90625 
Q 39.453125 66.40625 31.78125 66.40625 
z
M 31.78125 74.21875 
Q 44.046875 74.21875 50.515625 64.515625 
Q 56.984375 54.828125 56.984375 36.375 
Q 56.984375 17.96875 50.515625 8.265625 
Q 44.046875 -1.421875 31.78125 -1.421875 
Q 19.53125 -1.421875 13.0625 8.265625 
Q 6.59375 17.96875 6.59375 36.375 
Q 6.59375 54.828125 13.0625 64.515625 
Q 19.53125 74.21875 31.78125 74.21875 
z
" id="DejaVuSans-48"/>
      </defs>
      <g transform="translate(70.651477 322.182437)scale(0.1 -0.1)">
       <use xlink:href="#DejaVuSans-48"/>
      </g>
     </g>
    </g>
    <g id="xtick_2">
     <g id="line2d_2">
      <g>
       <use style="stroke:#000000;stroke-width:0.8;" x="138.828632" xlink:href="#mf937165708" y="307.584"/>
      </g>
     </g>
     <g id="text_2">
      <!-- 200 -->
      <defs>
       <path d="M 19.1875 8.296875 
L 53.609375 8.296875 
L 53.609375 0 
L 7.328125 0 
L 7.328125 8.296875 
Q 12.9375 14.109375 22.625 23.890625 
Q 32.328125 33.6875 34.8125 36.53125 
Q 39.546875 41.84375 41.421875 45.53125 
Q 43.3125 49.21875 43.3125 52.78125 
Q 43.3125 58.59375 39.234375 62.25 
Q 35.15625 65.921875 28.609375 65.921875 
Q 23.96875 65.921875 18.8125 64.3125 
Q 13.671875 62.703125 7.8125 59.421875 
L 7.8125 69.390625 
Q 13.765625 71.78125 18.9375 73 
Q 24.125 74.21875 28.421875 74.21875 
Q 39.75 74.21875 46.484375 68.546875 
Q 53.21875 62.890625 53.21875 53.421875 
Q 53.21875 48.921875 51.53125 44.890625 
Q 49.859375 40.875 45.40625 35.40625 
Q 44.1875 33.984375 37.640625 27.21875 
Q 31.109375 20.453125 19.1875 8.296875 
z
" id="DejaVuSans-50"/>
      </defs>
      <g transform="translate(129.284882 322.182437)scale(0.1 -0.1)">
       <use xlink:href="#DejaVuSans-50"/>
       <use x="63.623047" xlink:href="#DejaVuSans-48"/>
       <use x="127.246094" xlink:href="#DejaVuSans-48"/>
      </g>
     </g>
    </g>
    <g id="xtick_3">
     <g id="line2d_3">
      <g>
       <use style="stroke:#000000;stroke-width:0.8;" x="203.824537" xlink:href="#mf937165708" y="307.584"/>
      </g>
     </g>
     <g id="text_3">
      <!-- 400 -->
      <defs>
       <path d="M 37.796875 64.3125 
L 12.890625 25.390625 
L 37.796875 25.390625 
z
M 35.203125 72.90625 
L 47.609375 72.90625 
L 47.609375 25.390625 
L 58.015625 25.390625 
L 58.015625 17.1875 
L 47.609375 17.1875 
L 47.609375 0 
L 37.796875 0 
L 37.796875 17.1875 
L 4.890625 17.1875 
L 4.890625 26.703125 
z
" id="DejaVuSans-52"/>
      </defs>
      <g transform="translate(194.280787 322.182437)scale(0.1 -0.1)">
       <use xlink:href="#DejaVuSans-52"/>
       <use x="63.623047" xlink:href="#DejaVuSans-48"/>
       <use x="127.246094" xlink:href="#DejaVuSans-48"/>
      </g>
     </g>
    </g>
    <g id="xtick_4">
     <g id="line2d_4">
      <g>
       <use style="stroke:#000000;stroke-width:0.8;" x="268.820442" xlink:href="#mf937165708" y="307.584"/>
      </g>
     </g>
     <g id="text_4">
      <!-- 600 -->
      <defs>
       <path d="M 33.015625 40.375 
Q 26.375 40.375 22.484375 35.828125 
Q 18.609375 31.296875 18.609375 23.390625 
Q 18.609375 15.53125 22.484375 10.953125 
Q 26.375 6.390625 33.015625 6.390625 
Q 39.65625 6.390625 43.53125 10.953125 
Q 47.40625 15.53125 47.40625 23.390625 
Q 47.40625 31.296875 43.53125 35.828125 
Q 39.65625 40.375 33.015625 40.375 
z
M 52.59375 71.296875 
L 52.59375 62.3125 
Q 48.875 64.0625 45.09375 64.984375 
Q 41.3125 65.921875 37.59375 65.921875 
Q 27.828125 65.921875 22.671875 59.328125 
Q 17.53125 52.734375 16.796875 39.40625 
Q 19.671875 43.65625 24.015625 45.921875 
Q 28.375 48.1875 33.59375 48.1875 
Q 44.578125 48.1875 50.953125 41.515625 
Q 57.328125 34.859375 57.328125 23.390625 
Q 57.328125 12.15625 50.6875 5.359375 
Q 44.046875 -1.421875 33.015625 -1.421875 
Q 20.359375 -1.421875 13.671875 8.265625 
Q 6.984375 17.96875 6.984375 36.375 
Q 6.984375 53.65625 15.1875 63.9375 
Q 23.390625 74.21875 37.203125 74.21875 
Q 40.921875 74.21875 44.703125 73.484375 
Q 48.484375 72.75 52.59375 71.296875 
z
" id="DejaVuSans-54"/>
      </defs>
      <g transform="translate(259.276692 322.182437)scale(0.1 -0.1)">
       <use xlink:href="#DejaVuSans-54"/>
       <use x="63.623047" xlink:href="#DejaVuSans-48"/>
       <use x="127.246094" xlink:href="#DejaVuSans-48"/>
      </g>
     </g>
    </g>
    <g id="xtick_5">
     <g id="line2d_5">
      <g>
       <use style="stroke:#000000;stroke-width:0.8;" x="333.816347" xlink:href="#mf937165708" y="307.584"/>
      </g>
     </g>
     <g id="text_5">
      <!-- 800 -->
      <defs>
       <path d="M 31.78125 34.625 
Q 24.75 34.625 20.71875 30.859375 
Q 16.703125 27.09375 16.703125 20.515625 
Q 16.703125 13.921875 20.71875 10.15625 
Q 24.75 6.390625 31.78125 6.390625 
Q 38.8125 6.390625 42.859375 10.171875 
Q 46.921875 13.96875 46.921875 20.515625 
Q 46.921875 27.09375 42.890625 30.859375 
Q 38.875 34.625 31.78125 34.625 
z
M 21.921875 38.8125 
Q 15.578125 40.375 12.03125 44.71875 
Q 8.5 49.078125 8.5 55.328125 
Q 8.5 64.0625 14.71875 69.140625 
Q 20.953125 74.21875 31.78125 74.21875 
Q 42.671875 74.21875 48.875 69.140625 
Q 55.078125 64.0625 55.078125 55.328125 
Q 55.078125 49.078125 51.53125 44.71875 
Q 48 40.375 41.703125 38.8125 
Q 48.828125 37.15625 52.796875 32.3125 
Q 56.78125 27.484375 56.78125 20.515625 
Q 56.78125 9.90625 50.3125 4.234375 
Q 43.84375 -1.421875 31.78125 -1.421875 
Q 19.734375 -1.421875 13.25 4.234375 
Q 6.78125 9.90625 6.78125 20.515625 
Q 6.78125 27.484375 10.78125 32.3125 
Q 14.796875 37.15625 21.921875 38.8125 
z
M 18.3125 54.390625 
Q 18.3125 48.734375 21.84375 45.5625 
Q 25.390625 42.390625 31.78125 42.390625 
Q 38.140625 42.390625 41.71875 45.5625 
Q 45.3125 48.734375 45.3125 54.390625 
Q 45.3125 60.0625 41.71875 63.234375 
Q 38.140625 66.40625 31.78125 66.40625 
Q 25.390625 66.40625 21.84375 63.234375 
Q 18.3125 60.0625 18.3125 54.390625 
z
" id="DejaVuSans-56"/>
      </defs>
      <g transform="translate(324.272597 322.182437)scale(0.1 -0.1)">
       <use xlink:href="#DejaVuSans-56"/>
       <use x="63.623047" xlink:href="#DejaVuSans-48"/>
       <use x="127.246094" xlink:href="#DejaVuSans-48"/>
      </g>
     </g>
    </g>
    <g id="xtick_6">
     <g id="line2d_6">
      <g>
       <use style="stroke:#000000;stroke-width:0.8;" x="398.812252" xlink:href="#mf937165708" y="307.584"/>
      </g>
     </g>
     <g id="text_6">
      <!-- 1000 -->
      <defs>
       <path d="M 12.40625 8.296875 
L 28.515625 8.296875 
L 28.515625 63.921875 
L 10.984375 60.40625 
L 10.984375 69.390625 
L 28.421875 72.90625 
L 38.28125 72.90625 
L 38.28125 8.296875 
L 54.390625 8.296875 
L 54.390625 0 
L 12.40625 0 
z
" id="DejaVuSans-49"/>
      </defs>
      <g transform="translate(386.087252 322.182437)scale(0.1 -0.1)">
       <use xlink:href="#DejaVuSans-49"/>
       <use x="63.623047" xlink:href="#DejaVuSans-48"/>
       <use x="127.246094" xlink:href="#DejaVuSans-48"/>
       <use x="190.869141" xlink:href="#DejaVuSans-48"/>
      </g>
     </g>
    </g>
   </g>
   <g id="matplotlib.axis_2">
    <g id="ytick_1">
     <g id="line2d_7">
      <defs>
       <path d="M 0 0 
L -3.5 0 
" id="md1b8febfd2" style="stroke:#000000;stroke-width:0.8;"/>
      </defs>
      <g>
       <use style="stroke:#000000;stroke-width:0.8;" x="57.6" xlink:href="#md1b8febfd2" y="300.595716"/>
      </g>
     </g>
     <g id="text_7">
      <!-- 0.0 -->
      <defs>
       <path d="M 10.6875 12.40625 
L 21 12.40625 
L 21 0 
L 10.6875 0 
z
" id="DejaVuSans-46"/>
      </defs>
      <g transform="translate(34.696875 304.394935)scale(0.1 -0.1)">
       <use xlink:href="#DejaVuSans-48"/>
       <use x="63.623047" xlink:href="#DejaVuSans-46"/>
       <use x="95.410156" xlink:href="#DejaVuSans-48"/>
      </g>
     </g>
    </g>
    <g id="ytick_2">
     <g id="line2d_8">
      <g>
       <use style="stroke:#000000;stroke-width:0.8;" x="57.6" xlink:href="#md1b8febfd2" y="254.161935"/>
      </g>
     </g>
     <g id="text_8">
      <!-- 0.1 -->
      <g transform="translate(34.696875 257.961153)scale(0.1 -0.1)">
       <use xlink:href="#DejaVuSans-48"/>
       <use x="63.623047" xlink:href="#DejaVuSans-46"/>
       <use x="95.410156" xlink:href="#DejaVuSans-49"/>
      </g>
     </g>
    </g>
    <g id="ytick_3">
     <g id="line2d_9">
      <g>
       <use style="stroke:#000000;stroke-width:0.8;" x="57.6" xlink:href="#md1b8febfd2" y="207.728154"/>
      </g>
     </g>
     <g id="text_9">
      <!-- 0.2 -->
      <g transform="translate(34.696875 211.527372)scale(0.1 -0.1)">
       <use xlink:href="#DejaVuSans-48"/>
       <use x="63.623047" xlink:href="#DejaVuSans-46"/>
       <use x="95.410156" xlink:href="#DejaVuSans-50"/>
      </g>
     </g>
    </g>
    <g id="ytick_4">
     <g id="line2d_10">
      <g>
       <use style="stroke:#000000;stroke-width:0.8;" x="57.6" xlink:href="#md1b8febfd2" y="161.294372"/>
      </g>
     </g>
     <g id="text_10">
      <!-- 0.3 -->
      <defs>
       <path d="M 40.578125 39.3125 
Q 47.65625 37.796875 51.625 33 
Q 55.609375 28.21875 55.609375 21.1875 
Q 55.609375 10.40625 48.1875 4.484375 
Q 40.765625 -1.421875 27.09375 -1.421875 
Q 22.515625 -1.421875 17.65625 -0.515625 
Q 12.796875 0.390625 7.625 2.203125 
L 7.625 11.71875 
Q 11.71875 9.328125 16.59375 8.109375 
Q 21.484375 6.890625 26.8125 6.890625 
Q 36.078125 6.890625 40.9375 10.546875 
Q 45.796875 14.203125 45.796875 21.1875 
Q 45.796875 27.640625 41.28125 31.265625 
Q 36.765625 34.90625 28.71875 34.90625 
L 20.21875 34.90625 
L 20.21875 43.015625 
L 29.109375 43.015625 
Q 36.375 43.015625 40.234375 45.921875 
Q 44.09375 48.828125 44.09375 54.296875 
Q 44.09375 59.90625 40.109375 62.90625 
Q 36.140625 65.921875 28.71875 65.921875 
Q 24.65625 65.921875 20.015625 65.03125 
Q 15.375 64.15625 9.8125 62.3125 
L 9.8125 71.09375 
Q 15.4375 72.65625 20.34375 73.4375 
Q 25.25 74.21875 29.59375 74.21875 
Q 40.828125 74.21875 47.359375 69.109375 
Q 53.90625 64.015625 53.90625 55.328125 
Q 53.90625 49.265625 50.4375 45.09375 
Q 46.96875 40.921875 40.578125 39.3125 
z
" id="DejaVuSans-51"/>
      </defs>
      <g transform="translate(34.696875 165.093591)scale(0.1 -0.1)">
       <use xlink:href="#DejaVuSans-48"/>
       <use x="63.623047" xlink:href="#DejaVuSans-46"/>
       <use x="95.410156" xlink:href="#DejaVuSans-51"/>
      </g>
     </g>
    </g>
    <g id="ytick_5">
     <g id="line2d_11">
      <g>
       <use style="stroke:#000000;stroke-width:0.8;" x="57.6" xlink:href="#md1b8febfd2" y="114.860591"/>
      </g>
     </g>
     <g id="text_11">
      <!-- 0.4 -->
      <g transform="translate(34.696875 118.65981)scale(0.1 -0.1)">
       <use xlink:href="#DejaVuSans-48"/>
       <use x="63.623047" xlink:href="#DejaVuSans-46"/>
       <use x="95.410156" xlink:href="#DejaVuSans-52"/>
      </g>
     </g>
    </g>
    <g id="ytick_6">
     <g id="line2d_12">
      <g>
       <use style="stroke:#000000;stroke-width:0.8;" x="57.6" xlink:href="#md1b8febfd2" y="68.42681"/>
      </g>
     </g>
     <g id="text_12">
      <!-- 0.5 -->
      <defs>
       <path d="M 10.796875 72.90625 
L 49.515625 72.90625 
L 49.515625 64.59375 
L 19.828125 64.59375 
L 19.828125 46.734375 
Q 21.96875 47.46875 24.109375 47.828125 
Q 26.265625 48.1875 28.421875 48.1875 
Q 40.625 48.1875 47.75 41.5 
Q 54.890625 34.8125 54.890625 23.390625 
Q 54.890625 11.625 47.5625 5.09375 
Q 40.234375 -1.421875 26.90625 -1.421875 
Q 22.3125 -1.421875 17.546875 -0.640625 
Q 12.796875 0.140625 7.71875 1.703125 
L 7.71875 11.625 
Q 12.109375 9.234375 16.796875 8.0625 
Q 21.484375 6.890625 26.703125 6.890625 
Q 35.15625 6.890625 40.078125 11.328125 
Q 45.015625 15.765625 45.015625 23.390625 
Q 45.015625 31 40.078125 35.4375 
Q 35.15625 39.890625 26.703125 39.890625 
Q 22.75 39.890625 18.8125 39.015625 
Q 14.890625 38.140625 10.796875 36.28125 
z
" id="DejaVuSans-53"/>
      </defs>
      <g transform="translate(34.696875 72.226029)scale(0.1 -0.1)">
       <use xlink:href="#DejaVuSans-48"/>
       <use x="63.623047" xlink:href="#DejaVuSans-46"/>
       <use x="95.410156" xlink:href="#DejaVuSans-53"/>
      </g>
     </g>
    </g>
   </g>
   <g id="line2d_13">
    <path clip-path="url(#pe68670f0d9)" d="M 73.832727 295.023662 
L 74.157707 294.094987 
L 74.482686 293.630649 
L 74.807666 295.488 
L 75.132645 290.844622 
L 75.457625 291.30896 
L 75.782604 287.129919 
L 76.107584 290.380284 
L 76.432563 287.129919 
L 77.082523 285.272568 
L 77.732482 286.201244 
L 78.057461 285.736906 
L 78.382441 283.415217 
L 78.70742 284.343893 
L 79.0324 280.164852 
L 79.357379 281.557866 
L 79.682359 278.307501 
L 80.007338 276.914488 
L 80.332318 276.914488 
L 80.657297 275.521474 
L 80.982277 278.307501 
L 81.307256 269.94942 
L 81.632236 275.985812 
L 81.957215 271.806772 
L 82.282195 270.413758 
L 82.932154 275.057136 
L 83.257133 270.878096 
L 83.582113 268.556407 
L 83.907093 269.485083 
L 84.232072 266.234718 
L 84.557052 265.306042 
L 84.882031 266.234718 
L 85.53199 260.662664 
L 85.85697 259.269651 
L 86.181949 260.662664 
L 86.831908 259.733988 
L 87.156888 258.805313 
L 87.806847 255.554948 
L 88.131826 255.554948 
L 88.456806 253.697597 
L 88.781785 250.91157 
L 89.106765 253.697597 
L 89.431744 251.375908 
L 89.756724 246.73253 
L 90.406683 252.304583 
L 91.056642 248.125543 
L 91.381622 243.946503 
L 91.706601 248.125543 
L 92.031581 247.661205 
L 92.35656 243.482165 
L 92.68154 244.875179 
L 93.006519 242.553489 
L 93.331499 243.482165 
L 93.656478 242.553489 
L 93.981458 242.553489 
L 94.306437 245.339516 
L 94.631417 243.946503 
L 94.956396 239.767463 
L 95.281376 240.696138 
L 95.606355 239.767463 
L 96.256314 239.767463 
L 96.581294 239.303125 
L 96.906274 241.624814 
L 97.231253 237.910111 
L 97.556233 241.624814 
L 97.881212 235.124084 
L 98.206192 237.910111 
L 98.531171 234.659747 
L 98.856151 235.588422 
L 99.18113 235.588422 
L 99.831089 231.409382 
L 100.156069 230.945044 
L 100.481048 233.266733 
L 100.806028 229.552031 
L 101.131007 227.694679 
L 101.455987 230.016369 
L 101.780966 230.480706 
L 102.105946 231.87372 
L 102.430925 226.301666 
L 102.755905 230.945044 
L 103.080885 230.016369 
L 103.405864 225.37299 
L 103.730844 223.051301 
L 104.055823 223.051301 
L 104.380803 221.19395 
L 104.705782 222.586964 
L 105.030762 222.586964 
L 105.355741 220.729612 
L 105.680721 220.265274 
L 106.0057 220.729612 
L 106.33068 218.872261 
L 106.655659 218.407923 
L 106.980639 219.800937 
L 107.305618 216.550572 
L 107.630598 214.693221 
L 107.955577 213.764545 
L 108.280557 212.371532 
L 108.605536 215.157559 
L 108.930516 210.978518 
L 109.255495 213.764545 
L 109.580475 210.51418 
L 109.905455 210.51418 
L 110.230434 210.978518 
L 110.555414 210.978518 
L 110.880393 208.656829 
L 111.205373 208.656829 
L 111.530352 208.192491 
L 111.855332 203.084775 
L 112.180311 207.263816 
L 112.505291 204.013451 
L 112.83027 204.013451 
L 113.15525 204.942127 
L 113.480229 203.549113 
L 113.805209 205.870802 
L 114.455168 204.013451 
L 114.780147 205.870802 
L 115.755086 197.048384 
L 116.080066 202.1561 
L 116.405045 199.370073 
L 116.730025 198.905735 
L 117.379984 196.584046 
L 117.704963 196.119708 
L 118.029943 196.119708 
L 118.354922 200.763086 
L 118.679902 195.191033 
L 119.004881 197.512722 
L 119.329861 194.726695 
L 119.65484 196.584046 
L 119.97982 191.011992 
L 120.304799 193.333681 
L 120.629779 188.225965 
L 120.954758 191.940668 
L 121.279738 193.333681 
L 121.604717 192.405006 
L 121.929697 184.975601 
L 122.254676 190.083317 
L 122.579656 187.29729 
L 122.904636 185.904276 
L 123.229615 183.11825 
L 123.554595 184.975601 
L 123.879574 185.439939 
L 124.204554 190.547655 
L 124.529533 187.29729 
L 125.179492 183.582587 
L 125.504472 183.582587 
L 125.829451 188.225965 
L 126.47941 176.61752 
L 127.129369 181.260898 
L 127.779328 178.010534 
L 128.104308 183.582587 
L 128.429287 184.975601 
L 128.754267 178.939209 
L 129.079247 182.189574 
L 129.404226 177.546196 
L 129.729206 179.403547 
L 130.054185 177.081858 
L 130.379165 179.867885 
L 130.704144 174.295831 
L 131.029124 177.546196 
L 131.354103 178.010534 
L 131.679083 172.43848 
L 132.004062 176.153182 
L 132.654021 179.403547 
L 132.979001 174.760169 
L 133.30398 175.224507 
L 133.62896 179.867885 
L 133.953939 175.224507 
L 134.278919 172.902818 
L 134.603898 175.224507 
L 134.928878 176.153182 
L 135.253857 171.974142 
L 135.578837 171.974142 
L 135.903817 168.723777 
L 136.228796 166.866426 
L 136.553776 175.688845 
L 137.203735 164.544737 
L 137.528714 167.330764 
L 137.853694 166.402088 
L 138.178673 168.723777 
L 138.503653 168.723777 
L 138.828632 165.009075 
L 139.153612 165.009075 
L 139.478591 171.974142 
L 140.12855 165.93775 
L 140.45353 165.473413 
L 140.778509 161.294372 
L 141.103489 165.009075 
L 141.428468 166.866426 
L 141.753448 160.830035 
L 142.403407 165.473413 
L 142.728387 158.972683 
L 143.053366 161.75871 
L 143.378346 166.402088 
L 143.703325 159.901359 
L 144.028305 163.616061 
L 144.353284 163.151724 
L 144.678264 163.151724 
L 145.003243 166.866426 
L 145.328223 158.044008 
L 145.653202 159.437021 
L 145.978182 167.330764 
L 146.303161 162.223048 
L 146.95312 158.044008 
L 147.2781 156.650994 
L 147.928059 159.901359 
L 148.253038 158.972683 
L 148.578018 158.508345 
L 148.902998 155.257981 
L 149.227977 154.329305 
L 149.552957 155.722319 
L 149.877936 155.257981 
L 150.202916 158.508345 
L 150.527895 154.329305 
L 150.852875 156.650994 
L 151.177854 153.40063 
L 151.502834 155.722319 
L 151.827813 148.757251 
L 152.477772 155.722319 
L 153.127731 150.150265 
L 153.452711 150.614603 
L 153.77769 150.150265 
L 154.10267 143.649536 
L 154.427649 148.292914 
L 154.752629 148.292914 
L 155.077609 145.971225 
L 155.402588 148.757251 
L 155.727568 145.506887 
L 156.052547 146.8999 
L 156.377527 145.971225 
L 156.702506 150.614603 
L 157.027486 152.007616 
L 157.677445 145.042549 
L 158.002424 150.150265 
L 158.327404 152.936292 
L 158.652383 141.792184 
L 158.977363 147.828576 
L 159.302342 145.971225 
L 159.627322 145.042549 
L 159.952301 150.150265 
L 160.277281 145.506887 
L 160.60226 136.220131 
L 160.92724 145.506887 
L 161.252219 145.042549 
L 161.577199 143.649536 
L 161.902179 143.185198 
L 162.227158 143.185198 
L 162.552138 140.399171 
L 162.877117 141.327846 
L 163.202097 140.399171 
L 163.527076 141.327846 
L 163.852056 140.399171 
L 164.177035 138.54182 
L 164.826994 145.042549 
L 165.151974 140.863509 
L 165.476953 142.256522 
L 166.126912 136.684468 
L 166.451892 139.006157 
L 166.776871 143.649536 
L 167.101851 138.077482 
L 167.42683 139.006157 
L 167.75181 138.077482 
L 168.07679 140.399171 
L 168.401769 135.755793 
L 168.726749 135.291455 
L 169.051728 140.399171 
L 169.376708 135.755793 
L 169.701687 136.220131 
L 170.026667 134.362779 
L 170.351646 137.148806 
L 170.676626 138.54182 
L 171.651564 133.898441 
L 171.976544 131.576752 
L 172.301523 132.04109 
L 172.626503 138.077482 
L 173.276462 134.827117 
L 173.926421 137.613144 
L 174.2514 131.576752 
L 174.57638 129.255063 
L 174.90136 135.291455 
L 175.226339 135.755793 
L 175.551319 131.576752 
L 175.876298 134.362779 
L 176.201278 133.434104 
L 176.526257 130.183739 
L 176.851237 131.576752 
L 177.176216 128.790726 
L 177.501196 134.362779 
L 177.826175 137.148806 
L 178.151155 135.755793 
L 178.476134 132.969766 
L 178.801114 135.291455 
L 179.126093 134.827117 
L 179.451073 133.898441 
L 180.101032 129.719401 
L 180.426011 134.362779 
L 180.750991 132.04109 
L 181.075971 127.86205 
L 181.40095 131.112415 
L 181.72593 128.790726 
L 182.050909 132.505428 
L 182.375889 133.434104 
L 183.025848 126.469036 
L 183.350827 133.434104 
L 183.675807 125.540361 
L 184.000786 127.86205 
L 184.325766 126.933374 
L 184.650745 130.183739 
L 184.975725 125.540361 
L 185.300704 126.004699 
L 185.625684 128.790726 
L 185.950663 128.326388 
L 186.275643 125.540361 
L 186.600622 125.076023 
L 186.925602 125.076023 
L 187.250581 130.648077 
L 187.575561 124.611685 
L 187.900541 122.754334 
L 188.22552 126.004699 
L 188.5505 122.754334 
L 189.200459 126.004699 
L 189.525438 122.754334 
L 189.850418 121.825658 
L 190.175397 122.754334 
L 190.500377 125.076023 
L 190.825356 119.039631 
L 191.150336 125.540361 
L 191.475315 119.503969 
L 191.800295 127.86205 
L 192.125274 122.754334 
L 192.450254 122.289996 
L 192.775233 119.503969 
L 193.425192 124.611685 
L 193.750172 123.68301 
L 194.075152 121.825658 
L 194.400131 121.361321 
L 194.725111 118.110956 
L 195.05009 119.503969 
L 195.37507 118.110956 
L 195.700049 120.896983 
L 196.025029 127.397712 
L 196.350008 128.326388 
L 196.674988 122.289996 
L 196.999967 123.68301 
L 197.324947 123.218672 
L 197.974906 124.147347 
L 198.299885 118.110956 
L 198.624865 121.361321 
L 198.949844 122.289996 
L 199.274824 126.933374 
L 199.599803 127.397712 
L 199.924783 122.289996 
L 200.249762 125.540361 
L 200.574742 123.218672 
L 201.224701 125.076023 
L 201.549681 122.289996 
L 201.87466 124.611685 
L 202.19964 128.790726 
L 202.849599 123.218672 
L 203.174578 122.754334 
L 203.499558 125.076023 
L 203.824537 120.432645 
L 204.149517 120.896983 
L 204.474496 121.825658 
L 204.799476 126.469036 
L 205.124455 123.68301 
L 205.449435 117.646618 
L 205.774414 124.147347 
L 206.099394 124.147347 
L 206.424373 123.68301 
L 206.749353 126.469036 
L 207.074333 119.968307 
L 207.399312 117.646618 
L 207.724292 126.469036 
L 208.049271 124.611685 
L 208.374251 119.968307 
L 208.69923 124.611685 
L 209.674169 119.503969 
L 209.999148 123.218672 
L 210.324128 119.968307 
L 210.649107 123.68301 
L 210.974087 121.825658 
L 211.299066 117.18228 
L 211.624046 122.289996 
L 212.274005 116.717942 
L 212.598984 117.18228 
L 212.923964 118.110956 
L 213.248943 114.860591 
L 213.573923 117.646618 
L 213.898903 113.931916 
L 214.223882 115.789267 
L 214.548862 116.253605 
L 214.873841 120.432645 
L 215.198821 116.717942 
L 215.5238 119.039631 
L 215.84878 118.575294 
L 216.173759 110.681551 
L 216.498739 112.538902 
L 216.823718 116.717942 
L 217.148698 116.717942 
L 217.473677 113.00324 
L 217.798657 113.467578 
L 218.448616 113.467578 
L 218.773595 114.860591 
L 219.423554 115.789267 
L 219.748534 117.18228 
L 220.073514 115.789267 
L 220.398493 111.145889 
L 220.723473 113.467578 
L 221.048452 111.145889 
L 221.373432 114.860591 
L 221.698411 114.860591 
L 222.023391 117.18228 
L 222.34837 109.288537 
L 222.998329 115.789267 
L 223.323309 113.00324 
L 223.648288 113.467578 
L 223.973268 106.502511 
L 224.298247 118.110956 
L 224.623227 111.145889 
L 224.948206 116.717942 
L 225.923145 107.895524 
L 226.248124 117.18228 
L 226.573104 107.895524 
L 226.898084 112.074564 
L 227.223063 106.502511 
L 227.548043 110.217213 
L 227.873022 112.074564 
L 228.198002 110.217213 
L 228.522981 110.217213 
L 228.847961 116.253605 
L 229.17294 114.860591 
L 229.49792 108.8242 
L 229.822899 108.8242 
L 230.147879 115.789267 
L 230.472858 107.431186 
L 230.797838 108.8242 
L 231.122817 111.145889 
L 231.447797 105.573835 
L 231.772776 106.038173 
L 232.097756 106.038173 
L 232.422735 112.538902 
L 232.747715 109.752875 
L 233.072695 113.931916 
L 233.397674 108.359862 
L 233.722654 105.573835 
L 234.047633 114.860591 
L 234.372613 109.752875 
L 234.697592 100.930457 
L 235.022572 106.502511 
L 235.347551 106.502511 
L 235.99751 111.145889 
L 236.32249 107.895524 
L 236.647469 108.8242 
L 236.972449 110.217213 
L 237.297428 108.359862 
L 237.622408 111.145889 
L 237.947387 108.359862 
L 238.272367 100.930457 
L 238.597346 106.502511 
L 238.922326 106.966848 
L 239.247305 101.859132 
L 239.572285 113.467578 
L 239.897265 103.716484 
L 240.222244 104.645159 
L 240.547224 109.288537 
L 240.872203 106.502511 
L 241.197183 106.502511 
L 241.522162 102.787808 
L 241.847142 106.966848 
L 242.172121 105.573835 
L 242.497101 106.966848 
L 242.82208 105.573835 
L 243.472039 104.645159 
L 243.797019 99.073106 
L 244.121998 105.109497 
L 244.446978 99.073106 
L 244.771957 106.966848 
L 245.096937 105.573835 
L 245.421916 102.787808 
L 245.746896 103.716484 
L 246.071876 96.287079 
L 246.396855 101.859132 
L 246.721835 104.180821 
L 247.046814 104.180821 
L 247.371794 100.001781 
L 247.696773 106.502511 
L 248.021753 98.608768 
L 248.346732 103.252146 
L 248.671712 105.573835 
L 249.321671 99.537443 
L 249.64665 102.787808 
L 249.97163 98.608768 
L 250.296609 100.466119 
L 250.621589 94.894065 
L 250.946568 102.787808 
L 251.271548 97.215754 
L 251.596527 100.930457 
L 251.921507 98.14443 
L 252.246486 102.32347 
L 252.571466 98.14443 
L 252.896446 100.466119 
L 253.221425 99.537443 
L 253.871384 93.036714 
L 254.196364 93.036714 
L 254.521343 97.680092 
L 254.846323 92.108038 
L 255.171302 98.14443 
L 255.821261 97.215754 
L 256.146241 94.429727 
L 256.47122 94.429727 
L 256.7962 97.680092 
L 257.121179 104.645159 
L 257.446159 99.537443 
L 257.771138 99.537443 
L 258.096118 98.608768 
L 258.421097 97.215754 
L 259.071057 99.073106 
L 259.721016 94.429727 
L 260.045995 99.073106 
L 260.370975 93.036714 
L 260.695954 99.537443 
L 261.020934 98.14443 
L 261.345913 100.930457 
L 261.670893 98.608768 
L 261.995872 97.680092 
L 262.320852 93.501052 
L 262.645831 94.894065 
L 262.970811 101.859132 
L 263.29579 93.501052 
L 263.945749 97.215754 
L 264.270729 93.036714 
L 264.595708 93.96539 
L 264.920688 93.501052 
L 265.245667 90.250687 
L 265.570647 91.643701 
L 265.895627 87.928998 
L 266.220606 87.46466 
L 266.545586 96.287079 
L 266.870565 95.358403 
L 267.195545 93.036714 
L 267.520524 87.928998 
L 267.845504 94.894065 
L 268.170483 89.322012 
L 268.495463 95.822741 
L 268.820442 94.429727 
L 269.145422 89.322012 
L 269.470401 97.215754 
L 269.795381 89.786349 
L 270.12036 94.429727 
L 270.44534 91.643701 
L 270.770319 93.501052 
L 271.095299 88.857674 
L 271.420278 101.394795 
L 271.745258 91.643701 
L 272.070238 87.928998 
L 272.395217 88.393336 
L 272.720197 84.678633 
L 273.045176 89.322012 
L 273.695135 84.678633 
L 274.020115 84.678633 
L 274.670074 89.322012 
L 274.995053 86.535985 
L 275.320033 89.786349 
L 275.969992 83.749958 
L 276.294971 85.607309 
L 276.619951 84.678633 
L 276.94493 85.607309 
L 277.26991 94.894065 
L 277.594889 76.784891 
L 277.919869 80.035255 
L 278.244848 88.393336 
L 278.569828 87.46466 
L 278.894808 87.000322 
L 279.219787 78.642242 
L 279.544767 80.035255 
L 279.869746 87.928998 
L 280.194726 89.786349 
L 280.519705 83.749958 
L 280.844685 86.071647 
L 281.169664 85.607309 
L 281.494644 85.607309 
L 281.819623 87.000322 
L 282.144603 86.071647 
L 282.469582 80.499593 
L 282.794562 88.393336 
L 283.119541 76.784891 
L 283.444521 84.214296 
L 284.09448 88.393336 
L 284.419459 85.142971 
L 284.744439 85.142971 
L 285.069419 80.499593 
L 285.394398 83.749958 
L 285.719378 84.214296 
L 286.044357 80.499593 
L 286.369337 84.214296 
L 287.019296 86.071647 
L 287.344275 82.356944 
L 287.669255 80.035255 
L 288.319214 81.892607 
L 288.644193 87.46466 
L 288.969173 82.821282 
L 289.294152 83.28562 
L 289.619132 85.142971 
L 289.944111 84.678633 
L 290.269091 79.10658 
L 290.59407 79.570917 
L 290.91905 84.678633 
L 291.244029 83.28562 
L 291.569009 78.177904 
L 291.893989 84.214296 
L 292.218968 85.607309 
L 292.543948 85.142971 
L 292.868927 79.570917 
L 293.193907 84.214296 
L 293.518886 78.177904 
L 293.843866 78.177904 
L 294.168845 86.535985 
L 294.818804 80.035255 
L 295.143784 86.535985 
L 295.468763 86.071647 
L 295.793743 79.570917 
L 296.118722 80.499593 
L 296.443702 83.28562 
L 296.768681 80.963931 
L 297.093661 77.713566 
L 297.41864 84.214296 
L 298.0686 78.177904 
L 298.393579 73.070188 
L 298.718559 78.642242 
L 299.043538 73.998864 
L 299.368518 81.892607 
L 299.693497 82.356944 
L 300.018477 79.10658 
L 300.343456 85.607309 
L 300.668436 88.393336 
L 300.993415 80.963931 
L 301.318395 85.607309 
L 301.643374 79.10658 
L 301.968354 82.821282 
L 302.293333 84.214296 
L 302.618313 80.035255 
L 302.943292 82.821282 
L 303.268272 79.570917 
L 303.593251 77.713566 
L 304.24321 81.892607 
L 304.56819 80.035255 
L 304.89317 83.749958 
L 305.218149 80.035255 
L 305.543129 72.141512 
L 305.868108 81.892607 
L 306.193088 75.391877 
L 306.843047 80.035255 
L 307.168026 79.570917 
L 307.493006 72.60585 
L 307.817985 84.678633 
L 308.142965 80.499593 
L 308.467944 81.892607 
L 308.792924 79.10658 
L 309.117903 82.821282 
L 310.092842 77.713566 
L 310.417821 83.28562 
L 311.067781 76.784891 
L 311.71774 84.678633 
L 312.367699 79.10658 
L 312.692678 80.963931 
L 313.017658 73.534526 
L 313.342637 78.642242 
L 313.667617 74.927539 
L 313.992596 79.10658 
L 314.317576 78.177904 
L 314.642555 73.998864 
L 314.967535 80.035255 
L 315.292514 79.570917 
L 315.617494 71.677175 
L 315.942473 92.108038 
L 316.267453 80.499593 
L 316.592432 76.320553 
L 316.917412 82.821282 
L 317.242391 73.998864 
L 317.567371 80.035255 
L 317.892351 75.856215 
L 318.21733 77.713566 
L 318.54231 76.784891 
L 318.867289 70.284161 
L 319.192269 75.856215 
L 319.517248 73.534526 
L 319.842228 78.642242 
L 320.167207 68.891148 
L 320.492187 76.320553 
L 320.817166 73.534526 
L 321.142146 75.856215 
L 321.467125 75.391877 
L 321.792105 70.284161 
L 322.117084 75.391877 
L 322.442064 71.677175 
L 322.767043 77.249228 
L 323.092023 72.141512 
L 323.417002 76.320553 
L 323.741982 78.642242 
L 324.066962 83.28562 
L 324.391941 75.391877 
L 324.716921 74.927539 
L 325.0419 79.570917 
L 325.36688 78.177904 
L 325.691859 71.677175 
L 326.016839 74.927539 
L 326.341818 73.070188 
L 326.666798 79.570917 
L 326.991777 78.177904 
L 327.316757 77.713566 
L 327.641736 78.642242 
L 327.966716 73.534526 
L 328.291695 76.784891 
L 328.616675 67.962472 
L 328.941654 77.249228 
L 329.266634 73.998864 
L 329.591613 73.998864 
L 329.916593 70.284161 
L 330.241572 71.677175 
L 330.566552 74.927539 
L 330.891532 71.212837 
L 331.216511 76.784891 
L 331.86647 72.60585 
L 332.19145 80.499593 
L 332.516429 71.677175 
L 332.841409 70.284161 
L 333.166388 71.677175 
L 333.491368 65.176445 
L 333.816347 78.177904 
L 334.141327 70.284161 
L 334.791286 69.355486 
L 335.116265 72.60585 
L 335.441245 74.463202 
L 335.766224 72.60585 
L 336.091204 72.141512 
L 336.416183 67.498134 
L 336.741163 73.070188 
L 337.066143 68.42681 
L 337.391122 70.284161 
L 337.716102 74.463202 
L 338.041081 68.42681 
L 338.366061 70.748499 
L 338.69104 68.42681 
L 339.01602 69.819823 
L 339.340999 67.033797 
L 339.665979 65.640783 
L 339.990958 69.355486 
L 340.315938 68.42681 
L 340.965897 68.42681 
L 341.290876 61.461743 
L 341.615856 67.498134 
L 341.940835 71.212837 
L 342.265815 69.819823 
L 342.590794 69.819823 
L 342.915774 70.748499 
L 343.240753 67.962472 
L 343.565733 69.355486 
L 343.890713 68.42681 
L 344.215692 62.854756 
L 344.865651 70.748499 
L 345.190631 67.498134 
L 345.51561 62.854756 
L 346.165569 69.819823 
L 346.490549 60.533067 
L 346.815528 65.176445 
L 347.140508 72.141512 
L 347.790467 65.640783 
L 348.440426 70.748499 
L 348.765405 65.640783 
L 349.740344 73.070188 
L 350.065324 68.891148 
L 350.715283 67.962472 
L 351.040262 64.24777 
L 351.365242 62.854756 
L 351.690221 65.640783 
L 352.015201 66.569459 
L 352.34018 66.105121 
L 352.66516 64.712107 
L 352.990139 65.640783 
L 353.315119 67.498134 
L 353.640098 71.212837 
L 353.965078 63.783432 
L 354.290057 67.033797 
L 354.940016 64.24777 
L 355.264996 65.176445 
L 355.589975 67.962472 
L 355.914955 75.391877 
L 356.239934 67.498134 
L 356.564914 68.42681 
L 356.889894 67.962472 
L 357.214873 66.569459 
L 357.539853 62.854756 
L 357.864832 67.962472 
L 358.189812 63.783432 
L 358.514791 64.24777 
L 358.839771 61.461743 
L 359.16475 61.926081 
L 359.48973 67.498134 
L 360.139689 58.675716 
L 360.464668 60.997405 
L 360.789648 67.962472 
L 361.114627 67.962472 
L 361.439607 63.783432 
L 361.764586 68.891148 
L 362.089566 63.319094 
L 362.739525 67.962472 
L 363.064505 66.569459 
L 363.714464 58.675716 
L 364.039443 68.42681 
L 364.364423 63.783432 
L 364.689402 65.176445 
L 365.014382 64.24777 
L 365.339361 67.033797 
L 365.664341 63.783432 
L 365.98932 65.640783 
L 366.3143 63.319094 
L 366.639279 66.569459 
L 366.964259 60.533067 
L 367.289238 63.319094 
L 367.614218 57.74704 
L 367.939197 60.068729 
L 368.264177 67.033797 
L 368.589156 61.461743 
L 368.914136 63.783432 
L 369.239115 70.284161 
L 369.564095 64.24777 
L 369.889075 65.640783 
L 370.214054 59.604392 
L 370.539034 61.461743 
L 370.864013 68.42681 
L 371.513972 59.604392 
L 371.838952 68.891148 
L 372.163931 61.461743 
L 372.488911 64.712107 
L 372.81389 60.997405 
L 373.13887 65.176445 
L 373.463849 59.604392 
L 373.788829 60.533067 
L 374.113808 60.533067 
L 374.438788 60.068729 
L 374.763767 70.748499 
L 375.088747 73.998864 
L 375.413726 64.24777 
L 375.738706 66.569459 
L 376.063686 63.783432 
L 376.388665 69.355486 
L 376.713645 61.926081 
L 377.038624 60.997405 
L 377.363604 56.354027 
L 377.688583 68.42681 
L 378.013563 66.105121 
L 378.338542 65.176445 
L 378.663522 60.533067 
L 378.988501 60.533067 
L 379.313481 69.819823 
L 379.63846 63.783432 
L 379.96344 62.390418 
L 380.288419 61.926081 
L 380.613399 61.926081 
L 380.938378 62.390418 
L 381.263358 65.640783 
L 381.588337 64.712107 
L 381.913317 62.854756 
L 382.238296 59.604392 
L 382.563276 62.854756 
L 382.888256 64.24777 
L 383.213235 64.712107 
L 383.538215 63.319094 
L 383.863194 59.140054 
L 384.188174 62.854756 
L 384.513153 64.712107 
L 384.838133 60.533067 
L 385.163112 61.926081 
L 385.488092 60.997405 
L 385.813071 60.533067 
L 386.138051 56.818365 
L 386.46303 54.961013 
L 386.78801 56.818365 
L 387.112989 69.355486 
L 387.437969 67.962472 
L 387.762948 61.926081 
L 388.087928 58.675716 
L 388.737887 61.926081 
L 389.062867 61.461743 
L 389.387846 58.211378 
L 389.712826 63.319094 
L 390.037805 65.640783 
L 390.362785 55.889689 
L 390.687764 60.997405 
L 391.337723 60.997405 
L 391.662703 56.354027 
L 391.987682 56.354027 
L 392.312662 60.997405 
L 392.637641 53.568 
L 392.962621 57.74704 
L 393.2876 57.282702 
L 393.61258 60.997405 
L 393.937559 53.568 
L 394.262539 60.068729 
L 394.587518 53.568 
L 394.912498 59.604392 
L 395.237477 59.140054 
L 395.887437 62.854756 
L 396.212416 57.74704 
L 396.537396 59.140054 
L 396.862375 54.961013 
L 397.187355 58.211378 
L 397.512334 55.425351 
L 397.837314 54.032338 
L 398.162293 54.961013 
L 398.487273 57.282702 
L 398.487273 57.282702 
" style="fill:none;stroke:#1f77b4;stroke-linecap:square;stroke-width:1.5;"/>
   </g>
   <g id="patch_3">
    <path d="M 57.6 307.584 
L 57.6 41.472 
" style="fill:none;stroke:#000000;stroke-linecap:square;stroke-linejoin:miter;stroke-width:0.8;"/>
   </g>
   <g id="patch_4">
    <path d="M 414.72 307.584 
L 414.72 41.472 
" style="fill:none;stroke:#000000;stroke-linecap:square;stroke-linejoin:miter;stroke-width:0.8;"/>
   </g>
   <g id="patch_5">
    <path d="M 57.6 307.584 
L 414.72 307.584 
" style="fill:none;stroke:#000000;stroke-linecap:square;stroke-linejoin:miter;stroke-width:0.8;"/>
   </g>
   <g id="patch_6">
    <path d="M 57.6 41.472 
L 414.72 41.472 
" style="fill:none;stroke:#000000;stroke-linecap:square;stroke-linejoin:miter;stroke-width:0.8;"/>
   </g>
   <g id="text_13">
    <!-- % Optimal Action -->
    <defs>
     <path d="M 72.703125 32.078125 
Q 68.453125 32.078125 66.03125 28.46875 
Q 63.625 24.859375 63.625 18.40625 
Q 63.625 12.0625 66.03125 8.421875 
Q 68.453125 4.78125 72.703125 4.78125 
Q 76.859375 4.78125 79.265625 8.421875 
Q 81.6875 12.0625 81.6875 18.40625 
Q 81.6875 24.8125 79.265625 28.4375 
Q 76.859375 32.078125 72.703125 32.078125 
z
M 72.703125 38.28125 
Q 80.421875 38.28125 84.953125 32.90625 
Q 89.5 27.546875 89.5 18.40625 
Q 89.5 9.28125 84.9375 3.921875 
Q 80.375 -1.421875 72.703125 -1.421875 
Q 64.890625 -1.421875 60.34375 3.921875 
Q 55.8125 9.28125 55.8125 18.40625 
Q 55.8125 27.59375 60.375 32.9375 
Q 64.9375 38.28125 72.703125 38.28125 
z
M 22.3125 68.015625 
Q 18.109375 68.015625 15.6875 64.375 
Q 13.28125 60.75 13.28125 54.390625 
Q 13.28125 47.953125 15.671875 44.328125 
Q 18.0625 40.71875 22.3125 40.71875 
Q 26.5625 40.71875 28.96875 44.328125 
Q 31.390625 47.953125 31.390625 54.390625 
Q 31.390625 60.6875 28.953125 64.34375 
Q 26.515625 68.015625 22.3125 68.015625 
z
M 66.40625 74.21875 
L 74.21875 74.21875 
L 28.609375 -1.421875 
L 20.796875 -1.421875 
z
M 22.3125 74.21875 
Q 30.03125 74.21875 34.609375 68.875 
Q 39.203125 63.53125 39.203125 54.390625 
Q 39.203125 45.171875 34.640625 39.84375 
Q 30.078125 34.515625 22.3125 34.515625 
Q 14.546875 34.515625 10.03125 39.859375 
Q 5.515625 45.21875 5.515625 54.390625 
Q 5.515625 63.484375 10.046875 68.84375 
Q 14.59375 74.21875 22.3125 74.21875 
z
" id="DejaVuSans-37"/>
     <path id="DejaVuSans-32"/>
     <path d="M 39.40625 66.21875 
Q 28.65625 66.21875 22.328125 58.203125 
Q 16.015625 50.203125 16.015625 36.375 
Q 16.015625 22.609375 22.328125 14.59375 
Q 28.65625 6.59375 39.40625 6.59375 
Q 50.140625 6.59375 56.421875 14.59375 
Q 62.703125 22.609375 62.703125 36.375 
Q 62.703125 50.203125 56.421875 58.203125 
Q 50.140625 66.21875 39.40625 66.21875 
z
M 39.40625 74.21875 
Q 54.734375 74.21875 63.90625 63.9375 
Q 73.09375 53.65625 73.09375 36.375 
Q 73.09375 19.140625 63.90625 8.859375 
Q 54.734375 -1.421875 39.40625 -1.421875 
Q 24.03125 -1.421875 14.8125 8.828125 
Q 5.609375 19.09375 5.609375 36.375 
Q 5.609375 53.65625 14.8125 63.9375 
Q 24.03125 74.21875 39.40625 74.21875 
z
" id="DejaVuSans-79"/>
     <path d="M 18.109375 8.203125 
L 18.109375 -20.796875 
L 9.078125 -20.796875 
L 9.078125 54.6875 
L 18.109375 54.6875 
L 18.109375 46.390625 
Q 20.953125 51.265625 25.265625 53.625 
Q 29.59375 56 35.59375 56 
Q 45.5625 56 51.78125 48.09375 
Q 58.015625 40.1875 58.015625 27.296875 
Q 58.015625 14.40625 51.78125 6.484375 
Q 45.5625 -1.421875 35.59375 -1.421875 
Q 29.59375 -1.421875 25.265625 0.953125 
Q 20.953125 3.328125 18.109375 8.203125 
z
M 48.6875 27.296875 
Q 48.6875 37.203125 44.609375 42.84375 
Q 40.53125 48.484375 33.40625 48.484375 
Q 26.265625 48.484375 22.1875 42.84375 
Q 18.109375 37.203125 18.109375 27.296875 
Q 18.109375 17.390625 22.1875 11.75 
Q 26.265625 6.109375 33.40625 6.109375 
Q 40.53125 6.109375 44.609375 11.75 
Q 48.6875 17.390625 48.6875 27.296875 
z
" id="DejaVuSans-112"/>
     <path d="M 18.3125 70.21875 
L 18.3125 54.6875 
L 36.8125 54.6875 
L 36.8125 47.703125 
L 18.3125 47.703125 
L 18.3125 18.015625 
Q 18.3125 11.328125 20.140625 9.421875 
Q 21.96875 7.515625 27.59375 7.515625 
L 36.8125 7.515625 
L 36.8125 0 
L 27.59375 0 
Q 17.1875 0 13.234375 3.875 
Q 9.28125 7.765625 9.28125 18.015625 
L 9.28125 47.703125 
L 2.6875 47.703125 
L 2.6875 54.6875 
L 9.28125 54.6875 
L 9.28125 70.21875 
z
" id="DejaVuSans-116"/>
     <path d="M 9.421875 54.6875 
L 18.40625 54.6875 
L 18.40625 0 
L 9.421875 0 
z
M 9.421875 75.984375 
L 18.40625 75.984375 
L 18.40625 64.59375 
L 9.421875 64.59375 
z
" id="DejaVuSans-105"/>
     <path d="M 52 44.1875 
Q 55.375 50.25 60.0625 53.125 
Q 64.75 56 71.09375 56 
Q 79.640625 56 84.28125 50.015625 
Q 88.921875 44.046875 88.921875 33.015625 
L 88.921875 0 
L 79.890625 0 
L 79.890625 32.71875 
Q 79.890625 40.578125 77.09375 44.375 
Q 74.3125 48.1875 68.609375 48.1875 
Q 61.625 48.1875 57.5625 43.546875 
Q 53.515625 38.921875 53.515625 30.90625 
L 53.515625 0 
L 44.484375 0 
L 44.484375 32.71875 
Q 44.484375 40.625 41.703125 44.40625 
Q 38.921875 48.1875 33.109375 48.1875 
Q 26.21875 48.1875 22.15625 43.53125 
Q 18.109375 38.875 18.109375 30.90625 
L 18.109375 0 
L 9.078125 0 
L 9.078125 54.6875 
L 18.109375 54.6875 
L 18.109375 46.1875 
Q 21.1875 51.21875 25.484375 53.609375 
Q 29.78125 56 35.6875 56 
Q 41.65625 56 45.828125 52.96875 
Q 50 49.953125 52 44.1875 
z
" id="DejaVuSans-109"/>
     <path d="M 34.28125 27.484375 
Q 23.390625 27.484375 19.1875 25 
Q 14.984375 22.515625 14.984375 16.5 
Q 14.984375 11.71875 18.140625 8.90625 
Q 21.296875 6.109375 26.703125 6.109375 
Q 34.1875 6.109375 38.703125 11.40625 
Q 43.21875 16.703125 43.21875 25.484375 
L 43.21875 27.484375 
z
M 52.203125 31.203125 
L 52.203125 0 
L 43.21875 0 
L 43.21875 8.296875 
Q 40.140625 3.328125 35.546875 0.953125 
Q 30.953125 -1.421875 24.3125 -1.421875 
Q 15.921875 -1.421875 10.953125 3.296875 
Q 6 8.015625 6 15.921875 
Q 6 25.140625 12.171875 29.828125 
Q 18.359375 34.515625 30.609375 34.515625 
L 43.21875 34.515625 
L 43.21875 35.40625 
Q 43.21875 41.609375 39.140625 45 
Q 35.0625 48.390625 27.6875 48.390625 
Q 23 48.390625 18.546875 47.265625 
Q 14.109375 46.140625 10.015625 43.890625 
L 10.015625 52.203125 
Q 14.9375 54.109375 19.578125 55.046875 
Q 24.21875 56 28.609375 56 
Q 40.484375 56 46.34375 49.84375 
Q 52.203125 43.703125 52.203125 31.203125 
z
" id="DejaVuSans-97"/>
     <path d="M 9.421875 75.984375 
L 18.40625 75.984375 
L 18.40625 0 
L 9.421875 0 
z
" id="DejaVuSans-108"/>
     <path d="M 34.1875 63.1875 
L 20.796875 26.90625 
L 47.609375 26.90625 
z
M 28.609375 72.90625 
L 39.796875 72.90625 
L 67.578125 0 
L 57.328125 0 
L 50.6875 18.703125 
L 17.828125 18.703125 
L 11.1875 0 
L 0.78125 0 
z
" id="DejaVuSans-65"/>
     <path d="M 48.78125 52.59375 
L 48.78125 44.1875 
Q 44.96875 46.296875 41.140625 47.34375 
Q 37.3125 48.390625 33.40625 48.390625 
Q 24.65625 48.390625 19.8125 42.84375 
Q 14.984375 37.3125 14.984375 27.296875 
Q 14.984375 17.28125 19.8125 11.734375 
Q 24.65625 6.203125 33.40625 6.203125 
Q 37.3125 6.203125 41.140625 7.25 
Q 44.96875 8.296875 48.78125 10.40625 
L 48.78125 2.09375 
Q 45.015625 0.34375 40.984375 -0.53125 
Q 36.96875 -1.421875 32.421875 -1.421875 
Q 20.0625 -1.421875 12.78125 6.34375 
Q 5.515625 14.109375 5.515625 27.296875 
Q 5.515625 40.671875 12.859375 48.328125 
Q 20.21875 56 33.015625 56 
Q 37.15625 56 41.109375 55.140625 
Q 45.0625 54.296875 48.78125 52.59375 
z
" id="DejaVuSans-99"/>
     <path d="M 30.609375 48.390625 
Q 23.390625 48.390625 19.1875 42.75 
Q 14.984375 37.109375 14.984375 27.296875 
Q 14.984375 17.484375 19.15625 11.84375 
Q 23.34375 6.203125 30.609375 6.203125 
Q 37.796875 6.203125 41.984375 11.859375 
Q 46.1875 17.53125 46.1875 27.296875 
Q 46.1875 37.015625 41.984375 42.703125 
Q 37.796875 48.390625 30.609375 48.390625 
z
M 30.609375 56 
Q 42.328125 56 49.015625 48.375 
Q 55.71875 40.765625 55.71875 27.296875 
Q 55.71875 13.875 49.015625 6.21875 
Q 42.328125 -1.421875 30.609375 -1.421875 
Q 18.84375 -1.421875 12.171875 6.21875 
Q 5.515625 13.875 5.515625 27.296875 
Q 5.515625 40.765625 12.171875 48.375 
Q 18.84375 56 30.609375 56 
z
" id="DejaVuSans-111"/>
     <path d="M 54.890625 33.015625 
L 54.890625 0 
L 45.90625 0 
L 45.90625 32.71875 
Q 45.90625 40.484375 42.875 44.328125 
Q 39.84375 48.1875 33.796875 48.1875 
Q 26.515625 48.1875 22.3125 43.546875 
Q 18.109375 38.921875 18.109375 30.90625 
L 18.109375 0 
L 9.078125 0 
L 9.078125 54.6875 
L 18.109375 54.6875 
L 18.109375 46.1875 
Q 21.34375 51.125 25.703125 53.5625 
Q 30.078125 56 35.796875 56 
Q 45.21875 56 50.046875 50.171875 
Q 54.890625 44.34375 54.890625 33.015625 
z
" id="DejaVuSans-110"/>
    </defs>
    <g transform="translate(184.010625 35.472)scale(0.12 -0.12)">
     <use xlink:href="#DejaVuSans-37"/>
     <use x="95.019531" xlink:href="#DejaVuSans-32"/>
     <use x="126.806641" xlink:href="#DejaVuSans-79"/>
     <use x="205.517578" xlink:href="#DejaVuSans-112"/>
     <use x="268.994141" xlink:href="#DejaVuSans-116"/>
     <use x="308.203125" xlink:href="#DejaVuSans-105"/>
     <use x="335.986328" xlink:href="#DejaVuSans-109"/>
     <use x="433.398438" xlink:href="#DejaVuSans-97"/>
     <use x="494.677734" xlink:href="#DejaVuSans-108"/>
     <use x="522.460938" xlink:href="#DejaVuSans-32"/>
     <use x="554.248047" xlink:href="#DejaVuSans-65"/>
     <use x="622.640625" xlink:href="#DejaVuSans-99"/>
     <use x="677.621094" xlink:href="#DejaVuSans-116"/>
     <use x="716.830078" xlink:href="#DejaVuSans-105"/>
     <use x="744.613281" xlink:href="#DejaVuSans-111"/>
     <use x="805.794922" xlink:href="#DejaVuSans-110"/>
    </g>
   </g>
  </g>
 </g>
 <defs>
  <clipPath id="pe68670f0d9">
   <rect height="266.112" width="357.12" x="57.6" y="41.472"/>
  </clipPath>
 </defs>
</svg>
